M48
; DRILL file {KiCad 9.0.2} date 2025-06-19T15:47:43+1200
; FORMAT={-:-/ absolute / inch / decimal}
; #@! TF.CreationDate,2025-06-19T15:47:43+12:00
; #@! TF.GenerationSoftware,Kicad,Pcbnew,9.0.2
; #@! TF.FileFunction,Plated,1,2,PTH
FMAT,2
INCH
; #@! TA.AperFunction,Plated,PTH,ViaDrill
T1C0.0118
; #@! TA.AperFunction,Plated,PTH,ComponentDrill
T2C0.0118
; #@! TA.AperFunction,Plated,PTH,ComponentDrill
T3C0.0315
; #@! TA.AperFunction,Plated,PTH,ComponentDrill
T4C0.0400
; #@! TA.AperFunction,Plated,PTH,ComponentDrill
T5C0.0410
; #@! TA.AperFunction,Plated,PTH,ComponentDrill
T6C0.0472
; #@! TA.AperFunction,Plated,PTH,ComponentDrill
T7C0.0512
%
G90
G05
T1
X2.9823Y-3.3858
X3.1791Y-4.1732
X3.1791Y-4.2126
X3.1791Y-4.252
X3.2185Y-4.1732
X3.2185Y-4.2126
X3.2185Y-4.252
X3.2579Y-4.1732
X3.2579Y-4.2126
X3.2579Y-4.252
X3.3661Y-3.7205
X3.4055Y-3.7205
X3.4449Y-3.7205
X3.4843Y-3.6417
X3.4843Y-3.6811
X3.4843Y-3.7205
X3.5236Y-3.6417
X3.5236Y-3.6811
X3.5236Y-3.7205
X3.563Y-3.6417
X3.563Y-3.6811
X3.563Y-3.7205
X3.7402Y-4.1732
X3.7402Y-4.2126
X3.7402Y-4.252
X3.7795Y-4.1732
X3.7795Y-4.2126
X3.7795Y-4.252
X3.8189Y-4.1732
X3.8189Y-4.2126
X3.8189Y-4.252
X3.9449Y-3.689
X4.2795Y-4.9852
X4.4055Y-4.7608
X4.4055Y-4.7963
X4.4055Y-4.8278
X4.4055Y-4.8632
X4.4055Y-4.8947
X4.4409Y-4.5945
X4.4409Y-4.622
X4.4409Y-4.6575
X4.4409Y-4.7608
X4.4409Y-4.7963
X4.4409Y-4.8278
X4.4409Y-4.8632
X4.4409Y-4.8947
X4.4444Y-4.5625
X4.466Y-4.5408
X4.4803Y-4.7608
X4.4803Y-4.7963
X4.4803Y-4.8278
X4.4803Y-4.8632
X4.4803Y-4.8947
X4.4857Y-4.5211
X4.5197Y-4.5187
X4.5512Y-4.5187
X4.5984Y-4.7756
X4.6929Y-4.7795
X4.749Y-4.8937
X4.7913Y-4.7795
X4.8976Y-4.7008
T2
X3.126Y-3.4691
X3.126Y-3.5124
X3.126Y-3.5636
X3.126Y-3.6108
X3.1732Y-3.4691
X3.1732Y-3.5124
X3.1732Y-3.5636
X3.1732Y-3.6108
T3
X1.9252Y-1.6912
X2.2205Y-1.8054
T4
X2.571Y-2.656
X2.571Y-2.956
X2.571Y-3.356
X2.571Y-3.456
T5
X2.9232Y-1.8112
X2.9232Y-2.0278
X5.3445Y-1.8112
X5.3445Y-2.1656
T6
X2.5374Y-1.6853
X2.5374Y-2.2759
X3.6181Y-4.6535
X3.6181Y-4.8504
X4.5433Y-3.401
X4.5433Y-3.5978
T7
X2.0329Y-3.3438
X2.0329Y-3.5406
X2.0413Y-2.0608
X2.0413Y-2.2577
X2.0413Y-2.4545
X2.0413Y-2.6514
X2.0413Y-2.8482
X5.2556Y-3.4119
X5.2556Y-3.6088
X5.2556Y-3.937
X5.2556Y-4.1339
X5.2556Y-4.3307
X5.2559Y-4.6654
X5.2559Y-4.8622
M30
