%TF.GenerationSoftware,KiCad,Pcbnew,9.0.2*%
%TF.CreationDate,2025-06-19T15:47:43+12:00*%
%TF.ProjectId,ES-Speed-Box-Power,45532d53-7065-4656-942d-426f782d506f,rev?*%
%TF.SameCoordinates,Original*%
%TF.FileFunction,Copper,L2,Bot*%
%TF.FilePolarity,Positive*%
%FSLAX46Y46*%
G04 Gerber Fmt 4.6, Leading zero omitted, Abs format (unit mm)*
G04 Created by KiCad (PCBNEW 9.0.2) date 2025-06-19 15:47:43*
%MOMM*%
%LPD*%
G01*
G04 APERTURE LIST*
G04 Aperture macros list*
%AMRoundRect*
0 Rectangle with rounded corners*
0 $1 Rounding radius*
0 $2 $3 $4 $5 $6 $7 $8 $9 X,Y pos of 4 corners*
0 Add a 4 corners polygon primitive as box body*
4,1,4,$2,$3,$4,$5,$6,$7,$8,$9,$2,$3,0*
0 Add four circle primitives for the rounded corners*
1,1,$1+$1,$2,$3*
1,1,$1+$1,$4,$5*
1,1,$1+$1,$6,$7*
1,1,$1+$1,$8,$9*
0 Add four rect primitives between the rounded corners*
20,1,$1+$1,$2,$3,$4,$5,0*
20,1,$1+$1,$4,$5,$6,$7,0*
20,1,$1+$1,$6,$7,$8,$9,0*
20,1,$1+$1,$8,$9,$2,$3,0*%
G04 Aperture macros list end*
%TA.AperFunction,ComponentPad*%
%ADD10R,3.000000X3.000000*%
%TD*%
%TA.AperFunction,ComponentPad*%
%ADD11C,3.000000*%
%TD*%
%TA.AperFunction,ComponentPad*%
%ADD12C,0.600000*%
%TD*%
%TA.AperFunction,SMDPad,CuDef*%
%ADD13R,2.950000X4.500000*%
%TD*%
%TA.AperFunction,ComponentPad*%
%ADD14C,2.400000*%
%TD*%
%TA.AperFunction,ComponentPad*%
%ADD15RoundRect,0.250001X-0.949999X0.949999X-0.949999X-0.949999X0.949999X-0.949999X0.949999X0.949999X0*%
%TD*%
%TA.AperFunction,ComponentPad*%
%ADD16C,1.524000*%
%TD*%
%TA.AperFunction,ComponentPad*%
%ADD17C,1.549400*%
%TD*%
%TA.AperFunction,ComponentPad*%
%ADD18C,1.800000*%
%TD*%
%TA.AperFunction,SMDPad,CuDef*%
%ADD19RoundRect,0.249999X1.075001X-0.450001X1.075001X0.450001X-1.075001X0.450001X-1.075001X-0.450001X0*%
%TD*%
%TA.AperFunction,ViaPad*%
%ADD20C,0.600000*%
%TD*%
%TA.AperFunction,Conductor*%
%ADD21C,1.600000*%
%TD*%
%TA.AperFunction,Conductor*%
%ADD22C,0.400000*%
%TD*%
%TA.AperFunction,Conductor*%
%ADD23C,0.600000*%
%TD*%
%TA.AperFunction,Conductor*%
%ADD24C,0.200000*%
%TD*%
G04 APERTURE END LIST*
D10*
%TO.P,J1,1,Pin_1*%
%TO.N,EARTH*%
X51850000Y-72345000D03*
D11*
%TO.P,J1,3,Pin_3*%
%TO.N,PHASE*%
X51850000Y-62345000D03*
%TO.P,J1,5,Pin_5*%
%TO.N,NEUTRAL*%
X51850000Y-52345000D03*
%TD*%
D10*
%TO.P,J4,1,Pin_1*%
%TO.N,+12VDC*%
X133492500Y-86662500D03*
D11*
%TO.P,J4,2,Pin_2*%
%TO.N,GND*%
X133492500Y-91662500D03*
%TD*%
D12*
%TO.P,U2,9,GNDPAD*%
%TO.N,-24VDC*%
X80600000Y-91714998D03*
X80600000Y-90514998D03*
X80600000Y-89214998D03*
X80600000Y-88114998D03*
D13*
X80000000Y-89914998D03*
D12*
X79400000Y-91714998D03*
X79400000Y-90514998D03*
X79400000Y-89214998D03*
X79400000Y-88114998D03*
%TD*%
D10*
%TO.P,J5,1,Pin_1*%
%TO.N,+18VDC*%
X133500000Y-118500000D03*
D11*
%TO.P,J5,2,Pin_2*%
%TO.N,GND*%
X133500000Y-123500000D03*
%TD*%
D14*
%TO.P,C1,1*%
%TO.N,PHASE*%
X64450000Y-57807500D03*
%TO.P,C1,2*%
%TO.N,NEUTRAL*%
X64450000Y-42807500D03*
%TD*%
D15*
%TO.P,C208,1*%
%TO.N,+12VDC*%
X91900000Y-118200000D03*
D14*
%TO.P,C208,2*%
%TO.N,GND*%
X91900000Y-123200000D03*
%TD*%
D16*
%TO.P,S1,1,OUT1*%
%TO.N,PHASE*%
X65304100Y-67462300D03*
%TO.P,S1,2,OUT2*%
%TO.N,PHASE_SWITCHED*%
X65304100Y-75082300D03*
%TO.P,S1,3,IN+*%
%TO.N,/Power - Mains Input & 12V Trigger/TRIGGER+*%
X65304100Y-85242300D03*
%TO.P,S1,4,IN-*%
%TO.N,/Power - Mains Input & 12V Trigger/TRIGGER-*%
X65304100Y-87782300D03*
%TD*%
D15*
%TO.P,C200,1*%
%TO.N,+12VDC*%
X115400000Y-86384785D03*
D14*
%TO.P,C200,2*%
%TO.N,GND*%
X115400000Y-91384785D03*
%TD*%
D17*
%TO.P,U1,1,AC/L*%
%TO.N,PHASE_SWITCHED*%
X74249998Y-46005501D03*
%TO.P,U1,2,AC/N*%
%TO.N,NEUTRAL*%
X74249998Y-51505501D03*
%TO.P,U1,3,V+*%
%TO.N,+12VDC*%
X135750002Y-55005501D03*
%TO.P,U1,4,V-*%
%TO.N,GND*%
X135750002Y-46005501D03*
%TD*%
D18*
%TO.P,RV1,1*%
%TO.N,PHASE*%
X56400000Y-45857500D03*
%TO.P,RV1,2*%
%TO.N,NEUTRAL*%
X48900000Y-42957500D03*
%TD*%
D10*
%TO.P,J2,1,Pin_1*%
%TO.N,/Power - Mains Input & 12V Trigger/TRIGGER+*%
X51636600Y-89932300D03*
D11*
%TO.P,J2,2,Pin_2*%
%TO.N,/Power - Mains Input & 12V Trigger/TRIGGER-*%
X51636600Y-84932300D03*
%TD*%
D10*
%TO.P,J3,1,Pin_1*%
%TO.N,+24VDC*%
X133492500Y-100000000D03*
D11*
%TO.P,J3,2,Pin_2*%
%TO.N,GND*%
X133492500Y-105000000D03*
%TO.P,J3,3,Pin_3*%
%TO.N,-24VDC*%
X133492500Y-110000000D03*
%TD*%
D19*
%TO.P,R2,1*%
%TO.N,Net-(R1-Pad2)*%
X67312500Y-48745000D03*
%TO.P,R2,2*%
%TO.N,NEUTRAL*%
X67312500Y-43945000D03*
%TD*%
%TO.P,R1,1*%
%TO.N,PHASE*%
X67312500Y-56945000D03*
%TO.P,R1,2*%
%TO.N,Net-(R1-Pad2)*%
X67312500Y-52145000D03*
%TD*%
D20*
%TO.N,GND*%
X112886578Y-115886578D03*
X85500000Y-94500000D03*
X96000000Y-106000000D03*
X112800000Y-124325000D03*
X111900000Y-120925000D03*
X115600000Y-114774999D03*
X80750000Y-106000000D03*
X90500000Y-94500000D03*
X88500000Y-92500000D03*
X81750000Y-107000000D03*
X112800000Y-122625000D03*
X95000000Y-106000000D03*
X80750000Y-107000000D03*
X88500000Y-93500000D03*
X89500000Y-92500000D03*
X95000000Y-108000000D03*
X113936578Y-114836578D03*
X111900000Y-122625000D03*
X112800000Y-121825000D03*
X86500000Y-94500000D03*
X90500000Y-93500000D03*
X95000000Y-107000000D03*
X108700000Y-126625000D03*
X121700000Y-121400000D03*
X111900000Y-124325000D03*
X97000000Y-106000000D03*
X111900000Y-121825000D03*
X97000000Y-107000000D03*
X112800000Y-117400000D03*
X81750000Y-106000000D03*
X82750000Y-108000000D03*
X113800000Y-121825000D03*
X96000000Y-108000000D03*
X114800000Y-114774999D03*
X89500000Y-93500000D03*
X81750000Y-108000000D03*
X119200000Y-121400000D03*
X96000000Y-107000000D03*
X113800000Y-124325000D03*
X80750000Y-108000000D03*
X113436578Y-115336578D03*
X89500000Y-94500000D03*
X112800000Y-120925000D03*
X97000000Y-108000000D03*
X113800000Y-123525000D03*
X112800000Y-118300000D03*
X82750000Y-106000000D03*
X113800000Y-120925000D03*
X113800000Y-122625000D03*
X112800000Y-116700000D03*
X112800000Y-123525000D03*
X87500000Y-94500000D03*
X116800000Y-121300000D03*
X111900000Y-123525000D03*
X82750000Y-107000000D03*
X88500000Y-94500000D03*
X90500000Y-92500000D03*
%TO.N,Net-(U2-FB)*%
X100200000Y-93700000D03*
X75750000Y-86000000D03*
%TO.N,+18VDC*%
X120625735Y-124299265D03*
X124400000Y-119400000D03*
%TD*%
D21*
%TO.N,PHASE*%
X65304100Y-67462300D02*
X60186800Y-62345000D01*
X59912500Y-62345000D02*
X64450000Y-57807500D01*
X64450000Y-57807500D02*
X66450000Y-57807500D01*
X59650000Y-49035000D02*
X59650000Y-52607500D01*
X56472500Y-45857500D02*
X59650000Y-49035000D01*
X60186800Y-62345000D02*
X51850000Y-62345000D01*
X51960000Y-62345000D02*
X59912500Y-62345000D01*
X56400000Y-45857500D02*
X56472500Y-45857500D01*
X66450000Y-57807500D02*
X67312500Y-56945000D01*
X59650000Y-52607500D02*
X63950000Y-56907500D01*
%TO.N,NEUTRAL*%
X78825698Y-48025392D02*
X78825698Y-44110184D01*
X48900000Y-42957500D02*
X48850000Y-43007500D01*
X69827699Y-41429801D02*
X67312500Y-43945000D01*
X74249998Y-51505501D02*
X75345589Y-51505501D01*
X48850000Y-43007500D02*
X48850000Y-49234999D01*
X78825698Y-44110184D02*
X76145315Y-41429801D01*
X48850000Y-49234999D02*
X51960000Y-52344999D01*
X75345589Y-51505501D02*
X78825698Y-48025392D01*
X61277500Y-39635000D02*
X52222500Y-39635000D01*
X64450000Y-42807500D02*
X61277500Y-39635000D01*
X52222500Y-39635000D02*
X48900000Y-42957500D01*
X66175000Y-42807500D02*
X67312500Y-43945000D01*
X64450000Y-42807500D02*
X66175000Y-42807500D01*
X76145315Y-41429801D02*
X69827699Y-41429801D01*
D22*
%TO.N,+12VDC*%
X136237501Y-55493000D02*
X135750002Y-55005501D01*
D23*
%TO.N,/Power - Mains Input & 12V Trigger/TRIGGER+*%
X67054100Y-89278515D02*
X65852814Y-90479801D01*
D24*
X65304100Y-85242300D02*
X65776600Y-85242300D01*
D23*
X65776600Y-85242300D02*
X67054100Y-86519800D01*
X65852814Y-90479801D02*
X51866600Y-90479801D01*
X67054100Y-86519800D02*
X67054100Y-89278515D01*
%TO.N,/Power - Mains Input & 12V Trigger/TRIGGER-*%
X65304100Y-87782300D02*
X54169099Y-87782300D01*
X54169099Y-87782300D02*
X51866600Y-85479801D01*
D21*
%TO.N,Net-(R1-Pad2)*%
X67312500Y-49745000D02*
X67312500Y-51145000D01*
D22*
%TO.N,Net-(U2-FB)*%
X92500000Y-86000000D02*
X75750000Y-86000000D01*
X100200000Y-93700000D02*
X92500000Y-86000000D01*
D24*
%TO.N,+18VDC*%
X124650000Y-119650000D02*
X124650000Y-122075000D01*
X124650000Y-122075000D02*
X122425735Y-124299265D01*
X122425735Y-124299265D02*
X120625735Y-124299265D01*
X124400000Y-119400000D02*
X124600000Y-119400000D01*
X124400000Y-119400000D02*
X124650000Y-119650000D01*
%TD*%
%TA.AperFunction,Conductor*%
%TO.N,GND*%
G36*
X141499500Y-128995572D02*
G01*
X141499184Y-129004419D01*
X141484869Y-129204557D01*
X141482351Y-129222068D01*
X141440646Y-129413787D01*
X141435662Y-129430763D01*
X141367090Y-129614609D01*
X141359740Y-129630701D01*
X141265711Y-129802904D01*
X141256146Y-129817789D01*
X141138558Y-129974867D01*
X141126972Y-129988237D01*
X140988237Y-130126972D01*
X140974867Y-130138558D01*
X140817789Y-130256146D01*
X140802904Y-130265711D01*
X140630701Y-130359740D01*
X140614609Y-130367090D01*
X140430763Y-130435662D01*
X140413787Y-130440646D01*
X140222068Y-130482351D01*
X140204557Y-130484869D01*
X140023779Y-130497799D01*
X140004417Y-130499184D01*
X139995572Y-130499500D01*
X44004428Y-130499500D01*
X43995582Y-130499184D01*
X43973622Y-130497613D01*
X43795442Y-130484869D01*
X43777931Y-130482351D01*
X43586212Y-130440646D01*
X43569236Y-130435662D01*
X43385390Y-130367090D01*
X43369298Y-130359740D01*
X43197095Y-130265711D01*
X43182210Y-130256146D01*
X43025132Y-130138558D01*
X43011762Y-130126972D01*
X42873027Y-129988237D01*
X42861441Y-129974867D01*
X42743849Y-129817784D01*
X42734288Y-129802904D01*
X42640259Y-129630701D01*
X42632909Y-129614609D01*
X42572091Y-129451551D01*
X42564334Y-129430755D01*
X42559355Y-129413797D01*
X42517647Y-129222063D01*
X42515130Y-129204556D01*
X42500816Y-129004418D01*
X42500500Y-128995572D01*
X42500500Y-128393713D01*
X43149500Y-128393713D01*
X43149500Y-128606287D01*
X43182754Y-128816243D01*
X43243896Y-129004419D01*
X43248444Y-129018414D01*
X43344951Y-129207820D01*
X43469890Y-129379786D01*
X43620213Y-129530109D01*
X43792179Y-129655048D01*
X43792181Y-129655049D01*
X43792184Y-129655051D01*
X43981588Y-129751557D01*
X44183757Y-129817246D01*
X44393713Y-129850500D01*
X44393714Y-129850500D01*
X44606286Y-129850500D01*
X44606287Y-129850500D01*
X44816243Y-129817246D01*
X45018412Y-129751557D01*
X45207816Y-129655051D01*
X45263480Y-129614609D01*
X45379786Y-129530109D01*
X45379788Y-129530106D01*
X45379792Y-129530104D01*
X45530104Y-129379792D01*
X45530106Y-129379788D01*
X45530109Y-129379786D01*
X45655048Y-129207820D01*
X45655047Y-129207820D01*
X45655051Y-129207816D01*
X45751557Y-129018412D01*
X45817246Y-128816243D01*
X45850500Y-128606287D01*
X45850500Y-128393713D01*
X138149500Y-128393713D01*
X138149500Y-128606287D01*
X138182754Y-128816243D01*
X138243896Y-129004419D01*
X138248444Y-129018414D01*
X138344951Y-129207820D01*
X138469890Y-129379786D01*
X138620213Y-129530109D01*
X138792179Y-129655048D01*
X138792181Y-129655049D01*
X138792184Y-129655051D01*
X138981588Y-129751557D01*
X139183757Y-129817246D01*
X139393713Y-129850500D01*
X139393714Y-129850500D01*
X139606286Y-129850500D01*
X139606287Y-129850500D01*
X139816243Y-129817246D01*
X140018412Y-129751557D01*
X140207816Y-129655051D01*
X140263480Y-129614609D01*
X140379786Y-129530109D01*
X140379788Y-129530106D01*
X140379792Y-129530104D01*
X140530104Y-129379792D01*
X140530106Y-129379788D01*
X140530109Y-129379786D01*
X140655048Y-129207820D01*
X140655047Y-129207820D01*
X140655051Y-129207816D01*
X140751557Y-129018412D01*
X140817246Y-128816243D01*
X140850500Y-128606287D01*
X140850500Y-128393713D01*
X140817246Y-128183757D01*
X140751557Y-127981588D01*
X140655051Y-127792184D01*
X140655049Y-127792181D01*
X140655048Y-127792179D01*
X140530109Y-127620213D01*
X140379786Y-127469890D01*
X140207820Y-127344951D01*
X140018414Y-127248444D01*
X140018413Y-127248443D01*
X140018412Y-127248443D01*
X139816243Y-127182754D01*
X139816241Y-127182753D01*
X139816240Y-127182753D01*
X139654957Y-127157208D01*
X139606287Y-127149500D01*
X139393713Y-127149500D01*
X139345042Y-127157208D01*
X139183760Y-127182753D01*
X138981585Y-127248444D01*
X138792179Y-127344951D01*
X138620213Y-127469890D01*
X138469890Y-127620213D01*
X138344951Y-127792179D01*
X138248444Y-127981585D01*
X138182753Y-128183760D01*
X138149500Y-128393713D01*
X45850500Y-128393713D01*
X45817246Y-128183757D01*
X45751557Y-127981588D01*
X45655051Y-127792184D01*
X45655049Y-127792181D01*
X45655048Y-127792179D01*
X45530109Y-127620213D01*
X45379786Y-127469890D01*
X45207820Y-127344951D01*
X45018414Y-127248444D01*
X45018413Y-127248443D01*
X45018412Y-127248443D01*
X44816243Y-127182754D01*
X44816241Y-127182753D01*
X44816240Y-127182753D01*
X44654957Y-127157208D01*
X44606287Y-127149500D01*
X44393713Y-127149500D01*
X44345042Y-127157208D01*
X44183760Y-127182753D01*
X43981585Y-127248444D01*
X43792179Y-127344951D01*
X43620213Y-127469890D01*
X43469890Y-127620213D01*
X43344951Y-127792179D01*
X43248444Y-127981585D01*
X43182753Y-128183760D01*
X43149500Y-128393713D01*
X42500500Y-128393713D01*
X42500500Y-123088575D01*
X90200000Y-123088575D01*
X90200000Y-123311424D01*
X90229085Y-123532354D01*
X90229088Y-123532367D01*
X90286763Y-123747618D01*
X90372045Y-123953502D01*
X90372054Y-123953520D01*
X90483464Y-124146491D01*
X90483473Y-124146504D01*
X90534040Y-124212403D01*
X90534043Y-124212403D01*
X91335387Y-123411059D01*
X91340889Y-123431591D01*
X91419881Y-123568408D01*
X91531592Y-123680119D01*
X91668409Y-123759111D01*
X91688940Y-123764612D01*
X90887595Y-124565955D01*
X90887595Y-124565956D01*
X90953507Y-124616533D01*
X91146485Y-124727949D01*
X91146497Y-124727954D01*
X91352381Y-124813236D01*
X91567632Y-124870911D01*
X91567645Y-124870914D01*
X91788575Y-124900000D01*
X92011425Y-124900000D01*
X92232354Y-124870914D01*
X92232367Y-124870911D01*
X92447618Y-124813236D01*
X92653502Y-124727954D01*
X92653514Y-124727949D01*
X92846498Y-124616530D01*
X92912403Y-124565957D01*
X92912404Y-124565956D01*
X92566866Y-124220418D01*
X119825235Y-124220418D01*
X119825235Y-124378111D01*
X119855996Y-124532754D01*
X119855999Y-124532766D01*
X119916337Y-124678437D01*
X119916344Y-124678450D01*
X120003945Y-124809553D01*
X120003948Y-124809557D01*
X120115442Y-124921051D01*
X120115446Y-124921054D01*
X120246549Y-125008655D01*
X120246562Y-125008662D01*
X120365920Y-125058101D01*
X120392238Y-125069002D01*
X120546888Y-125099764D01*
X120546891Y-125099765D01*
X120546893Y-125099765D01*
X120704579Y-125099765D01*
X120704580Y-125099764D01*
X120859232Y-125069002D01*
X120880699Y-125060108D01*
X120885855Y-125058107D01*
X121302092Y-124907191D01*
X121344359Y-124899765D01*
X122339066Y-124899765D01*
X122339082Y-124899766D01*
X122346678Y-124899766D01*
X122504789Y-124899766D01*
X122504792Y-124899766D01*
X122657520Y-124858842D01*
X122714675Y-124825843D01*
X122794451Y-124779785D01*
X122906255Y-124667981D01*
X122906255Y-124667979D01*
X122916459Y-124657776D01*
X122916462Y-124657771D01*
X124205330Y-123368905D01*
X131500000Y-123368905D01*
X131500000Y-123631094D01*
X131534220Y-123891009D01*
X131534222Y-123891020D01*
X131602075Y-124144255D01*
X131702404Y-124386471D01*
X131702409Y-124386482D01*
X131833488Y-124613516D01*
X131833494Y-124613524D01*
X131920080Y-124726365D01*
X132898958Y-123747487D01*
X132923978Y-123807890D01*
X132995112Y-123914351D01*
X133085649Y-124004888D01*
X133192110Y-124076022D01*
X133252511Y-124101041D01*
X132273633Y-125079917D01*
X132273633Y-125079918D01*
X132386475Y-125166505D01*
X132386483Y-125166511D01*
X132613517Y-125297590D01*
X132613528Y-125297595D01*
X132855744Y-125397924D01*
X133108979Y-125465777D01*
X133108990Y-125465779D01*
X133368905Y-125499999D01*
X133368920Y-125500000D01*
X133631080Y-125500000D01*
X133631094Y-125499999D01*
X133891009Y-125465779D01*
X133891020Y-125465777D01*
X134144255Y-125397924D01*
X134386471Y-125297595D01*
X134386482Y-125297590D01*
X134613516Y-125166511D01*
X134613534Y-125166499D01*
X134726365Y-125079919D01*
X134726365Y-125079917D01*
X133747488Y-124101041D01*
X133807890Y-124076022D01*
X133914351Y-124004888D01*
X134004888Y-123914351D01*
X134076022Y-123807890D01*
X134101041Y-123747489D01*
X135079917Y-124726365D01*
X135079919Y-124726365D01*
X135166499Y-124613534D01*
X135166511Y-124613516D01*
X135297590Y-124386482D01*
X135297595Y-124386471D01*
X135397924Y-124144255D01*
X135465777Y-123891020D01*
X135465779Y-123891009D01*
X135499999Y-123631094D01*
X135500000Y-123631080D01*
X135500000Y-123368919D01*
X135499999Y-123368905D01*
X135465779Y-123108990D01*
X135465777Y-123108979D01*
X135397924Y-122855744D01*
X135297595Y-122613528D01*
X135297590Y-122613517D01*
X135166511Y-122386483D01*
X135166505Y-122386475D01*
X135079918Y-122273633D01*
X135079917Y-122273633D01*
X134101041Y-123252510D01*
X134076022Y-123192110D01*
X134004888Y-123085649D01*
X133914351Y-122995112D01*
X133807890Y-122923978D01*
X133747487Y-122898957D01*
X134726365Y-121920080D01*
X134613524Y-121833494D01*
X134613516Y-121833488D01*
X134386482Y-121702409D01*
X134386471Y-121702404D01*
X134144255Y-121602075D01*
X133891020Y-121534222D01*
X133891009Y-121534220D01*
X133631094Y-121500000D01*
X133368905Y-121500000D01*
X133108990Y-121534220D01*
X133108979Y-121534222D01*
X132855744Y-121602075D01*
X132613528Y-121702404D01*
X132613517Y-121702409D01*
X132386471Y-121833496D01*
X132273633Y-121920079D01*
X132273633Y-121920080D01*
X133252511Y-122898958D01*
X133192110Y-122923978D01*
X133085649Y-122995112D01*
X132995112Y-123085649D01*
X132923978Y-123192110D01*
X132898958Y-123252511D01*
X131920080Y-122273633D01*
X131920079Y-122273633D01*
X131833496Y-122386471D01*
X131702409Y-122613517D01*
X131702404Y-122613528D01*
X131602075Y-122855744D01*
X131534222Y-123108979D01*
X131534220Y-123108990D01*
X131500000Y-123368905D01*
X124205330Y-123368905D01*
X125130520Y-122443716D01*
X125209577Y-122306784D01*
X125250501Y-122154057D01*
X125250501Y-121995942D01*
X125250501Y-121988347D01*
X125250500Y-121988329D01*
X125250500Y-119855888D01*
X125250607Y-119850731D01*
X125250608Y-119850701D01*
X125251606Y-119826736D01*
X125251134Y-119822084D01*
X125250500Y-119809562D01*
X125250500Y-119570945D01*
X125250500Y-119570943D01*
X125213041Y-119431145D01*
X125209453Y-119411593D01*
X125201134Y-119329652D01*
X125200814Y-119323340D01*
X125200500Y-119320953D01*
X125200500Y-119320943D01*
X125200497Y-119320932D01*
X125199641Y-119314425D01*
X125199221Y-119310826D01*
X125198445Y-119303171D01*
X125195606Y-119280376D01*
X125195449Y-119279313D01*
X125178266Y-119203688D01*
X125178263Y-119203683D01*
X125178137Y-119203125D01*
X125173946Y-119187663D01*
X125169737Y-119166503D01*
X125154651Y-119130082D01*
X125109397Y-119020827D01*
X125109390Y-119020814D01*
X125021789Y-118889711D01*
X125021786Y-118889707D01*
X124910292Y-118778213D01*
X124910288Y-118778210D01*
X124779185Y-118690609D01*
X124779172Y-118690602D01*
X124633501Y-118630264D01*
X124633489Y-118630261D01*
X124478845Y-118599500D01*
X124478842Y-118599500D01*
X124321158Y-118599500D01*
X124321155Y-118599500D01*
X124166510Y-118630261D01*
X124166498Y-118630264D01*
X124020827Y-118690602D01*
X124020814Y-118690609D01*
X123889711Y-118778210D01*
X123889707Y-118778213D01*
X123778213Y-118889707D01*
X123778210Y-118889711D01*
X123690609Y-119020814D01*
X123690602Y-119020827D01*
X123630264Y-119166498D01*
X123630261Y-119166510D01*
X123599500Y-119321153D01*
X123599500Y-119478846D01*
X123630261Y-119633489D01*
X123630264Y-119633501D01*
X123690602Y-119779172D01*
X123690609Y-119779185D01*
X123778210Y-119910288D01*
X123778213Y-119910292D01*
X123889704Y-120021783D01*
X123889709Y-120021787D01*
X123889711Y-120021789D01*
X123905967Y-120032651D01*
X123908903Y-120034613D01*
X123917598Y-120040987D01*
X123923301Y-120045562D01*
X123935731Y-120058202D01*
X124001879Y-120108593D01*
X124003089Y-120109564D01*
X124022215Y-120136979D01*
X124042042Y-120163935D01*
X124042386Y-120165893D01*
X124043066Y-120166867D01*
X124043205Y-120170543D01*
X124049500Y-120206290D01*
X124049500Y-121774902D01*
X124029815Y-121841941D01*
X124013181Y-121862583D01*
X122213319Y-123662446D01*
X122151996Y-123695931D01*
X122125638Y-123698765D01*
X121344360Y-123698765D01*
X121302093Y-123691339D01*
X120887225Y-123540917D01*
X120887191Y-123540905D01*
X120883251Y-123539477D01*
X120859232Y-123529528D01*
X120845726Y-123526841D01*
X120833913Y-123523044D01*
X120832255Y-123522577D01*
X120735528Y-123504642D01*
X120731333Y-123504087D01*
X120727027Y-123503230D01*
X120704577Y-123498765D01*
X120546893Y-123498765D01*
X120546890Y-123498765D01*
X120392245Y-123529526D01*
X120392233Y-123529529D01*
X120246562Y-123589867D01*
X120246549Y-123589874D01*
X120115446Y-123677475D01*
X120115442Y-123677478D01*
X120003948Y-123788972D01*
X120003945Y-123788976D01*
X119916344Y-123920079D01*
X119916337Y-123920092D01*
X119855999Y-124065763D01*
X119855996Y-124065775D01*
X119825235Y-124220418D01*
X92566866Y-124220418D01*
X92111059Y-123764612D01*
X92131591Y-123759111D01*
X92268408Y-123680119D01*
X92380119Y-123568408D01*
X92459111Y-123431591D01*
X92464612Y-123411059D01*
X93265956Y-124212404D01*
X93265957Y-124212403D01*
X93316525Y-124146504D01*
X93316534Y-124146491D01*
X93427949Y-123953514D01*
X93427954Y-123953502D01*
X93513236Y-123747618D01*
X93570911Y-123532367D01*
X93570914Y-123532354D01*
X93600000Y-123311424D01*
X93600000Y-123088575D01*
X93570914Y-122867645D01*
X93570911Y-122867632D01*
X93513236Y-122652381D01*
X93427954Y-122446497D01*
X93427949Y-122446485D01*
X93316533Y-122253507D01*
X93265956Y-122187595D01*
X93265955Y-122187595D01*
X92464612Y-122988939D01*
X92459111Y-122968409D01*
X92380119Y-122831592D01*
X92268408Y-122719881D01*
X92131591Y-122640889D01*
X92111058Y-122635387D01*
X92912403Y-121834043D01*
X92912403Y-121834040D01*
X92846504Y-121783473D01*
X92846491Y-121783464D01*
X92653520Y-121672054D01*
X92653502Y-121672045D01*
X92447618Y-121586763D01*
X92232367Y-121529088D01*
X92232354Y-121529085D01*
X92011425Y-121500000D01*
X91788575Y-121500000D01*
X91567645Y-121529085D01*
X91567632Y-121529088D01*
X91352381Y-121586763D01*
X91146497Y-121672045D01*
X91146479Y-121672054D01*
X90953511Y-121783462D01*
X90887595Y-121834042D01*
X91688941Y-122635387D01*
X91668409Y-122640889D01*
X91531592Y-122719881D01*
X91419881Y-122831592D01*
X91340889Y-122968409D01*
X91335387Y-122988940D01*
X90534042Y-122187595D01*
X90483462Y-122253511D01*
X90372054Y-122446479D01*
X90372045Y-122446497D01*
X90286763Y-122652381D01*
X90229088Y-122867632D01*
X90229085Y-122867645D01*
X90200000Y-123088575D01*
X42500500Y-123088575D01*
X42500500Y-117199984D01*
X90199500Y-117199984D01*
X90199500Y-119200015D01*
X90210000Y-119302795D01*
X90210001Y-119302797D01*
X90218900Y-119329652D01*
X90265186Y-119469335D01*
X90265187Y-119469337D01*
X90357286Y-119618651D01*
X90357289Y-119618655D01*
X90481344Y-119742710D01*
X90481348Y-119742713D01*
X90630662Y-119834812D01*
X90630664Y-119834813D01*
X90630666Y-119834814D01*
X90797203Y-119889999D01*
X90899992Y-119900500D01*
X90899997Y-119900500D01*
X92900003Y-119900500D01*
X92900008Y-119900500D01*
X93002797Y-119889999D01*
X93169334Y-119834814D01*
X93318655Y-119742711D01*
X93442711Y-119618655D01*
X93534814Y-119469334D01*
X93589999Y-119302797D01*
X93600500Y-119200008D01*
X93600500Y-117199992D01*
X93589999Y-117097203D01*
X93541928Y-116952135D01*
X131499500Y-116952135D01*
X131499500Y-120047870D01*
X131499501Y-120047876D01*
X131505908Y-120107483D01*
X131556202Y-120242328D01*
X131556206Y-120242335D01*
X131642452Y-120357544D01*
X131642455Y-120357547D01*
X131757664Y-120443793D01*
X131757671Y-120443797D01*
X131892517Y-120494091D01*
X131892516Y-120494091D01*
X131899444Y-120494835D01*
X131952127Y-120500500D01*
X135047872Y-120500499D01*
X135107483Y-120494091D01*
X135242331Y-120443796D01*
X135357546Y-120357546D01*
X135443796Y-120242331D01*
X135494091Y-120107483D01*
X135500500Y-120047873D01*
X135500499Y-116952128D01*
X135494091Y-116892517D01*
X135443796Y-116757669D01*
X135443795Y-116757668D01*
X135443793Y-116757664D01*
X135357547Y-116642455D01*
X135357544Y-116642452D01*
X135242335Y-116556206D01*
X135242328Y-116556202D01*
X135107482Y-116505908D01*
X135107483Y-116505908D01*
X135047883Y-116499501D01*
X135047881Y-116499500D01*
X135047873Y-116499500D01*
X135047864Y-116499500D01*
X131952129Y-116499500D01*
X131952123Y-116499501D01*
X131892516Y-116505908D01*
X131757671Y-116556202D01*
X131757664Y-116556206D01*
X131642455Y-116642452D01*
X131642452Y-116642455D01*
X131556206Y-116757664D01*
X131556202Y-116757671D01*
X131505908Y-116892517D01*
X131501807Y-116930666D01*
X131499501Y-116952123D01*
X131499500Y-116952135D01*
X93541928Y-116952135D01*
X93534814Y-116930666D01*
X93511283Y-116892517D01*
X93442713Y-116781348D01*
X93442710Y-116781344D01*
X93318655Y-116657289D01*
X93318651Y-116657286D01*
X93169337Y-116565187D01*
X93169335Y-116565186D01*
X93086065Y-116537593D01*
X93002797Y-116510001D01*
X93002795Y-116510000D01*
X92900015Y-116499500D01*
X92900008Y-116499500D01*
X90899992Y-116499500D01*
X90899984Y-116499500D01*
X90797204Y-116510000D01*
X90797203Y-116510001D01*
X90630664Y-116565186D01*
X90630662Y-116565187D01*
X90481348Y-116657286D01*
X90481344Y-116657289D01*
X90357289Y-116781344D01*
X90357286Y-116781348D01*
X90265187Y-116930662D01*
X90265186Y-116930664D01*
X90210001Y-117097203D01*
X90210000Y-117097204D01*
X90199500Y-117199984D01*
X42500500Y-117199984D01*
X42500500Y-109868872D01*
X131492000Y-109868872D01*
X131492000Y-110131127D01*
X131518623Y-110333339D01*
X131526230Y-110391116D01*
X131594102Y-110644418D01*
X131594105Y-110644428D01*
X131694453Y-110886690D01*
X131694458Y-110886700D01*
X131825575Y-111113803D01*
X131985218Y-111321851D01*
X131985226Y-111321860D01*
X132170640Y-111507274D01*
X132170648Y-111507281D01*
X132378696Y-111666924D01*
X132605799Y-111798041D01*
X132605809Y-111798046D01*
X132848071Y-111898394D01*
X132848081Y-111898398D01*
X133101384Y-111966270D01*
X133361380Y-112000500D01*
X133361387Y-112000500D01*
X133623613Y-112000500D01*
X133623620Y-112000500D01*
X133883616Y-111966270D01*
X134136919Y-111898398D01*
X134379197Y-111798043D01*
X134606303Y-111666924D01*
X134814351Y-111507282D01*
X134814355Y-111507277D01*
X134814360Y-111507274D01*
X134999774Y-111321860D01*
X134999777Y-111321855D01*
X134999782Y-111321851D01*
X135159424Y-111113803D01*
X135290543Y-110886697D01*
X135390898Y-110644419D01*
X135458770Y-110391116D01*
X135493000Y-110131120D01*
X135493000Y-109868880D01*
X135458770Y-109608884D01*
X135390898Y-109355581D01*
X135390894Y-109355571D01*
X135290546Y-109113309D01*
X135290541Y-109113299D01*
X135159424Y-108886196D01*
X134999781Y-108678148D01*
X134999774Y-108678140D01*
X134814360Y-108492726D01*
X134814351Y-108492718D01*
X134606303Y-108333075D01*
X134379200Y-108201958D01*
X134379190Y-108201953D01*
X134136928Y-108101605D01*
X134136921Y-108101603D01*
X134136919Y-108101602D01*
X133883616Y-108033730D01*
X133825839Y-108026123D01*
X133623627Y-107999500D01*
X133623620Y-107999500D01*
X133361380Y-107999500D01*
X133361372Y-107999500D01*
X133130272Y-108029926D01*
X133101384Y-108033730D01*
X132848081Y-108101602D01*
X132848071Y-108101605D01*
X132605809Y-108201953D01*
X132605799Y-108201958D01*
X132378696Y-108333075D01*
X132170648Y-108492718D01*
X131985218Y-108678148D01*
X131825575Y-108886196D01*
X131694458Y-109113299D01*
X131694453Y-109113309D01*
X131594105Y-109355571D01*
X131594102Y-109355581D01*
X131526230Y-109608885D01*
X131492000Y-109868872D01*
X42500500Y-109868872D01*
X42500500Y-104868905D01*
X131492500Y-104868905D01*
X131492500Y-105131094D01*
X131526720Y-105391009D01*
X131526722Y-105391020D01*
X131594575Y-105644255D01*
X131694904Y-105886471D01*
X131694909Y-105886482D01*
X131825988Y-106113516D01*
X131825994Y-106113524D01*
X131912580Y-106226365D01*
X132891458Y-105247487D01*
X132916478Y-105307890D01*
X132987612Y-105414351D01*
X133078149Y-105504888D01*
X133184610Y-105576022D01*
X133245011Y-105601041D01*
X132266133Y-106579917D01*
X132266133Y-106579918D01*
X132378975Y-106666505D01*
X132378983Y-106666511D01*
X132606017Y-106797590D01*
X132606028Y-106797595D01*
X132848244Y-106897924D01*
X133101479Y-106965777D01*
X133101490Y-106965779D01*
X133361405Y-106999999D01*
X133361420Y-107000000D01*
X133623580Y-107000000D01*
X133623594Y-106999999D01*
X133883509Y-106965779D01*
X133883520Y-106965777D01*
X134136755Y-106897924D01*
X134378971Y-106797595D01*
X134378982Y-106797590D01*
X134606016Y-106666511D01*
X134606034Y-106666499D01*
X134718865Y-106579919D01*
X134718865Y-106579917D01*
X133739988Y-105601041D01*
X133800390Y-105576022D01*
X133906851Y-105504888D01*
X133997388Y-105414351D01*
X134068522Y-105307890D01*
X134093541Y-105247488D01*
X135072417Y-106226365D01*
X135072419Y-106226365D01*
X135158999Y-106113534D01*
X135159011Y-106113516D01*
X135290090Y-105886482D01*
X135290095Y-105886471D01*
X135390424Y-105644255D01*
X135458277Y-105391020D01*
X135458279Y-105391009D01*
X135492499Y-105131094D01*
X135492500Y-105131080D01*
X135492500Y-104868919D01*
X135492499Y-104868905D01*
X135458279Y-104608990D01*
X135458277Y-104608979D01*
X135390424Y-104355744D01*
X135290095Y-104113528D01*
X135290090Y-104113517D01*
X135159011Y-103886483D01*
X135159005Y-103886475D01*
X135072418Y-103773633D01*
X135072417Y-103773633D01*
X134093541Y-104752510D01*
X134068522Y-104692110D01*
X133997388Y-104585649D01*
X133906851Y-104495112D01*
X133800390Y-104423978D01*
X133739987Y-104398957D01*
X134718865Y-103420080D01*
X134606024Y-103333494D01*
X134606016Y-103333488D01*
X134378982Y-103202409D01*
X134378971Y-103202404D01*
X134136755Y-103102075D01*
X133883520Y-103034222D01*
X133883509Y-103034220D01*
X133623594Y-103000000D01*
X133361405Y-103000000D01*
X133101490Y-103034220D01*
X133101479Y-103034222D01*
X132848244Y-103102075D01*
X132606028Y-103202404D01*
X132606017Y-103202409D01*
X132378971Y-103333496D01*
X132266133Y-103420079D01*
X132266133Y-103420080D01*
X133245011Y-104398958D01*
X133184610Y-104423978D01*
X133078149Y-104495112D01*
X132987612Y-104585649D01*
X132916478Y-104692110D01*
X132891458Y-104752511D01*
X131912580Y-103773633D01*
X131912579Y-103773633D01*
X131825996Y-103886471D01*
X131694909Y-104113517D01*
X131694904Y-104113528D01*
X131594575Y-104355744D01*
X131526722Y-104608979D01*
X131526720Y-104608990D01*
X131492500Y-104868905D01*
X42500500Y-104868905D01*
X42500500Y-98452135D01*
X131492000Y-98452135D01*
X131492000Y-101547870D01*
X131492001Y-101547876D01*
X131498408Y-101607483D01*
X131548702Y-101742328D01*
X131548706Y-101742335D01*
X131634952Y-101857544D01*
X131634955Y-101857547D01*
X131750164Y-101943793D01*
X131750171Y-101943797D01*
X131885017Y-101994091D01*
X131885016Y-101994091D01*
X131891944Y-101994835D01*
X131944627Y-102000500D01*
X135040372Y-102000499D01*
X135099983Y-101994091D01*
X135234831Y-101943796D01*
X135350046Y-101857546D01*
X135436296Y-101742331D01*
X135486591Y-101607483D01*
X135493000Y-101547873D01*
X135492999Y-98452128D01*
X135486591Y-98392517D01*
X135436296Y-98257669D01*
X135436295Y-98257668D01*
X135436293Y-98257664D01*
X135350047Y-98142455D01*
X135350044Y-98142452D01*
X135234835Y-98056206D01*
X135234828Y-98056202D01*
X135099982Y-98005908D01*
X135099983Y-98005908D01*
X135040383Y-97999501D01*
X135040381Y-97999500D01*
X135040373Y-97999500D01*
X135040364Y-97999500D01*
X131944629Y-97999500D01*
X131944623Y-97999501D01*
X131885016Y-98005908D01*
X131750171Y-98056202D01*
X131750164Y-98056206D01*
X131634955Y-98142452D01*
X131634952Y-98142455D01*
X131548706Y-98257664D01*
X131548702Y-98257671D01*
X131498408Y-98392517D01*
X131492001Y-98452116D01*
X131492001Y-98452123D01*
X131492000Y-98452135D01*
X42500500Y-98452135D01*
X42500500Y-84801172D01*
X49636100Y-84801172D01*
X49636100Y-85063427D01*
X49658066Y-85230263D01*
X49670330Y-85323416D01*
X49738202Y-85576718D01*
X49738205Y-85576728D01*
X49838553Y-85818990D01*
X49838558Y-85819000D01*
X49969675Y-86046103D01*
X50129318Y-86254151D01*
X50129326Y-86254160D01*
X50314740Y-86439574D01*
X50314748Y-86439581D01*
X50314749Y-86439582D01*
X50324668Y-86447193D01*
X50522796Y-86599224D01*
X50749899Y-86730341D01*
X50749909Y-86730346D01*
X50992171Y-86830694D01*
X50992181Y-86830698D01*
X51245484Y-86898570D01*
X51449466Y-86925424D01*
X51459949Y-86926805D01*
X51493800Y-86936287D01*
X51552365Y-86962115D01*
X52719843Y-87476989D01*
X52757486Y-87502764D01*
X52974841Y-87720119D01*
X53008326Y-87781442D01*
X53003342Y-87851134D01*
X52961470Y-87907067D01*
X52896006Y-87931484D01*
X52887160Y-87931800D01*
X50088729Y-87931800D01*
X50088723Y-87931801D01*
X50029116Y-87938208D01*
X49894271Y-87988502D01*
X49894264Y-87988506D01*
X49779055Y-88074752D01*
X49779052Y-88074755D01*
X49692806Y-88189964D01*
X49692802Y-88189971D01*
X49642508Y-88324817D01*
X49636101Y-88384416D01*
X49636100Y-88384435D01*
X49636100Y-91480170D01*
X49636101Y-91480176D01*
X49642508Y-91539783D01*
X49692802Y-91674628D01*
X49692806Y-91674635D01*
X49779052Y-91789844D01*
X49779055Y-91789847D01*
X49894264Y-91876093D01*
X49894271Y-91876097D01*
X50029117Y-91926391D01*
X50029116Y-91926391D01*
X50036044Y-91927135D01*
X50088727Y-91932800D01*
X53184472Y-91932799D01*
X53244083Y-91926391D01*
X53378931Y-91876096D01*
X53494146Y-91789846D01*
X53580396Y-91674631D01*
X53585405Y-91661198D01*
X53627273Y-91605265D01*
X53645708Y-91593834D01*
X54240498Y-91293603D01*
X54296374Y-91280301D01*
X65931658Y-91280301D01*
X65931659Y-91280300D01*
X66086311Y-91249538D01*
X66231993Y-91189195D01*
X66363103Y-91101590D01*
X67675889Y-89788804D01*
X67763494Y-89657694D01*
X67823837Y-89512012D01*
X67854600Y-89357357D01*
X67854600Y-89199673D01*
X67854600Y-87617133D01*
X78024500Y-87617133D01*
X78024500Y-92212868D01*
X78024501Y-92212874D01*
X78030908Y-92272481D01*
X78081202Y-92407326D01*
X78081206Y-92407333D01*
X78167452Y-92522542D01*
X78167455Y-92522545D01*
X78282664Y-92608791D01*
X78282671Y-92608795D01*
X78417517Y-92659089D01*
X78417516Y-92659089D01*
X78424444Y-92659833D01*
X78477127Y-92665498D01*
X81522872Y-92665497D01*
X81582483Y-92659089D01*
X81717331Y-92608794D01*
X81832546Y-92522544D01*
X81918796Y-92407329D01*
X81969091Y-92272481D01*
X81975500Y-92212871D01*
X81975499Y-87617126D01*
X81969091Y-87557515D01*
X81948670Y-87502764D01*
X81918797Y-87422669D01*
X81918793Y-87422662D01*
X81832547Y-87307453D01*
X81832544Y-87307450D01*
X81717335Y-87221204D01*
X81717328Y-87221200D01*
X81582482Y-87170906D01*
X81582483Y-87170906D01*
X81522883Y-87164499D01*
X81522881Y-87164498D01*
X81522873Y-87164498D01*
X81522864Y-87164498D01*
X78477129Y-87164498D01*
X78477123Y-87164499D01*
X78417516Y-87170906D01*
X78282671Y-87221200D01*
X78282664Y-87221204D01*
X78167455Y-87307450D01*
X78167452Y-87307453D01*
X78081206Y-87422662D01*
X78081202Y-87422669D01*
X78030908Y-87557515D01*
X78024501Y-87617114D01*
X78024501Y-87617121D01*
X78024500Y-87617133D01*
X67854600Y-87617133D01*
X67854600Y-86440958D01*
X67854600Y-86440955D01*
X67854599Y-86440953D01*
X67849274Y-86414182D01*
X67823837Y-86286303D01*
X67790276Y-86205278D01*
X67763497Y-86140627D01*
X67763490Y-86140614D01*
X67675889Y-86009511D01*
X67675886Y-86009507D01*
X67669131Y-86002752D01*
X67669126Y-86002748D01*
X67587531Y-85921153D01*
X74949500Y-85921153D01*
X74949500Y-86078846D01*
X74980261Y-86233489D01*
X74980264Y-86233501D01*
X75040602Y-86379172D01*
X75040609Y-86379185D01*
X75128210Y-86510288D01*
X75128213Y-86510292D01*
X75239707Y-86621786D01*
X75239711Y-86621789D01*
X75370814Y-86709390D01*
X75370827Y-86709397D01*
X75437031Y-86736819D01*
X75516503Y-86769737D01*
X75633921Y-86793093D01*
X75671153Y-86800499D01*
X75671156Y-86800500D01*
X75671158Y-86800500D01*
X75828842Y-86800500D01*
X75866078Y-86793092D01*
X75886390Y-86790771D01*
X75893418Y-86790550D01*
X75907337Y-86790115D01*
X76406120Y-86702374D01*
X76427603Y-86700500D01*
X92158481Y-86700500D01*
X92225520Y-86720185D01*
X92246162Y-86736819D01*
X99225526Y-93716182D01*
X99239391Y-93732698D01*
X99482209Y-94079179D01*
X99530049Y-94147442D01*
X99559215Y-94185143D01*
X99559219Y-94185147D01*
X99559856Y-94185826D01*
X99572513Y-94201762D01*
X99578211Y-94210289D01*
X99689708Y-94321786D01*
X99689712Y-94321790D01*
X99820814Y-94409390D01*
X99820827Y-94409397D01*
X99966498Y-94469735D01*
X99966503Y-94469737D01*
X100121153Y-94500499D01*
X100121156Y-94500500D01*
X100121158Y-94500500D01*
X100278844Y-94500500D01*
X100278845Y-94500499D01*
X100433497Y-94469737D01*
X100579179Y-94409394D01*
X100710289Y-94321789D01*
X100821789Y-94210289D01*
X100909394Y-94079179D01*
X100969737Y-93933497D01*
X101000500Y-93778842D01*
X101000500Y-93621158D01*
X101000500Y-93621155D01*
X101000499Y-93621153D01*
X100969738Y-93466510D01*
X100969737Y-93466503D01*
X100967081Y-93460090D01*
X100909397Y-93320827D01*
X100909390Y-93320814D01*
X100821789Y-93189711D01*
X100821786Y-93189707D01*
X100710292Y-93078213D01*
X100710288Y-93078210D01*
X100678725Y-93057120D01*
X100662728Y-93044406D01*
X100647442Y-93030049D01*
X100284970Y-92776024D01*
X100232698Y-92739391D01*
X100216182Y-92725526D01*
X98764016Y-91273360D01*
X113700000Y-91273360D01*
X113700000Y-91496209D01*
X113729085Y-91717139D01*
X113729088Y-91717152D01*
X113786763Y-91932403D01*
X113872045Y-92138287D01*
X113872054Y-92138305D01*
X113983464Y-92331276D01*
X113983473Y-92331289D01*
X114034040Y-92397188D01*
X114034043Y-92397188D01*
X114835387Y-91595844D01*
X114840889Y-91616376D01*
X114919881Y-91753193D01*
X115031592Y-91864904D01*
X115168409Y-91943896D01*
X115188940Y-91949397D01*
X114387595Y-92750740D01*
X114387595Y-92750741D01*
X114453507Y-92801318D01*
X114646485Y-92912734D01*
X114646497Y-92912739D01*
X114852381Y-92998021D01*
X115067632Y-93055696D01*
X115067645Y-93055699D01*
X115288575Y-93084785D01*
X115511425Y-93084785D01*
X115612138Y-93071526D01*
X115732354Y-93055699D01*
X115732367Y-93055696D01*
X115947618Y-92998021D01*
X116153502Y-92912739D01*
X116153514Y-92912734D01*
X116346498Y-92801315D01*
X116412403Y-92750742D01*
X116412404Y-92750741D01*
X115611059Y-91949397D01*
X115631591Y-91943896D01*
X115768408Y-91864904D01*
X115880119Y-91753193D01*
X115959111Y-91616376D01*
X115964612Y-91595844D01*
X116765956Y-92397189D01*
X116765957Y-92397188D01*
X116816530Y-92331283D01*
X116927949Y-92138299D01*
X116927954Y-92138287D01*
X117013236Y-91932403D01*
X117070911Y-91717152D01*
X117070914Y-91717139D01*
X117095366Y-91531405D01*
X131492500Y-91531405D01*
X131492500Y-91793594D01*
X131526720Y-92053509D01*
X131526722Y-92053520D01*
X131594575Y-92306755D01*
X131694904Y-92548971D01*
X131694909Y-92548982D01*
X131825988Y-92776016D01*
X131825994Y-92776024D01*
X131912580Y-92888865D01*
X132891458Y-91909987D01*
X132916478Y-91970390D01*
X132987612Y-92076851D01*
X133078149Y-92167388D01*
X133184610Y-92238522D01*
X133245011Y-92263541D01*
X132266133Y-93242417D01*
X132266133Y-93242418D01*
X132378975Y-93329005D01*
X132378983Y-93329011D01*
X132606017Y-93460090D01*
X132606028Y-93460095D01*
X132848244Y-93560424D01*
X133101479Y-93628277D01*
X133101490Y-93628279D01*
X133361405Y-93662499D01*
X133361420Y-93662500D01*
X133623580Y-93662500D01*
X133623594Y-93662499D01*
X133883509Y-93628279D01*
X133883520Y-93628277D01*
X134136755Y-93560424D01*
X134378971Y-93460095D01*
X134378982Y-93460090D01*
X134606016Y-93329011D01*
X134606034Y-93328999D01*
X134718865Y-93242419D01*
X134718865Y-93242417D01*
X133739988Y-92263541D01*
X133800390Y-92238522D01*
X133906851Y-92167388D01*
X133997388Y-92076851D01*
X134068522Y-91970390D01*
X134093541Y-91909988D01*
X135072417Y-92888865D01*
X135072419Y-92888865D01*
X135158999Y-92776034D01*
X135159011Y-92776016D01*
X135290090Y-92548982D01*
X135290095Y-92548971D01*
X135390424Y-92306755D01*
X135458277Y-92053520D01*
X135458279Y-92053509D01*
X135492499Y-91793594D01*
X135492500Y-91793580D01*
X135492500Y-91531419D01*
X135492499Y-91531405D01*
X135458279Y-91271490D01*
X135458277Y-91271479D01*
X135390424Y-91018244D01*
X135290095Y-90776028D01*
X135290090Y-90776017D01*
X135159011Y-90548983D01*
X135159005Y-90548975D01*
X135072418Y-90436133D01*
X135072417Y-90436133D01*
X134093541Y-91415010D01*
X134068522Y-91354610D01*
X133997388Y-91248149D01*
X133906851Y-91157612D01*
X133800390Y-91086478D01*
X133739987Y-91061457D01*
X134718865Y-90082580D01*
X134606024Y-89995994D01*
X134606016Y-89995988D01*
X134378982Y-89864909D01*
X134378971Y-89864904D01*
X134136755Y-89764575D01*
X133883520Y-89696722D01*
X133883509Y-89696720D01*
X133623594Y-89662500D01*
X133361405Y-89662500D01*
X133101490Y-89696720D01*
X133101479Y-89696722D01*
X132848244Y-89764575D01*
X132606028Y-89864904D01*
X132606017Y-89864909D01*
X132378971Y-89995996D01*
X132266133Y-90082579D01*
X132266133Y-90082580D01*
X133245011Y-91061458D01*
X133184610Y-91086478D01*
X133078149Y-91157612D01*
X132987612Y-91248149D01*
X132916478Y-91354610D01*
X132891458Y-91415011D01*
X131912580Y-90436133D01*
X131912579Y-90436133D01*
X131825996Y-90548971D01*
X131694909Y-90776017D01*
X131694904Y-90776028D01*
X131594575Y-91018244D01*
X131526722Y-91271479D01*
X131526720Y-91271490D01*
X131492500Y-91531405D01*
X117095366Y-91531405D01*
X117098030Y-91511173D01*
X117098030Y-91511171D01*
X117100000Y-91496204D01*
X117100000Y-91273360D01*
X117070914Y-91052430D01*
X117070911Y-91052417D01*
X117013236Y-90837166D01*
X116927954Y-90631282D01*
X116927949Y-90631270D01*
X116816533Y-90438292D01*
X116765956Y-90372380D01*
X116765955Y-90372380D01*
X115964612Y-91173724D01*
X115959111Y-91153194D01*
X115880119Y-91016377D01*
X115768408Y-90904666D01*
X115631591Y-90825674D01*
X115611058Y-90820172D01*
X116388380Y-90042852D01*
X116412403Y-90018828D01*
X116412403Y-90018825D01*
X116346504Y-89968258D01*
X116346491Y-89968249D01*
X116153520Y-89856839D01*
X116153502Y-89856830D01*
X115947618Y-89771548D01*
X115732367Y-89713873D01*
X115732354Y-89713870D01*
X115511425Y-89684785D01*
X115288575Y-89684785D01*
X115067645Y-89713870D01*
X115067632Y-89713873D01*
X114852381Y-89771548D01*
X114646497Y-89856830D01*
X114646479Y-89856839D01*
X114453511Y-89968247D01*
X114387595Y-90018827D01*
X115188941Y-90820172D01*
X115168409Y-90825674D01*
X115031592Y-90904666D01*
X114919881Y-91016377D01*
X114840889Y-91153194D01*
X114835387Y-91173725D01*
X114034042Y-90372380D01*
X113983462Y-90438296D01*
X113872054Y-90631264D01*
X113872045Y-90631282D01*
X113786763Y-90837166D01*
X113729088Y-91052417D01*
X113729085Y-91052430D01*
X113700000Y-91273360D01*
X98764016Y-91273360D01*
X97645117Y-90154461D01*
X96541672Y-89051016D01*
X94139956Y-86649299D01*
X92959959Y-85469301D01*
X92946545Y-85455887D01*
X92840109Y-85384769D01*
X113699500Y-85384769D01*
X113699500Y-87384800D01*
X113710000Y-87487580D01*
X113710001Y-87487581D01*
X113765186Y-87654120D01*
X113765187Y-87654122D01*
X113857286Y-87803436D01*
X113857289Y-87803440D01*
X113981344Y-87927495D01*
X113981348Y-87927498D01*
X114130662Y-88019597D01*
X114130664Y-88019598D01*
X114130666Y-88019599D01*
X114297203Y-88074784D01*
X114399992Y-88085285D01*
X114399997Y-88085285D01*
X116400003Y-88085285D01*
X116400008Y-88085285D01*
X116502797Y-88074784D01*
X116669334Y-88019599D01*
X116818655Y-87927496D01*
X116942711Y-87803440D01*
X117034814Y-87654119D01*
X117089999Y-87487582D01*
X117100500Y-87384793D01*
X117100500Y-85384777D01*
X117089999Y-85281988D01*
X117034814Y-85115451D01*
X117034310Y-85114635D01*
X131492000Y-85114635D01*
X131492000Y-88210370D01*
X131492001Y-88210376D01*
X131498408Y-88269983D01*
X131548702Y-88404828D01*
X131548706Y-88404835D01*
X131634952Y-88520044D01*
X131634955Y-88520047D01*
X131750164Y-88606293D01*
X131750171Y-88606297D01*
X131885017Y-88656591D01*
X131885016Y-88656591D01*
X131891944Y-88657335D01*
X131944627Y-88663000D01*
X135040372Y-88662999D01*
X135099983Y-88656591D01*
X135234831Y-88606296D01*
X135350046Y-88520046D01*
X135436296Y-88404831D01*
X135486591Y-88269983D01*
X135493000Y-88210373D01*
X135492999Y-85114628D01*
X135486591Y-85055017D01*
X135453439Y-84966133D01*
X135436297Y-84920171D01*
X135436293Y-84920164D01*
X135350047Y-84804955D01*
X135350044Y-84804952D01*
X135234835Y-84718706D01*
X135234828Y-84718702D01*
X135099982Y-84668408D01*
X135099983Y-84668408D01*
X135040383Y-84662001D01*
X135040381Y-84662000D01*
X135040373Y-84662000D01*
X135040364Y-84662000D01*
X131944629Y-84662000D01*
X131944623Y-84662001D01*
X131885016Y-84668408D01*
X131750171Y-84718702D01*
X131750164Y-84718706D01*
X131634955Y-84804952D01*
X131634952Y-84804955D01*
X131548706Y-84920164D01*
X131548702Y-84920171D01*
X131498408Y-85055017D01*
X131493781Y-85098061D01*
X131492001Y-85114623D01*
X131492000Y-85114635D01*
X117034310Y-85114635D01*
X117034306Y-85114628D01*
X116942713Y-84966133D01*
X116942710Y-84966129D01*
X116818655Y-84842074D01*
X116818651Y-84842071D01*
X116669337Y-84749972D01*
X116669335Y-84749971D01*
X116574983Y-84718706D01*
X116502797Y-84694786D01*
X116502795Y-84694785D01*
X116400015Y-84684285D01*
X116400008Y-84684285D01*
X114399992Y-84684285D01*
X114399984Y-84684285D01*
X114297204Y-84694785D01*
X114297203Y-84694786D01*
X114130664Y-84749971D01*
X114130662Y-84749972D01*
X113981348Y-84842071D01*
X113981344Y-84842074D01*
X113857289Y-84966129D01*
X113857286Y-84966133D01*
X113765187Y-85115447D01*
X113765186Y-85115449D01*
X113710001Y-85281988D01*
X113710000Y-85281989D01*
X113699500Y-85384769D01*
X92840109Y-85384769D01*
X92831807Y-85379222D01*
X92704332Y-85326421D01*
X92704322Y-85326418D01*
X92568996Y-85299500D01*
X92568994Y-85299500D01*
X92568993Y-85299500D01*
X76427609Y-85299500D01*
X76406126Y-85297625D01*
X75907337Y-85209884D01*
X75907325Y-85209882D01*
X75907302Y-85209879D01*
X75860025Y-85203846D01*
X75859117Y-85203817D01*
X75838883Y-85201497D01*
X75828842Y-85199500D01*
X75671158Y-85199500D01*
X75671155Y-85199500D01*
X75516510Y-85230261D01*
X75516498Y-85230264D01*
X75370827Y-85290602D01*
X75370814Y-85290609D01*
X75239711Y-85378210D01*
X75239707Y-85378213D01*
X75128213Y-85489707D01*
X75128210Y-85489711D01*
X75040609Y-85620814D01*
X75040602Y-85620827D01*
X74980264Y-85766498D01*
X74980261Y-85766510D01*
X74949500Y-85921153D01*
X67587531Y-85921153D01*
X67564389Y-85898011D01*
X67165368Y-85498990D01*
X67147639Y-85476614D01*
X67146029Y-85474014D01*
X67146024Y-85474009D01*
X67146023Y-85474006D01*
X66681973Y-84920169D01*
X66331880Y-84502338D01*
X66314381Y-84482530D01*
X66310911Y-84478602D01*
X66311149Y-84478390D01*
X66302085Y-84468015D01*
X66267084Y-84419839D01*
X66126566Y-84279321D01*
X66126564Y-84279319D01*
X65965794Y-84162513D01*
X65788732Y-84072294D01*
X65788729Y-84072293D01*
X65599737Y-84010887D01*
X65501598Y-83995343D01*
X65403461Y-83979800D01*
X65204739Y-83979800D01*
X65139314Y-83990162D01*
X65008462Y-84010887D01*
X64819470Y-84072293D01*
X64819467Y-84072294D01*
X64642405Y-84162513D01*
X64481633Y-84279321D01*
X64341121Y-84419833D01*
X64224313Y-84580605D01*
X64134094Y-84757667D01*
X64134093Y-84757670D01*
X64072687Y-84946662D01*
X64041600Y-85142939D01*
X64041600Y-85341660D01*
X64072687Y-85537937D01*
X64134093Y-85726929D01*
X64134094Y-85726932D01*
X64181006Y-85819000D01*
X64224313Y-85903994D01*
X64341119Y-86064764D01*
X64481636Y-86205281D01*
X64642406Y-86322087D01*
X64703090Y-86353007D01*
X64793783Y-86399218D01*
X64844579Y-86447193D01*
X64861374Y-86515014D01*
X64838836Y-86581149D01*
X64784121Y-86624600D01*
X64776216Y-86627500D01*
X63717433Y-86975597D01*
X63678705Y-86981800D01*
X54552038Y-86981800D01*
X54484999Y-86962115D01*
X54464357Y-86945481D01*
X53933059Y-86414182D01*
X53899606Y-86353008D01*
X53634342Y-85140752D01*
X53632538Y-85098065D01*
X53637100Y-85063420D01*
X53637100Y-84801180D01*
X53602870Y-84541184D01*
X53534998Y-84287881D01*
X53531452Y-84279321D01*
X53434646Y-84045609D01*
X53434641Y-84045599D01*
X53303524Y-83818496D01*
X53143881Y-83610448D01*
X53143874Y-83610440D01*
X52958460Y-83425026D01*
X52958451Y-83425018D01*
X52750403Y-83265375D01*
X52523300Y-83134258D01*
X52523290Y-83134253D01*
X52281028Y-83033905D01*
X52281021Y-83033903D01*
X52281019Y-83033902D01*
X52027716Y-82966030D01*
X51969939Y-82958423D01*
X51767727Y-82931800D01*
X51767720Y-82931800D01*
X51505480Y-82931800D01*
X51505472Y-82931800D01*
X51274372Y-82962226D01*
X51245484Y-82966030D01*
X50992181Y-83033902D01*
X50992171Y-83033905D01*
X50749909Y-83134253D01*
X50749899Y-83134258D01*
X50522796Y-83265375D01*
X50314748Y-83425018D01*
X50129318Y-83610448D01*
X49969675Y-83818496D01*
X49838558Y-84045599D01*
X49838553Y-84045609D01*
X49738205Y-84287871D01*
X49738202Y-84287881D01*
X49689936Y-84468015D01*
X49670330Y-84541185D01*
X49636100Y-84801172D01*
X42500500Y-84801172D01*
X42500500Y-81514000D01*
X42520185Y-81446961D01*
X42572989Y-81401206D01*
X42624500Y-81390000D01*
X95675000Y-81390000D01*
X141499500Y-81390000D01*
X141499500Y-128995572D01*
G37*
%TD.AperFunction*%
%TD*%
%TA.AperFunction,Conductor*%
%TO.N,GND*%
G36*
X140004418Y-37500816D02*
G01*
X140204561Y-37515130D01*
X140222063Y-37517647D01*
X140413797Y-37559355D01*
X140430755Y-37564334D01*
X140592064Y-37624500D01*
X140614609Y-37632909D01*
X140630701Y-37640259D01*
X140802904Y-37734288D01*
X140817784Y-37743849D01*
X140974867Y-37861441D01*
X140988237Y-37873027D01*
X141126972Y-38011762D01*
X141138558Y-38025132D01*
X141256146Y-38182210D01*
X141265711Y-38197095D01*
X141359740Y-38369298D01*
X141367090Y-38385390D01*
X141435662Y-38569236D01*
X141440646Y-38586212D01*
X141482351Y-38777931D01*
X141484869Y-38795442D01*
X141499184Y-38995580D01*
X141499500Y-39004427D01*
X141499500Y-82090000D01*
X95675000Y-82090000D01*
X95675000Y-54905141D01*
X134474802Y-54905141D01*
X134474802Y-55105860D01*
X134506202Y-55304112D01*
X134506202Y-55304115D01*
X134568226Y-55495005D01*
X134602359Y-55561994D01*
X134659353Y-55673851D01*
X134777334Y-55836238D01*
X134919265Y-55978169D01*
X135081652Y-56096150D01*
X135219877Y-56166579D01*
X135260497Y-56187276D01*
X135451388Y-56249300D01*
X135451389Y-56249300D01*
X135451392Y-56249301D01*
X135649642Y-56280701D01*
X135649643Y-56280701D01*
X135850361Y-56280701D01*
X135850362Y-56280701D01*
X136048612Y-56249301D01*
X136048615Y-56249300D01*
X136048616Y-56249300D01*
X136201672Y-56199569D01*
X136239990Y-56193500D01*
X136306497Y-56193500D01*
X136397543Y-56175389D01*
X136441830Y-56166580D01*
X136569312Y-56113775D01*
X136684044Y-56037114D01*
X136781615Y-55939543D01*
X136858276Y-55824811D01*
X136911081Y-55697329D01*
X136938001Y-55561994D01*
X136938001Y-55495488D01*
X136944070Y-55457169D01*
X136993802Y-55304111D01*
X137025202Y-55105861D01*
X137025202Y-54905141D01*
X136993802Y-54706891D01*
X136993801Y-54706887D01*
X136993801Y-54706886D01*
X136931777Y-54515996D01*
X136840650Y-54337150D01*
X136722670Y-54174764D01*
X136580739Y-54032833D01*
X136418352Y-53914852D01*
X136239506Y-53823725D01*
X136048615Y-53761701D01*
X135899924Y-53738151D01*
X135850362Y-53730301D01*
X135649642Y-53730301D01*
X135583558Y-53740767D01*
X135451390Y-53761701D01*
X135451387Y-53761701D01*
X135260497Y-53823725D01*
X135081651Y-53914852D01*
X134989004Y-53982164D01*
X134919265Y-54032833D01*
X134919263Y-54032835D01*
X134919262Y-54032835D01*
X134777336Y-54174761D01*
X134777336Y-54174762D01*
X134777334Y-54174764D01*
X134726665Y-54244503D01*
X134659353Y-54337150D01*
X134568226Y-54515996D01*
X134506202Y-54706886D01*
X134506202Y-54706889D01*
X134474802Y-54905141D01*
X95675000Y-54905141D01*
X95675000Y-45905174D01*
X134475302Y-45905174D01*
X134475302Y-46105827D01*
X134506688Y-46303994D01*
X134568692Y-46494820D01*
X134659782Y-46673593D01*
X134688637Y-46713309D01*
X134688638Y-46713309D01*
X135250137Y-46151811D01*
X135264787Y-46206484D01*
X135333338Y-46325218D01*
X135430285Y-46422165D01*
X135549019Y-46490716D01*
X135603691Y-46505365D01*
X135042191Y-47066863D01*
X135081908Y-47095719D01*
X135081911Y-47095721D01*
X135260682Y-47186810D01*
X135451508Y-47248814D01*
X135649676Y-47280201D01*
X135850328Y-47280201D01*
X136048495Y-47248814D01*
X136239321Y-47186809D01*
X136418091Y-47095722D01*
X136457810Y-47066863D01*
X135896312Y-46505365D01*
X135950985Y-46490716D01*
X136069719Y-46422165D01*
X136166666Y-46325218D01*
X136235217Y-46206484D01*
X136249866Y-46151812D01*
X136811364Y-46713310D01*
X136811364Y-46713309D01*
X136840223Y-46673590D01*
X136931310Y-46494820D01*
X136993315Y-46303994D01*
X137024702Y-46105827D01*
X137024702Y-45905174D01*
X136993315Y-45707007D01*
X136931311Y-45516181D01*
X136840222Y-45337410D01*
X136840220Y-45337407D01*
X136811364Y-45297691D01*
X136811364Y-45297690D01*
X136249866Y-45859189D01*
X136235217Y-45804518D01*
X136166666Y-45685784D01*
X136069719Y-45588837D01*
X135950985Y-45520286D01*
X135896312Y-45505636D01*
X136457810Y-44944137D01*
X136457810Y-44944136D01*
X136418094Y-44915281D01*
X136239321Y-44824191D01*
X136048495Y-44762187D01*
X135850328Y-44730801D01*
X135649676Y-44730801D01*
X135451508Y-44762187D01*
X135260682Y-44824191D01*
X135081909Y-44915281D01*
X135042192Y-44944136D01*
X135042192Y-44944137D01*
X135603691Y-45505636D01*
X135549019Y-45520286D01*
X135430285Y-45588837D01*
X135333338Y-45685784D01*
X135264787Y-45804518D01*
X135250137Y-45859190D01*
X134688638Y-45297691D01*
X134688637Y-45297691D01*
X134659782Y-45337408D01*
X134568692Y-45516181D01*
X134506688Y-45707007D01*
X134475302Y-45905174D01*
X95675000Y-45905174D01*
X95675000Y-39393713D01*
X138149500Y-39393713D01*
X138149500Y-39606286D01*
X138182753Y-39816239D01*
X138248444Y-40018414D01*
X138344951Y-40207820D01*
X138469890Y-40379786D01*
X138620213Y-40530109D01*
X138792179Y-40655048D01*
X138792181Y-40655049D01*
X138792184Y-40655051D01*
X138981588Y-40751557D01*
X139183757Y-40817246D01*
X139393713Y-40850500D01*
X139393714Y-40850500D01*
X139606286Y-40850500D01*
X139606287Y-40850500D01*
X139816243Y-40817246D01*
X140018412Y-40751557D01*
X140207816Y-40655051D01*
X140229789Y-40639086D01*
X140379786Y-40530109D01*
X140379788Y-40530106D01*
X140379792Y-40530104D01*
X140530104Y-40379792D01*
X140530106Y-40379788D01*
X140530109Y-40379786D01*
X140655048Y-40207820D01*
X140655047Y-40207820D01*
X140655051Y-40207816D01*
X140751557Y-40018412D01*
X140817246Y-39816243D01*
X140850500Y-39606287D01*
X140850500Y-39393713D01*
X140817246Y-39183757D01*
X140751557Y-38981588D01*
X140655051Y-38792184D01*
X140655049Y-38792181D01*
X140655048Y-38792179D01*
X140530109Y-38620213D01*
X140379786Y-38469890D01*
X140207820Y-38344951D01*
X140018414Y-38248444D01*
X140018413Y-38248443D01*
X140018412Y-38248443D01*
X139816243Y-38182754D01*
X139816241Y-38182753D01*
X139816240Y-38182753D01*
X139654957Y-38157208D01*
X139606287Y-38149500D01*
X139393713Y-38149500D01*
X139345042Y-38157208D01*
X139183760Y-38182753D01*
X138981585Y-38248444D01*
X138792179Y-38344951D01*
X138620213Y-38469890D01*
X138469890Y-38620213D01*
X138344951Y-38792179D01*
X138248444Y-38981585D01*
X138182753Y-39183760D01*
X138149500Y-39393713D01*
X95675000Y-39393713D01*
X95675000Y-37624500D01*
X95694685Y-37557461D01*
X95747489Y-37511706D01*
X95799000Y-37500500D01*
X139934108Y-37500500D01*
X139995572Y-37500500D01*
X140004418Y-37500816D01*
G37*
%TD.AperFunction*%
%TD*%
%TA.AperFunction,Conductor*%
%TO.N,PHASE*%
G36*
X57155104Y-45364539D02*
G01*
X58254546Y-46507858D01*
X58257811Y-46516196D01*
X58254386Y-46524240D01*
X57138740Y-47639886D01*
X57130467Y-47643313D01*
X57122910Y-47640545D01*
X55907952Y-46612562D01*
X55903849Y-46604602D01*
X55905773Y-46597142D01*
X56397995Y-45858739D01*
X56401240Y-45855495D01*
X57140182Y-45362913D01*
X57148966Y-45361176D01*
X57155104Y-45364539D01*
G37*
%TD.AperFunction*%
%TD*%
%TA.AperFunction,Conductor*%
%TO.N,PHASE*%
G36*
X52958618Y-61345787D02*
G01*
X54327140Y-61543551D01*
X54334838Y-61548126D01*
X54337167Y-61555131D01*
X54337167Y-63134868D01*
X54333740Y-63143141D01*
X54327140Y-63146448D01*
X52958618Y-63344212D01*
X52949940Y-63342003D01*
X52949091Y-63341304D01*
X51858575Y-62353672D01*
X51854743Y-62345579D01*
X51857757Y-62337146D01*
X51858575Y-62336328D01*
X52949092Y-61348694D01*
X52957524Y-61345681D01*
X52958618Y-61345787D01*
G37*
%TD.AperFunction*%
%TD*%
%TA.AperFunction,Conductor*%
%TO.N,PHASE*%
G36*
X52958618Y-61345787D02*
G01*
X54327140Y-61543551D01*
X54334838Y-61548126D01*
X54337167Y-61555131D01*
X54337167Y-63134868D01*
X54333740Y-63143141D01*
X54327140Y-63146448D01*
X52958618Y-63344212D01*
X52949940Y-63342003D01*
X52949091Y-63341304D01*
X51858575Y-62353672D01*
X51854743Y-62345579D01*
X51857757Y-62337146D01*
X51858575Y-62336328D01*
X52949092Y-61348694D01*
X52957524Y-61345681D01*
X52958618Y-61345787D01*
G37*
%TD.AperFunction*%
%TD*%
%TA.AperFunction,Conductor*%
%TO.N,NEUTRAL*%
G36*
X49772484Y-43131036D02*
G01*
X49779923Y-43136018D01*
X49781848Y-43143471D01*
X49687005Y-44292052D01*
X49650947Y-44728745D01*
X49650887Y-44729470D01*
X49646791Y-44737433D01*
X49639227Y-44740207D01*
X48061465Y-44740207D01*
X48053192Y-44736780D01*
X48049767Y-44728745D01*
X48017492Y-43142871D01*
X48020750Y-43134530D01*
X48026894Y-43131160D01*
X48897706Y-42956959D01*
X48902294Y-42956959D01*
X49772484Y-43131036D01*
G37*
%TD.AperFunction*%
%TD*%
%TA.AperFunction,Conductor*%
%TO.N,NEUTRAL*%
G36*
X50720171Y-49972177D02*
G01*
X51391934Y-50510652D01*
X51820766Y-50854397D01*
X51825078Y-50862245D01*
X51825146Y-50863324D01*
X51850484Y-52332776D01*
X51847201Y-52341107D01*
X51838988Y-52344676D01*
X51837819Y-52344638D01*
X50368326Y-52222824D01*
X50360365Y-52218725D01*
X50359686Y-52217842D01*
X49586205Y-51105025D01*
X49584297Y-51096275D01*
X49587537Y-51090076D01*
X50704581Y-49973032D01*
X50712853Y-49969606D01*
X50720171Y-49972177D01*
G37*
%TD.AperFunction*%
%TD*%
%TA.AperFunction,Conductor*%
%TO.N,NEUTRAL*%
G36*
X49602736Y-41139109D02*
G01*
X50718390Y-42254763D01*
X50721817Y-42263036D01*
X50718804Y-42270873D01*
X49655091Y-43450009D01*
X49647005Y-43453857D01*
X49639914Y-43451907D01*
X48901240Y-42959504D01*
X48897995Y-42956259D01*
X48405592Y-42217585D01*
X48403854Y-42208800D01*
X48407490Y-42202408D01*
X49586626Y-41138695D01*
X49595064Y-41135697D01*
X49602736Y-41139109D01*
G37*
%TD.AperFunction*%
%TD*%
%TA.AperFunction,Conductor*%
%TO.N,/Power - Mains Input & 12V Trigger/TRIGGER+*%
G36*
X65944412Y-84826990D02*
G01*
X66758561Y-85798666D01*
X66761248Y-85807208D01*
X66757866Y-85814453D01*
X66345624Y-86226695D01*
X66337351Y-86230122D01*
X66335016Y-86229887D01*
X65166841Y-85991979D01*
X65159418Y-85986970D01*
X65157698Y-85978244D01*
X65302449Y-85246361D01*
X65307415Y-85238912D01*
X65928958Y-84824766D01*
X65937741Y-84823032D01*
X65944412Y-84826990D01*
G37*
%TD.AperFunction*%
%TD*%
%TA.AperFunction,Conductor*%
%TO.N,/Power - Mains Input & 12V Trigger/TRIGGER+*%
G36*
X53142359Y-89242635D02*
G01*
X53520720Y-89599275D01*
X54132925Y-90176337D01*
X54136595Y-90184504D01*
X54136600Y-90184850D01*
X54136600Y-90772600D01*
X54133173Y-90780873D01*
X54130172Y-90783045D01*
X53143751Y-91280959D01*
X53134821Y-91281628D01*
X53130648Y-91279207D01*
X51648767Y-89944162D01*
X51644914Y-89936078D01*
X51647905Y-89927638D01*
X51651677Y-89924854D01*
X53129417Y-89240531D01*
X53138365Y-89240165D01*
X53142359Y-89242635D01*
G37*
%TD.AperFunction*%
%TD*%
%TA.AperFunction,Conductor*%
%TO.N,/Power - Mains Input & 12V Trigger/TRIGGER-*%
G36*
X65151835Y-87039735D02*
G01*
X65157675Y-87046524D01*
X65158032Y-87047881D01*
X65304640Y-87780003D01*
X65304640Y-87784597D01*
X65158032Y-88516718D01*
X65153048Y-88524158D01*
X65144263Y-88525893D01*
X65142906Y-88525536D01*
X63802788Y-88084945D01*
X63795999Y-88079105D01*
X63794742Y-88073830D01*
X63794742Y-87490769D01*
X63798169Y-87482496D01*
X63802785Y-87479655D01*
X65142906Y-87039063D01*
X65151835Y-87039735D01*
G37*
%TD.AperFunction*%
%TD*%
%TA.AperFunction,Conductor*%
%TO.N,/Power - Mains Input & 12V Trigger/TRIGGER-*%
G36*
X51648732Y-84933466D02*
G01*
X53110441Y-85146754D01*
X53118133Y-85151339D01*
X53120182Y-85155830D01*
X53441864Y-86625919D01*
X53440284Y-86634733D01*
X53438707Y-86636693D01*
X53024632Y-87050768D01*
X53016359Y-87054195D01*
X53011638Y-87053200D01*
X52067208Y-86636693D01*
X51581943Y-86422684D01*
X51575757Y-86416211D01*
X51574975Y-86411503D01*
X51635359Y-84944562D01*
X51639123Y-84936438D01*
X51647530Y-84933354D01*
X51648732Y-84933466D01*
G37*
%TD.AperFunction*%
%TD*%
%TA.AperFunction,Conductor*%
%TO.N,Net-(U2-FB)*%
G36*
X76334563Y-85798298D02*
G01*
X76342117Y-85803106D01*
X76344236Y-85809821D01*
X76344236Y-86190178D01*
X76340809Y-86198451D01*
X76334563Y-86201701D01*
X75819760Y-86292259D01*
X75811018Y-86290317D01*
X75806265Y-86283056D01*
X75789462Y-86200000D01*
X75749469Y-86002318D01*
X75749469Y-85997680D01*
X75787475Y-85809821D01*
X75806265Y-85716942D01*
X75811265Y-85709514D01*
X75819760Y-85707740D01*
X76334563Y-85798298D01*
G37*
%TD.AperFunction*%
%TD*%
%TA.AperFunction,Conductor*%
%TO.N,Net-(U2-FB)*%
G36*
X99929275Y-93144026D02*
G01*
X100357331Y-93444013D01*
X100362139Y-93451567D01*
X100360365Y-93460062D01*
X100202015Y-93698734D01*
X100198734Y-93702015D01*
X99960062Y-93860365D01*
X99951274Y-93862084D01*
X99944013Y-93857331D01*
X99644026Y-93429275D01*
X99642085Y-93420535D01*
X99645333Y-93414291D01*
X99914290Y-93145334D01*
X99922562Y-93141908D01*
X99929275Y-93144026D01*
G37*
%TD.AperFunction*%
%TD*%
%TA.AperFunction,Conductor*%
%TO.N,+18VDC*%
G36*
X120697017Y-124009654D02*
G01*
X121212260Y-124196469D01*
X121218869Y-124202509D01*
X121219971Y-124207467D01*
X121219971Y-124391062D01*
X121216544Y-124399335D01*
X121212259Y-124402061D01*
X120697025Y-124588873D01*
X120688079Y-124588472D01*
X120682038Y-124581862D01*
X120681572Y-124580204D01*
X120625204Y-124301583D01*
X120625204Y-124296945D01*
X120681570Y-124018332D01*
X120686569Y-124010906D01*
X120695357Y-124009187D01*
X120697017Y-124009654D01*
G37*
%TD.AperFunction*%
%TD*%
%TA.AperFunction,Conductor*%
%TO.N,+18VDC*%
G36*
X124690423Y-119345710D02*
G01*
X124695374Y-119353172D01*
X124695531Y-119354235D01*
X124748692Y-119877800D01*
X124746119Y-119886377D01*
X124738234Y-119890622D01*
X124737052Y-119890682D01*
X124553949Y-119890682D01*
X124546859Y-119888289D01*
X124242060Y-119656092D01*
X124237555Y-119648353D01*
X124239410Y-119640303D01*
X124397295Y-119403064D01*
X124404731Y-119398075D01*
X124404727Y-119398075D01*
X124681647Y-119343934D01*
X124690423Y-119345710D01*
G37*
%TD.AperFunction*%
%TD*%
M02*
