%TF.GenerationSoftware,KiCad,Pcbnew,9.0.2*%
%TF.CreationDate,2025-06-19T15:47:43+12:00*%
%TF.ProjectId,ES-Speed-Box-Power,45532d53-7065-4656-942d-426f782d506f,rev?*%
%TF.SameCoordinates,Original*%
%TF.FileFunction,Legend,Bot*%
%TF.FilePolarity,Positive*%
%FSLAX46Y46*%
G04 Gerber Fmt 4.6, Leading zero omitted, Abs format (unit mm)*
G04 Created by KiCad (PCBNEW 9.0.2) date 2025-06-19 15:47:43*
%MOMM*%
%LPD*%
G01*
G04 APERTURE LIST*
G04 Aperture macros list*
%AMRoundRect*
0 Rectangle with rounded corners*
0 $1 Rounding radius*
0 $2 $3 $4 $5 $6 $7 $8 $9 X,Y pos of 4 corners*
0 Add a 4 corners polygon primitive as box body*
4,1,4,$2,$3,$4,$5,$6,$7,$8,$9,$2,$3,0*
0 Add four circle primitives for the rounded corners*
1,1,$1+$1,$2,$3*
1,1,$1+$1,$4,$5*
1,1,$1+$1,$6,$7*
1,1,$1+$1,$8,$9*
0 Add four rect primitives between the rounded corners*
20,1,$1+$1,$2,$3,$4,$5,0*
20,1,$1+$1,$4,$5,$6,$7,0*
20,1,$1+$1,$6,$7,$8,$9,0*
20,1,$1+$1,$8,$9,$2,$3,0*%
G04 Aperture macros list end*
%ADD10C,0.120000*%
%ADD11R,3.000000X3.000000*%
%ADD12C,3.000000*%
%ADD13C,2.200000*%
%ADD14C,2.400000*%
%ADD15RoundRect,0.250001X-0.949999X0.949999X-0.949999X-0.949999X0.949999X-0.949999X0.949999X0.949999X0*%
%ADD16C,1.524000*%
%ADD17C,1.549400*%
%ADD18C,1.800000*%
%ADD19RoundRect,0.249999X1.075001X-0.450001X1.075001X0.450001X-1.075001X0.450001X-1.075001X-0.450001X0*%
G04 APERTURE END LIST*
D10*
%TO.C,R2*%
X65952500Y-47872064D02*
X65952500Y-44817936D01*
X68672500Y-47872064D02*
X68672500Y-44817936D01*
%TO.C,R1*%
X65952500Y-56072064D02*
X65952500Y-53017936D01*
X68672500Y-56072064D02*
X68672500Y-53017936D01*
%TD*%
%LPC*%
D11*
%TO.C,J1*%
X51850000Y-72345000D03*
D12*
X51850000Y-67345000D03*
X51850000Y-62345000D03*
X51850000Y-57345000D03*
X51850000Y-52345000D03*
%TD*%
D13*
%TO.C,H4*%
X139500000Y-128500000D03*
%TD*%
D11*
%TO.C,J4*%
X133492500Y-86662500D03*
D12*
X133492500Y-91662500D03*
%TD*%
D11*
%TO.C,J5*%
X133500000Y-118500000D03*
D12*
X133500000Y-123500000D03*
%TD*%
D14*
%TO.C,C1*%
X64450000Y-57807500D03*
X64450000Y-42807500D03*
%TD*%
D15*
%TO.C,C208*%
X91900000Y-118200000D03*
D14*
X91900000Y-123200000D03*
%TD*%
D13*
%TO.C,H2*%
X44500000Y-128500000D03*
%TD*%
D16*
%TO.C,S1*%
X65304100Y-67462300D03*
X65304100Y-75082300D03*
X65304100Y-85242300D03*
X65304100Y-87782300D03*
%TD*%
D15*
%TO.C,C200*%
X115400000Y-86384785D03*
D14*
X115400000Y-91384785D03*
%TD*%
D17*
%TO.C,U1*%
X74249998Y-46005501D03*
X74249998Y-51505501D03*
X135750002Y-55005501D03*
X135750002Y-46005501D03*
%TD*%
D18*
%TO.C,RV1*%
X56400000Y-45857500D03*
X48900000Y-42957500D03*
%TD*%
D11*
%TO.C,J2*%
X51636600Y-89932300D03*
D12*
X51636600Y-84932300D03*
%TD*%
D11*
%TO.C,J3*%
X133492500Y-100000000D03*
D12*
X133492500Y-105000000D03*
X133492500Y-110000000D03*
%TD*%
D13*
%TO.C,H1*%
X44500000Y-39500000D03*
%TD*%
%TO.C,H3*%
X139500000Y-39500000D03*
%TD*%
D19*
%TO.C,R2*%
X67312500Y-48745000D03*
X67312500Y-43945000D03*
%TD*%
%TO.C,R1*%
X67312500Y-56945000D03*
X67312500Y-52145000D03*
%TD*%
%LPD*%
M02*
