%TF.GenerationSoftware,KiCad,Pcbnew,9.0.2*%
%TF.CreationDate,2025-06-19T15:47:43+12:00*%
%TF.ProjectId,ES-Speed-Box-Power,45532d53-7065-4656-942d-426f782d506f,rev?*%
%TF.SameCoordinates,Original*%
%TF.FileFunction,Copper,L1,Top*%
%TF.FilePolarity,Positive*%
%FSLAX46Y46*%
G04 Gerber Fmt 4.6, Leading zero omitted, Abs format (unit mm)*
G04 Created by KiCad (PCBNEW 9.0.2) date 2025-06-19 15:47:43*
%MOMM*%
%LPD*%
G01*
G04 APERTURE LIST*
G04 Aperture macros list*
%AMRoundRect*
0 Rectangle with rounded corners*
0 $1 Rounding radius*
0 $2 $3 $4 $5 $6 $7 $8 $9 X,Y pos of 4 corners*
0 Add a 4 corners polygon primitive as box body*
4,1,4,$2,$3,$4,$5,$6,$7,$8,$9,$2,$3,0*
0 Add four circle primitives for the rounded corners*
1,1,$1+$1,$2,$3*
1,1,$1+$1,$4,$5*
1,1,$1+$1,$6,$7*
1,1,$1+$1,$8,$9*
0 Add four rect primitives between the rounded corners*
20,1,$1+$1,$2,$3,$4,$5,0*
20,1,$1+$1,$4,$5,$6,$7,0*
20,1,$1+$1,$6,$7,$8,$9,0*
20,1,$1+$1,$8,$9,$2,$3,0*%
G04 Aperture macros list end*
%TA.AperFunction,SMDPad,CuDef*%
%ADD10RoundRect,0.250000X0.475000X-0.250000X0.475000X0.250000X-0.475000X0.250000X-0.475000X-0.250000X0*%
%TD*%
%TA.AperFunction,SMDPad,CuDef*%
%ADD11RoundRect,0.225000X0.225000X0.250000X-0.225000X0.250000X-0.225000X-0.250000X0.225000X-0.250000X0*%
%TD*%
%TA.AperFunction,SMDPad,CuDef*%
%ADD12RoundRect,0.225000X-0.250000X0.225000X-0.250000X-0.225000X0.250000X-0.225000X0.250000X0.225000X0*%
%TD*%
%TA.AperFunction,SMDPad,CuDef*%
%ADD13RoundRect,0.250000X-0.475000X0.250000X-0.475000X-0.250000X0.475000X-0.250000X0.475000X0.250000X0*%
%TD*%
%TA.AperFunction,SMDPad,CuDef*%
%ADD14RoundRect,0.250000X-0.250000X-0.475000X0.250000X-0.475000X0.250000X0.475000X-0.250000X0.475000X0*%
%TD*%
%TA.AperFunction,ComponentPad*%
%ADD15R,3.000000X3.000000*%
%TD*%
%TA.AperFunction,ComponentPad*%
%ADD16C,3.000000*%
%TD*%
%TA.AperFunction,SMDPad,CuDef*%
%ADD17RoundRect,0.200000X0.200000X0.275000X-0.200000X0.275000X-0.200000X-0.275000X0.200000X-0.275000X0*%
%TD*%
%TA.AperFunction,SMDPad,CuDef*%
%ADD18RoundRect,0.225000X-0.225000X-0.250000X0.225000X-0.250000X0.225000X0.250000X-0.225000X0.250000X0*%
%TD*%
%TA.AperFunction,SMDPad,CuDef*%
%ADD19R,1.550000X0.600000*%
%TD*%
%TA.AperFunction,ComponentPad*%
%ADD20C,0.600000*%
%TD*%
%TA.AperFunction,SMDPad,CuDef*%
%ADD21R,2.600000X3.100000*%
%TD*%
%TA.AperFunction,SMDPad,CuDef*%
%ADD22R,2.950000X4.500000*%
%TD*%
%TA.AperFunction,SMDPad,CuDef*%
%ADD23RoundRect,0.202500X-0.882500X-0.607500X0.882500X-0.607500X0.882500X0.607500X-0.882500X0.607500X0*%
%TD*%
%TA.AperFunction,SMDPad,CuDef*%
%ADD24RoundRect,0.200000X-0.200000X-0.275000X0.200000X-0.275000X0.200000X0.275000X-0.200000X0.275000X0*%
%TD*%
%TA.AperFunction,ComponentPad*%
%ADD25RoundRect,0.250001X-0.949999X0.949999X-0.949999X-0.949999X0.949999X-0.949999X0.949999X0.949999X0*%
%TD*%
%TA.AperFunction,ComponentPad*%
%ADD26C,2.400000*%
%TD*%
%TA.AperFunction,SMDPad,CuDef*%
%ADD27RoundRect,0.200000X-0.275000X0.200000X-0.275000X-0.200000X0.275000X-0.200000X0.275000X0.200000X0*%
%TD*%
%TA.AperFunction,SMDPad,CuDef*%
%ADD28RoundRect,0.250000X1.000000X0.650000X-1.000000X0.650000X-1.000000X-0.650000X1.000000X-0.650000X0*%
%TD*%
%TA.AperFunction,SMDPad,CuDef*%
%ADD29R,1.600000X0.300000*%
%TD*%
%TA.AperFunction,SMDPad,CuDef*%
%ADD30R,3.400000X5.000000*%
%TD*%
%TA.AperFunction,ComponentPad*%
%ADD31C,1.524000*%
%TD*%
%TA.AperFunction,ComponentPad*%
%ADD32C,1.549400*%
%TD*%
%TA.AperFunction,SMDPad,CuDef*%
%ADD33R,4.500000X2.150000*%
%TD*%
%TA.AperFunction,SMDPad,CuDef*%
%ADD34RoundRect,0.250000X1.000000X0.900000X-1.000000X0.900000X-1.000000X-0.900000X1.000000X-0.900000X0*%
%TD*%
%TA.AperFunction,ViaPad*%
%ADD35C,0.600000*%
%TD*%
%TA.AperFunction,Conductor*%
%ADD36C,0.200000*%
%TD*%
%TA.AperFunction,Conductor*%
%ADD37C,0.400000*%
%TD*%
%TA.AperFunction,Conductor*%
%ADD38C,0.800000*%
%TD*%
%TA.AperFunction,Conductor*%
%ADD39C,1.600000*%
%TD*%
%TA.AperFunction,Conductor*%
%ADD40C,0.300000*%
%TD*%
G04 APERTURE END LIST*
D10*
%TO.P,C12,1*%
%TO.N,GND*%
X77800000Y-106099997D03*
%TO.P,C12,2*%
%TO.N,-24VDC*%
X77800000Y-104199999D03*
%TD*%
D11*
%TO.P,C7,1*%
%TO.N,Net-(U2-BOOT)*%
X82675000Y-93800000D03*
%TO.P,C7,2*%
%TO.N,Net-(D1-K)*%
X81125000Y-93800000D03*
%TD*%
D12*
%TO.P,C9,1*%
%TO.N,Net-(U2-COMP)*%
X74700000Y-87889998D03*
%TO.P,C9,2*%
%TO.N,-24VDC*%
X74700000Y-89439998D03*
%TD*%
D13*
%TO.P,C205,1*%
%TO.N,+18VDC*%
X118025000Y-119375002D03*
%TO.P,C205,2*%
%TO.N,GND*%
X118025000Y-121275000D03*
%TD*%
%TO.P,C11,1*%
%TO.N,+24VDC*%
X98900000Y-104200000D03*
%TO.P,C11,2*%
%TO.N,GND*%
X98900000Y-106099998D03*
%TD*%
D14*
%TO.P,C4,1*%
%TO.N,+12VDC*%
X88450000Y-90864998D03*
%TO.P,C4,2*%
%TO.N,GND*%
X90350000Y-90864998D03*
%TD*%
D15*
%TO.P,J1,1,Pin_1*%
%TO.N,EARTH*%
X51850000Y-72345000D03*
D16*
%TO.P,J1,3,Pin_3*%
%TO.N,PHASE*%
X51850000Y-62345000D03*
%TO.P,J1,5,Pin_5*%
%TO.N,NEUTRAL*%
X51850000Y-52345000D03*
%TD*%
D14*
%TO.P,C3,1*%
%TO.N,+12VDC*%
X88450000Y-88364998D03*
%TO.P,C3,2*%
%TO.N,GND*%
X90350000Y-88364998D03*
%TD*%
D13*
%TO.P,C6,1*%
%TO.N,+12VDC*%
X70000000Y-92050001D03*
%TO.P,C6,2*%
%TO.N,-24VDC*%
X70000000Y-93949999D03*
%TD*%
D17*
%TO.P,R5,1*%
%TO.N,Net-(U2-RT{slash}CLK)*%
X82725000Y-85714998D03*
%TO.P,R5,2*%
%TO.N,-24VDC*%
X81075000Y-85714998D03*
%TD*%
D12*
%TO.P,C8,1*%
%TO.N,Net-(C8-Pad1)*%
X72600000Y-87889998D03*
%TO.P,C8,2*%
%TO.N,-24VDC*%
X72600000Y-89439998D03*
%TD*%
D18*
%TO.P,C10,1*%
%TO.N,GND*%
X92825000Y-92700000D03*
%TO.P,C10,2*%
%TO.N,Net-(C10-Pad2)*%
X94375000Y-92700000D03*
%TD*%
D15*
%TO.P,J4,1,Pin_1*%
%TO.N,+12VDC*%
X133492500Y-86662500D03*
D16*
%TO.P,J4,2,Pin_2*%
%TO.N,GND*%
X133492500Y-91662500D03*
%TD*%
D17*
%TO.P,R6,1*%
%TO.N,Net-(U2-COMP)*%
X74525000Y-85964998D03*
%TO.P,R6,2*%
%TO.N,Net-(C8-Pad1)*%
X72875000Y-85964998D03*
%TD*%
D19*
%TO.P,U2,1,BOOT*%
%TO.N,Net-(U2-BOOT)*%
X82700000Y-91819998D03*
%TO.P,U2,2,VIN*%
%TO.N,+12VDC*%
X82700000Y-90549998D03*
%TO.P,U2,3,EN*%
%TO.N,Net-(U2-EN)*%
X82700000Y-89279998D03*
%TO.P,U2,4,RT/CLK*%
%TO.N,Net-(U2-RT{slash}CLK)*%
X82700000Y-88009998D03*
%TO.P,U2,5,FB*%
%TO.N,Net-(U2-FB)*%
X77300000Y-88009998D03*
%TO.P,U2,6,COMP*%
%TO.N,Net-(U2-COMP)*%
X77300000Y-89279998D03*
%TO.P,U2,7,GND*%
%TO.N,-24VDC*%
X77300000Y-90549998D03*
%TO.P,U2,8,SW*%
%TO.N,Net-(D1-K)*%
X77300000Y-91819998D03*
D20*
%TO.P,U2,9,GNDPAD*%
%TO.N,-24VDC*%
X80600000Y-91714998D03*
X80600000Y-90514998D03*
X80600000Y-89214998D03*
X80600000Y-88114998D03*
D21*
X80000000Y-89914998D03*
D22*
X80000000Y-89914998D03*
D20*
X79400000Y-91714998D03*
X79400000Y-90514998D03*
X79400000Y-89214998D03*
X79400000Y-88114998D03*
%TD*%
D15*
%TO.P,J5,1,Pin_1*%
%TO.N,+18VDC*%
X133500000Y-118500000D03*
D16*
%TO.P,J5,2,Pin_2*%
%TO.N,GND*%
X133500000Y-123500000D03*
%TD*%
D23*
%TO.P,L200,1,1*%
%TO.N,+12VDC*%
X102310000Y-117775000D03*
%TO.P,L200,2,2*%
%TO.N,/Power - 18VDC/SW*%
X107150000Y-117775000D03*
%TD*%
D24*
%TO.P,R203,1*%
%TO.N,Net-(U200-FB)*%
X117900000Y-126925000D03*
%TO.P,R203,2*%
%TO.N,GND*%
X119550000Y-126925000D03*
%TD*%
D25*
%TO.P,C208,1*%
%TO.N,+12VDC*%
X91900000Y-118200000D03*
D26*
%TO.P,C208,2*%
%TO.N,GND*%
X91900000Y-123200000D03*
%TD*%
D24*
%TO.P,R200,1*%
%TO.N,Net-(U200-FREQ)*%
X117875000Y-123175000D03*
%TO.P,R200,2*%
%TO.N,GND*%
X119525000Y-123175000D03*
%TD*%
D27*
%TO.P,R8,1*%
%TO.N,Net-(C10-Pad2)*%
X95450000Y-96000000D03*
%TO.P,R8,2*%
%TO.N,Net-(D2-A)*%
X95450000Y-97650000D03*
%TD*%
D28*
%TO.P,D2,1,K*%
%TO.N,+24VDC*%
X103200000Y-98800000D03*
%TO.P,D2,2,A*%
%TO.N,Net-(D2-A)*%
X99200000Y-98800000D03*
%TD*%
D17*
%TO.P,R202,1*%
%TO.N,+18VDC*%
X119550000Y-125075000D03*
%TO.P,R202,2*%
%TO.N,Net-(U200-FB)*%
X117900000Y-125075000D03*
%TD*%
D27*
%TO.P,R7,1*%
%TO.N,-24VDC*%
X77100000Y-84314998D03*
%TO.P,R7,2*%
%TO.N,Net-(U2-FB)*%
X77100000Y-85964998D03*
%TD*%
D13*
%TO.P,C202,1*%
%TO.N,+12VDC*%
X121550000Y-112875001D03*
%TO.P,C202,2*%
%TO.N,GND*%
X121550000Y-114774999D03*
%TD*%
D29*
%TO.P,U200,1,SW*%
%TO.N,/Power - 18VDC/SW*%
X110000000Y-120675000D03*
%TO.P,U200,2,SW__1*%
X110000000Y-121325000D03*
%TO.P,U200,3,VIN*%
%TO.N,+12VDC*%
X110000000Y-121975000D03*
%TO.P,U200,4,EN*%
X110000000Y-122625000D03*
%TO.P,U200,5,SS*%
%TO.N,Net-(U200-SS)*%
X110000000Y-123275000D03*
%TO.P,U200,6,SYNC*%
%TO.N,GND*%
X110000000Y-123925000D03*
%TO.P,U200,7,AGND*%
X110000000Y-124575000D03*
%TO.P,U200,8,COMP*%
%TO.N,Net-(U200-COMP)*%
X115600000Y-124575000D03*
%TO.P,U200,9,FB*%
%TO.N,Net-(U200-FB)*%
X115600000Y-123925000D03*
%TO.P,U200,10,FREQ*%
%TO.N,Net-(U200-FREQ)*%
X115600000Y-123275000D03*
%TO.P,U200,11*%
%TO.N,N/C*%
X115600000Y-122625000D03*
%TO.P,U200,12,PGND*%
%TO.N,GND*%
X115600000Y-121975000D03*
%TO.P,U200,13,PGND__1*%
X115600000Y-121325000D03*
%TO.P,U200,14,PGND__2*%
X115600000Y-120675000D03*
D30*
%TO.P,U200,15,EPAD*%
X112800000Y-122625000D03*
%TD*%
D28*
%TO.P,D1,1,K*%
%TO.N,Net-(D1-K)*%
X77700000Y-98699998D03*
%TO.P,D1,2,A*%
%TO.N,-24VDC*%
X73700000Y-98699998D03*
%TD*%
D31*
%TO.P,S1,1,OUT1*%
%TO.N,PHASE*%
X65304100Y-67462300D03*
%TO.P,S1,2,OUT2*%
%TO.N,PHASE_SWITCHED*%
X65304100Y-75082300D03*
%TO.P,S1,3,IN+*%
%TO.N,/Power - Mains Input & 12V Trigger/TRIGGER+*%
X65304100Y-85242300D03*
%TO.P,S1,4,IN-*%
%TO.N,/Power - Mains Input & 12V Trigger/TRIGGER-*%
X65304100Y-87782300D03*
%TD*%
D25*
%TO.P,C200,1*%
%TO.N,+12VDC*%
X115400000Y-86384785D03*
D26*
%TO.P,C200,2*%
%TO.N,GND*%
X115400000Y-91384785D03*
%TD*%
D12*
%TO.P,C203,1*%
%TO.N,Net-(U200-SS)*%
X107350000Y-123750000D03*
%TO.P,C203,2*%
%TO.N,GND*%
X107350000Y-125300000D03*
%TD*%
D17*
%TO.P,R201,1*%
%TO.N,Net-(U200-COMP)*%
X115525000Y-126625000D03*
%TO.P,R201,2*%
%TO.N,Net-(C204-Pad1)*%
X113875000Y-126625000D03*
%TD*%
D32*
%TO.P,U1,1,AC/L*%
%TO.N,PHASE_SWITCHED*%
X74249998Y-46005501D03*
%TO.P,U1,2,AC/N*%
%TO.N,NEUTRAL*%
X74249998Y-51505501D03*
%TO.P,U1,3,V+*%
%TO.N,+12VDC*%
X135750002Y-55005501D03*
%TO.P,U1,4,V-*%
%TO.N,GND*%
X135750002Y-46005501D03*
%TD*%
D17*
%TO.P,R3,1*%
%TO.N,+12VDC*%
X86425000Y-85714998D03*
%TO.P,R3,2*%
%TO.N,Net-(U2-EN)*%
X84775000Y-85714998D03*
%TD*%
D13*
%TO.P,C13,1*%
%TO.N,+24VDC*%
X101450000Y-104200000D03*
%TO.P,C13,2*%
%TO.N,GND*%
X101450000Y-106099998D03*
%TD*%
D14*
%TO.P,C2,1*%
%TO.N,+12VDC*%
X88450000Y-85964998D03*
%TO.P,C2,2*%
%TO.N,GND*%
X90350000Y-85964998D03*
%TD*%
D13*
%TO.P,C207,1*%
%TO.N,+18VDC*%
X122900000Y-119375002D03*
%TO.P,C207,2*%
%TO.N,GND*%
X122900000Y-121275000D03*
%TD*%
D12*
%TO.P,C5,1*%
%TO.N,+12VDC*%
X85700000Y-91164998D03*
%TO.P,C5,2*%
%TO.N,GND*%
X85700000Y-92714998D03*
%TD*%
D15*
%TO.P,J2,1,Pin_1*%
%TO.N,/Power - Mains Input & 12V Trigger/TRIGGER+*%
X51636600Y-89932300D03*
D16*
%TO.P,J2,2,Pin_2*%
%TO.N,/Power - Mains Input & 12V Trigger/TRIGGER-*%
X51636600Y-84932300D03*
%TD*%
D10*
%TO.P,C16,1*%
%TO.N,GND*%
X72600000Y-106099997D03*
%TO.P,C16,2*%
%TO.N,-24VDC*%
X72600000Y-104199999D03*
%TD*%
D17*
%TO.P,R4,1*%
%TO.N,Net-(U2-EN)*%
X82725000Y-83764998D03*
%TO.P,R4,2*%
%TO.N,-24VDC*%
X81075000Y-83764998D03*
%TD*%
D10*
%TO.P,C14,1*%
%TO.N,GND*%
X75200000Y-106099997D03*
%TO.P,C14,2*%
%TO.N,-24VDC*%
X75200000Y-104199999D03*
%TD*%
D15*
%TO.P,J3,1,Pin_1*%
%TO.N,+24VDC*%
X133492500Y-100000000D03*
D16*
%TO.P,J3,2,Pin_2*%
%TO.N,GND*%
X133492500Y-105000000D03*
%TO.P,J3,3,Pin_3*%
%TO.N,-24VDC*%
X133492500Y-110000000D03*
%TD*%
D33*
%TO.P,L1,1,1*%
%TO.N,GND*%
X82750000Y-103614998D03*
%TO.P,L1,2,2*%
%TO.N,Net-(D1-K)*%
X82750000Y-100184998D03*
%TO.P,L1,3,3*%
%TO.N,Net-(D2-A)*%
X91250000Y-100184998D03*
%TO.P,L1,4,4*%
%TO.N,GND*%
X91250000Y-103614998D03*
%TD*%
D13*
%TO.P,C201,1*%
%TO.N,+12VDC*%
X119050000Y-112875001D03*
%TO.P,C201,2*%
%TO.N,GND*%
X119050000Y-114774999D03*
%TD*%
%TO.P,C15,1*%
%TO.N,+24VDC*%
X104000000Y-104200000D03*
%TO.P,C15,2*%
%TO.N,GND*%
X104000000Y-106099998D03*
%TD*%
D34*
%TO.P,D200,1,K*%
%TO.N,+18VDC*%
X114800001Y-117225000D03*
%TO.P,D200,2,A*%
%TO.N,/Power - 18VDC/SW*%
X110499999Y-117225000D03*
%TD*%
D13*
%TO.P,C206,1*%
%TO.N,+18VDC*%
X120500000Y-119375002D03*
%TO.P,C206,2*%
%TO.N,GND*%
X120500000Y-121275000D03*
%TD*%
D24*
%TO.P,R9,1*%
%TO.N,Net-(U2-FB)*%
X100200000Y-94900000D03*
%TO.P,R9,2*%
%TO.N,+24VDC*%
X101850000Y-94900000D03*
%TD*%
D11*
%TO.P,C204,1*%
%TO.N,Net-(C204-Pad1)*%
X111875000Y-126625000D03*
%TO.P,C204,2*%
%TO.N,GND*%
X110325000Y-126625000D03*
%TD*%
D35*
%TO.N,GND*%
X112886578Y-115886578D03*
X85500000Y-94500000D03*
X96000000Y-106000000D03*
X112800000Y-124325000D03*
X111900000Y-120925000D03*
X115600000Y-114774999D03*
X80750000Y-106000000D03*
X90500000Y-94500000D03*
X88500000Y-92500000D03*
X81750000Y-107000000D03*
X112800000Y-122625000D03*
X95000000Y-106000000D03*
X80750000Y-107000000D03*
X88500000Y-93500000D03*
X89500000Y-92500000D03*
X95000000Y-108000000D03*
X113936578Y-114836578D03*
X111900000Y-122625000D03*
X112800000Y-121825000D03*
X86500000Y-94500000D03*
X90500000Y-93500000D03*
X95000000Y-107000000D03*
X108700000Y-126625000D03*
X121700000Y-121400000D03*
X111900000Y-124325000D03*
X97000000Y-106000000D03*
X111900000Y-121825000D03*
X97000000Y-107000000D03*
X112800000Y-117400000D03*
X81750000Y-106000000D03*
X82750000Y-108000000D03*
X113800000Y-121825000D03*
X96000000Y-108000000D03*
X114800000Y-114774999D03*
X89500000Y-93500000D03*
X81750000Y-108000000D03*
X119200000Y-121400000D03*
X96000000Y-107000000D03*
X113800000Y-124325000D03*
X80750000Y-108000000D03*
X113436578Y-115336578D03*
X89500000Y-94500000D03*
X112800000Y-120925000D03*
X97000000Y-108000000D03*
X113800000Y-123525000D03*
X112800000Y-118300000D03*
X82750000Y-106000000D03*
X113800000Y-120925000D03*
X113800000Y-122625000D03*
X112800000Y-116700000D03*
X112800000Y-123525000D03*
X87500000Y-94500000D03*
X116800000Y-121300000D03*
X111900000Y-123525000D03*
X82750000Y-107000000D03*
X88500000Y-94500000D03*
X90500000Y-92500000D03*
%TO.N,Net-(U2-FB)*%
X100200000Y-93700000D03*
X75750000Y-86000000D03*
%TO.N,+18VDC*%
X120625735Y-124299265D03*
X124400000Y-119400000D03*
%TD*%
D36*
%TO.N,GND*%
X119550000Y-126925000D02*
X118774000Y-127701000D01*
D37*
X92185002Y-92700000D02*
X90350000Y-90864998D01*
D36*
X111401000Y-127701000D02*
X110325000Y-126625000D01*
X116800000Y-127701000D02*
X111401000Y-127701000D01*
D37*
X123225000Y-121600000D02*
X122900000Y-121275000D01*
D38*
X113936578Y-114836578D02*
X113436578Y-115336578D01*
X114800000Y-114774999D02*
X113998158Y-114774999D01*
D36*
X108075000Y-124575000D02*
X107350000Y-125300000D01*
X108700000Y-126625000D02*
X108675000Y-126625000D01*
X120350000Y-123175000D02*
X121300000Y-124125000D01*
D38*
X113998158Y-114774999D02*
X113936578Y-114836578D01*
D36*
X108675000Y-126625000D02*
X107350000Y-125300000D01*
D38*
X119050000Y-114774999D02*
X115600000Y-114774999D01*
X112800000Y-115973157D02*
X112800000Y-116700000D01*
X113436578Y-115336578D02*
X112886578Y-115886578D01*
X112800000Y-117400000D02*
X112800000Y-118300000D01*
X121550000Y-114774999D02*
X119050000Y-114774999D01*
X115600000Y-114774999D02*
X114800000Y-114774999D01*
X112800000Y-118300000D02*
X112800000Y-121825000D01*
D36*
X120400000Y-126925000D02*
X119550000Y-126925000D01*
X121300000Y-124125000D02*
X121300000Y-126025000D01*
D38*
X112886578Y-115886578D02*
X112800000Y-115973157D01*
D36*
X119525000Y-123175000D02*
X120350000Y-123175000D01*
X110325000Y-126625000D02*
X108700000Y-126625000D01*
D38*
X112800000Y-116700000D02*
X112800000Y-117400000D01*
D36*
X110000000Y-123925000D02*
X110000000Y-124575000D01*
X110000000Y-124575000D02*
X108075000Y-124575000D01*
X118774000Y-127701000D02*
X116800000Y-127701000D01*
X121300000Y-126025000D02*
X120400000Y-126925000D01*
D37*
X92825000Y-92700000D02*
X92185002Y-92700000D01*
D39*
%TO.N,+24VDC*%
X103500000Y-98500000D02*
X131992500Y-98500000D01*
D37*
X101850000Y-95550000D02*
X103200000Y-96900000D01*
X103200000Y-96900000D02*
X103200000Y-98800000D01*
D39*
X103200000Y-98800000D02*
X103500000Y-98500000D01*
X131992500Y-98500000D02*
X133492500Y-100000000D01*
D37*
X101850000Y-94900000D02*
X101850000Y-95550000D01*
%TO.N,-24VDC*%
X80525000Y-84314998D02*
X81075000Y-83764998D01*
X77100000Y-84314998D02*
X80525000Y-84314998D01*
D39*
X68000000Y-108000000D02*
X68000000Y-101199998D01*
D37*
X79365000Y-90549998D02*
X80000000Y-89914998D01*
D39*
X133492500Y-110000000D02*
X70000000Y-110000000D01*
X70500000Y-98699998D02*
X73700000Y-98699998D01*
D37*
X77300000Y-90549998D02*
X79365000Y-90549998D01*
D39*
X68000000Y-101199998D02*
X70500000Y-98699998D01*
X70000000Y-110000000D02*
X68000000Y-108000000D01*
%TO.N,+12VDC*%
X105075000Y-112700000D02*
X99575000Y-118200000D01*
X116900000Y-84500000D02*
X114055503Y-84500000D01*
X137362500Y-86662500D02*
X133492500Y-86662500D01*
X102310000Y-117515000D02*
X102310000Y-115465000D01*
X110155503Y-80344497D02*
X110155503Y-80600000D01*
X90829200Y-80570800D02*
X88450000Y-82950000D01*
D36*
X102310000Y-117515000D02*
X102310000Y-117775000D01*
D39*
X115800000Y-86600000D02*
X115800000Y-86244497D01*
X99575000Y-118200000D02*
X91900000Y-118200000D01*
D36*
X110000000Y-122625000D02*
X110000000Y-121975000D01*
D40*
X110000000Y-121975000D02*
X106510000Y-121975000D01*
D39*
X105100000Y-112700000D02*
X122258951Y-112700000D01*
D37*
X86425000Y-85714998D02*
X88200000Y-85714998D01*
D39*
X135750002Y-55005501D02*
X135494499Y-55005501D01*
X115800000Y-86244497D02*
X114055503Y-84500000D01*
X70000000Y-84800000D02*
X70000000Y-92050001D01*
D37*
X88200000Y-85714998D02*
X88450000Y-85964998D01*
D39*
X131330000Y-84500000D02*
X116900000Y-84500000D01*
X122258951Y-112700000D02*
X123476000Y-113917049D01*
X88450000Y-82950000D02*
X88450000Y-85964998D01*
X137825000Y-114000000D02*
X139700000Y-112125000D01*
X123476000Y-114000000D02*
X137825000Y-114000000D01*
X105075000Y-112700000D02*
X105100000Y-112700000D01*
X102310000Y-115465000D02*
X105075000Y-112700000D01*
X90900000Y-80500000D02*
X90829200Y-80570800D01*
X90829200Y-80570800D02*
X74229200Y-80570800D01*
D40*
X106510000Y-121975000D02*
X102310000Y-117775000D01*
D39*
X133492500Y-86662500D02*
X131330000Y-84500000D01*
X114055503Y-84500000D02*
X110155503Y-80600000D01*
X110155503Y-80600000D02*
X110055503Y-80500000D01*
X110055503Y-80500000D02*
X90900000Y-80500000D01*
X139700000Y-89000000D02*
X137362500Y-86662500D01*
X74229200Y-80570800D02*
X70000000Y-84800000D01*
X135494499Y-55005501D02*
X110155503Y-80344497D01*
X139700000Y-112125000D02*
X139700000Y-89000000D01*
X123476000Y-113917049D02*
X123476000Y-114000000D01*
%TO.N,PHASE_SWITCHED*%
X69867100Y-53593620D02*
X69867100Y-69352357D01*
X66610900Y-75082300D02*
X65304100Y-75082300D01*
X69867100Y-69352357D02*
X69674298Y-69545159D01*
X69674298Y-72018902D02*
X66610900Y-75082300D01*
X69674298Y-53400818D02*
X69867100Y-53593620D01*
X73278981Y-46005501D02*
X69674298Y-49610184D01*
X69674298Y-69545159D02*
X69674298Y-72018902D01*
X69674298Y-49610184D02*
X69674298Y-53400818D01*
X74249998Y-46005501D02*
X73278981Y-46005501D01*
D37*
%TO.N,Net-(U2-BOOT)*%
X82675000Y-93800000D02*
X82675000Y-91844998D01*
X82675000Y-91844998D02*
X82700000Y-91819998D01*
%TO.N,Net-(U2-COMP)*%
X74525000Y-85964998D02*
X74525000Y-87714998D01*
X76565000Y-89279998D02*
X77300000Y-89279998D01*
X74700000Y-87889998D02*
X75175000Y-87889998D01*
X74525000Y-87714998D02*
X74700000Y-87889998D01*
X75175000Y-87889998D02*
X76565000Y-89279998D01*
%TO.N,Net-(U2-EN)*%
X83875000Y-89279998D02*
X82700000Y-89279998D01*
X84775000Y-88379998D02*
X83875000Y-89279998D01*
X84775000Y-85714998D02*
X84675000Y-85714998D01*
X84775000Y-85714998D02*
X84775000Y-88379998D01*
X84675000Y-85714998D02*
X82725000Y-83764998D01*
%TO.N,Net-(U2-RT{slash}CLK)*%
X82700000Y-85739998D02*
X82725000Y-85714998D01*
X82700000Y-88009998D02*
X82700000Y-85739998D01*
%TO.N,Net-(U2-FB)*%
X77100000Y-85964998D02*
X75785002Y-85964998D01*
X100200000Y-94900000D02*
X100200000Y-93700000D01*
X77000000Y-87709998D02*
X77000000Y-86064998D01*
X77300000Y-88009998D02*
X77000000Y-87709998D01*
X75785002Y-85964998D02*
X75750000Y-86000000D01*
X77000000Y-86064998D02*
X77100000Y-85964998D01*
%TO.N,Net-(C8-Pad1)*%
X72600000Y-87889998D02*
X72600000Y-86239998D01*
X72600000Y-86239998D02*
X72875000Y-85964998D01*
%TO.N,Net-(C10-Pad2)*%
X95450000Y-96000000D02*
X95450000Y-93775000D01*
X95450000Y-93775000D02*
X94375000Y-92700000D01*
D38*
%TO.N,+18VDC*%
X122900000Y-119375002D02*
X118025000Y-119375002D01*
X122900000Y-119375002D02*
X123775002Y-118500000D01*
X116950003Y-119375002D02*
X114800001Y-117225000D01*
X118025000Y-119375002D02*
X116950003Y-119375002D01*
X123775002Y-118500000D02*
X133500000Y-118500000D01*
D36*
X119550000Y-125075000D02*
X119850000Y-125075000D01*
X119850000Y-125075000D02*
X120625735Y-124299265D01*
X124375002Y-119375002D02*
X122900000Y-119375002D01*
X124400000Y-119400000D02*
X124375002Y-119375002D01*
%TO.N,Net-(U200-SS)*%
X110000000Y-123275000D02*
X107825000Y-123275000D01*
X107825000Y-123275000D02*
X107350000Y-123750000D01*
%TO.N,Net-(C204-Pad1)*%
X113875000Y-126625000D02*
X111875000Y-126625000D01*
%TO.N,Net-(U200-FREQ)*%
X117625000Y-123275000D02*
X117725000Y-123175000D01*
X115600000Y-123275000D02*
X117625000Y-123275000D01*
%TO.N,Net-(U200-COMP)*%
X115600000Y-124575000D02*
X115600000Y-126550000D01*
X115600000Y-126550000D02*
X115525000Y-126625000D01*
%TO.N,Net-(U200-FB)*%
X115600000Y-123925000D02*
X116750000Y-123925000D01*
X117900000Y-125075000D02*
X117900000Y-126925000D01*
X116750000Y-123925000D02*
X117900000Y-125075000D01*
%TD*%
%TA.AperFunction,Conductor*%
%TO.N,-24VDC*%
G36*
X81265677Y-83234683D02*
G01*
X81286319Y-83251317D01*
X81463681Y-83428679D01*
X81497166Y-83490002D01*
X81500000Y-83516360D01*
X81500000Y-89926190D01*
X81494977Y-89961126D01*
X81486425Y-89990249D01*
X81486423Y-89990257D01*
X81469999Y-90104496D01*
X81469999Y-90989135D01*
X81472323Y-91032493D01*
X81475157Y-91058848D01*
X81479798Y-91090332D01*
X81479801Y-91090344D01*
X81492788Y-91126741D01*
X81500000Y-91168412D01*
X81500000Y-91913636D01*
X81480315Y-91980675D01*
X81463681Y-92001317D01*
X81286319Y-92178679D01*
X81224996Y-92212164D01*
X81198638Y-92214998D01*
X78751362Y-92214998D01*
X78721921Y-92206353D01*
X78691935Y-92199830D01*
X78686919Y-92196075D01*
X78684323Y-92195313D01*
X78663681Y-92178679D01*
X78541819Y-92056817D01*
X78508334Y-91995494D01*
X78505500Y-91969136D01*
X78505500Y-91816359D01*
X78503175Y-91773001D01*
X78500341Y-91746646D01*
X78495700Y-91715162D01*
X78495699Y-91715161D01*
X78495699Y-91715156D01*
X78482710Y-91678752D01*
X78475499Y-91637082D01*
X78475499Y-91488480D01*
X78467258Y-91436447D01*
X78460646Y-91394694D01*
X78460644Y-91394690D01*
X78460644Y-91394689D01*
X78457630Y-91385410D01*
X78459766Y-91384715D01*
X78450000Y-91344029D01*
X78450000Y-89755966D01*
X78459769Y-89715279D01*
X78457630Y-89714584D01*
X78460644Y-89705305D01*
X78460646Y-89705302D01*
X78475500Y-89611517D01*
X78475499Y-88948480D01*
X78460646Y-88854694D01*
X78460644Y-88854690D01*
X78460644Y-88854689D01*
X78457630Y-88845410D01*
X78459766Y-88844715D01*
X78450000Y-88804029D01*
X78450000Y-88485966D01*
X78459769Y-88445279D01*
X78457630Y-88444584D01*
X78460644Y-88435305D01*
X78460646Y-88435302D01*
X78475500Y-88341517D01*
X78475499Y-87678480D01*
X78460646Y-87584694D01*
X78460644Y-87584690D01*
X78460644Y-87584689D01*
X78457630Y-87575410D01*
X78459766Y-87574715D01*
X78450000Y-87534029D01*
X78450000Y-83516360D01*
X78469685Y-83449321D01*
X78486319Y-83428679D01*
X78663681Y-83251317D01*
X78725004Y-83217832D01*
X78751362Y-83214998D01*
X81198638Y-83214998D01*
X81265677Y-83234683D01*
G37*
%TD.AperFunction*%
%TD*%
%TA.AperFunction,Conductor*%
%TO.N,-24VDC*%
G36*
X75265677Y-89019685D02*
G01*
X75286319Y-89036319D01*
X75463681Y-89213681D01*
X75497166Y-89275004D01*
X75500000Y-89301362D01*
X75500000Y-90000000D01*
X77698638Y-90000000D01*
X77765677Y-90019685D01*
X77786319Y-90036319D01*
X77963681Y-90213681D01*
X77997166Y-90275004D01*
X78000000Y-90301362D01*
X78000000Y-90698638D01*
X77980315Y-90765677D01*
X77963681Y-90786319D01*
X77786319Y-90963681D01*
X77724996Y-90997166D01*
X77698638Y-91000000D01*
X75500000Y-91000000D01*
X75500000Y-102500000D01*
X71750000Y-102500000D01*
X71750000Y-89301362D01*
X71769685Y-89234323D01*
X71786319Y-89213681D01*
X71963681Y-89036319D01*
X72025004Y-89002834D01*
X72051362Y-89000000D01*
X75198638Y-89000000D01*
X75265677Y-89019685D01*
G37*
%TD.AperFunction*%
%TD*%
%TA.AperFunction,Conductor*%
%TO.N,+24VDC*%
G36*
X106665677Y-96934683D02*
G01*
X106686319Y-96951317D01*
X106863681Y-97128679D01*
X106897166Y-97190002D01*
X106900000Y-97216360D01*
X106900000Y-104613636D01*
X106880315Y-104680675D01*
X106863681Y-104701317D01*
X106686319Y-104878679D01*
X106624996Y-104912164D01*
X106598638Y-104914998D01*
X98001362Y-104914998D01*
X97934323Y-104895313D01*
X97913681Y-104878679D01*
X97736319Y-104701317D01*
X97702834Y-104639994D01*
X97700000Y-104613636D01*
X97700000Y-102086630D01*
X97719685Y-102019591D01*
X97719904Y-102019250D01*
X97908178Y-101728383D01*
X97961130Y-101682803D01*
X97961240Y-101682753D01*
X99800000Y-100857499D01*
X101900000Y-99914998D01*
X101900000Y-97216360D01*
X101919685Y-97149321D01*
X101936319Y-97128679D01*
X102113681Y-96951317D01*
X102175004Y-96917832D01*
X102201362Y-96914998D01*
X106598638Y-96914998D01*
X106665677Y-96934683D01*
G37*
%TD.AperFunction*%
%TD*%
%TA.AperFunction,Conductor*%
%TO.N,GND*%
G36*
X91065677Y-84634683D02*
G01*
X91086319Y-84651317D01*
X91263681Y-84828679D01*
X91297166Y-84890002D01*
X91300000Y-84916360D01*
X91300000Y-94713636D01*
X91280315Y-94780675D01*
X91263681Y-94801317D01*
X91086319Y-94978679D01*
X91024996Y-95012164D01*
X90998638Y-95014998D01*
X85201362Y-95014998D01*
X85134323Y-94995313D01*
X85113681Y-94978679D01*
X84936319Y-94801317D01*
X84902834Y-94739994D01*
X84900000Y-94713636D01*
X84900000Y-92416360D01*
X84919685Y-92349321D01*
X84936319Y-92328679D01*
X85113681Y-92151317D01*
X85175004Y-92117832D01*
X85201362Y-92114998D01*
X89700000Y-92114998D01*
X89700000Y-84916360D01*
X89719685Y-84849321D01*
X89736319Y-84828679D01*
X89913681Y-84651317D01*
X89975004Y-84617832D01*
X90001362Y-84614998D01*
X90998638Y-84614998D01*
X91065677Y-84634683D01*
G37*
%TD.AperFunction*%
%TD*%
%TA.AperFunction,Conductor*%
%TO.N,Net-(D2-A)*%
G36*
X100265677Y-97019685D02*
G01*
X100286319Y-97036319D01*
X100463681Y-97213681D01*
X100497166Y-97275004D01*
X100500000Y-97301362D01*
X100500000Y-99408146D01*
X100480315Y-99475185D01*
X100474642Y-99483284D01*
X100284335Y-99733078D01*
X100228049Y-99774475D01*
X100218619Y-99777481D01*
X97050000Y-100650000D01*
X93849075Y-101531413D01*
X93832765Y-101534746D01*
X93358264Y-101598883D01*
X93341654Y-101600000D01*
X89101362Y-101600000D01*
X89034323Y-101580315D01*
X89013681Y-101563681D01*
X88836319Y-101386319D01*
X88802834Y-101324996D01*
X88800000Y-101298638D01*
X88800000Y-97301362D01*
X88819685Y-97234323D01*
X88836319Y-97213681D01*
X89013681Y-97036319D01*
X89075004Y-97002834D01*
X89101362Y-97000000D01*
X100198638Y-97000000D01*
X100265677Y-97019685D01*
G37*
%TD.AperFunction*%
%TD*%
%TA.AperFunction,Conductor*%
%TO.N,+12VDC*%
G36*
X88865677Y-83334683D02*
G01*
X88886319Y-83351317D01*
X89063681Y-83528679D01*
X89097166Y-83590002D01*
X89100000Y-83616360D01*
X89100000Y-91585498D01*
X89080315Y-91652537D01*
X89027511Y-91698292D01*
X88976000Y-91709498D01*
X85201361Y-91709498D01*
X85158003Y-91711822D01*
X85131652Y-91714656D01*
X85100164Y-91719297D01*
X85100154Y-91719300D01*
X85066538Y-91731294D01*
X85049605Y-91732262D01*
X85033715Y-91738189D01*
X85015446Y-91734214D01*
X84996782Y-91735282D01*
X84981604Y-91726852D01*
X84965442Y-91723337D01*
X84937188Y-91702186D01*
X84936319Y-91701317D01*
X84902834Y-91639994D01*
X84900000Y-91613636D01*
X84900000Y-91114998D01*
X84650000Y-91114998D01*
X82001362Y-91114998D01*
X81971921Y-91106353D01*
X81941935Y-91099830D01*
X81936919Y-91096075D01*
X81934323Y-91095313D01*
X81913681Y-91078679D01*
X81911818Y-91076816D01*
X81878333Y-91015493D01*
X81875499Y-90989135D01*
X81875499Y-90104497D01*
X81895184Y-90037458D01*
X81947988Y-89991703D01*
X81999494Y-89980497D01*
X83506518Y-89980497D01*
X83600304Y-89965644D01*
X83655234Y-89937655D01*
X83673178Y-89928513D01*
X83729472Y-89914998D01*
X87500000Y-89914998D01*
X87500000Y-83616360D01*
X87519685Y-83549321D01*
X87536319Y-83528679D01*
X87713681Y-83351317D01*
X87775004Y-83317832D01*
X87801362Y-83314998D01*
X88798638Y-83314998D01*
X88865677Y-83334683D01*
G37*
%TD.AperFunction*%
%TD*%
%TA.AperFunction,Conductor*%
%TO.N,GND*%
G36*
X93865677Y-102334683D02*
G01*
X93886319Y-102351317D01*
X94063681Y-102528679D01*
X94097166Y-102590002D01*
X94100000Y-102616360D01*
X94100000Y-105514998D01*
X79900000Y-105514998D01*
X79900000Y-102616360D01*
X79919685Y-102549321D01*
X79936319Y-102528679D01*
X80113681Y-102351317D01*
X80175004Y-102317832D01*
X80201362Y-102314998D01*
X93798638Y-102314998D01*
X93865677Y-102334683D01*
G37*
%TD.AperFunction*%
%TD*%
%TA.AperFunction,Conductor*%
%TO.N,GND*%
G36*
X123715677Y-120494685D02*
G01*
X123736319Y-120511319D01*
X123913681Y-120688681D01*
X123947166Y-120750004D01*
X123950000Y-120776362D01*
X123950000Y-121873638D01*
X123930315Y-121940677D01*
X123913681Y-121961319D01*
X123736319Y-122138681D01*
X123674996Y-122172166D01*
X123648638Y-122175000D01*
X116456347Y-122175000D01*
X116448456Y-122174543D01*
X116448447Y-122174707D01*
X116444867Y-122174500D01*
X116444865Y-122174500D01*
X116444862Y-122174500D01*
X114755143Y-122174500D01*
X114751561Y-122174708D01*
X114751551Y-122174544D01*
X114743666Y-122175000D01*
X113751362Y-122175000D01*
X113684323Y-122155315D01*
X113663681Y-122138681D01*
X113486319Y-121961319D01*
X113452834Y-121899996D01*
X113450000Y-121873638D01*
X113450000Y-120776362D01*
X113469685Y-120709323D01*
X113486319Y-120688681D01*
X113663681Y-120511319D01*
X113725004Y-120477834D01*
X113751362Y-120475000D01*
X123648638Y-120475000D01*
X123715677Y-120494685D01*
G37*
%TD.AperFunction*%
%TD*%
%TA.AperFunction,Conductor*%
%TO.N,/Power - 18VDC/SW*%
G36*
X111515677Y-116094685D02*
G01*
X111536319Y-116111319D01*
X111713681Y-116288681D01*
X111747166Y-116350004D01*
X111750000Y-116376362D01*
X111750000Y-118123638D01*
X111730315Y-118190677D01*
X111713681Y-118211319D01*
X111536319Y-118388681D01*
X111474996Y-118422166D01*
X111448638Y-118425000D01*
X110850000Y-118425000D01*
X110850000Y-119921082D01*
X110839434Y-119971169D01*
X110802415Y-120055006D01*
X110802415Y-120055008D01*
X110799500Y-120080131D01*
X110799500Y-121300500D01*
X110779815Y-121367539D01*
X110727011Y-121413294D01*
X110675500Y-121424500D01*
X109174000Y-121424500D01*
X109106961Y-121404815D01*
X109061206Y-121352011D01*
X109050000Y-121300500D01*
X109050000Y-118775000D01*
X108800000Y-118775000D01*
X106301362Y-118775000D01*
X106234323Y-118755315D01*
X106213681Y-118738681D01*
X106036319Y-118561319D01*
X106002834Y-118499996D01*
X106000000Y-118473638D01*
X106000000Y-116376362D01*
X106019685Y-116309323D01*
X106036319Y-116288681D01*
X106213681Y-116111319D01*
X106275004Y-116077834D01*
X106301362Y-116075000D01*
X111448638Y-116075000D01*
X111515677Y-116094685D01*
G37*
%TD.AperFunction*%
%TD*%
%TA.AperFunction,Conductor*%
%TO.N,GND*%
G36*
X106615677Y-105534683D02*
G01*
X106636319Y-105551317D01*
X106813681Y-105728679D01*
X106847166Y-105790002D01*
X106850000Y-105816360D01*
X106850000Y-108363636D01*
X106830315Y-108430675D01*
X106813681Y-108451317D01*
X106636319Y-108628679D01*
X106574996Y-108662164D01*
X106548638Y-108664998D01*
X71801362Y-108664998D01*
X71734323Y-108645313D01*
X71713681Y-108628679D01*
X71536319Y-108451317D01*
X71502834Y-108389994D01*
X71500000Y-108363636D01*
X71500000Y-105816360D01*
X71519685Y-105749321D01*
X71536319Y-105728679D01*
X71713681Y-105551317D01*
X71775004Y-105517832D01*
X71801362Y-105514998D01*
X79900000Y-105514998D01*
X94100000Y-105514998D01*
X106548638Y-105514998D01*
X106615677Y-105534683D01*
G37*
%TD.AperFunction*%
%TD*%
%TA.AperFunction,Conductor*%
%TO.N,Net-(D1-K)*%
G36*
X77865677Y-91534683D02*
G01*
X77886319Y-91551317D01*
X78063681Y-91728679D01*
X78097166Y-91790002D01*
X78100000Y-91816360D01*
X78100000Y-93114998D01*
X81298638Y-93114998D01*
X81365677Y-93134683D01*
X81386319Y-93151317D01*
X81563681Y-93328679D01*
X81597166Y-93390002D01*
X81600000Y-93416360D01*
X81600000Y-96003871D01*
X81766682Y-96152032D01*
X81785475Y-96168738D01*
X81785490Y-96168752D01*
X84893293Y-98931242D01*
X84924030Y-98973124D01*
X85089118Y-99340749D01*
X85100000Y-99391546D01*
X85100000Y-101213636D01*
X85080315Y-101280675D01*
X85063681Y-101301317D01*
X84886319Y-101478679D01*
X84824996Y-101512164D01*
X84798638Y-101514998D01*
X76201362Y-101514998D01*
X76171921Y-101506353D01*
X76141935Y-101499830D01*
X76136919Y-101496075D01*
X76134323Y-101495313D01*
X76113681Y-101478679D01*
X75941819Y-101306817D01*
X75908334Y-101245494D01*
X75905500Y-101219136D01*
X75905500Y-91810860D01*
X75925185Y-91743821D01*
X75941819Y-91723179D01*
X76113681Y-91551317D01*
X76175004Y-91517832D01*
X76201362Y-91514998D01*
X77798638Y-91514998D01*
X77865677Y-91534683D01*
G37*
%TD.AperFunction*%
%TD*%
%TA.AperFunction,Conductor*%
%TO.N,-24VDC*%
G36*
X71750000Y-102500000D02*
G01*
X75500000Y-102500000D01*
X75500000Y-102000001D01*
X75611803Y-102223607D01*
X75750000Y-102500000D01*
X75750000Y-102500001D01*
X75999998Y-102999998D01*
X75999999Y-102999999D01*
X76000000Y-103000000D01*
X78698638Y-103000000D01*
X78765677Y-103019685D01*
X78786319Y-103036319D01*
X78963681Y-103213681D01*
X78997166Y-103275004D01*
X79000000Y-103301362D01*
X79000000Y-104448638D01*
X78980315Y-104515677D01*
X78963681Y-104536319D01*
X78786319Y-104713681D01*
X78724996Y-104747166D01*
X78698638Y-104750000D01*
X68801362Y-104750000D01*
X68734323Y-104730315D01*
X68713681Y-104713681D01*
X68536319Y-104536319D01*
X68502834Y-104474996D01*
X68500000Y-104448638D01*
X68500000Y-93801362D01*
X68519685Y-93734323D01*
X68536319Y-93713681D01*
X68713681Y-93536319D01*
X68775004Y-93502834D01*
X68801362Y-93500000D01*
X71750000Y-93500000D01*
X71750000Y-102500000D01*
G37*
%TD.AperFunction*%
%TD*%
%TA.AperFunction,Conductor*%
%TO.N,+24VDC*%
G36*
X131008651Y-97706645D02*
G01*
X132931986Y-98498051D01*
X132938333Y-98504368D01*
X132938503Y-98504800D01*
X133488620Y-99986853D01*
X133488286Y-99995801D01*
X133481722Y-100001893D01*
X133479691Y-100002445D01*
X131998375Y-100264785D01*
X131989631Y-100262853D01*
X131988207Y-100261680D01*
X130996072Y-99303449D01*
X130992502Y-99295236D01*
X130992500Y-99295033D01*
X130992500Y-97717466D01*
X130995927Y-97709193D01*
X131004200Y-97705766D01*
X131008651Y-97706645D01*
G37*
%TD.AperFunction*%
%TD*%
%TA.AperFunction,Conductor*%
%TO.N,+24VDC*%
G36*
X131008651Y-97706645D02*
G01*
X132931986Y-98498051D01*
X132938333Y-98504368D01*
X132938503Y-98504800D01*
X133488620Y-99986853D01*
X133488286Y-99995801D01*
X133481722Y-100001893D01*
X133479691Y-100002445D01*
X131998375Y-100264785D01*
X131989631Y-100262853D01*
X131988207Y-100261680D01*
X130996072Y-99303449D01*
X130992502Y-99295236D01*
X130992500Y-99295033D01*
X130992500Y-97717466D01*
X130995927Y-97709193D01*
X131004200Y-97705766D01*
X131008651Y-97706645D01*
G37*
%TD.AperFunction*%
%TD*%
%TA.AperFunction,Conductor*%
%TO.N,-24VDC*%
G36*
X132392559Y-109002996D02*
G01*
X132393408Y-109003695D01*
X133483924Y-109991328D01*
X133487756Y-109999421D01*
X133484742Y-110007854D01*
X133483924Y-110008672D01*
X132393408Y-110996304D01*
X132384975Y-110999318D01*
X132383881Y-110999212D01*
X131015360Y-110801448D01*
X131007662Y-110796873D01*
X131005333Y-110789868D01*
X131005333Y-109210131D01*
X131008760Y-109201858D01*
X131015360Y-109198551D01*
X132383881Y-109000787D01*
X132392559Y-109002996D01*
G37*
%TD.AperFunction*%
%TD*%
%TA.AperFunction,Conductor*%
%TO.N,+12VDC*%
G36*
X135983095Y-85860619D02*
G01*
X135990535Y-85865602D01*
X135992500Y-85872092D01*
X135992500Y-87452908D01*
X135989073Y-87461181D01*
X135983095Y-87464381D01*
X134997250Y-87661549D01*
X134988468Y-87659813D01*
X133506115Y-86672237D01*
X133501130Y-86664798D01*
X133502865Y-86656013D01*
X133506115Y-86652763D01*
X134988468Y-85665186D01*
X134997250Y-85663450D01*
X135983095Y-85860619D01*
G37*
%TD.AperFunction*%
%TD*%
%TA.AperFunction,Conductor*%
%TO.N,+12VDC*%
G36*
X93095548Y-117201088D02*
G01*
X94090572Y-117398133D01*
X94098022Y-117403102D01*
X94099999Y-117409610D01*
X94099999Y-118990389D01*
X94096572Y-118998662D01*
X94090572Y-119001866D01*
X93095555Y-119198910D01*
X93086774Y-119197156D01*
X93085759Y-119196394D01*
X91909673Y-118208961D01*
X91905540Y-118201016D01*
X91908235Y-118192477D01*
X91909673Y-118191039D01*
X93085761Y-117203604D01*
X93094298Y-117200910D01*
X93095548Y-117201088D01*
G37*
%TD.AperFunction*%
%TD*%
%TA.AperFunction,Conductor*%
%TO.N,+12VDC*%
G36*
X114606790Y-83920617D02*
G01*
X114607109Y-83920949D01*
X115339458Y-84716593D01*
X115765853Y-85179840D01*
X115768935Y-85188248D01*
X115768427Y-85191207D01*
X115403158Y-86377528D01*
X115397448Y-86384426D01*
X115392379Y-86385778D01*
X114207317Y-86426619D01*
X114198931Y-86423479D01*
X114196574Y-86420401D01*
X114073166Y-86187316D01*
X113471540Y-85051000D01*
X113470698Y-85042086D01*
X113473606Y-85037255D01*
X114590245Y-83920616D01*
X114598517Y-83917190D01*
X114606790Y-83920617D01*
G37*
%TD.AperFunction*%
%TD*%
%TA.AperFunction,Conductor*%
%TO.N,+12VDC*%
G36*
X131285263Y-83712672D02*
G01*
X131287225Y-83714027D01*
X133379756Y-85159313D01*
X133384616Y-85166834D01*
X133384776Y-85168091D01*
X133492547Y-86649404D01*
X133489730Y-86657904D01*
X133481727Y-86661922D01*
X133480381Y-86661942D01*
X131999029Y-86598988D01*
X131990909Y-86595213D01*
X131989314Y-86593009D01*
X131268402Y-85302659D01*
X131266916Y-85296952D01*
X131266916Y-83722300D01*
X131270343Y-83714027D01*
X131278616Y-83710600D01*
X131285263Y-83712672D01*
G37*
%TD.AperFunction*%
%TD*%
%TA.AperFunction,Conductor*%
%TO.N,Net-(U2-FB)*%
G36*
X76333823Y-85763846D02*
G01*
X76341668Y-85768161D01*
X76344236Y-85775475D01*
X76344236Y-86155784D01*
X76340809Y-86164057D01*
X76335280Y-86167158D01*
X75820331Y-86291388D01*
X75811485Y-86289997D01*
X75806213Y-86282758D01*
X75806119Y-86282334D01*
X75749469Y-86002320D01*
X75749469Y-85997680D01*
X75806406Y-85716245D01*
X75811405Y-85708819D01*
X75819157Y-85706939D01*
X76333823Y-85763846D01*
G37*
%TD.AperFunction*%
%TD*%
%TA.AperFunction,Conductor*%
%TO.N,Net-(U2-FB)*%
G36*
X100483056Y-93756265D02*
G01*
X100490485Y-93761265D01*
X100492259Y-93769760D01*
X100401702Y-94284563D01*
X100396894Y-94292117D01*
X100390179Y-94294236D01*
X100009821Y-94294236D01*
X100001548Y-94290809D01*
X99998298Y-94284563D01*
X99907740Y-93769760D01*
X99909682Y-93761018D01*
X99916942Y-93756265D01*
X100197682Y-93699469D01*
X100202318Y-93699469D01*
X100483056Y-93756265D01*
G37*
%TD.AperFunction*%
%TD*%
%TA.AperFunction,Conductor*%
%TO.N,+18VDC*%
G36*
X132006160Y-117504104D02*
G01*
X133486384Y-118490263D01*
X133491369Y-118497702D01*
X133489634Y-118506487D01*
X133486384Y-118509737D01*
X132006160Y-119495895D01*
X131997375Y-119497630D01*
X131993653Y-119496191D01*
X131005680Y-118903408D01*
X131000349Y-118896213D01*
X131000000Y-118893375D01*
X131000000Y-118106625D01*
X131003427Y-118098352D01*
X131005680Y-118096592D01*
X131993653Y-117503808D01*
X132002511Y-117502490D01*
X132006160Y-117504104D01*
G37*
%TD.AperFunction*%
%TD*%
%TA.AperFunction,Conductor*%
%TO.N,+18VDC*%
G36*
X120386097Y-124139251D02*
G01*
X120387607Y-124140100D01*
X120624469Y-124297249D01*
X120627750Y-124300530D01*
X120784899Y-124537392D01*
X120786618Y-124546180D01*
X120781618Y-124553609D01*
X120780108Y-124554458D01*
X120283688Y-124786687D01*
X120274742Y-124787088D01*
X120270457Y-124784362D01*
X120140637Y-124654542D01*
X120137210Y-124646269D01*
X120138310Y-124641316D01*
X120370541Y-124144890D01*
X120377151Y-124138850D01*
X120386097Y-124139251D01*
G37*
%TD.AperFunction*%
%TD*%
%TA.AperFunction,Conductor*%
%TO.N,+18VDC*%
G36*
X124337983Y-119110461D02*
G01*
X124343743Y-119117318D01*
X124344054Y-119118522D01*
X124400530Y-119397680D01*
X124400530Y-119402320D01*
X124344278Y-119680369D01*
X124339278Y-119687798D01*
X124330490Y-119689517D01*
X124328379Y-119688877D01*
X123813033Y-119477976D01*
X123806674Y-119471671D01*
X123805764Y-119467148D01*
X123805764Y-119283576D01*
X123809191Y-119275303D01*
X123813940Y-119272419D01*
X124329062Y-119109685D01*
X124337983Y-119110461D01*
G37*
%TD.AperFunction*%
%TD*%
M02*
