M48
; DRILL file {KiCad 9.0.3} date 2025-07-27T16:10:42+1200
; FORMAT={-:-/ absolute / inch / decimal}
; #@! TF.CreationDate,2025-07-27T16:10:42+12:00
; #@! TF.GenerationSoftware,Kicad,Pcbnew,9.0.3
; #@! TF.FileFunction,Plated,1,2,PTH
FMAT,2
INCH
; #@! TA.AperFunction,Plated,PTH,ComponentDrill
T1C0.0079
; #@! TA.AperFunction,Plated,PTH,ViaDrill
T2C0.0118
; #@! TA.AperFunction,Plated,PTH,ComponentDrill
T3C0.0394
; #@! TA.AperFunction,Plated,PTH,ComponentDrill
T4C0.0512
; #@! TA.AperFunction,Plated,PTH,ComponentDrill
T5C0.0591
%
G90
G05
T1
X4.7053Y-2.4094
X4.7053Y-2.4646
X4.7329Y-2.3819
X4.7329Y-2.437
X4.7329Y-2.4921
X4.7604Y-2.4094
X4.7604Y-2.4646
X4.788Y-2.3819
X4.788Y-2.437
X4.788Y-2.4921
X4.8156Y-2.4094
X4.8156Y-2.4646
T2
X3.0039Y-2.3425
X3.0246Y-3.125
X3.0354Y-1.5276
X3.0354Y-1.5669
X3.0719Y-2.9016
X3.0748Y-1.5276
X3.0748Y-1.5669
X3.1142Y-1.5276
X3.1142Y-1.5669
X3.1801Y-2.1969
X3.1831Y-3.0256
X3.2323Y-1.5276
X3.2323Y-1.5669
X3.2675Y-3.2975
X3.2717Y-1.5276
X3.2717Y-1.5669
X3.2854Y-3.189
X3.311Y-1.5276
X3.311Y-1.5669
X3.3248Y-2.3386
X3.374Y-2.8327
X3.4695Y-2.9094
X3.4843Y-2.7205
X3.5315Y-1.9803
X3.563Y-1.9193
X3.5787Y-2.315
X3.6339Y-2.122
X3.6614Y-1.9193
X3.8917Y-1.9843
X3.9281Y-2.1988
X3.9488Y-2.5433
X3.9488Y-2.5827
X3.9488Y-2.7283
X3.9488Y-2.7677
X3.9882Y-2.5433
X3.9882Y-2.5827
X3.9882Y-2.7283
X3.9882Y-2.7677
X4.0512Y-1.8957
X4.072Y-2.0896
X4.0728Y-2.126
X4.0728Y-2.1683
X4.1693Y-2.4222
X4.1703Y-2.5394
X4.2096Y-2.2018
X4.2461Y-1.3484
X4.2461Y-1.3878
X4.2854Y-1.3484
X4.2854Y-1.3878
X4.3248Y-1.3484
X4.3248Y-1.3878
X4.3248Y-1.4272
X4.3248Y-1.4567
X4.374Y-1.3484
X4.374Y-1.3878
X4.374Y-1.4272
X4.374Y-1.4567
X4.4173Y-3.3829
X4.4183Y-2.6467
X4.4232Y-1.4272
X4.4232Y-1.4567
X4.5817Y-1.4931
X4.5925Y-1.5827
X4.5925Y-1.626
X4.5925Y-1.6713
X4.6259Y-1.5827
X4.6259Y-1.6262
X4.626Y-1.6713
X4.6575Y-1.5827
X4.6575Y-1.6262
X4.6575Y-1.6713
X4.6722Y-2.9567
X4.7598Y-3.0817
X4.7795Y-1.5512
X4.8652Y-2.8976
X4.9636Y-2.2087
X5.0502Y-1.9203
X5.062Y-2.7874
T3
X3.1139Y-3.3967
X3.1142Y-2.6218
X3.2036Y-3.3967
X3.2126Y-2.6218
X3.2934Y-3.3967
X3.311Y-2.6218
X3.8589Y-3.3967
X3.9486Y-3.3967
X4.0384Y-3.3967
X4.3685Y-3.5827
X4.4685Y-3.5827
X4.5085Y-3.2598
X4.6085Y-3.2598
X4.7Y-3.5827
X4.7085Y-3.2598
X4.8Y-3.5827
X4.8085Y-3.2598
X4.9Y-3.5827
X4.9085Y-3.2598
X5.0Y-3.5827
X5.0085Y-3.2598
T4
X2.6775Y-1.6235
X2.6775Y-1.8204
X2.6775Y-2.2259
X2.6775Y-2.4227
X2.6775Y-2.6196
X2.6775Y-3.0487
X2.6775Y-3.2456
T5
X3.2038Y-3.5492
X3.9488Y-3.5492
M30
