%TF.GenerationSoftware,KiCad,Pcbnew,9.0.3*%
%TF.CreationDate,2025-07-27T16:10:42+12:00*%
%TF.ProjectId,ES-Speed-Box-Controller,45532d53-7065-4656-942d-426f782d436f,rev?*%
%TF.SameCoordinates,Original*%
%TF.FileFunction,Soldermask,Top*%
%TF.FilePolarity,Negative*%
%FSLAX46Y46*%
G04 Gerber Fmt 4.6, Leading zero omitted, Abs format (unit mm)*
G04 Created by KiCad (PCBNEW 9.0.3) date 2025-07-27 16:10:42*
%MOMM*%
%LPD*%
G01*
G04 APERTURE LIST*
G04 APERTURE END LIST*
G36*
X62791807Y-94284538D02*
G01*
X62978354Y-94345151D01*
X63153123Y-94434200D01*
X63311810Y-94549493D01*
X63450507Y-94688190D01*
X63565800Y-94846877D01*
X63654849Y-95021646D01*
X63715462Y-95208193D01*
X63746147Y-95401926D01*
X63746147Y-95598074D01*
X63715462Y-95791807D01*
X63654849Y-95978354D01*
X63565800Y-96153123D01*
X63450507Y-96311810D01*
X63311810Y-96450507D01*
X63153123Y-96565800D01*
X62978354Y-96654849D01*
X62791807Y-96715462D01*
X62598074Y-96746147D01*
X62401926Y-96746147D01*
X62208193Y-96715462D01*
X62021646Y-96654849D01*
X61846877Y-96565800D01*
X61688190Y-96450507D01*
X61549493Y-96311810D01*
X61434200Y-96153123D01*
X61345151Y-95978354D01*
X61284538Y-95791807D01*
X61253853Y-95598074D01*
X61253853Y-95401926D01*
X61284538Y-95208193D01*
X61345151Y-95021646D01*
X61434200Y-94846877D01*
X61549493Y-94688190D01*
X61688190Y-94549493D01*
X61846877Y-94434200D01*
X62021646Y-94345151D01*
X62208193Y-94284538D01*
X62401926Y-94253853D01*
X62598074Y-94253853D01*
X62791807Y-94284538D01*
G37*
G36*
X127791807Y-94284538D02*
G01*
X127978354Y-94345151D01*
X128153123Y-94434200D01*
X128311810Y-94549493D01*
X128450507Y-94688190D01*
X128565800Y-94846877D01*
X128654849Y-95021646D01*
X128715462Y-95208193D01*
X128746147Y-95401926D01*
X128746147Y-95598074D01*
X128715462Y-95791807D01*
X128654849Y-95978354D01*
X128565800Y-96153123D01*
X128450507Y-96311810D01*
X128311810Y-96450507D01*
X128153123Y-96565800D01*
X127978354Y-96654849D01*
X127791807Y-96715462D01*
X127598074Y-96746147D01*
X127401926Y-96746147D01*
X127208193Y-96715462D01*
X127021646Y-96654849D01*
X126846877Y-96565800D01*
X126688190Y-96450507D01*
X126549493Y-96311810D01*
X126434200Y-96153123D01*
X126345151Y-95978354D01*
X126284538Y-95791807D01*
X126253853Y-95598074D01*
X126253853Y-95401926D01*
X126284538Y-95208193D01*
X126345151Y-95021646D01*
X126434200Y-94846877D01*
X126549493Y-94688190D01*
X126688190Y-94549493D01*
X126846877Y-94434200D01*
X127021646Y-94345151D01*
X127208193Y-94284538D01*
X127401926Y-94253853D01*
X127598074Y-94253853D01*
X127791807Y-94284538D01*
G37*
G36*
X116704850Y-91300964D02*
G01*
X116749317Y-91306123D01*
X116764510Y-91312831D01*
X116786104Y-91317127D01*
X116809222Y-91332574D01*
X116826567Y-91340233D01*
X116838412Y-91352078D01*
X116859099Y-91365901D01*
X116872921Y-91386587D01*
X116884766Y-91398432D01*
X116892423Y-91415774D01*
X116907873Y-91438896D01*
X116912168Y-91460491D01*
X116918876Y-91475682D01*
X116924033Y-91520139D01*
X116925000Y-91525000D01*
X116925000Y-91975000D01*
X116924032Y-91979862D01*
X116918876Y-92024317D01*
X116912168Y-92039506D01*
X116907873Y-92061104D01*
X116892422Y-92084227D01*
X116884766Y-92101567D01*
X116872923Y-92113409D01*
X116859099Y-92134099D01*
X116838409Y-92147923D01*
X116826567Y-92159766D01*
X116809227Y-92167422D01*
X116786104Y-92182873D01*
X116764506Y-92187168D01*
X116749317Y-92193876D01*
X116704861Y-92199032D01*
X116700000Y-92200000D01*
X116200000Y-92200000D01*
X116195138Y-92199033D01*
X116150682Y-92193876D01*
X116135491Y-92187168D01*
X116113896Y-92182873D01*
X116090774Y-92167423D01*
X116073432Y-92159766D01*
X116061587Y-92147921D01*
X116040901Y-92134099D01*
X116027078Y-92113412D01*
X116015233Y-92101567D01*
X116007574Y-92084222D01*
X115992127Y-92061104D01*
X115987831Y-92039510D01*
X115981123Y-92024317D01*
X115975964Y-91979849D01*
X115975000Y-91975000D01*
X115975000Y-91525000D01*
X115975964Y-91520150D01*
X115981123Y-91475682D01*
X115987832Y-91460487D01*
X115992127Y-91438896D01*
X116007573Y-91415779D01*
X116015233Y-91398432D01*
X116027080Y-91386584D01*
X116040901Y-91365901D01*
X116061584Y-91352080D01*
X116073432Y-91340233D01*
X116090779Y-91332573D01*
X116113896Y-91317127D01*
X116135487Y-91312832D01*
X116150682Y-91306123D01*
X116195151Y-91300964D01*
X116200000Y-91300000D01*
X116700000Y-91300000D01*
X116704850Y-91300964D01*
G37*
G36*
X114350000Y-91850000D02*
G01*
X112650000Y-91850000D01*
X112650000Y-90150000D01*
X114350000Y-90150000D01*
X114350000Y-91850000D01*
G37*
G36*
X120230000Y-91850000D02*
G01*
X118530000Y-91850000D01*
X118530000Y-90150000D01*
X120230000Y-90150000D01*
X120230000Y-91850000D01*
G37*
G36*
X111206742Y-90186601D02*
G01*
X111360687Y-90250367D01*
X111499234Y-90342941D01*
X111617059Y-90460766D01*
X111709633Y-90599313D01*
X111773399Y-90753258D01*
X111805907Y-90916685D01*
X111805907Y-91083315D01*
X111773399Y-91246742D01*
X111709633Y-91400687D01*
X111617059Y-91539234D01*
X111499234Y-91657059D01*
X111360687Y-91749633D01*
X111206742Y-91813399D01*
X111043315Y-91845907D01*
X110876685Y-91845907D01*
X110713258Y-91813399D01*
X110559313Y-91749633D01*
X110420766Y-91657059D01*
X110302941Y-91539234D01*
X110210367Y-91400687D01*
X110146601Y-91246742D01*
X110114093Y-91083315D01*
X110114093Y-90916685D01*
X110146601Y-90753258D01*
X110210367Y-90599313D01*
X110302941Y-90460766D01*
X110420766Y-90342941D01*
X110559313Y-90250367D01*
X110713258Y-90186601D01*
X110876685Y-90154093D01*
X111043315Y-90154093D01*
X111206742Y-90186601D01*
G37*
G36*
X122166742Y-90186601D02*
G01*
X122320687Y-90250367D01*
X122459234Y-90342941D01*
X122577059Y-90460766D01*
X122669633Y-90599313D01*
X122733399Y-90753258D01*
X122765907Y-90916685D01*
X122765907Y-91083315D01*
X122733399Y-91246742D01*
X122669633Y-91400687D01*
X122577059Y-91539234D01*
X122459234Y-91657059D01*
X122320687Y-91749633D01*
X122166742Y-91813399D01*
X122003315Y-91845907D01*
X121836685Y-91845907D01*
X121673258Y-91813399D01*
X121519313Y-91749633D01*
X121380766Y-91657059D01*
X121262941Y-91539234D01*
X121170367Y-91400687D01*
X121106601Y-91246742D01*
X121074093Y-91083315D01*
X121074093Y-90916685D01*
X121106601Y-90753258D01*
X121170367Y-90599313D01*
X121262941Y-90460766D01*
X121380766Y-90342941D01*
X121519313Y-90250367D01*
X121673258Y-90186601D01*
X121836685Y-90154093D01*
X122003315Y-90154093D01*
X122166742Y-90186601D01*
G37*
G36*
X124706741Y-90186601D02*
G01*
X124860686Y-90250367D01*
X124999233Y-90342941D01*
X125117058Y-90460766D01*
X125209632Y-90599313D01*
X125273398Y-90753258D01*
X125305906Y-90916685D01*
X125305906Y-91083315D01*
X125273398Y-91246742D01*
X125209632Y-91400687D01*
X125117058Y-91539234D01*
X124999233Y-91657059D01*
X124860686Y-91749633D01*
X124706741Y-91813399D01*
X124543314Y-91845907D01*
X124376684Y-91845907D01*
X124213257Y-91813399D01*
X124059312Y-91749633D01*
X123920765Y-91657059D01*
X123802940Y-91539234D01*
X123710366Y-91400687D01*
X123646600Y-91246742D01*
X123614092Y-91083315D01*
X123614092Y-90916685D01*
X123646600Y-90753258D01*
X123710366Y-90599313D01*
X123802940Y-90460766D01*
X123920765Y-90342941D01*
X124059312Y-90250367D01*
X124213257Y-90186601D01*
X124376684Y-90154093D01*
X124543314Y-90154093D01*
X124706741Y-90186601D01*
G37*
G36*
X127246742Y-90186601D02*
G01*
X127400687Y-90250367D01*
X127539234Y-90342941D01*
X127657059Y-90460766D01*
X127749633Y-90599313D01*
X127813399Y-90753258D01*
X127845907Y-90916685D01*
X127845907Y-91083315D01*
X127813399Y-91246742D01*
X127749633Y-91400687D01*
X127657059Y-91539234D01*
X127539234Y-91657059D01*
X127400687Y-91749633D01*
X127246742Y-91813399D01*
X127083315Y-91845907D01*
X126916685Y-91845907D01*
X126753258Y-91813399D01*
X126599313Y-91749633D01*
X126460766Y-91657059D01*
X126342941Y-91539234D01*
X126250367Y-91400687D01*
X126186601Y-91246742D01*
X126154093Y-91083315D01*
X126154093Y-90916685D01*
X126186601Y-90753258D01*
X126250367Y-90599313D01*
X126342941Y-90460766D01*
X126460766Y-90342941D01*
X126599313Y-90250367D01*
X126753258Y-90186601D01*
X126916685Y-90154093D01*
X127083315Y-90154093D01*
X127246742Y-90186601D01*
G37*
G36*
X116704850Y-89750964D02*
G01*
X116749317Y-89756123D01*
X116764510Y-89762831D01*
X116786104Y-89767127D01*
X116809222Y-89782574D01*
X116826567Y-89790233D01*
X116838412Y-89802078D01*
X116859099Y-89815901D01*
X116872921Y-89836587D01*
X116884766Y-89848432D01*
X116892423Y-89865774D01*
X116907873Y-89888896D01*
X116912168Y-89910491D01*
X116918876Y-89925682D01*
X116924033Y-89970139D01*
X116925000Y-89975000D01*
X116925000Y-90425000D01*
X116924032Y-90429862D01*
X116918876Y-90474317D01*
X116912168Y-90489506D01*
X116907873Y-90511104D01*
X116892422Y-90534227D01*
X116884766Y-90551567D01*
X116872923Y-90563409D01*
X116859099Y-90584099D01*
X116838409Y-90597923D01*
X116826567Y-90609766D01*
X116809227Y-90617422D01*
X116786104Y-90632873D01*
X116764506Y-90637168D01*
X116749317Y-90643876D01*
X116704861Y-90649032D01*
X116700000Y-90650000D01*
X116200000Y-90650000D01*
X116195138Y-90649033D01*
X116150682Y-90643876D01*
X116135491Y-90637168D01*
X116113896Y-90632873D01*
X116090774Y-90617423D01*
X116073432Y-90609766D01*
X116061587Y-90597921D01*
X116040901Y-90584099D01*
X116027078Y-90563412D01*
X116015233Y-90551567D01*
X116007574Y-90534222D01*
X115992127Y-90511104D01*
X115987831Y-90489510D01*
X115981123Y-90474317D01*
X115975964Y-90429849D01*
X115975000Y-90425000D01*
X115975000Y-89975000D01*
X115975964Y-89970150D01*
X115981123Y-89925682D01*
X115987832Y-89910487D01*
X115992127Y-89888896D01*
X116007573Y-89865779D01*
X116015233Y-89848432D01*
X116027080Y-89836584D01*
X116040901Y-89815901D01*
X116061584Y-89802080D01*
X116073432Y-89790233D01*
X116090779Y-89782573D01*
X116113896Y-89767127D01*
X116135487Y-89762832D01*
X116150682Y-89756123D01*
X116195151Y-89750964D01*
X116200000Y-89750000D01*
X116700000Y-89750000D01*
X116704850Y-89750964D01*
G37*
G36*
X109654850Y-87425964D02*
G01*
X109699317Y-87431123D01*
X109714510Y-87437831D01*
X109736104Y-87442127D01*
X109759222Y-87457574D01*
X109776567Y-87465233D01*
X109788412Y-87477078D01*
X109809099Y-87490901D01*
X109822921Y-87511587D01*
X109834766Y-87523432D01*
X109842423Y-87540774D01*
X109857873Y-87563896D01*
X109862168Y-87585491D01*
X109868876Y-87600682D01*
X109874033Y-87645139D01*
X109875000Y-87650000D01*
X109875000Y-88150000D01*
X109874032Y-88154862D01*
X109868876Y-88199317D01*
X109862168Y-88214506D01*
X109857873Y-88236104D01*
X109842422Y-88259227D01*
X109834766Y-88276567D01*
X109822923Y-88288409D01*
X109809099Y-88309099D01*
X109788409Y-88322923D01*
X109776567Y-88334766D01*
X109759227Y-88342422D01*
X109736104Y-88357873D01*
X109714506Y-88362168D01*
X109699317Y-88368876D01*
X109654861Y-88374032D01*
X109650000Y-88375000D01*
X109200000Y-88375000D01*
X109195138Y-88374033D01*
X109150682Y-88368876D01*
X109135491Y-88362168D01*
X109113896Y-88357873D01*
X109090774Y-88342423D01*
X109073432Y-88334766D01*
X109061587Y-88322921D01*
X109040901Y-88309099D01*
X109027078Y-88288412D01*
X109015233Y-88276567D01*
X109007574Y-88259222D01*
X108992127Y-88236104D01*
X108987831Y-88214510D01*
X108981123Y-88199317D01*
X108975964Y-88154849D01*
X108975000Y-88150000D01*
X108975000Y-87650000D01*
X108975964Y-87645150D01*
X108981123Y-87600682D01*
X108987832Y-87585487D01*
X108992127Y-87563896D01*
X109007573Y-87540779D01*
X109015233Y-87523432D01*
X109027080Y-87511584D01*
X109040901Y-87490901D01*
X109061584Y-87477080D01*
X109073432Y-87465233D01*
X109090779Y-87457573D01*
X109113896Y-87442127D01*
X109135487Y-87437832D01*
X109150682Y-87431123D01*
X109195151Y-87425964D01*
X109200000Y-87425000D01*
X109650000Y-87425000D01*
X109654850Y-87425964D01*
G37*
G36*
X111204850Y-87425964D02*
G01*
X111249317Y-87431123D01*
X111264510Y-87437831D01*
X111286104Y-87442127D01*
X111309222Y-87457574D01*
X111326567Y-87465233D01*
X111338412Y-87477078D01*
X111359099Y-87490901D01*
X111372921Y-87511587D01*
X111384766Y-87523432D01*
X111392423Y-87540774D01*
X111407873Y-87563896D01*
X111412168Y-87585491D01*
X111418876Y-87600682D01*
X111424033Y-87645139D01*
X111425000Y-87650000D01*
X111425000Y-88150000D01*
X111424032Y-88154862D01*
X111418876Y-88199317D01*
X111412168Y-88214506D01*
X111407873Y-88236104D01*
X111392422Y-88259227D01*
X111384766Y-88276567D01*
X111372923Y-88288409D01*
X111359099Y-88309099D01*
X111338409Y-88322923D01*
X111326567Y-88334766D01*
X111309227Y-88342422D01*
X111286104Y-88357873D01*
X111264506Y-88362168D01*
X111249317Y-88368876D01*
X111204861Y-88374032D01*
X111200000Y-88375000D01*
X110750000Y-88375000D01*
X110745138Y-88374033D01*
X110700682Y-88368876D01*
X110685491Y-88362168D01*
X110663896Y-88357873D01*
X110640774Y-88342423D01*
X110623432Y-88334766D01*
X110611587Y-88322921D01*
X110590901Y-88309099D01*
X110577078Y-88288412D01*
X110565233Y-88276567D01*
X110557574Y-88259222D01*
X110542127Y-88236104D01*
X110537831Y-88214510D01*
X110531123Y-88199317D01*
X110525964Y-88154849D01*
X110525000Y-88150000D01*
X110525000Y-87650000D01*
X110525964Y-87645150D01*
X110531123Y-87600682D01*
X110537832Y-87585487D01*
X110542127Y-87563896D01*
X110557573Y-87540779D01*
X110565233Y-87523432D01*
X110577080Y-87511584D01*
X110590901Y-87490901D01*
X110611584Y-87477080D01*
X110623432Y-87465233D01*
X110640779Y-87457573D01*
X110663896Y-87442127D01*
X110685487Y-87437832D01*
X110700682Y-87431123D01*
X110745151Y-87425964D01*
X110750000Y-87425000D01*
X111200000Y-87425000D01*
X111204850Y-87425964D01*
G37*
G36*
X113651537Y-87440224D02*
G01*
X113716421Y-87483579D01*
X113759776Y-87548463D01*
X113775000Y-87625000D01*
X113775000Y-88175000D01*
X113759776Y-88251537D01*
X113716421Y-88316421D01*
X113651537Y-88359776D01*
X113575000Y-88375000D01*
X113175000Y-88375000D01*
X113098463Y-88359776D01*
X113033579Y-88316421D01*
X112990224Y-88251537D01*
X112975000Y-88175000D01*
X112975000Y-87625000D01*
X112990224Y-87548463D01*
X113033579Y-87483579D01*
X113098463Y-87440224D01*
X113175000Y-87425000D01*
X113575000Y-87425000D01*
X113651537Y-87440224D01*
G37*
G36*
X115301537Y-87440224D02*
G01*
X115366421Y-87483579D01*
X115409776Y-87548463D01*
X115425000Y-87625000D01*
X115425000Y-88175000D01*
X115409776Y-88251537D01*
X115366421Y-88316421D01*
X115301537Y-88359776D01*
X115225000Y-88375000D01*
X114825000Y-88375000D01*
X114748463Y-88359776D01*
X114683579Y-88316421D01*
X114640224Y-88251537D01*
X114625000Y-88175000D01*
X114625000Y-87625000D01*
X114640224Y-87548463D01*
X114683579Y-87483579D01*
X114748463Y-87440224D01*
X114825000Y-87425000D01*
X115225000Y-87425000D01*
X115301537Y-87440224D01*
G37*
G36*
X84507499Y-87175002D02*
G01*
X82797499Y-87175002D01*
X82797499Y-85375002D01*
X84507499Y-85375002D01*
X84507499Y-87175002D01*
G37*
G36*
X103430000Y-87175002D02*
G01*
X101720000Y-87175002D01*
X101720000Y-85375002D01*
X103430000Y-85375002D01*
X103430000Y-87175002D01*
G37*
G36*
X79340692Y-85411818D02*
G01*
X79495543Y-85475959D01*
X79634905Y-85569078D01*
X79753423Y-85687596D01*
X79846542Y-85826958D01*
X79910683Y-85981809D01*
X79943382Y-86146197D01*
X79947499Y-86230002D01*
X79947499Y-86320002D01*
X79943382Y-86403807D01*
X79910683Y-86568195D01*
X79846542Y-86723046D01*
X79753423Y-86862408D01*
X79634905Y-86980926D01*
X79495543Y-87074045D01*
X79340692Y-87138186D01*
X79176304Y-87170885D01*
X79008694Y-87170885D01*
X78844306Y-87138186D01*
X78689455Y-87074045D01*
X78550093Y-86980926D01*
X78431575Y-86862408D01*
X78338456Y-86723046D01*
X78274315Y-86568195D01*
X78241616Y-86403807D01*
X78237499Y-86320002D01*
X78237499Y-86230002D01*
X78241616Y-86146197D01*
X78274315Y-85981809D01*
X78338456Y-85826958D01*
X78431575Y-85687596D01*
X78550093Y-85569078D01*
X78689455Y-85475959D01*
X78844306Y-85411818D01*
X79008694Y-85379119D01*
X79176304Y-85379119D01*
X79340692Y-85411818D01*
G37*
G36*
X81620693Y-85411818D02*
G01*
X81775544Y-85475959D01*
X81914906Y-85569078D01*
X82033424Y-85687596D01*
X82126543Y-85826958D01*
X82190684Y-85981809D01*
X82223383Y-86146197D01*
X82227500Y-86230002D01*
X82227500Y-86320002D01*
X82223383Y-86403807D01*
X82190684Y-86568195D01*
X82126543Y-86723046D01*
X82033424Y-86862408D01*
X81914906Y-86980926D01*
X81775544Y-87074045D01*
X81620693Y-87138186D01*
X81456305Y-87170885D01*
X81288695Y-87170885D01*
X81124307Y-87138186D01*
X80969456Y-87074045D01*
X80830094Y-86980926D01*
X80711576Y-86862408D01*
X80618457Y-86723046D01*
X80554316Y-86568195D01*
X80521617Y-86403807D01*
X80517500Y-86320002D01*
X80517500Y-86230002D01*
X80521617Y-86146197D01*
X80554316Y-85981809D01*
X80618457Y-85826958D01*
X80711576Y-85687596D01*
X80830094Y-85569078D01*
X80969456Y-85475959D01*
X81124307Y-85411818D01*
X81288695Y-85379119D01*
X81456305Y-85379119D01*
X81620693Y-85411818D01*
G37*
G36*
X98263193Y-85411818D02*
G01*
X98418044Y-85475959D01*
X98557406Y-85569078D01*
X98675924Y-85687596D01*
X98769043Y-85826958D01*
X98833184Y-85981809D01*
X98865883Y-86146197D01*
X98870000Y-86230002D01*
X98870000Y-86320002D01*
X98865883Y-86403807D01*
X98833184Y-86568195D01*
X98769043Y-86723046D01*
X98675924Y-86862408D01*
X98557406Y-86980926D01*
X98418044Y-87074045D01*
X98263193Y-87138186D01*
X98098805Y-87170885D01*
X97931195Y-87170885D01*
X97766807Y-87138186D01*
X97611956Y-87074045D01*
X97472594Y-86980926D01*
X97354076Y-86862408D01*
X97260957Y-86723046D01*
X97196816Y-86568195D01*
X97164117Y-86403807D01*
X97160000Y-86320002D01*
X97160000Y-86230002D01*
X97164117Y-86146197D01*
X97196816Y-85981809D01*
X97260957Y-85826958D01*
X97354076Y-85687596D01*
X97472594Y-85569078D01*
X97611956Y-85475959D01*
X97766807Y-85411818D01*
X97931195Y-85379119D01*
X98098805Y-85379119D01*
X98263193Y-85411818D01*
G37*
G36*
X100543194Y-85411818D02*
G01*
X100698045Y-85475959D01*
X100837407Y-85569078D01*
X100955925Y-85687596D01*
X101049044Y-85826958D01*
X101113185Y-85981809D01*
X101145884Y-86146197D01*
X101150001Y-86230002D01*
X101150001Y-86320002D01*
X101145884Y-86403807D01*
X101113185Y-86568195D01*
X101049044Y-86723046D01*
X100955925Y-86862408D01*
X100837407Y-86980926D01*
X100698045Y-87074045D01*
X100543194Y-87138186D01*
X100378806Y-87170885D01*
X100211196Y-87170885D01*
X100046808Y-87138186D01*
X99891957Y-87074045D01*
X99752595Y-86980926D01*
X99634077Y-86862408D01*
X99540958Y-86723046D01*
X99476817Y-86568195D01*
X99444118Y-86403807D01*
X99440001Y-86320002D01*
X99440001Y-86230002D01*
X99444118Y-86146197D01*
X99476817Y-85981809D01*
X99540958Y-85826958D01*
X99634077Y-85687596D01*
X99752595Y-85569078D01*
X99891957Y-85475959D01*
X100046808Y-85411818D01*
X100211196Y-85379119D01*
X100378806Y-85379119D01*
X100543194Y-85411818D01*
G37*
G36*
X69507500Y-83937501D02*
G01*
X66507500Y-83937501D01*
X66507500Y-80937501D01*
X69507500Y-80937501D01*
X69507500Y-83937501D01*
G37*
G36*
X115365000Y-83650000D02*
G01*
X113665000Y-83650000D01*
X113665000Y-81950000D01*
X115365000Y-81950000D01*
X115365000Y-83650000D01*
G37*
G36*
X117301742Y-81986601D02*
G01*
X117455687Y-82050367D01*
X117594234Y-82142941D01*
X117712059Y-82260766D01*
X117804633Y-82399313D01*
X117868399Y-82553258D01*
X117900907Y-82716685D01*
X117900907Y-82883315D01*
X117868399Y-83046742D01*
X117804633Y-83200687D01*
X117712059Y-83339234D01*
X117594234Y-83457059D01*
X117455687Y-83549633D01*
X117301742Y-83613399D01*
X117138315Y-83645907D01*
X116971685Y-83645907D01*
X116808258Y-83613399D01*
X116654313Y-83549633D01*
X116515766Y-83457059D01*
X116397941Y-83339234D01*
X116305367Y-83200687D01*
X116241601Y-83046742D01*
X116209093Y-82883315D01*
X116209093Y-82716685D01*
X116241601Y-82553258D01*
X116305367Y-82399313D01*
X116397941Y-82260766D01*
X116515766Y-82142941D01*
X116654313Y-82050367D01*
X116808258Y-81986601D01*
X116971685Y-81954093D01*
X117138315Y-81954093D01*
X117301742Y-81986601D01*
G37*
G36*
X119841742Y-81986601D02*
G01*
X119995687Y-82050367D01*
X120134234Y-82142941D01*
X120252059Y-82260766D01*
X120344633Y-82399313D01*
X120408399Y-82553258D01*
X120440907Y-82716685D01*
X120440907Y-82883315D01*
X120408399Y-83046742D01*
X120344633Y-83200687D01*
X120252059Y-83339234D01*
X120134234Y-83457059D01*
X119995687Y-83549633D01*
X119841742Y-83613399D01*
X119678315Y-83645907D01*
X119511685Y-83645907D01*
X119348258Y-83613399D01*
X119194313Y-83549633D01*
X119055766Y-83457059D01*
X118937941Y-83339234D01*
X118845367Y-83200687D01*
X118781601Y-83046742D01*
X118749093Y-82883315D01*
X118749093Y-82716685D01*
X118781601Y-82553258D01*
X118845367Y-82399313D01*
X118937941Y-82260766D01*
X119055766Y-82142941D01*
X119194313Y-82050367D01*
X119348258Y-81986601D01*
X119511685Y-81954093D01*
X119678315Y-81954093D01*
X119841742Y-81986601D01*
G37*
G36*
X122381742Y-81986601D02*
G01*
X122535687Y-82050367D01*
X122674234Y-82142941D01*
X122792059Y-82260766D01*
X122884633Y-82399313D01*
X122948399Y-82553258D01*
X122980907Y-82716685D01*
X122980907Y-82883315D01*
X122948399Y-83046742D01*
X122884633Y-83200687D01*
X122792059Y-83339234D01*
X122674234Y-83457059D01*
X122535687Y-83549633D01*
X122381742Y-83613399D01*
X122218315Y-83645907D01*
X122051685Y-83645907D01*
X121888258Y-83613399D01*
X121734313Y-83549633D01*
X121595766Y-83457059D01*
X121477941Y-83339234D01*
X121385367Y-83200687D01*
X121321601Y-83046742D01*
X121289093Y-82883315D01*
X121289093Y-82716685D01*
X121321601Y-82553258D01*
X121385367Y-82399313D01*
X121477941Y-82260766D01*
X121595766Y-82142941D01*
X121734313Y-82050367D01*
X121888258Y-81986601D01*
X122051685Y-81954093D01*
X122218315Y-81954093D01*
X122381742Y-81986601D01*
G37*
G36*
X124921742Y-81986601D02*
G01*
X125075687Y-82050367D01*
X125214234Y-82142941D01*
X125332059Y-82260766D01*
X125424633Y-82399313D01*
X125488399Y-82553258D01*
X125520907Y-82716685D01*
X125520907Y-82883315D01*
X125488399Y-83046742D01*
X125424633Y-83200687D01*
X125332059Y-83339234D01*
X125214234Y-83457059D01*
X125075687Y-83549633D01*
X124921742Y-83613399D01*
X124758315Y-83645907D01*
X124591685Y-83645907D01*
X124428258Y-83613399D01*
X124274313Y-83549633D01*
X124135766Y-83457059D01*
X124017941Y-83339234D01*
X123925367Y-83200687D01*
X123861601Y-83046742D01*
X123829093Y-82883315D01*
X123829093Y-82716685D01*
X123861601Y-82553258D01*
X123925367Y-82399313D01*
X124017941Y-82260766D01*
X124135766Y-82142941D01*
X124274313Y-82050367D01*
X124428258Y-81986601D01*
X124591685Y-81954093D01*
X124758315Y-81954093D01*
X124921742Y-81986601D01*
G37*
G36*
X127461742Y-81986601D02*
G01*
X127615687Y-82050367D01*
X127754234Y-82142941D01*
X127872059Y-82260766D01*
X127964633Y-82399313D01*
X128028399Y-82553258D01*
X128060907Y-82716685D01*
X128060907Y-82883315D01*
X128028399Y-83046742D01*
X127964633Y-83200687D01*
X127872059Y-83339234D01*
X127754234Y-83457059D01*
X127615687Y-83549633D01*
X127461742Y-83613399D01*
X127298315Y-83645907D01*
X127131685Y-83645907D01*
X126968258Y-83613399D01*
X126814313Y-83549633D01*
X126675766Y-83457059D01*
X126557941Y-83339234D01*
X126465367Y-83200687D01*
X126401601Y-83046742D01*
X126369093Y-82883315D01*
X126369093Y-82716685D01*
X126401601Y-82553258D01*
X126465367Y-82399313D01*
X126557941Y-82260766D01*
X126675766Y-82142941D01*
X126814313Y-82050367D01*
X126968258Y-81986601D01*
X127131685Y-81954093D01*
X127298315Y-81954093D01*
X127461742Y-81986601D01*
G37*
G36*
X79784850Y-81305964D02*
G01*
X79835040Y-81311787D01*
X79852189Y-81319359D01*
X79875671Y-81324030D01*
X79900810Y-81340827D01*
X79920696Y-81349608D01*
X79934277Y-81363189D01*
X79956777Y-81378223D01*
X79971810Y-81400722D01*
X79985391Y-81414303D01*
X79994170Y-81434186D01*
X80010970Y-81459329D01*
X80015641Y-81482812D01*
X80023212Y-81499959D01*
X80029033Y-81550139D01*
X80030000Y-81555000D01*
X80030000Y-82445000D01*
X80029032Y-82449863D01*
X80023212Y-82500040D01*
X80015641Y-82517185D01*
X80010970Y-82540671D01*
X79994169Y-82565815D01*
X79985391Y-82585696D01*
X79971812Y-82599274D01*
X79956777Y-82621777D01*
X79934274Y-82636812D01*
X79920696Y-82650391D01*
X79900815Y-82659169D01*
X79875671Y-82675970D01*
X79852185Y-82680641D01*
X79835040Y-82688212D01*
X79784861Y-82694032D01*
X79780000Y-82695000D01*
X78865000Y-82695000D01*
X78860138Y-82694032D01*
X78809959Y-82688212D01*
X78792812Y-82680641D01*
X78769329Y-82675970D01*
X78744186Y-82659170D01*
X78724303Y-82650391D01*
X78710722Y-82636810D01*
X78688223Y-82621777D01*
X78673189Y-82599277D01*
X78659608Y-82585696D01*
X78650827Y-82565810D01*
X78634030Y-82540671D01*
X78629359Y-82517189D01*
X78621787Y-82500040D01*
X78615964Y-82449849D01*
X78615000Y-82445000D01*
X78615000Y-81555000D01*
X78615964Y-81550150D01*
X78621787Y-81499959D01*
X78629359Y-81482808D01*
X78634030Y-81459329D01*
X78650826Y-81434191D01*
X78659608Y-81414303D01*
X78673191Y-81400719D01*
X78688223Y-81378223D01*
X78710719Y-81363191D01*
X78724303Y-81349608D01*
X78744191Y-81340826D01*
X78769329Y-81324030D01*
X78792808Y-81319359D01*
X78809959Y-81311787D01*
X78860151Y-81305964D01*
X78865000Y-81305000D01*
X79780000Y-81305000D01*
X79784850Y-81305964D01*
G37*
G36*
X82489850Y-81305964D02*
G01*
X82540040Y-81311787D01*
X82557189Y-81319359D01*
X82580671Y-81324030D01*
X82605810Y-81340827D01*
X82625696Y-81349608D01*
X82639277Y-81363189D01*
X82661777Y-81378223D01*
X82676810Y-81400722D01*
X82690391Y-81414303D01*
X82699170Y-81434186D01*
X82715970Y-81459329D01*
X82720641Y-81482812D01*
X82728212Y-81499959D01*
X82734033Y-81550139D01*
X82735000Y-81555000D01*
X82735000Y-82445000D01*
X82734032Y-82449863D01*
X82728212Y-82500040D01*
X82720641Y-82517185D01*
X82715970Y-82540671D01*
X82699169Y-82565815D01*
X82690391Y-82585696D01*
X82676812Y-82599274D01*
X82661777Y-82621777D01*
X82639274Y-82636812D01*
X82625696Y-82650391D01*
X82605815Y-82659169D01*
X82580671Y-82675970D01*
X82557185Y-82680641D01*
X82540040Y-82688212D01*
X82489861Y-82694032D01*
X82485000Y-82695000D01*
X81570000Y-82695000D01*
X81565138Y-82694032D01*
X81514959Y-82688212D01*
X81497812Y-82680641D01*
X81474329Y-82675970D01*
X81449186Y-82659170D01*
X81429303Y-82650391D01*
X81415722Y-82636810D01*
X81393223Y-82621777D01*
X81378189Y-82599277D01*
X81364608Y-82585696D01*
X81355827Y-82565810D01*
X81339030Y-82540671D01*
X81334359Y-82517189D01*
X81326787Y-82500040D01*
X81320964Y-82449849D01*
X81320000Y-82445000D01*
X81320000Y-81555000D01*
X81320964Y-81550150D01*
X81326787Y-81499959D01*
X81334359Y-81482808D01*
X81339030Y-81459329D01*
X81355826Y-81434191D01*
X81364608Y-81414303D01*
X81378191Y-81400719D01*
X81393223Y-81378223D01*
X81415719Y-81363191D01*
X81429303Y-81349608D01*
X81449191Y-81340826D01*
X81474329Y-81324030D01*
X81497808Y-81319359D01*
X81514959Y-81311787D01*
X81565151Y-81305964D01*
X81570000Y-81305000D01*
X82485000Y-81305000D01*
X82489850Y-81305964D01*
G37*
G36*
X80124686Y-79092370D02*
G01*
X80177405Y-79127595D01*
X80212630Y-79180314D01*
X80225000Y-79242500D01*
X80225000Y-79567500D01*
X80212630Y-79629686D01*
X80177405Y-79682405D01*
X80124686Y-79717630D01*
X80062500Y-79730000D01*
X78762500Y-79730000D01*
X78700314Y-79717630D01*
X78647595Y-79682405D01*
X78612370Y-79629686D01*
X78600000Y-79567500D01*
X78600000Y-79242500D01*
X78612370Y-79180314D01*
X78647595Y-79127595D01*
X78700314Y-79092370D01*
X78762500Y-79080000D01*
X80062500Y-79080000D01*
X80124686Y-79092370D01*
G37*
G36*
X87299686Y-79092370D02*
G01*
X87352405Y-79127595D01*
X87387630Y-79180314D01*
X87400000Y-79242500D01*
X87400000Y-79567500D01*
X87387630Y-79629686D01*
X87352405Y-79682405D01*
X87299686Y-79717630D01*
X87237500Y-79730000D01*
X85937500Y-79730000D01*
X85875314Y-79717630D01*
X85822595Y-79682405D01*
X85787370Y-79629686D01*
X85775000Y-79567500D01*
X85775000Y-79242500D01*
X85787370Y-79180314D01*
X85822595Y-79127595D01*
X85875314Y-79092370D01*
X85937500Y-79080000D01*
X87237500Y-79080000D01*
X87299686Y-79092370D01*
G37*
G36*
X68357668Y-75978946D02*
G01*
X68581525Y-76051682D01*
X68791248Y-76158541D01*
X68981672Y-76296892D01*
X69148109Y-76463329D01*
X69286460Y-76653753D01*
X69393319Y-76863476D01*
X69466055Y-77087333D01*
X69502876Y-77319812D01*
X69502876Y-77555190D01*
X69466055Y-77787669D01*
X69393319Y-78011526D01*
X69286460Y-78221249D01*
X69148109Y-78411673D01*
X68981672Y-78578110D01*
X68791248Y-78716461D01*
X68581525Y-78823320D01*
X68357668Y-78896056D01*
X68125189Y-78932877D01*
X67889811Y-78932877D01*
X67657332Y-78896056D01*
X67433475Y-78823320D01*
X67223752Y-78716461D01*
X67033328Y-78578110D01*
X66866891Y-78411673D01*
X66728540Y-78221249D01*
X66621681Y-78011526D01*
X66548945Y-77787669D01*
X66512124Y-77555190D01*
X66512124Y-77319812D01*
X66548945Y-77087333D01*
X66621681Y-76863476D01*
X66728540Y-76653753D01*
X66866891Y-76463329D01*
X67033328Y-76296892D01*
X67223752Y-76158541D01*
X67433475Y-76051682D01*
X67657332Y-75978946D01*
X67889811Y-75942125D01*
X68125189Y-75942125D01*
X68357668Y-75978946D01*
G37*
G36*
X77079850Y-77925964D02*
G01*
X77124317Y-77931123D01*
X77139510Y-77937831D01*
X77161104Y-77942127D01*
X77184222Y-77957574D01*
X77201567Y-77965233D01*
X77213412Y-77977078D01*
X77234099Y-77990901D01*
X77247921Y-78011587D01*
X77259766Y-78023432D01*
X77267423Y-78040774D01*
X77282873Y-78063896D01*
X77287168Y-78085491D01*
X77293876Y-78100682D01*
X77299033Y-78145139D01*
X77300000Y-78150000D01*
X77300000Y-78600000D01*
X77299032Y-78604862D01*
X77293876Y-78649317D01*
X77287168Y-78664506D01*
X77282873Y-78686104D01*
X77267422Y-78709227D01*
X77259766Y-78726567D01*
X77247923Y-78738409D01*
X77234099Y-78759099D01*
X77213409Y-78772923D01*
X77201567Y-78784766D01*
X77184227Y-78792422D01*
X77161104Y-78807873D01*
X77139506Y-78812168D01*
X77124317Y-78818876D01*
X77079861Y-78824032D01*
X77075000Y-78825000D01*
X76575000Y-78825000D01*
X76570138Y-78824033D01*
X76525682Y-78818876D01*
X76510491Y-78812168D01*
X76488896Y-78807873D01*
X76465774Y-78792423D01*
X76448432Y-78784766D01*
X76436587Y-78772921D01*
X76415901Y-78759099D01*
X76402078Y-78738412D01*
X76390233Y-78726567D01*
X76382574Y-78709222D01*
X76367127Y-78686104D01*
X76362831Y-78664510D01*
X76356123Y-78649317D01*
X76350964Y-78604849D01*
X76350000Y-78600000D01*
X76350000Y-78150000D01*
X76350964Y-78145150D01*
X76356123Y-78100682D01*
X76362832Y-78085487D01*
X76367127Y-78063896D01*
X76382573Y-78040779D01*
X76390233Y-78023432D01*
X76402080Y-78011584D01*
X76415901Y-77990901D01*
X76436584Y-77977080D01*
X76448432Y-77965233D01*
X76465779Y-77957573D01*
X76488896Y-77942127D01*
X76510487Y-77937832D01*
X76525682Y-77931123D01*
X76570151Y-77925964D01*
X76575000Y-77925000D01*
X77075000Y-77925000D01*
X77079850Y-77925964D01*
G37*
G36*
X80124686Y-77822370D02*
G01*
X80177405Y-77857595D01*
X80212630Y-77910314D01*
X80225000Y-77972500D01*
X80225000Y-78297500D01*
X80212630Y-78359686D01*
X80177405Y-78412405D01*
X80124686Y-78447630D01*
X80062500Y-78460000D01*
X78762500Y-78460000D01*
X78700314Y-78447630D01*
X78647595Y-78412405D01*
X78612370Y-78359686D01*
X78600000Y-78297500D01*
X78600000Y-77972500D01*
X78612370Y-77910314D01*
X78647595Y-77857595D01*
X78700314Y-77822370D01*
X78762500Y-77810000D01*
X80062500Y-77810000D01*
X80124686Y-77822370D01*
G37*
G36*
X87299686Y-77822370D02*
G01*
X87352405Y-77857595D01*
X87387630Y-77910314D01*
X87400000Y-77972500D01*
X87400000Y-78297500D01*
X87387630Y-78359686D01*
X87352405Y-78412405D01*
X87299686Y-78447630D01*
X87237500Y-78460000D01*
X85937500Y-78460000D01*
X85875314Y-78447630D01*
X85822595Y-78412405D01*
X85787370Y-78359686D01*
X85775000Y-78297500D01*
X85775000Y-77972500D01*
X85787370Y-77910314D01*
X85822595Y-77857595D01*
X85875314Y-77822370D01*
X85937500Y-77810000D01*
X87237500Y-77810000D01*
X87299686Y-77822370D01*
G37*
G36*
X123687899Y-77655599D02*
G01*
X122290899Y-77655599D01*
X122290899Y-76944399D01*
X123687899Y-76944399D01*
X123687899Y-77655599D01*
G37*
G36*
X128209101Y-77655599D02*
G01*
X126812101Y-77655599D01*
X126812101Y-76944399D01*
X128209101Y-76944399D01*
X128209101Y-77655599D01*
G37*
G36*
X110362899Y-77630599D02*
G01*
X108965899Y-77630599D01*
X108965899Y-76919399D01*
X110362899Y-76919399D01*
X110362899Y-77630599D01*
G37*
G36*
X114884101Y-77630599D02*
G01*
X113487101Y-77630599D01*
X113487101Y-76919399D01*
X114884101Y-76919399D01*
X114884101Y-77630599D01*
G37*
G36*
X116704850Y-76525964D02*
G01*
X116749317Y-76531123D01*
X116764510Y-76537831D01*
X116786104Y-76542127D01*
X116809222Y-76557574D01*
X116826567Y-76565233D01*
X116838412Y-76577078D01*
X116859099Y-76590901D01*
X116872921Y-76611587D01*
X116884766Y-76623432D01*
X116892423Y-76640774D01*
X116907873Y-76663896D01*
X116912168Y-76685491D01*
X116918876Y-76700682D01*
X116924033Y-76745139D01*
X116925000Y-76750000D01*
X116925000Y-77200000D01*
X116924032Y-77204862D01*
X116918876Y-77249317D01*
X116912168Y-77264506D01*
X116907873Y-77286104D01*
X116892422Y-77309227D01*
X116884766Y-77326567D01*
X116872923Y-77338409D01*
X116859099Y-77359099D01*
X116838409Y-77372923D01*
X116826567Y-77384766D01*
X116809227Y-77392422D01*
X116786104Y-77407873D01*
X116764506Y-77412168D01*
X116749317Y-77418876D01*
X116704861Y-77424032D01*
X116700000Y-77425000D01*
X116200000Y-77425000D01*
X116195138Y-77424033D01*
X116150682Y-77418876D01*
X116135491Y-77412168D01*
X116113896Y-77407873D01*
X116090774Y-77392423D01*
X116073432Y-77384766D01*
X116061587Y-77372921D01*
X116040901Y-77359099D01*
X116027078Y-77338412D01*
X116015233Y-77326567D01*
X116007574Y-77309222D01*
X115992127Y-77286104D01*
X115987831Y-77264510D01*
X115981123Y-77249317D01*
X115975964Y-77204849D01*
X115975000Y-77200000D01*
X115975000Y-76750000D01*
X115975964Y-76745150D01*
X115981123Y-76700682D01*
X115987832Y-76685487D01*
X115992127Y-76663896D01*
X116007573Y-76640779D01*
X116015233Y-76623432D01*
X116027080Y-76611584D01*
X116040901Y-76590901D01*
X116061584Y-76577080D01*
X116073432Y-76565233D01*
X116090779Y-76557573D01*
X116113896Y-76542127D01*
X116135487Y-76537832D01*
X116150682Y-76531123D01*
X116195151Y-76525964D01*
X116200000Y-76525000D01*
X116700000Y-76525000D01*
X116704850Y-76525964D01*
G37*
G36*
X120979850Y-76525964D02*
G01*
X121024317Y-76531123D01*
X121039510Y-76537831D01*
X121061104Y-76542127D01*
X121084222Y-76557574D01*
X121101567Y-76565233D01*
X121113412Y-76577078D01*
X121134099Y-76590901D01*
X121147921Y-76611587D01*
X121159766Y-76623432D01*
X121167423Y-76640774D01*
X121182873Y-76663896D01*
X121187168Y-76685491D01*
X121193876Y-76700682D01*
X121199033Y-76745139D01*
X121200000Y-76750000D01*
X121200000Y-77200000D01*
X121199032Y-77204862D01*
X121193876Y-77249317D01*
X121187168Y-77264506D01*
X121182873Y-77286104D01*
X121167422Y-77309227D01*
X121159766Y-77326567D01*
X121147923Y-77338409D01*
X121134099Y-77359099D01*
X121113409Y-77372923D01*
X121101567Y-77384766D01*
X121084227Y-77392422D01*
X121061104Y-77407873D01*
X121039506Y-77412168D01*
X121024317Y-77418876D01*
X120979861Y-77424032D01*
X120975000Y-77425000D01*
X120475000Y-77425000D01*
X120470138Y-77424033D01*
X120425682Y-77418876D01*
X120410491Y-77412168D01*
X120388896Y-77407873D01*
X120365774Y-77392423D01*
X120348432Y-77384766D01*
X120336587Y-77372921D01*
X120315901Y-77359099D01*
X120302078Y-77338412D01*
X120290233Y-77326567D01*
X120282574Y-77309222D01*
X120267127Y-77286104D01*
X120262831Y-77264510D01*
X120256123Y-77249317D01*
X120250964Y-77204849D01*
X120250000Y-77200000D01*
X120250000Y-76750000D01*
X120250964Y-76745150D01*
X120256123Y-76700682D01*
X120262832Y-76685487D01*
X120267127Y-76663896D01*
X120282573Y-76640779D01*
X120290233Y-76623432D01*
X120302080Y-76611584D01*
X120315901Y-76590901D01*
X120336584Y-76577080D01*
X120348432Y-76565233D01*
X120365779Y-76557573D01*
X120388896Y-76542127D01*
X120410487Y-76537832D01*
X120425682Y-76531123D01*
X120470151Y-76525964D01*
X120475000Y-76525000D01*
X120975000Y-76525000D01*
X120979850Y-76525964D01*
G37*
G36*
X89974850Y-75870964D02*
G01*
X90025040Y-75876787D01*
X90042189Y-75884359D01*
X90065671Y-75889030D01*
X90090810Y-75905827D01*
X90110696Y-75914608D01*
X90124277Y-75928189D01*
X90146777Y-75943223D01*
X90161810Y-75965722D01*
X90175391Y-75979303D01*
X90184170Y-75999186D01*
X90200970Y-76024329D01*
X90205641Y-76047812D01*
X90213212Y-76064959D01*
X90219033Y-76115139D01*
X90220000Y-76120000D01*
X90220000Y-77035000D01*
X90219032Y-77039863D01*
X90213212Y-77090040D01*
X90205641Y-77107185D01*
X90200970Y-77130671D01*
X90184169Y-77155815D01*
X90175391Y-77175696D01*
X90161812Y-77189274D01*
X90146777Y-77211777D01*
X90124274Y-77226812D01*
X90110696Y-77240391D01*
X90090815Y-77249169D01*
X90065671Y-77265970D01*
X90042185Y-77270641D01*
X90025040Y-77278212D01*
X89974861Y-77284032D01*
X89970000Y-77285000D01*
X89080000Y-77285000D01*
X89075138Y-77284032D01*
X89024959Y-77278212D01*
X89007812Y-77270641D01*
X88984329Y-77265970D01*
X88959186Y-77249170D01*
X88939303Y-77240391D01*
X88925722Y-77226810D01*
X88903223Y-77211777D01*
X88888189Y-77189277D01*
X88874608Y-77175696D01*
X88865827Y-77155810D01*
X88849030Y-77130671D01*
X88844359Y-77107189D01*
X88836787Y-77090040D01*
X88830964Y-77039849D01*
X88830000Y-77035000D01*
X88830000Y-76120000D01*
X88830964Y-76115150D01*
X88836787Y-76064959D01*
X88844359Y-76047808D01*
X88849030Y-76024329D01*
X88865826Y-75999191D01*
X88874608Y-75979303D01*
X88888191Y-75965719D01*
X88903223Y-75943223D01*
X88925719Y-75928191D01*
X88939303Y-75914608D01*
X88959191Y-75905826D01*
X88984329Y-75889030D01*
X89007808Y-75884359D01*
X89024959Y-75876787D01*
X89075151Y-75870964D01*
X89080000Y-75870000D01*
X89970000Y-75870000D01*
X89974850Y-75870964D01*
G37*
G36*
X77079850Y-76375964D02*
G01*
X77124317Y-76381123D01*
X77139510Y-76387831D01*
X77161104Y-76392127D01*
X77184222Y-76407574D01*
X77201567Y-76415233D01*
X77213412Y-76427078D01*
X77234099Y-76440901D01*
X77247921Y-76461587D01*
X77259766Y-76473432D01*
X77267423Y-76490774D01*
X77282873Y-76513896D01*
X77287168Y-76535491D01*
X77293876Y-76550682D01*
X77299033Y-76595139D01*
X77300000Y-76600000D01*
X77300000Y-77050000D01*
X77299032Y-77054862D01*
X77293876Y-77099317D01*
X77287168Y-77114506D01*
X77282873Y-77136104D01*
X77267422Y-77159227D01*
X77259766Y-77176567D01*
X77247923Y-77188409D01*
X77234099Y-77209099D01*
X77213409Y-77222923D01*
X77201567Y-77234766D01*
X77184227Y-77242422D01*
X77161104Y-77257873D01*
X77139506Y-77262168D01*
X77124317Y-77268876D01*
X77079861Y-77274032D01*
X77075000Y-77275000D01*
X76575000Y-77275000D01*
X76570138Y-77274033D01*
X76525682Y-77268876D01*
X76510491Y-77262168D01*
X76488896Y-77257873D01*
X76465774Y-77242423D01*
X76448432Y-77234766D01*
X76436587Y-77222921D01*
X76415901Y-77209099D01*
X76402078Y-77188412D01*
X76390233Y-77176567D01*
X76382574Y-77159222D01*
X76367127Y-77136104D01*
X76362831Y-77114510D01*
X76356123Y-77099317D01*
X76350964Y-77054849D01*
X76350000Y-77050000D01*
X76350000Y-76600000D01*
X76350964Y-76595150D01*
X76356123Y-76550682D01*
X76362832Y-76535487D01*
X76367127Y-76513896D01*
X76382573Y-76490779D01*
X76390233Y-76473432D01*
X76402080Y-76461584D01*
X76415901Y-76440901D01*
X76436584Y-76427080D01*
X76448432Y-76415233D01*
X76465779Y-76407573D01*
X76488896Y-76392127D01*
X76510487Y-76387832D01*
X76525682Y-76381123D01*
X76570151Y-76375964D01*
X76575000Y-76375000D01*
X77075000Y-76375000D01*
X77079850Y-76375964D01*
G37*
G36*
X80124686Y-76552370D02*
G01*
X80177405Y-76587595D01*
X80212630Y-76640314D01*
X80225000Y-76702500D01*
X80225000Y-77027500D01*
X80212630Y-77089686D01*
X80177405Y-77142405D01*
X80124686Y-77177630D01*
X80062500Y-77190000D01*
X78762500Y-77190000D01*
X78700314Y-77177630D01*
X78647595Y-77142405D01*
X78612370Y-77089686D01*
X78600000Y-77027500D01*
X78600000Y-76702500D01*
X78612370Y-76640314D01*
X78647595Y-76587595D01*
X78700314Y-76552370D01*
X78762500Y-76540000D01*
X80062500Y-76540000D01*
X80124686Y-76552370D01*
G37*
G36*
X87299686Y-76552370D02*
G01*
X87352405Y-76587595D01*
X87387630Y-76640314D01*
X87400000Y-76702500D01*
X87400000Y-77027500D01*
X87387630Y-77089686D01*
X87352405Y-77142405D01*
X87299686Y-77177630D01*
X87237500Y-77190000D01*
X85937500Y-77190000D01*
X85875314Y-77177630D01*
X85822595Y-77142405D01*
X85787370Y-77089686D01*
X85775000Y-77027500D01*
X85775000Y-76702500D01*
X85787370Y-76640314D01*
X85822595Y-76587595D01*
X85875314Y-76552370D01*
X85937500Y-76540000D01*
X87237500Y-76540000D01*
X87299686Y-76552370D01*
G37*
G36*
X80124686Y-75282370D02*
G01*
X80177405Y-75317595D01*
X80212630Y-75370314D01*
X80225000Y-75432500D01*
X80225000Y-75757500D01*
X80212630Y-75819686D01*
X80177405Y-75872405D01*
X80124686Y-75907630D01*
X80062500Y-75920000D01*
X78762500Y-75920000D01*
X78700314Y-75907630D01*
X78647595Y-75872405D01*
X78612370Y-75819686D01*
X78600000Y-75757500D01*
X78600000Y-75432500D01*
X78612370Y-75370314D01*
X78647595Y-75317595D01*
X78700314Y-75282370D01*
X78762500Y-75270000D01*
X80062500Y-75270000D01*
X80124686Y-75282370D01*
G37*
G36*
X87299686Y-75282370D02*
G01*
X87352405Y-75317595D01*
X87387630Y-75370314D01*
X87400000Y-75432500D01*
X87400000Y-75757500D01*
X87387630Y-75819686D01*
X87352405Y-75872405D01*
X87299686Y-75907630D01*
X87237500Y-75920000D01*
X85937500Y-75920000D01*
X85875314Y-75907630D01*
X85822595Y-75872405D01*
X85787370Y-75819686D01*
X85775000Y-75757500D01*
X85775000Y-75432500D01*
X85787370Y-75370314D01*
X85822595Y-75317595D01*
X85875314Y-75282370D01*
X85937500Y-75270000D01*
X87237500Y-75270000D01*
X87299686Y-75282370D01*
G37*
G36*
X116704850Y-74975964D02*
G01*
X116749317Y-74981123D01*
X116764510Y-74987831D01*
X116786104Y-74992127D01*
X116809222Y-75007574D01*
X116826567Y-75015233D01*
X116838412Y-75027078D01*
X116859099Y-75040901D01*
X116872921Y-75061587D01*
X116884766Y-75073432D01*
X116892423Y-75090774D01*
X116907873Y-75113896D01*
X116912168Y-75135491D01*
X116918876Y-75150682D01*
X116924033Y-75195139D01*
X116925000Y-75200000D01*
X116925000Y-75650000D01*
X116924032Y-75654862D01*
X116918876Y-75699317D01*
X116912168Y-75714506D01*
X116907873Y-75736104D01*
X116892422Y-75759227D01*
X116884766Y-75776567D01*
X116872923Y-75788409D01*
X116859099Y-75809099D01*
X116838409Y-75822923D01*
X116826567Y-75834766D01*
X116809227Y-75842422D01*
X116786104Y-75857873D01*
X116764506Y-75862168D01*
X116749317Y-75868876D01*
X116704861Y-75874032D01*
X116700000Y-75875000D01*
X116200000Y-75875000D01*
X116195138Y-75874033D01*
X116150682Y-75868876D01*
X116135491Y-75862168D01*
X116113896Y-75857873D01*
X116090774Y-75842423D01*
X116073432Y-75834766D01*
X116061587Y-75822921D01*
X116040901Y-75809099D01*
X116027078Y-75788412D01*
X116015233Y-75776567D01*
X116007574Y-75759222D01*
X115992127Y-75736104D01*
X115987831Y-75714510D01*
X115981123Y-75699317D01*
X115975964Y-75654849D01*
X115975000Y-75650000D01*
X115975000Y-75200000D01*
X115975964Y-75195150D01*
X115981123Y-75150682D01*
X115987832Y-75135487D01*
X115992127Y-75113896D01*
X116007573Y-75090779D01*
X116015233Y-75073432D01*
X116027080Y-75061584D01*
X116040901Y-75040901D01*
X116061584Y-75027080D01*
X116073432Y-75015233D01*
X116090779Y-75007573D01*
X116113896Y-74992127D01*
X116135487Y-74987832D01*
X116150682Y-74981123D01*
X116195151Y-74975964D01*
X116200000Y-74975000D01*
X116700000Y-74975000D01*
X116704850Y-74975964D01*
G37*
G36*
X120979850Y-74975964D02*
G01*
X121024317Y-74981123D01*
X121039510Y-74987831D01*
X121061104Y-74992127D01*
X121084222Y-75007574D01*
X121101567Y-75015233D01*
X121113412Y-75027078D01*
X121134099Y-75040901D01*
X121147921Y-75061587D01*
X121159766Y-75073432D01*
X121167423Y-75090774D01*
X121182873Y-75113896D01*
X121187168Y-75135491D01*
X121193876Y-75150682D01*
X121199033Y-75195139D01*
X121200000Y-75200000D01*
X121200000Y-75650000D01*
X121199032Y-75654862D01*
X121193876Y-75699317D01*
X121187168Y-75714506D01*
X121182873Y-75736104D01*
X121167422Y-75759227D01*
X121159766Y-75776567D01*
X121147923Y-75788409D01*
X121134099Y-75809099D01*
X121113409Y-75822923D01*
X121101567Y-75834766D01*
X121084227Y-75842422D01*
X121061104Y-75857873D01*
X121039506Y-75862168D01*
X121024317Y-75868876D01*
X120979861Y-75874032D01*
X120975000Y-75875000D01*
X120475000Y-75875000D01*
X120470138Y-75874033D01*
X120425682Y-75868876D01*
X120410491Y-75862168D01*
X120388896Y-75857873D01*
X120365774Y-75842423D01*
X120348432Y-75834766D01*
X120336587Y-75822921D01*
X120315901Y-75809099D01*
X120302078Y-75788412D01*
X120290233Y-75776567D01*
X120282574Y-75759222D01*
X120267127Y-75736104D01*
X120262831Y-75714510D01*
X120256123Y-75699317D01*
X120250964Y-75654849D01*
X120250000Y-75650000D01*
X120250000Y-75200000D01*
X120250964Y-75195150D01*
X120256123Y-75150682D01*
X120262832Y-75135487D01*
X120267127Y-75113896D01*
X120282573Y-75090779D01*
X120290233Y-75073432D01*
X120302080Y-75061584D01*
X120315901Y-75040901D01*
X120336584Y-75027080D01*
X120348432Y-75015233D01*
X120365779Y-75007573D01*
X120388896Y-74992127D01*
X120410487Y-74987832D01*
X120425682Y-74981123D01*
X120470151Y-74975964D01*
X120475000Y-74975000D01*
X120975000Y-74975000D01*
X120979850Y-74975964D01*
G37*
G36*
X123687899Y-75505601D02*
G01*
X122290899Y-75505601D01*
X122290899Y-74794401D01*
X123687899Y-74794401D01*
X123687899Y-75505601D01*
G37*
G36*
X128209101Y-75505601D02*
G01*
X126812101Y-75505601D01*
X126812101Y-74794401D01*
X128209101Y-74794401D01*
X128209101Y-75505601D01*
G37*
G36*
X110362899Y-75480601D02*
G01*
X108965899Y-75480601D01*
X108965899Y-74769401D01*
X110362899Y-74769401D01*
X110362899Y-75480601D01*
G37*
G36*
X114884101Y-75480601D02*
G01*
X113487101Y-75480601D01*
X113487101Y-74769401D01*
X114884101Y-74769401D01*
X114884101Y-75480601D01*
G37*
G36*
X89974850Y-73165964D02*
G01*
X90025040Y-73171787D01*
X90042189Y-73179359D01*
X90065671Y-73184030D01*
X90090810Y-73200827D01*
X90110696Y-73209608D01*
X90124277Y-73223189D01*
X90146777Y-73238223D01*
X90161810Y-73260722D01*
X90175391Y-73274303D01*
X90184170Y-73294186D01*
X90200970Y-73319329D01*
X90205641Y-73342812D01*
X90213212Y-73359959D01*
X90219033Y-73410139D01*
X90220000Y-73415000D01*
X90220000Y-74330000D01*
X90219032Y-74334863D01*
X90213212Y-74385040D01*
X90205641Y-74402185D01*
X90200970Y-74425671D01*
X90184169Y-74450815D01*
X90175391Y-74470696D01*
X90161812Y-74484274D01*
X90146777Y-74506777D01*
X90124274Y-74521812D01*
X90110696Y-74535391D01*
X90090815Y-74544169D01*
X90065671Y-74560970D01*
X90042185Y-74565641D01*
X90025040Y-74573212D01*
X89974861Y-74579032D01*
X89970000Y-74580000D01*
X89080000Y-74580000D01*
X89075138Y-74579032D01*
X89024959Y-74573212D01*
X89007812Y-74565641D01*
X88984329Y-74560970D01*
X88959186Y-74544170D01*
X88939303Y-74535391D01*
X88925722Y-74521810D01*
X88903223Y-74506777D01*
X88888189Y-74484277D01*
X88874608Y-74470696D01*
X88865827Y-74450810D01*
X88849030Y-74425671D01*
X88844359Y-74402189D01*
X88836787Y-74385040D01*
X88830964Y-74334849D01*
X88830000Y-74330000D01*
X88830000Y-73415000D01*
X88830964Y-73410150D01*
X88836787Y-73359959D01*
X88844359Y-73342808D01*
X88849030Y-73319329D01*
X88865826Y-73294191D01*
X88874608Y-73274303D01*
X88888191Y-73260719D01*
X88903223Y-73238223D01*
X88925719Y-73223191D01*
X88939303Y-73209608D01*
X88959191Y-73200826D01*
X88984329Y-73184030D01*
X89007808Y-73179359D01*
X89024959Y-73171787D01*
X89075151Y-73165964D01*
X89080000Y-73165000D01*
X89970000Y-73165000D01*
X89974850Y-73165964D01*
G37*
G36*
X79301537Y-72640224D02*
G01*
X79366421Y-72683579D01*
X79409776Y-72748463D01*
X79425000Y-72825000D01*
X79425000Y-73375000D01*
X79409776Y-73451537D01*
X79366421Y-73516421D01*
X79301537Y-73559776D01*
X79225000Y-73575000D01*
X78825000Y-73575000D01*
X78748463Y-73559776D01*
X78683579Y-73516421D01*
X78640224Y-73451537D01*
X78625000Y-73375000D01*
X78625000Y-72825000D01*
X78640224Y-72748463D01*
X78683579Y-72683579D01*
X78748463Y-72640224D01*
X78825000Y-72625000D01*
X79225000Y-72625000D01*
X79301537Y-72640224D01*
G37*
G36*
X80951537Y-72640224D02*
G01*
X81016421Y-72683579D01*
X81059776Y-72748463D01*
X81075000Y-72825000D01*
X81075000Y-73375000D01*
X81059776Y-73451537D01*
X81016421Y-73516421D01*
X80951537Y-73559776D01*
X80875000Y-73575000D01*
X80475000Y-73575000D01*
X80398463Y-73559776D01*
X80333579Y-73516421D01*
X80290224Y-73451537D01*
X80275000Y-73375000D01*
X80275000Y-72825000D01*
X80290224Y-72748463D01*
X80333579Y-72683579D01*
X80398463Y-72640224D01*
X80475000Y-72625000D01*
X80875000Y-72625000D01*
X80951537Y-72640224D01*
G37*
G36*
X112575000Y-72900000D02*
G01*
X111675000Y-72900000D01*
X111675000Y-71400000D01*
X112575000Y-71400000D01*
X112575000Y-72900000D01*
G37*
G36*
X113845000Y-72900000D02*
G01*
X112945000Y-72900000D01*
X112945000Y-71400000D01*
X113845000Y-71400000D01*
X113845000Y-72900000D01*
G37*
G36*
X115115000Y-72900000D02*
G01*
X114215000Y-72900000D01*
X114215000Y-71400000D01*
X115115000Y-71400000D01*
X115115000Y-72900000D01*
G37*
G36*
X116385000Y-72900000D02*
G01*
X115485000Y-72900000D01*
X115485000Y-71400000D01*
X116385000Y-71400000D01*
X116385000Y-72900000D01*
G37*
G36*
X117655000Y-72900000D02*
G01*
X116755000Y-72900000D01*
X116755000Y-71400000D01*
X117655000Y-71400000D01*
X117655000Y-72900000D01*
G37*
G36*
X118925000Y-72900000D02*
G01*
X118025000Y-72900000D01*
X118025000Y-71400000D01*
X118925000Y-71400000D01*
X118925000Y-72900000D01*
G37*
G36*
X120195000Y-72900000D02*
G01*
X119295000Y-72900000D01*
X119295000Y-71400000D01*
X120195000Y-71400000D01*
X120195000Y-72900000D01*
G37*
G36*
X121465000Y-72900000D02*
G01*
X120565000Y-72900000D01*
X120565000Y-71400000D01*
X121465000Y-71400000D01*
X121465000Y-72900000D01*
G37*
G36*
X122735000Y-72900000D02*
G01*
X121835000Y-72900000D01*
X121835000Y-71400000D01*
X122735000Y-71400000D01*
X122735000Y-72900000D01*
G37*
G36*
X124005000Y-72900000D02*
G01*
X123105000Y-72900000D01*
X123105000Y-71400000D01*
X124005000Y-71400000D01*
X124005000Y-72900000D01*
G37*
G36*
X125275000Y-72900000D02*
G01*
X124375000Y-72900000D01*
X124375000Y-71400000D01*
X125275000Y-71400000D01*
X125275000Y-72900000D01*
G37*
G36*
X126545000Y-72900000D02*
G01*
X125645000Y-72900000D01*
X125645000Y-71400000D01*
X126545000Y-71400000D01*
X126545000Y-72900000D01*
G37*
G36*
X127815000Y-72900000D02*
G01*
X126915000Y-72900000D01*
X126915000Y-71400000D01*
X127815000Y-71400000D01*
X127815000Y-72900000D01*
G37*
G36*
X129085000Y-72900000D02*
G01*
X128185000Y-72900000D01*
X128185000Y-71400000D01*
X129085000Y-71400000D01*
X129085000Y-72900000D01*
G37*
G36*
X111625000Y-70835000D02*
G01*
X110125000Y-70835000D01*
X110125000Y-69935000D01*
X111625000Y-69935000D01*
X111625000Y-70835000D01*
G37*
G36*
X107201537Y-69890224D02*
G01*
X107266421Y-69933579D01*
X107309776Y-69998463D01*
X107325000Y-70075000D01*
X107325000Y-70625000D01*
X107309776Y-70701537D01*
X107266421Y-70766421D01*
X107201537Y-70809776D01*
X107125000Y-70825000D01*
X106725000Y-70825000D01*
X106648463Y-70809776D01*
X106583579Y-70766421D01*
X106540224Y-70701537D01*
X106525000Y-70625000D01*
X106525000Y-70075000D01*
X106540224Y-69998463D01*
X106583579Y-69933579D01*
X106648463Y-69890224D01*
X106725000Y-69875000D01*
X107125000Y-69875000D01*
X107201537Y-69890224D01*
G37*
G36*
X108851537Y-69890224D02*
G01*
X108916421Y-69933579D01*
X108959776Y-69998463D01*
X108975000Y-70075000D01*
X108975000Y-70625000D01*
X108959776Y-70701537D01*
X108916421Y-70766421D01*
X108851537Y-70809776D01*
X108775000Y-70825000D01*
X108375000Y-70825000D01*
X108298463Y-70809776D01*
X108233579Y-70766421D01*
X108190224Y-70701537D01*
X108175000Y-70625000D01*
X108175000Y-70075000D01*
X108190224Y-69998463D01*
X108233579Y-69933579D01*
X108298463Y-69890224D01*
X108375000Y-69875000D01*
X108775000Y-69875000D01*
X108851537Y-69890224D01*
G37*
G36*
X111625000Y-69565000D02*
G01*
X110125000Y-69565000D01*
X110125000Y-68665000D01*
X111625000Y-68665000D01*
X111625000Y-69565000D01*
G37*
G36*
X111625000Y-68295000D02*
G01*
X110125000Y-68295000D01*
X110125000Y-67395000D01*
X111625000Y-67395000D01*
X111625000Y-68295000D01*
G37*
G36*
X95104850Y-66600964D02*
G01*
X95155040Y-66606787D01*
X95172189Y-66614359D01*
X95195671Y-66619030D01*
X95220810Y-66635827D01*
X95240696Y-66644608D01*
X95254277Y-66658189D01*
X95276777Y-66673223D01*
X95291810Y-66695722D01*
X95305391Y-66709303D01*
X95314170Y-66729186D01*
X95330970Y-66754329D01*
X95335641Y-66777812D01*
X95343212Y-66794959D01*
X95349033Y-66845139D01*
X95350000Y-66850000D01*
X95350000Y-67950000D01*
X95349032Y-67954863D01*
X95343212Y-68005040D01*
X95335641Y-68022185D01*
X95330970Y-68045671D01*
X95314169Y-68070815D01*
X95305391Y-68090696D01*
X95291812Y-68104274D01*
X95276777Y-68126777D01*
X95254274Y-68141812D01*
X95240696Y-68155391D01*
X95220815Y-68164169D01*
X95195671Y-68180970D01*
X95172185Y-68185641D01*
X95155040Y-68193212D01*
X95104861Y-68199032D01*
X95100000Y-68200000D01*
X92100000Y-68200000D01*
X92095138Y-68199032D01*
X92044959Y-68193212D01*
X92027812Y-68185641D01*
X92004329Y-68180970D01*
X91979186Y-68164170D01*
X91959303Y-68155391D01*
X91945722Y-68141810D01*
X91923223Y-68126777D01*
X91908189Y-68104277D01*
X91894608Y-68090696D01*
X91885827Y-68070810D01*
X91869030Y-68045671D01*
X91864359Y-68022189D01*
X91856787Y-68005040D01*
X91850964Y-67954849D01*
X91850000Y-67950000D01*
X91850000Y-66850000D01*
X91850964Y-66845150D01*
X91856787Y-66794959D01*
X91864359Y-66777808D01*
X91869030Y-66754329D01*
X91885826Y-66729191D01*
X91894608Y-66709303D01*
X91908191Y-66695719D01*
X91923223Y-66673223D01*
X91945719Y-66658191D01*
X91959303Y-66644608D01*
X91979191Y-66635826D01*
X92004329Y-66619030D01*
X92027808Y-66614359D01*
X92044959Y-66606787D01*
X92095151Y-66600964D01*
X92100000Y-66600000D01*
X95100000Y-66600000D01*
X95104850Y-66600964D01*
G37*
G36*
X100504850Y-66600964D02*
G01*
X100555040Y-66606787D01*
X100572189Y-66614359D01*
X100595671Y-66619030D01*
X100620810Y-66635827D01*
X100640696Y-66644608D01*
X100654277Y-66658189D01*
X100676777Y-66673223D01*
X100691810Y-66695722D01*
X100705391Y-66709303D01*
X100714170Y-66729186D01*
X100730970Y-66754329D01*
X100735641Y-66777812D01*
X100743212Y-66794959D01*
X100749033Y-66845139D01*
X100750000Y-66850000D01*
X100750000Y-67950000D01*
X100749032Y-67954863D01*
X100743212Y-68005040D01*
X100735641Y-68022185D01*
X100730970Y-68045671D01*
X100714169Y-68070815D01*
X100705391Y-68090696D01*
X100691812Y-68104274D01*
X100676777Y-68126777D01*
X100654274Y-68141812D01*
X100640696Y-68155391D01*
X100620815Y-68164169D01*
X100595671Y-68180970D01*
X100572185Y-68185641D01*
X100555040Y-68193212D01*
X100504861Y-68199032D01*
X100500000Y-68200000D01*
X97500000Y-68200000D01*
X97495138Y-68199032D01*
X97444959Y-68193212D01*
X97427812Y-68185641D01*
X97404329Y-68180970D01*
X97379186Y-68164170D01*
X97359303Y-68155391D01*
X97345722Y-68141810D01*
X97323223Y-68126777D01*
X97308189Y-68104277D01*
X97294608Y-68090696D01*
X97285827Y-68070810D01*
X97269030Y-68045671D01*
X97264359Y-68022189D01*
X97256787Y-68005040D01*
X97250964Y-67954849D01*
X97250000Y-67950000D01*
X97250000Y-66850000D01*
X97250964Y-66845150D01*
X97256787Y-66794959D01*
X97264359Y-66777808D01*
X97269030Y-66754329D01*
X97285826Y-66729191D01*
X97294608Y-66709303D01*
X97308191Y-66695719D01*
X97323223Y-66673223D01*
X97345719Y-66658191D01*
X97359303Y-66644608D01*
X97379191Y-66635826D01*
X97404329Y-66619030D01*
X97427808Y-66614359D01*
X97444959Y-66606787D01*
X97495151Y-66600964D01*
X97500000Y-66600000D01*
X100500000Y-66600000D01*
X100504850Y-66600964D01*
G37*
G36*
X69507500Y-68037500D02*
G01*
X66507500Y-68037500D01*
X66507500Y-65037500D01*
X69507500Y-65037500D01*
X69507500Y-68037500D01*
G37*
G36*
X107201537Y-66790224D02*
G01*
X107266421Y-66833579D01*
X107309776Y-66898463D01*
X107325000Y-66975000D01*
X107325000Y-67525000D01*
X107309776Y-67601537D01*
X107266421Y-67666421D01*
X107201537Y-67709776D01*
X107125000Y-67725000D01*
X106725000Y-67725000D01*
X106648463Y-67709776D01*
X106583579Y-67666421D01*
X106540224Y-67601537D01*
X106525000Y-67525000D01*
X106525000Y-66975000D01*
X106540224Y-66898463D01*
X106583579Y-66833579D01*
X106648463Y-66790224D01*
X106725000Y-66775000D01*
X107125000Y-66775000D01*
X107201537Y-66790224D01*
G37*
G36*
X108851537Y-66790224D02*
G01*
X108916421Y-66833579D01*
X108959776Y-66898463D01*
X108975000Y-66975000D01*
X108975000Y-67525000D01*
X108959776Y-67601537D01*
X108916421Y-67666421D01*
X108851537Y-67709776D01*
X108775000Y-67725000D01*
X108375000Y-67725000D01*
X108298463Y-67709776D01*
X108233579Y-67666421D01*
X108190224Y-67601537D01*
X108175000Y-67525000D01*
X108175000Y-66975000D01*
X108190224Y-66898463D01*
X108233579Y-66833579D01*
X108298463Y-66790224D01*
X108375000Y-66775000D01*
X108775000Y-66775000D01*
X108851537Y-66790224D01*
G37*
G36*
X79893034Y-65746057D02*
G01*
X79926125Y-65768168D01*
X79948236Y-65801259D01*
X79956000Y-65840293D01*
X79956000Y-67348293D01*
X79948236Y-67387327D01*
X79926125Y-67420418D01*
X79893034Y-67442529D01*
X79854000Y-67450293D01*
X78346000Y-67450293D01*
X78306966Y-67442529D01*
X78273875Y-67420418D01*
X78251764Y-67387327D01*
X78244000Y-67348293D01*
X78244000Y-65840293D01*
X78251764Y-65801259D01*
X78273875Y-65768168D01*
X78306966Y-65746057D01*
X78346000Y-65738293D01*
X79854000Y-65738293D01*
X79893034Y-65746057D01*
G37*
G36*
X81848484Y-65775152D02*
G01*
X82003516Y-65839368D01*
X82143041Y-65932596D01*
X82261697Y-66051252D01*
X82354925Y-66190777D01*
X82419141Y-66345809D01*
X82451878Y-66510390D01*
X82451878Y-66678196D01*
X82419141Y-66842777D01*
X82354925Y-66997809D01*
X82261697Y-67137334D01*
X82143041Y-67255990D01*
X82003516Y-67349218D01*
X81848484Y-67413434D01*
X81683903Y-67446171D01*
X81516097Y-67446171D01*
X81351516Y-67413434D01*
X81196484Y-67349218D01*
X81056959Y-67255990D01*
X80938303Y-67137334D01*
X80845075Y-66997809D01*
X80780859Y-66842777D01*
X80748122Y-66678196D01*
X80748122Y-66510390D01*
X80780859Y-66345809D01*
X80845075Y-66190777D01*
X80938303Y-66051252D01*
X81056959Y-65932596D01*
X81196484Y-65839368D01*
X81351516Y-65775152D01*
X81516097Y-65742415D01*
X81683903Y-65742415D01*
X81848484Y-65775152D01*
G37*
G36*
X84348484Y-65775152D02*
G01*
X84503516Y-65839368D01*
X84643041Y-65932596D01*
X84761697Y-66051252D01*
X84854925Y-66190777D01*
X84919141Y-66345809D01*
X84951878Y-66510390D01*
X84951878Y-66678196D01*
X84919141Y-66842777D01*
X84854925Y-66997809D01*
X84761697Y-67137334D01*
X84643041Y-67255990D01*
X84503516Y-67349218D01*
X84348484Y-67413434D01*
X84183903Y-67446171D01*
X84016097Y-67446171D01*
X83851516Y-67413434D01*
X83696484Y-67349218D01*
X83556959Y-67255990D01*
X83438303Y-67137334D01*
X83345075Y-66997809D01*
X83280859Y-66842777D01*
X83248122Y-66678196D01*
X83248122Y-66510390D01*
X83280859Y-66345809D01*
X83345075Y-66190777D01*
X83438303Y-66051252D01*
X83556959Y-65932596D01*
X83696484Y-65839368D01*
X83851516Y-65775152D01*
X84016097Y-65742415D01*
X84183903Y-65742415D01*
X84348484Y-65775152D01*
G37*
G36*
X111625000Y-67025000D02*
G01*
X110125000Y-67025000D01*
X110125000Y-66125000D01*
X111625000Y-66125000D01*
X111625000Y-67025000D01*
G37*
G36*
X111625000Y-65755000D02*
G01*
X110125000Y-65755000D01*
X110125000Y-64855000D01*
X111625000Y-64855000D01*
X111625000Y-65755000D01*
G37*
G36*
X107201537Y-64040224D02*
G01*
X107266421Y-64083579D01*
X107309776Y-64148463D01*
X107325000Y-64225000D01*
X107325000Y-64775000D01*
X107309776Y-64851537D01*
X107266421Y-64916421D01*
X107201537Y-64959776D01*
X107125000Y-64975000D01*
X106725000Y-64975000D01*
X106648463Y-64959776D01*
X106583579Y-64916421D01*
X106540224Y-64851537D01*
X106525000Y-64775000D01*
X106525000Y-64225000D01*
X106540224Y-64148463D01*
X106583579Y-64083579D01*
X106648463Y-64040224D01*
X106725000Y-64025000D01*
X107125000Y-64025000D01*
X107201537Y-64040224D01*
G37*
G36*
X108851537Y-64040224D02*
G01*
X108916421Y-64083579D01*
X108959776Y-64148463D01*
X108975000Y-64225000D01*
X108975000Y-64775000D01*
X108959776Y-64851537D01*
X108916421Y-64916421D01*
X108851537Y-64959776D01*
X108775000Y-64975000D01*
X108375000Y-64975000D01*
X108298463Y-64959776D01*
X108233579Y-64916421D01*
X108190224Y-64851537D01*
X108175000Y-64775000D01*
X108175000Y-64225000D01*
X108190224Y-64148463D01*
X108233579Y-64083579D01*
X108298463Y-64040224D01*
X108375000Y-64025000D01*
X108775000Y-64025000D01*
X108851537Y-64040224D01*
G37*
G36*
X111625000Y-64485000D02*
G01*
X110125000Y-64485000D01*
X110125000Y-63585000D01*
X111625000Y-63585000D01*
X111625000Y-64485000D01*
G37*
G36*
X122865000Y-63850000D02*
G01*
X118965000Y-63850000D01*
X118965000Y-59950000D01*
X122865000Y-59950000D01*
X122865000Y-63850000D01*
G37*
G36*
X111625000Y-63215000D02*
G01*
X110125000Y-63215000D01*
X110125000Y-62315000D01*
X111625000Y-62315000D01*
X111625000Y-63215000D01*
G37*
G36*
X68357668Y-60078945D02*
G01*
X68581525Y-60151681D01*
X68791248Y-60258540D01*
X68981672Y-60396891D01*
X69148109Y-60563328D01*
X69286460Y-60753752D01*
X69393319Y-60963475D01*
X69466055Y-61187332D01*
X69502876Y-61419811D01*
X69502876Y-61655189D01*
X69466055Y-61887668D01*
X69393319Y-62111525D01*
X69286460Y-62321248D01*
X69148109Y-62511672D01*
X68981672Y-62678109D01*
X68791248Y-62816460D01*
X68581525Y-62923319D01*
X68357668Y-62996055D01*
X68125189Y-63032876D01*
X67889811Y-63032876D01*
X67657332Y-62996055D01*
X67433475Y-62923319D01*
X67223752Y-62816460D01*
X67033328Y-62678109D01*
X66866891Y-62511672D01*
X66728540Y-62321248D01*
X66621681Y-62111525D01*
X66548945Y-61887668D01*
X66512124Y-61655189D01*
X66512124Y-61419811D01*
X66548945Y-61187332D01*
X66621681Y-60963475D01*
X66728540Y-60753752D01*
X66866891Y-60563328D01*
X67033328Y-60396891D01*
X67223752Y-60258540D01*
X67433475Y-60151681D01*
X67657332Y-60078945D01*
X67889811Y-60042124D01*
X68125189Y-60042124D01*
X68357668Y-60078945D01*
G37*
G36*
X107176537Y-61040224D02*
G01*
X107241421Y-61083579D01*
X107284776Y-61148463D01*
X107300000Y-61225000D01*
X107300000Y-61775000D01*
X107284776Y-61851537D01*
X107241421Y-61916421D01*
X107176537Y-61959776D01*
X107100000Y-61975000D01*
X106700000Y-61975000D01*
X106623463Y-61959776D01*
X106558579Y-61916421D01*
X106515224Y-61851537D01*
X106500000Y-61775000D01*
X106500000Y-61225000D01*
X106515224Y-61148463D01*
X106558579Y-61083579D01*
X106623463Y-61040224D01*
X106700000Y-61025000D01*
X107100000Y-61025000D01*
X107176537Y-61040224D01*
G37*
G36*
X108826537Y-61040224D02*
G01*
X108891421Y-61083579D01*
X108934776Y-61148463D01*
X108950000Y-61225000D01*
X108950000Y-61775000D01*
X108934776Y-61851537D01*
X108891421Y-61916421D01*
X108826537Y-61959776D01*
X108750000Y-61975000D01*
X108350000Y-61975000D01*
X108273463Y-61959776D01*
X108208579Y-61916421D01*
X108165224Y-61851537D01*
X108150000Y-61775000D01*
X108150000Y-61225000D01*
X108165224Y-61148463D01*
X108208579Y-61083579D01*
X108273463Y-61040224D01*
X108350000Y-61025000D01*
X108750000Y-61025000D01*
X108826537Y-61040224D01*
G37*
G36*
X111625000Y-61945000D02*
G01*
X110125000Y-61945000D01*
X110125000Y-61045000D01*
X111625000Y-61045000D01*
X111625000Y-61945000D01*
G37*
G36*
X111625000Y-60675000D02*
G01*
X110125000Y-60675000D01*
X110125000Y-59775000D01*
X111625000Y-59775000D01*
X111625000Y-60675000D01*
G37*
G36*
X79909850Y-59005964D02*
G01*
X79960040Y-59011787D01*
X79977189Y-59019359D01*
X80000671Y-59024030D01*
X80025810Y-59040827D01*
X80045696Y-59049608D01*
X80059277Y-59063189D01*
X80081777Y-59078223D01*
X80096810Y-59100722D01*
X80110391Y-59114303D01*
X80119170Y-59134186D01*
X80135970Y-59159329D01*
X80140641Y-59182812D01*
X80148212Y-59199959D01*
X80154033Y-59250139D01*
X80155000Y-59255000D01*
X80155000Y-60145000D01*
X80154032Y-60149863D01*
X80148212Y-60200040D01*
X80140641Y-60217185D01*
X80135970Y-60240671D01*
X80119169Y-60265815D01*
X80110391Y-60285696D01*
X80096812Y-60299274D01*
X80081777Y-60321777D01*
X80059274Y-60336812D01*
X80045696Y-60350391D01*
X80025815Y-60359169D01*
X80000671Y-60375970D01*
X79977185Y-60380641D01*
X79960040Y-60388212D01*
X79909861Y-60394032D01*
X79905000Y-60395000D01*
X78990000Y-60395000D01*
X78985138Y-60394032D01*
X78934959Y-60388212D01*
X78917812Y-60380641D01*
X78894329Y-60375970D01*
X78869186Y-60359170D01*
X78849303Y-60350391D01*
X78835722Y-60336810D01*
X78813223Y-60321777D01*
X78798189Y-60299277D01*
X78784608Y-60285696D01*
X78775827Y-60265810D01*
X78759030Y-60240671D01*
X78754359Y-60217189D01*
X78746787Y-60200040D01*
X78740964Y-60149849D01*
X78740000Y-60145000D01*
X78740000Y-59255000D01*
X78740964Y-59250150D01*
X78746787Y-59199959D01*
X78754359Y-59182808D01*
X78759030Y-59159329D01*
X78775826Y-59134191D01*
X78784608Y-59114303D01*
X78798191Y-59100719D01*
X78813223Y-59078223D01*
X78835719Y-59063191D01*
X78849303Y-59049608D01*
X78869191Y-59040826D01*
X78894329Y-59024030D01*
X78917808Y-59019359D01*
X78934959Y-59011787D01*
X78985151Y-59005964D01*
X78990000Y-59005000D01*
X79905000Y-59005000D01*
X79909850Y-59005964D01*
G37*
G36*
X82614850Y-59005964D02*
G01*
X82665040Y-59011787D01*
X82682189Y-59019359D01*
X82705671Y-59024030D01*
X82730810Y-59040827D01*
X82750696Y-59049608D01*
X82764277Y-59063189D01*
X82786777Y-59078223D01*
X82801810Y-59100722D01*
X82815391Y-59114303D01*
X82824170Y-59134186D01*
X82840970Y-59159329D01*
X82845641Y-59182812D01*
X82853212Y-59199959D01*
X82859033Y-59250139D01*
X82860000Y-59255000D01*
X82860000Y-60145000D01*
X82859032Y-60149863D01*
X82853212Y-60200040D01*
X82845641Y-60217185D01*
X82840970Y-60240671D01*
X82824169Y-60265815D01*
X82815391Y-60285696D01*
X82801812Y-60299274D01*
X82786777Y-60321777D01*
X82764274Y-60336812D01*
X82750696Y-60350391D01*
X82730815Y-60359169D01*
X82705671Y-60375970D01*
X82682185Y-60380641D01*
X82665040Y-60388212D01*
X82614861Y-60394032D01*
X82610000Y-60395000D01*
X81695000Y-60395000D01*
X81690138Y-60394032D01*
X81639959Y-60388212D01*
X81622812Y-60380641D01*
X81599329Y-60375970D01*
X81574186Y-60359170D01*
X81554303Y-60350391D01*
X81540722Y-60336810D01*
X81518223Y-60321777D01*
X81503189Y-60299277D01*
X81489608Y-60285696D01*
X81480827Y-60265810D01*
X81464030Y-60240671D01*
X81459359Y-60217189D01*
X81451787Y-60200040D01*
X81445964Y-60149849D01*
X81445000Y-60145000D01*
X81445000Y-59255000D01*
X81445964Y-59250150D01*
X81451787Y-59199959D01*
X81459359Y-59182808D01*
X81464030Y-59159329D01*
X81480826Y-59134191D01*
X81489608Y-59114303D01*
X81503191Y-59100719D01*
X81518223Y-59078223D01*
X81540719Y-59063191D01*
X81554303Y-59049608D01*
X81574191Y-59040826D01*
X81599329Y-59024030D01*
X81622808Y-59019359D01*
X81639959Y-59011787D01*
X81690151Y-59005964D01*
X81695000Y-59005000D01*
X82610000Y-59005000D01*
X82614850Y-59005964D01*
G37*
G36*
X85751537Y-58940224D02*
G01*
X85816421Y-58983579D01*
X85859776Y-59048463D01*
X85875000Y-59125000D01*
X85875000Y-59675000D01*
X85859776Y-59751537D01*
X85816421Y-59816421D01*
X85751537Y-59859776D01*
X85675000Y-59875000D01*
X85275000Y-59875000D01*
X85198463Y-59859776D01*
X85133579Y-59816421D01*
X85090224Y-59751537D01*
X85075000Y-59675000D01*
X85075000Y-59125000D01*
X85090224Y-59048463D01*
X85133579Y-58983579D01*
X85198463Y-58940224D01*
X85275000Y-58925000D01*
X85675000Y-58925000D01*
X85751537Y-58940224D01*
G37*
G36*
X87401537Y-58940224D02*
G01*
X87466421Y-58983579D01*
X87509776Y-59048463D01*
X87525000Y-59125000D01*
X87525000Y-59675000D01*
X87509776Y-59751537D01*
X87466421Y-59816421D01*
X87401537Y-59859776D01*
X87325000Y-59875000D01*
X86925000Y-59875000D01*
X86848463Y-59859776D01*
X86783579Y-59816421D01*
X86740224Y-59751537D01*
X86725000Y-59675000D01*
X86725000Y-59125000D01*
X86740224Y-59048463D01*
X86783579Y-58983579D01*
X86848463Y-58940224D01*
X86925000Y-58925000D01*
X87325000Y-58925000D01*
X87401537Y-58940224D01*
G37*
G36*
X89391342Y-58838060D02*
G01*
X89504381Y-58903323D01*
X89596677Y-58995619D01*
X89661940Y-59108658D01*
X89695722Y-59234737D01*
X89695722Y-59365263D01*
X89661940Y-59491342D01*
X89596677Y-59604381D01*
X89504381Y-59696677D01*
X89391342Y-59761940D01*
X89265263Y-59795722D01*
X89134737Y-59795722D01*
X89008658Y-59761940D01*
X88895619Y-59696677D01*
X88803323Y-59604381D01*
X88738060Y-59491342D01*
X88704278Y-59365263D01*
X88704278Y-59234737D01*
X88738060Y-59108658D01*
X88803323Y-58995619D01*
X88895619Y-58903323D01*
X89008658Y-58838060D01*
X89134737Y-58804278D01*
X89265263Y-58804278D01*
X89391342Y-58838060D01*
G37*
G36*
X111625000Y-59405000D02*
G01*
X110125000Y-59405000D01*
X110125000Y-58505000D01*
X111625000Y-58505000D01*
X111625000Y-59405000D01*
G37*
G36*
X101029851Y-58100964D02*
G01*
X101074318Y-58106123D01*
X101089511Y-58112831D01*
X101111105Y-58117127D01*
X101134223Y-58132574D01*
X101151568Y-58140233D01*
X101163413Y-58152078D01*
X101184100Y-58165901D01*
X101197922Y-58186587D01*
X101209767Y-58198432D01*
X101217424Y-58215774D01*
X101232874Y-58238896D01*
X101237169Y-58260491D01*
X101243877Y-58275682D01*
X101249034Y-58320139D01*
X101250001Y-58325000D01*
X101250001Y-58775000D01*
X101249033Y-58779862D01*
X101243877Y-58824317D01*
X101237169Y-58839506D01*
X101232874Y-58861104D01*
X101217423Y-58884227D01*
X101209767Y-58901567D01*
X101197924Y-58913409D01*
X101184100Y-58934099D01*
X101163410Y-58947923D01*
X101151568Y-58959766D01*
X101134228Y-58967422D01*
X101111105Y-58982873D01*
X101089507Y-58987168D01*
X101074318Y-58993876D01*
X101029862Y-58999032D01*
X101025001Y-59000000D01*
X100525001Y-59000000D01*
X100520139Y-58999033D01*
X100475683Y-58993876D01*
X100460492Y-58987168D01*
X100438897Y-58982873D01*
X100415775Y-58967423D01*
X100398433Y-58959766D01*
X100386588Y-58947921D01*
X100365902Y-58934099D01*
X100352079Y-58913412D01*
X100340234Y-58901567D01*
X100332575Y-58884222D01*
X100317128Y-58861104D01*
X100312832Y-58839510D01*
X100306124Y-58824317D01*
X100300965Y-58779849D01*
X100300001Y-58775000D01*
X100300001Y-58325000D01*
X100300965Y-58320150D01*
X100306124Y-58275682D01*
X100312833Y-58260487D01*
X100317128Y-58238896D01*
X100332574Y-58215779D01*
X100340234Y-58198432D01*
X100352081Y-58186584D01*
X100365902Y-58165901D01*
X100386585Y-58152080D01*
X100398433Y-58140233D01*
X100415780Y-58132573D01*
X100438897Y-58117127D01*
X100460488Y-58112832D01*
X100475683Y-58106123D01*
X100520152Y-58100964D01*
X100525001Y-58100000D01*
X101025001Y-58100000D01*
X101029851Y-58100964D01*
G37*
G36*
X76601537Y-58190224D02*
G01*
X76666421Y-58233579D01*
X76709776Y-58298463D01*
X76725000Y-58375000D01*
X76725000Y-58775000D01*
X76709776Y-58851537D01*
X76666421Y-58916421D01*
X76601537Y-58959776D01*
X76525000Y-58975000D01*
X75975000Y-58975000D01*
X75898463Y-58959776D01*
X75833579Y-58916421D01*
X75790224Y-58851537D01*
X75775000Y-58775000D01*
X75775000Y-58375000D01*
X75790224Y-58298463D01*
X75833579Y-58233579D01*
X75898463Y-58190224D01*
X75975000Y-58175000D01*
X76525000Y-58175000D01*
X76601537Y-58190224D01*
G37*
G36*
X107201537Y-58040224D02*
G01*
X107266421Y-58083579D01*
X107309776Y-58148463D01*
X107325000Y-58225000D01*
X107325000Y-58775000D01*
X107309776Y-58851537D01*
X107266421Y-58916421D01*
X107201537Y-58959776D01*
X107125000Y-58975000D01*
X106725000Y-58975000D01*
X106648463Y-58959776D01*
X106583579Y-58916421D01*
X106540224Y-58851537D01*
X106525000Y-58775000D01*
X106525000Y-58225000D01*
X106540224Y-58148463D01*
X106583579Y-58083579D01*
X106648463Y-58040224D01*
X106725000Y-58025000D01*
X107125000Y-58025000D01*
X107201537Y-58040224D01*
G37*
G36*
X108851537Y-58040224D02*
G01*
X108916421Y-58083579D01*
X108959776Y-58148463D01*
X108975000Y-58225000D01*
X108975000Y-58775000D01*
X108959776Y-58851537D01*
X108916421Y-58916421D01*
X108851537Y-58959776D01*
X108775000Y-58975000D01*
X108375000Y-58975000D01*
X108298463Y-58959776D01*
X108233579Y-58916421D01*
X108190224Y-58851537D01*
X108175000Y-58775000D01*
X108175000Y-58225000D01*
X108190224Y-58148463D01*
X108233579Y-58083579D01*
X108298463Y-58040224D01*
X108375000Y-58025000D01*
X108775000Y-58025000D01*
X108851537Y-58040224D01*
G37*
G36*
X97749999Y-58500000D02*
G01*
X96849999Y-58500000D01*
X96849999Y-57500000D01*
X97749999Y-57500000D01*
X97749999Y-58500000D01*
G37*
G36*
X99299999Y-58500000D02*
G01*
X98399999Y-58500000D01*
X98399999Y-57500000D01*
X99299999Y-57500000D01*
X99299999Y-58500000D01*
G37*
G36*
X111625000Y-58135000D02*
G01*
X110125000Y-58135000D01*
X110125000Y-57235000D01*
X111625000Y-57235000D01*
X111625000Y-58135000D01*
G37*
G36*
X68357668Y-55078945D02*
G01*
X68581525Y-55151681D01*
X68791248Y-55258540D01*
X68981672Y-55396891D01*
X69148109Y-55563328D01*
X69286460Y-55753752D01*
X69393319Y-55963475D01*
X69466055Y-56187332D01*
X69502876Y-56419811D01*
X69502876Y-56655189D01*
X69466055Y-56887668D01*
X69393319Y-57111525D01*
X69286460Y-57321248D01*
X69148109Y-57511672D01*
X68981672Y-57678109D01*
X68791248Y-57816460D01*
X68581525Y-57923319D01*
X68357668Y-57996055D01*
X68125189Y-58032876D01*
X67889811Y-58032876D01*
X67657332Y-57996055D01*
X67433475Y-57923319D01*
X67223752Y-57816460D01*
X67033328Y-57678109D01*
X66866891Y-57511672D01*
X66728540Y-57321248D01*
X66621681Y-57111525D01*
X66548945Y-56887668D01*
X66512124Y-56655189D01*
X66512124Y-56419811D01*
X66548945Y-56187332D01*
X66621681Y-55963475D01*
X66728540Y-55753752D01*
X66866891Y-55563328D01*
X67033328Y-55396891D01*
X67223752Y-55258540D01*
X67433475Y-55151681D01*
X67657332Y-55078945D01*
X67889811Y-55042124D01*
X68125189Y-55042124D01*
X68357668Y-55078945D01*
G37*
G36*
X89451537Y-56840224D02*
G01*
X89516421Y-56883579D01*
X89559776Y-56948463D01*
X89575000Y-57025000D01*
X89575000Y-57575000D01*
X89559776Y-57651537D01*
X89516421Y-57716421D01*
X89451537Y-57759776D01*
X89375000Y-57775000D01*
X88975000Y-57775000D01*
X88898463Y-57759776D01*
X88833579Y-57716421D01*
X88790224Y-57651537D01*
X88775000Y-57575000D01*
X88775000Y-57025000D01*
X88790224Y-56948463D01*
X88833579Y-56883579D01*
X88898463Y-56840224D01*
X88975000Y-56825000D01*
X89375000Y-56825000D01*
X89451537Y-56840224D01*
G37*
G36*
X91101537Y-56840224D02*
G01*
X91166421Y-56883579D01*
X91209776Y-56948463D01*
X91225000Y-57025000D01*
X91225000Y-57575000D01*
X91209776Y-57651537D01*
X91166421Y-57716421D01*
X91101537Y-57759776D01*
X91025000Y-57775000D01*
X90625000Y-57775000D01*
X90548463Y-57759776D01*
X90483579Y-57716421D01*
X90440224Y-57651537D01*
X90425000Y-57575000D01*
X90425000Y-57025000D01*
X90440224Y-56948463D01*
X90483579Y-56883579D01*
X90548463Y-56840224D01*
X90625000Y-56825000D01*
X91025000Y-56825000D01*
X91101537Y-56840224D01*
G37*
G36*
X101029851Y-56550964D02*
G01*
X101074318Y-56556123D01*
X101089511Y-56562831D01*
X101111105Y-56567127D01*
X101134223Y-56582574D01*
X101151568Y-56590233D01*
X101163413Y-56602078D01*
X101184100Y-56615901D01*
X101197922Y-56636587D01*
X101209767Y-56648432D01*
X101217424Y-56665774D01*
X101232874Y-56688896D01*
X101237169Y-56710491D01*
X101243877Y-56725682D01*
X101249034Y-56770139D01*
X101250001Y-56775000D01*
X101250001Y-57225000D01*
X101249033Y-57229862D01*
X101243877Y-57274317D01*
X101237169Y-57289506D01*
X101232874Y-57311104D01*
X101217423Y-57334227D01*
X101209767Y-57351567D01*
X101197924Y-57363409D01*
X101184100Y-57384099D01*
X101163410Y-57397923D01*
X101151568Y-57409766D01*
X101134228Y-57417422D01*
X101111105Y-57432873D01*
X101089507Y-57437168D01*
X101074318Y-57443876D01*
X101029862Y-57449032D01*
X101025001Y-57450000D01*
X100525001Y-57450000D01*
X100520139Y-57449033D01*
X100475683Y-57443876D01*
X100460492Y-57437168D01*
X100438897Y-57432873D01*
X100415775Y-57417423D01*
X100398433Y-57409766D01*
X100386588Y-57397921D01*
X100365902Y-57384099D01*
X100352079Y-57363412D01*
X100340234Y-57351567D01*
X100332575Y-57334222D01*
X100317128Y-57311104D01*
X100312832Y-57289510D01*
X100306124Y-57274317D01*
X100300965Y-57229849D01*
X100300001Y-57225000D01*
X100300001Y-56775000D01*
X100300965Y-56770150D01*
X100306124Y-56725682D01*
X100312833Y-56710487D01*
X100317128Y-56688896D01*
X100332574Y-56665779D01*
X100340234Y-56648432D01*
X100352081Y-56636584D01*
X100365902Y-56615901D01*
X100386585Y-56602080D01*
X100398433Y-56590233D01*
X100415780Y-56582573D01*
X100438897Y-56567127D01*
X100460488Y-56562832D01*
X100475683Y-56556123D01*
X100520152Y-56550964D01*
X100525001Y-56550000D01*
X101025001Y-56550000D01*
X101029851Y-56550964D01*
G37*
G36*
X80224686Y-56792370D02*
G01*
X80277405Y-56827595D01*
X80312630Y-56880314D01*
X80325000Y-56942500D01*
X80325000Y-57267500D01*
X80312630Y-57329686D01*
X80277405Y-57382405D01*
X80224686Y-57417630D01*
X80162500Y-57430000D01*
X78862500Y-57430000D01*
X78800314Y-57417630D01*
X78747595Y-57382405D01*
X78712370Y-57329686D01*
X78700000Y-57267500D01*
X78700000Y-56942500D01*
X78712370Y-56880314D01*
X78747595Y-56827595D01*
X78800314Y-56792370D01*
X78862500Y-56780000D01*
X80162500Y-56780000D01*
X80224686Y-56792370D01*
G37*
G36*
X87399686Y-56792370D02*
G01*
X87452405Y-56827595D01*
X87487630Y-56880314D01*
X87500000Y-56942500D01*
X87500000Y-57267500D01*
X87487630Y-57329686D01*
X87452405Y-57382405D01*
X87399686Y-57417630D01*
X87337500Y-57430000D01*
X86037500Y-57430000D01*
X85975314Y-57417630D01*
X85922595Y-57382405D01*
X85887370Y-57329686D01*
X85875000Y-57267500D01*
X85875000Y-56942500D01*
X85887370Y-56880314D01*
X85922595Y-56827595D01*
X85975314Y-56792370D01*
X86037500Y-56780000D01*
X87337500Y-56780000D01*
X87399686Y-56792370D01*
G37*
G36*
X76601537Y-56540224D02*
G01*
X76666421Y-56583579D01*
X76709776Y-56648463D01*
X76725000Y-56725000D01*
X76725000Y-57125000D01*
X76709776Y-57201537D01*
X76666421Y-57266421D01*
X76601537Y-57309776D01*
X76525000Y-57325000D01*
X75975000Y-57325000D01*
X75898463Y-57309776D01*
X75833579Y-57266421D01*
X75790224Y-57201537D01*
X75775000Y-57125000D01*
X75775000Y-56725000D01*
X75790224Y-56648463D01*
X75833579Y-56583579D01*
X75898463Y-56540224D01*
X75975000Y-56525000D01*
X76525000Y-56525000D01*
X76601537Y-56540224D01*
G37*
G36*
X111625000Y-56865000D02*
G01*
X110125000Y-56865000D01*
X110125000Y-55965000D01*
X111625000Y-55965000D01*
X111625000Y-56865000D01*
G37*
G36*
X97749999Y-56350000D02*
G01*
X96849999Y-56350000D01*
X96849999Y-55350000D01*
X97749999Y-55350000D01*
X97749999Y-56350000D01*
G37*
G36*
X99299999Y-56350000D02*
G01*
X98399999Y-56350000D01*
X98399999Y-55350000D01*
X99299999Y-55350000D01*
X99299999Y-56350000D01*
G37*
G36*
X108851537Y-55565224D02*
G01*
X108916421Y-55608579D01*
X108959776Y-55673463D01*
X108975000Y-55750000D01*
X108975000Y-56150000D01*
X108959776Y-56226537D01*
X108916421Y-56291421D01*
X108851537Y-56334776D01*
X108775000Y-56350000D01*
X108225000Y-56350000D01*
X108148463Y-56334776D01*
X108083579Y-56291421D01*
X108040224Y-56226537D01*
X108025000Y-56150000D01*
X108025000Y-55750000D01*
X108040224Y-55673463D01*
X108083579Y-55608579D01*
X108148463Y-55565224D01*
X108225000Y-55550000D01*
X108775000Y-55550000D01*
X108851537Y-55565224D01*
G37*
G36*
X80224686Y-55522370D02*
G01*
X80277405Y-55557595D01*
X80312630Y-55610314D01*
X80325000Y-55672500D01*
X80325000Y-55997500D01*
X80312630Y-56059686D01*
X80277405Y-56112405D01*
X80224686Y-56147630D01*
X80162500Y-56160000D01*
X78862500Y-56160000D01*
X78800314Y-56147630D01*
X78747595Y-56112405D01*
X78712370Y-56059686D01*
X78700000Y-55997500D01*
X78700000Y-55672500D01*
X78712370Y-55610314D01*
X78747595Y-55557595D01*
X78800314Y-55522370D01*
X78862500Y-55510000D01*
X80162500Y-55510000D01*
X80224686Y-55522370D01*
G37*
G36*
X87399686Y-55522370D02*
G01*
X87452405Y-55557595D01*
X87487630Y-55610314D01*
X87500000Y-55672500D01*
X87500000Y-55997500D01*
X87487630Y-56059686D01*
X87452405Y-56112405D01*
X87399686Y-56147630D01*
X87337500Y-56160000D01*
X86037500Y-56160000D01*
X85975314Y-56147630D01*
X85922595Y-56112405D01*
X85887370Y-56059686D01*
X85875000Y-55997500D01*
X85875000Y-55672500D01*
X85887370Y-55610314D01*
X85922595Y-55557595D01*
X85975314Y-55522370D01*
X86037500Y-55510000D01*
X87337500Y-55510000D01*
X87399686Y-55522370D01*
G37*
G36*
X112575000Y-55400000D02*
G01*
X111675000Y-55400000D01*
X111675000Y-53900000D01*
X112575000Y-53900000D01*
X112575000Y-55400000D01*
G37*
G36*
X113845000Y-55400000D02*
G01*
X112945000Y-55400000D01*
X112945000Y-53900000D01*
X113845000Y-53900000D01*
X113845000Y-55400000D01*
G37*
G36*
X115115000Y-55400000D02*
G01*
X114215000Y-55400000D01*
X114215000Y-53900000D01*
X115115000Y-53900000D01*
X115115000Y-55400000D01*
G37*
G36*
X116385000Y-55400000D02*
G01*
X115485000Y-55400000D01*
X115485000Y-53900000D01*
X116385000Y-53900000D01*
X116385000Y-55400000D01*
G37*
G36*
X117655000Y-55400000D02*
G01*
X116755000Y-55400000D01*
X116755000Y-53900000D01*
X117655000Y-53900000D01*
X117655000Y-55400000D01*
G37*
G36*
X118925000Y-55400000D02*
G01*
X118025000Y-55400000D01*
X118025000Y-53900000D01*
X118925000Y-53900000D01*
X118925000Y-55400000D01*
G37*
G36*
X120195000Y-55400000D02*
G01*
X119295000Y-55400000D01*
X119295000Y-53900000D01*
X120195000Y-53900000D01*
X120195000Y-55400000D01*
G37*
G36*
X121465000Y-55400000D02*
G01*
X120565000Y-55400000D01*
X120565000Y-53900000D01*
X121465000Y-53900000D01*
X121465000Y-55400000D01*
G37*
G36*
X122735000Y-55400000D02*
G01*
X121835000Y-55400000D01*
X121835000Y-53900000D01*
X122735000Y-53900000D01*
X122735000Y-55400000D01*
G37*
G36*
X124005000Y-55400000D02*
G01*
X123105000Y-55400000D01*
X123105000Y-53900000D01*
X124005000Y-53900000D01*
X124005000Y-55400000D01*
G37*
G36*
X125275000Y-55400000D02*
G01*
X124375000Y-55400000D01*
X124375000Y-53900000D01*
X125275000Y-53900000D01*
X125275000Y-55400000D01*
G37*
G36*
X126545000Y-55400000D02*
G01*
X125645000Y-55400000D01*
X125645000Y-53900000D01*
X126545000Y-53900000D01*
X126545000Y-55400000D01*
G37*
G36*
X127815000Y-55400000D02*
G01*
X126915000Y-55400000D01*
X126915000Y-53900000D01*
X127815000Y-53900000D01*
X127815000Y-55400000D01*
G37*
G36*
X129085000Y-55400000D02*
G01*
X128185000Y-55400000D01*
X128185000Y-53900000D01*
X129085000Y-53900000D01*
X129085000Y-55400000D01*
G37*
G36*
X90049850Y-53570964D02*
G01*
X90100040Y-53576787D01*
X90117189Y-53584359D01*
X90140671Y-53589030D01*
X90165810Y-53605827D01*
X90185696Y-53614608D01*
X90199277Y-53628189D01*
X90221777Y-53643223D01*
X90236810Y-53665722D01*
X90250391Y-53679303D01*
X90259170Y-53699186D01*
X90275970Y-53724329D01*
X90280641Y-53747812D01*
X90288212Y-53764959D01*
X90294033Y-53815139D01*
X90295000Y-53820000D01*
X90295000Y-54735000D01*
X90294032Y-54739863D01*
X90288212Y-54790040D01*
X90280641Y-54807185D01*
X90275970Y-54830671D01*
X90259169Y-54855815D01*
X90250391Y-54875696D01*
X90236812Y-54889274D01*
X90221777Y-54911777D01*
X90199274Y-54926812D01*
X90185696Y-54940391D01*
X90165815Y-54949169D01*
X90140671Y-54965970D01*
X90117185Y-54970641D01*
X90100040Y-54978212D01*
X90049861Y-54984032D01*
X90045000Y-54985000D01*
X89155000Y-54985000D01*
X89150138Y-54984032D01*
X89099959Y-54978212D01*
X89082812Y-54970641D01*
X89059329Y-54965970D01*
X89034186Y-54949170D01*
X89014303Y-54940391D01*
X89000722Y-54926810D01*
X88978223Y-54911777D01*
X88963189Y-54889277D01*
X88949608Y-54875696D01*
X88940827Y-54855810D01*
X88924030Y-54830671D01*
X88919359Y-54807189D01*
X88911787Y-54790040D01*
X88905964Y-54739849D01*
X88905000Y-54735000D01*
X88905000Y-53820000D01*
X88905964Y-53815150D01*
X88911787Y-53764959D01*
X88919359Y-53747808D01*
X88924030Y-53724329D01*
X88940826Y-53699191D01*
X88949608Y-53679303D01*
X88963191Y-53665719D01*
X88978223Y-53643223D01*
X89000719Y-53628191D01*
X89014303Y-53614608D01*
X89034191Y-53605826D01*
X89059329Y-53589030D01*
X89082808Y-53584359D01*
X89099959Y-53576787D01*
X89150151Y-53570964D01*
X89155000Y-53570000D01*
X90045000Y-53570000D01*
X90049850Y-53570964D01*
G37*
G36*
X80224686Y-54252370D02*
G01*
X80277405Y-54287595D01*
X80312630Y-54340314D01*
X80325000Y-54402500D01*
X80325000Y-54727500D01*
X80312630Y-54789686D01*
X80277405Y-54842405D01*
X80224686Y-54877630D01*
X80162500Y-54890000D01*
X78862500Y-54890000D01*
X78800314Y-54877630D01*
X78747595Y-54842405D01*
X78712370Y-54789686D01*
X78700000Y-54727500D01*
X78700000Y-54402500D01*
X78712370Y-54340314D01*
X78747595Y-54287595D01*
X78800314Y-54252370D01*
X78862500Y-54240000D01*
X80162500Y-54240000D01*
X80224686Y-54252370D01*
G37*
G36*
X87399686Y-54252370D02*
G01*
X87452405Y-54287595D01*
X87487630Y-54340314D01*
X87500000Y-54402500D01*
X87500000Y-54727500D01*
X87487630Y-54789686D01*
X87452405Y-54842405D01*
X87399686Y-54877630D01*
X87337500Y-54890000D01*
X86037500Y-54890000D01*
X85975314Y-54877630D01*
X85922595Y-54842405D01*
X85887370Y-54789686D01*
X85875000Y-54727500D01*
X85875000Y-54402500D01*
X85887370Y-54340314D01*
X85922595Y-54287595D01*
X85975314Y-54252370D01*
X86037500Y-54240000D01*
X87337500Y-54240000D01*
X87399686Y-54252370D01*
G37*
G36*
X108851537Y-53915224D02*
G01*
X108916421Y-53958579D01*
X108959776Y-54023463D01*
X108975000Y-54100000D01*
X108975000Y-54500000D01*
X108959776Y-54576537D01*
X108916421Y-54641421D01*
X108851537Y-54684776D01*
X108775000Y-54700000D01*
X108225000Y-54700000D01*
X108148463Y-54684776D01*
X108083579Y-54641421D01*
X108040224Y-54576537D01*
X108025000Y-54500000D01*
X108025000Y-54100000D01*
X108040224Y-54023463D01*
X108083579Y-53958579D01*
X108148463Y-53915224D01*
X108225000Y-53900000D01*
X108775000Y-53900000D01*
X108851537Y-53915224D01*
G37*
G36*
X76649850Y-53195964D02*
G01*
X76700040Y-53201787D01*
X76717189Y-53209359D01*
X76740671Y-53214030D01*
X76765810Y-53230827D01*
X76785696Y-53239608D01*
X76799277Y-53253189D01*
X76821777Y-53268223D01*
X76836810Y-53290722D01*
X76850391Y-53304303D01*
X76859170Y-53324186D01*
X76875970Y-53349329D01*
X76880641Y-53372812D01*
X76888212Y-53389959D01*
X76894033Y-53440139D01*
X76895000Y-53445000D01*
X76895000Y-54360000D01*
X76894032Y-54364863D01*
X76888212Y-54415040D01*
X76880641Y-54432185D01*
X76875970Y-54455671D01*
X76859169Y-54480815D01*
X76850391Y-54500696D01*
X76836812Y-54514274D01*
X76821777Y-54536777D01*
X76799274Y-54551812D01*
X76785696Y-54565391D01*
X76765815Y-54574169D01*
X76740671Y-54590970D01*
X76717185Y-54595641D01*
X76700040Y-54603212D01*
X76649861Y-54609032D01*
X76645000Y-54610000D01*
X75755000Y-54610000D01*
X75750138Y-54609032D01*
X75699959Y-54603212D01*
X75682812Y-54595641D01*
X75659329Y-54590970D01*
X75634186Y-54574170D01*
X75614303Y-54565391D01*
X75600722Y-54551810D01*
X75578223Y-54536777D01*
X75563189Y-54514277D01*
X75549608Y-54500696D01*
X75540827Y-54480810D01*
X75524030Y-54455671D01*
X75519359Y-54432189D01*
X75511787Y-54415040D01*
X75505964Y-54364849D01*
X75505000Y-54360000D01*
X75505000Y-53445000D01*
X75505964Y-53440150D01*
X75511787Y-53389959D01*
X75519359Y-53372808D01*
X75524030Y-53349329D01*
X75540826Y-53324191D01*
X75549608Y-53304303D01*
X75563191Y-53290719D01*
X75578223Y-53268223D01*
X75600719Y-53253191D01*
X75614303Y-53239608D01*
X75634191Y-53230826D01*
X75659329Y-53214030D01*
X75682808Y-53209359D01*
X75699959Y-53201787D01*
X75750151Y-53195964D01*
X75755000Y-53195000D01*
X76645000Y-53195000D01*
X76649850Y-53195964D01*
G37*
G36*
X98320986Y-53806661D02*
G01*
X98349373Y-53825628D01*
X98368340Y-53854015D01*
X98375001Y-53887500D01*
X98375001Y-54062500D01*
X98368340Y-54095985D01*
X98349373Y-54124372D01*
X98320986Y-54143339D01*
X98287501Y-54150000D01*
X96837501Y-54150000D01*
X96804016Y-54143339D01*
X96775629Y-54124372D01*
X96756662Y-54095985D01*
X96750001Y-54062500D01*
X96750001Y-53887500D01*
X96756662Y-53854015D01*
X96775629Y-53825628D01*
X96804016Y-53806661D01*
X96837501Y-53800000D01*
X98287501Y-53800000D01*
X98320986Y-53806661D01*
G37*
G36*
X102545986Y-53806661D02*
G01*
X102574373Y-53825628D01*
X102593340Y-53854015D01*
X102600001Y-53887500D01*
X102600001Y-54062500D01*
X102593340Y-54095985D01*
X102574373Y-54124372D01*
X102545986Y-54143339D01*
X102512501Y-54150000D01*
X101062501Y-54150000D01*
X101029016Y-54143339D01*
X101000629Y-54124372D01*
X100981662Y-54095985D01*
X100975001Y-54062500D01*
X100975001Y-53887500D01*
X100981662Y-53854015D01*
X101000629Y-53825628D01*
X101029016Y-53806661D01*
X101062501Y-53800000D01*
X102512501Y-53800000D01*
X102545986Y-53806661D01*
G37*
G36*
X98320986Y-53306660D02*
G01*
X98349373Y-53325627D01*
X98368340Y-53354014D01*
X98375001Y-53387499D01*
X98375001Y-53562499D01*
X98368340Y-53595984D01*
X98349373Y-53624371D01*
X98320986Y-53643338D01*
X98287501Y-53649999D01*
X96837501Y-53649999D01*
X96804016Y-53643338D01*
X96775629Y-53624371D01*
X96756662Y-53595984D01*
X96750001Y-53562499D01*
X96750001Y-53387499D01*
X96756662Y-53354014D01*
X96775629Y-53325627D01*
X96804016Y-53306660D01*
X96837501Y-53299999D01*
X98287501Y-53299999D01*
X98320986Y-53306660D01*
G37*
G36*
X102545986Y-53306660D02*
G01*
X102574373Y-53325627D01*
X102593340Y-53354014D01*
X102600001Y-53387499D01*
X102600001Y-53562499D01*
X102593340Y-53595984D01*
X102574373Y-53624371D01*
X102545986Y-53643338D01*
X102512501Y-53649999D01*
X101062501Y-53649999D01*
X101029016Y-53643338D01*
X101000629Y-53624371D01*
X100981662Y-53595984D01*
X100975001Y-53562499D01*
X100975001Y-53387499D01*
X100981662Y-53354014D01*
X101000629Y-53325627D01*
X101029016Y-53306660D01*
X101062501Y-53299999D01*
X102512501Y-53299999D01*
X102545986Y-53306660D01*
G37*
G36*
X80224686Y-52982370D02*
G01*
X80277405Y-53017595D01*
X80312630Y-53070314D01*
X80325000Y-53132500D01*
X80325000Y-53457500D01*
X80312630Y-53519686D01*
X80277405Y-53572405D01*
X80224686Y-53607630D01*
X80162500Y-53620000D01*
X78862500Y-53620000D01*
X78800314Y-53607630D01*
X78747595Y-53572405D01*
X78712370Y-53519686D01*
X78700000Y-53457500D01*
X78700000Y-53132500D01*
X78712370Y-53070314D01*
X78747595Y-53017595D01*
X78800314Y-52982370D01*
X78862500Y-52970000D01*
X80162500Y-52970000D01*
X80224686Y-52982370D01*
G37*
G36*
X87399686Y-52982370D02*
G01*
X87452405Y-53017595D01*
X87487630Y-53070314D01*
X87500000Y-53132500D01*
X87500000Y-53457500D01*
X87487630Y-53519686D01*
X87452405Y-53572405D01*
X87399686Y-53607630D01*
X87337500Y-53620000D01*
X86037500Y-53620000D01*
X85975314Y-53607630D01*
X85922595Y-53572405D01*
X85887370Y-53519686D01*
X85875000Y-53457500D01*
X85875000Y-53132500D01*
X85887370Y-53070314D01*
X85922595Y-53017595D01*
X85975314Y-52982370D01*
X86037500Y-52970000D01*
X87337500Y-52970000D01*
X87399686Y-52982370D01*
G37*
G36*
X93929851Y-52550964D02*
G01*
X93974318Y-52556123D01*
X93989511Y-52562831D01*
X94011105Y-52567127D01*
X94034223Y-52582574D01*
X94051568Y-52590233D01*
X94063413Y-52602078D01*
X94084100Y-52615901D01*
X94097922Y-52636587D01*
X94109767Y-52648432D01*
X94117424Y-52665774D01*
X94132874Y-52688896D01*
X94137169Y-52710491D01*
X94143877Y-52725682D01*
X94149034Y-52770139D01*
X94150001Y-52775000D01*
X94150001Y-53275000D01*
X94149033Y-53279862D01*
X94143877Y-53324317D01*
X94137169Y-53339506D01*
X94132874Y-53361104D01*
X94117423Y-53384227D01*
X94109767Y-53401567D01*
X94097924Y-53413409D01*
X94084100Y-53434099D01*
X94063410Y-53447923D01*
X94051568Y-53459766D01*
X94034228Y-53467422D01*
X94011105Y-53482873D01*
X93989507Y-53487168D01*
X93974318Y-53493876D01*
X93929862Y-53499032D01*
X93925001Y-53500000D01*
X93475001Y-53500000D01*
X93470139Y-53499033D01*
X93425683Y-53493876D01*
X93410492Y-53487168D01*
X93388897Y-53482873D01*
X93365775Y-53467423D01*
X93348433Y-53459766D01*
X93336588Y-53447921D01*
X93315902Y-53434099D01*
X93302079Y-53413412D01*
X93290234Y-53401567D01*
X93282575Y-53384222D01*
X93267128Y-53361104D01*
X93262832Y-53339510D01*
X93256124Y-53324317D01*
X93250965Y-53279849D01*
X93250001Y-53275000D01*
X93250001Y-52775000D01*
X93250965Y-52770150D01*
X93256124Y-52725682D01*
X93262833Y-52710487D01*
X93267128Y-52688896D01*
X93282574Y-52665779D01*
X93290234Y-52648432D01*
X93302081Y-52636584D01*
X93315902Y-52615901D01*
X93336585Y-52602080D01*
X93348433Y-52590233D01*
X93365780Y-52582573D01*
X93388897Y-52567127D01*
X93410488Y-52562832D01*
X93425683Y-52556123D01*
X93470152Y-52550964D01*
X93475001Y-52550000D01*
X93925001Y-52550000D01*
X93929851Y-52550964D01*
G37*
G36*
X95479851Y-52550964D02*
G01*
X95524318Y-52556123D01*
X95539511Y-52562831D01*
X95561105Y-52567127D01*
X95584223Y-52582574D01*
X95601568Y-52590233D01*
X95613413Y-52602078D01*
X95634100Y-52615901D01*
X95647922Y-52636587D01*
X95659767Y-52648432D01*
X95667424Y-52665774D01*
X95682874Y-52688896D01*
X95687169Y-52710491D01*
X95693877Y-52725682D01*
X95699034Y-52770139D01*
X95700001Y-52775000D01*
X95700001Y-53275000D01*
X95699033Y-53279862D01*
X95693877Y-53324317D01*
X95687169Y-53339506D01*
X95682874Y-53361104D01*
X95667423Y-53384227D01*
X95659767Y-53401567D01*
X95647924Y-53413409D01*
X95634100Y-53434099D01*
X95613410Y-53447923D01*
X95601568Y-53459766D01*
X95584228Y-53467422D01*
X95561105Y-53482873D01*
X95539507Y-53487168D01*
X95524318Y-53493876D01*
X95479862Y-53499032D01*
X95475001Y-53500000D01*
X95025001Y-53500000D01*
X95020139Y-53499033D01*
X94975683Y-53493876D01*
X94960492Y-53487168D01*
X94938897Y-53482873D01*
X94915775Y-53467423D01*
X94898433Y-53459766D01*
X94886588Y-53447921D01*
X94865902Y-53434099D01*
X94852079Y-53413412D01*
X94840234Y-53401567D01*
X94832575Y-53384222D01*
X94817128Y-53361104D01*
X94812832Y-53339510D01*
X94806124Y-53324317D01*
X94800965Y-53279849D01*
X94800001Y-53275000D01*
X94800001Y-52775000D01*
X94800965Y-52770150D01*
X94806124Y-52725682D01*
X94812833Y-52710487D01*
X94817128Y-52688896D01*
X94832574Y-52665779D01*
X94840234Y-52648432D01*
X94852081Y-52636584D01*
X94865902Y-52615901D01*
X94886585Y-52602080D01*
X94898433Y-52590233D01*
X94915780Y-52582573D01*
X94938897Y-52567127D01*
X94960488Y-52562832D01*
X94975683Y-52556123D01*
X95020152Y-52550964D01*
X95025001Y-52550000D01*
X95475001Y-52550000D01*
X95479851Y-52550964D01*
G37*
G36*
X98320986Y-52806661D02*
G01*
X98349373Y-52825628D01*
X98368340Y-52854015D01*
X98375001Y-52887500D01*
X98375001Y-53062500D01*
X98368340Y-53095985D01*
X98349373Y-53124372D01*
X98320986Y-53143339D01*
X98287501Y-53150000D01*
X96837501Y-53150000D01*
X96804016Y-53143339D01*
X96775629Y-53124372D01*
X96756662Y-53095985D01*
X96750001Y-53062500D01*
X96750001Y-52887500D01*
X96756662Y-52854015D01*
X96775629Y-52825628D01*
X96804016Y-52806661D01*
X96837501Y-52800000D01*
X98287501Y-52800000D01*
X98320986Y-52806661D01*
G37*
G36*
X102545986Y-52806661D02*
G01*
X102574373Y-52825628D01*
X102593340Y-52854015D01*
X102600001Y-52887500D01*
X102600001Y-53062500D01*
X102593340Y-53095985D01*
X102574373Y-53124372D01*
X102545986Y-53143339D01*
X102512501Y-53150000D01*
X101062501Y-53150000D01*
X101029016Y-53143339D01*
X101000629Y-53124372D01*
X100981662Y-53095985D01*
X100975001Y-53062500D01*
X100975001Y-52887500D01*
X100981662Y-52854015D01*
X101000629Y-52825628D01*
X101029016Y-52806661D01*
X101062501Y-52800000D01*
X102512501Y-52800000D01*
X102545986Y-52806661D01*
G37*
G36*
X119326537Y-52190224D02*
G01*
X119391421Y-52233579D01*
X119434776Y-52298463D01*
X119450000Y-52375000D01*
X119450000Y-52925000D01*
X119434776Y-53001537D01*
X119391421Y-53066421D01*
X119326537Y-53109776D01*
X119250000Y-53125000D01*
X118850000Y-53125000D01*
X118773463Y-53109776D01*
X118708579Y-53066421D01*
X118665224Y-53001537D01*
X118650000Y-52925000D01*
X118650000Y-52375000D01*
X118665224Y-52298463D01*
X118708579Y-52233579D01*
X118773463Y-52190224D01*
X118850000Y-52175000D01*
X119250000Y-52175000D01*
X119326537Y-52190224D01*
G37*
G36*
X120976537Y-52190224D02*
G01*
X121041421Y-52233579D01*
X121084776Y-52298463D01*
X121100000Y-52375000D01*
X121100000Y-52925000D01*
X121084776Y-53001537D01*
X121041421Y-53066421D01*
X120976537Y-53109776D01*
X120900000Y-53125000D01*
X120500000Y-53125000D01*
X120423463Y-53109776D01*
X120358579Y-53066421D01*
X120315224Y-53001537D01*
X120300000Y-52925000D01*
X120300000Y-52375000D01*
X120315224Y-52298463D01*
X120358579Y-52233579D01*
X120423463Y-52190224D01*
X120500000Y-52175000D01*
X120900000Y-52175000D01*
X120976537Y-52190224D01*
G37*
G36*
X127004850Y-52125964D02*
G01*
X127049317Y-52131123D01*
X127064510Y-52137831D01*
X127086104Y-52142127D01*
X127109222Y-52157574D01*
X127126567Y-52165233D01*
X127138412Y-52177078D01*
X127159099Y-52190901D01*
X127172921Y-52211587D01*
X127184766Y-52223432D01*
X127192423Y-52240774D01*
X127207873Y-52263896D01*
X127212168Y-52285491D01*
X127218876Y-52300682D01*
X127224033Y-52345139D01*
X127225000Y-52350000D01*
X127225000Y-52850000D01*
X127224032Y-52854862D01*
X127218876Y-52899317D01*
X127212168Y-52914506D01*
X127207873Y-52936104D01*
X127192422Y-52959227D01*
X127184766Y-52976567D01*
X127172923Y-52988409D01*
X127159099Y-53009099D01*
X127138409Y-53022923D01*
X127126567Y-53034766D01*
X127109227Y-53042422D01*
X127086104Y-53057873D01*
X127064506Y-53062168D01*
X127049317Y-53068876D01*
X127004861Y-53074032D01*
X127000000Y-53075000D01*
X126550000Y-53075000D01*
X126545138Y-53074033D01*
X126500682Y-53068876D01*
X126485491Y-53062168D01*
X126463896Y-53057873D01*
X126440774Y-53042423D01*
X126423432Y-53034766D01*
X126411587Y-53022921D01*
X126390901Y-53009099D01*
X126377078Y-52988412D01*
X126365233Y-52976567D01*
X126357574Y-52959222D01*
X126342127Y-52936104D01*
X126337831Y-52914510D01*
X126331123Y-52899317D01*
X126325964Y-52854849D01*
X126325000Y-52850000D01*
X126325000Y-52350000D01*
X126325964Y-52345150D01*
X126331123Y-52300682D01*
X126337832Y-52285487D01*
X126342127Y-52263896D01*
X126357573Y-52240779D01*
X126365233Y-52223432D01*
X126377080Y-52211584D01*
X126390901Y-52190901D01*
X126411584Y-52177080D01*
X126423432Y-52165233D01*
X126440779Y-52157573D01*
X126463896Y-52142127D01*
X126485487Y-52137832D01*
X126500682Y-52131123D01*
X126545151Y-52125964D01*
X126550000Y-52125000D01*
X127000000Y-52125000D01*
X127004850Y-52125964D01*
G37*
G36*
X128554850Y-52125964D02*
G01*
X128599317Y-52131123D01*
X128614510Y-52137831D01*
X128636104Y-52142127D01*
X128659222Y-52157574D01*
X128676567Y-52165233D01*
X128688412Y-52177078D01*
X128709099Y-52190901D01*
X128722921Y-52211587D01*
X128734766Y-52223432D01*
X128742423Y-52240774D01*
X128757873Y-52263896D01*
X128762168Y-52285491D01*
X128768876Y-52300682D01*
X128774033Y-52345139D01*
X128775000Y-52350000D01*
X128775000Y-52850000D01*
X128774032Y-52854862D01*
X128768876Y-52899317D01*
X128762168Y-52914506D01*
X128757873Y-52936104D01*
X128742422Y-52959227D01*
X128734766Y-52976567D01*
X128722923Y-52988409D01*
X128709099Y-53009099D01*
X128688409Y-53022923D01*
X128676567Y-53034766D01*
X128659227Y-53042422D01*
X128636104Y-53057873D01*
X128614506Y-53062168D01*
X128599317Y-53068876D01*
X128554861Y-53074032D01*
X128550000Y-53075000D01*
X128100000Y-53075000D01*
X128095138Y-53074033D01*
X128050682Y-53068876D01*
X128035491Y-53062168D01*
X128013896Y-53057873D01*
X127990774Y-53042423D01*
X127973432Y-53034766D01*
X127961587Y-53022921D01*
X127940901Y-53009099D01*
X127927078Y-52988412D01*
X127915233Y-52976567D01*
X127907574Y-52959222D01*
X127892127Y-52936104D01*
X127887831Y-52914510D01*
X127881123Y-52899317D01*
X127875964Y-52854849D01*
X127875000Y-52850000D01*
X127875000Y-52350000D01*
X127875964Y-52345150D01*
X127881123Y-52300682D01*
X127887832Y-52285487D01*
X127892127Y-52263896D01*
X127907573Y-52240779D01*
X127915233Y-52223432D01*
X127927080Y-52211584D01*
X127940901Y-52190901D01*
X127961584Y-52177080D01*
X127973432Y-52165233D01*
X127990779Y-52157573D01*
X128013896Y-52142127D01*
X128035487Y-52137832D01*
X128050682Y-52131123D01*
X128095151Y-52125964D01*
X128100000Y-52125000D01*
X128550000Y-52125000D01*
X128554850Y-52125964D01*
G37*
G36*
X98320986Y-52306662D02*
G01*
X98349373Y-52325629D01*
X98368340Y-52354016D01*
X98375001Y-52387501D01*
X98375001Y-52562501D01*
X98368340Y-52595986D01*
X98349373Y-52624373D01*
X98320986Y-52643340D01*
X98287501Y-52650001D01*
X96837501Y-52650001D01*
X96804016Y-52643340D01*
X96775629Y-52624373D01*
X96756662Y-52595986D01*
X96750001Y-52562501D01*
X96750001Y-52387501D01*
X96756662Y-52354016D01*
X96775629Y-52325629D01*
X96804016Y-52306662D01*
X96837501Y-52300001D01*
X98287501Y-52300001D01*
X98320986Y-52306662D01*
G37*
G36*
X102545986Y-52306662D02*
G01*
X102574373Y-52325629D01*
X102593340Y-52354016D01*
X102600001Y-52387501D01*
X102600001Y-52562501D01*
X102593340Y-52595986D01*
X102574373Y-52624373D01*
X102545986Y-52643340D01*
X102512501Y-52650001D01*
X101062501Y-52650001D01*
X101029016Y-52643340D01*
X101000629Y-52624373D01*
X100981662Y-52595986D01*
X100975001Y-52562501D01*
X100975001Y-52387501D01*
X100981662Y-52354016D01*
X101000629Y-52325629D01*
X101029016Y-52306662D01*
X101062501Y-52300001D01*
X102512501Y-52300001D01*
X102545986Y-52306662D01*
G37*
G36*
X106624852Y-51020964D02*
G01*
X106675042Y-51026787D01*
X106692191Y-51034359D01*
X106715673Y-51039030D01*
X106740812Y-51055827D01*
X106760698Y-51064608D01*
X106774279Y-51078189D01*
X106796779Y-51093223D01*
X106811812Y-51115722D01*
X106825393Y-51129303D01*
X106834172Y-51149186D01*
X106850972Y-51174329D01*
X106855643Y-51197812D01*
X106863214Y-51214959D01*
X106869035Y-51265139D01*
X106870002Y-51270000D01*
X106870002Y-52185000D01*
X106869034Y-52189863D01*
X106863214Y-52240040D01*
X106855643Y-52257185D01*
X106850972Y-52280671D01*
X106834171Y-52305815D01*
X106825393Y-52325696D01*
X106811814Y-52339274D01*
X106796779Y-52361777D01*
X106774276Y-52376812D01*
X106760698Y-52390391D01*
X106740817Y-52399169D01*
X106715673Y-52415970D01*
X106692187Y-52420641D01*
X106675042Y-52428212D01*
X106624863Y-52434032D01*
X106620002Y-52435000D01*
X105730002Y-52435000D01*
X105725140Y-52434032D01*
X105674961Y-52428212D01*
X105657814Y-52420641D01*
X105634331Y-52415970D01*
X105609188Y-52399170D01*
X105589305Y-52390391D01*
X105575724Y-52376810D01*
X105553225Y-52361777D01*
X105538191Y-52339277D01*
X105524610Y-52325696D01*
X105515829Y-52305810D01*
X105499032Y-52280671D01*
X105494361Y-52257189D01*
X105486789Y-52240040D01*
X105480966Y-52189849D01*
X105480002Y-52185000D01*
X105480002Y-51270000D01*
X105480966Y-51265150D01*
X105486789Y-51214959D01*
X105494361Y-51197808D01*
X105499032Y-51174329D01*
X105515828Y-51149191D01*
X105524610Y-51129303D01*
X105538193Y-51115719D01*
X105553225Y-51093223D01*
X105575721Y-51078191D01*
X105589305Y-51064608D01*
X105609193Y-51055826D01*
X105634331Y-51039030D01*
X105657810Y-51034359D01*
X105674961Y-51026787D01*
X105725153Y-51020964D01*
X105730002Y-51020000D01*
X106620002Y-51020000D01*
X106624852Y-51020964D01*
G37*
G36*
X104229852Y-51500964D02*
G01*
X104274319Y-51506123D01*
X104289512Y-51512831D01*
X104311106Y-51517127D01*
X104334224Y-51532574D01*
X104351569Y-51540233D01*
X104363414Y-51552078D01*
X104384101Y-51565901D01*
X104397923Y-51586587D01*
X104409768Y-51598432D01*
X104417425Y-51615774D01*
X104432875Y-51638896D01*
X104437170Y-51660491D01*
X104443878Y-51675682D01*
X104449035Y-51720139D01*
X104450002Y-51725000D01*
X104450002Y-52175000D01*
X104449034Y-52179862D01*
X104443878Y-52224317D01*
X104437170Y-52239506D01*
X104432875Y-52261104D01*
X104417424Y-52284227D01*
X104409768Y-52301567D01*
X104397925Y-52313409D01*
X104384101Y-52334099D01*
X104363411Y-52347923D01*
X104351569Y-52359766D01*
X104334229Y-52367422D01*
X104311106Y-52382873D01*
X104289508Y-52387168D01*
X104274319Y-52393876D01*
X104229863Y-52399032D01*
X104225002Y-52400000D01*
X103725002Y-52400000D01*
X103720140Y-52399033D01*
X103675684Y-52393876D01*
X103660493Y-52387168D01*
X103638898Y-52382873D01*
X103615776Y-52367423D01*
X103598434Y-52359766D01*
X103586589Y-52347921D01*
X103565903Y-52334099D01*
X103552080Y-52313412D01*
X103540235Y-52301567D01*
X103532576Y-52284222D01*
X103517129Y-52261104D01*
X103512833Y-52239510D01*
X103506125Y-52224317D01*
X103500966Y-52179849D01*
X103500002Y-52175000D01*
X103500002Y-51725000D01*
X103500966Y-51720150D01*
X103506125Y-51675682D01*
X103512834Y-51660487D01*
X103517129Y-51638896D01*
X103532575Y-51615779D01*
X103540235Y-51598432D01*
X103552082Y-51586584D01*
X103565903Y-51565901D01*
X103586586Y-51552080D01*
X103598434Y-51540233D01*
X103615781Y-51532573D01*
X103638898Y-51517127D01*
X103660489Y-51512832D01*
X103675684Y-51506123D01*
X103720153Y-51500964D01*
X103725002Y-51500000D01*
X104225002Y-51500000D01*
X104229852Y-51500964D01*
G37*
G36*
X90049850Y-50865964D02*
G01*
X90100040Y-50871787D01*
X90117189Y-50879359D01*
X90140671Y-50884030D01*
X90165810Y-50900827D01*
X90185696Y-50909608D01*
X90199277Y-50923189D01*
X90221777Y-50938223D01*
X90236810Y-50960722D01*
X90250391Y-50974303D01*
X90259170Y-50994186D01*
X90275970Y-51019329D01*
X90280641Y-51042812D01*
X90288212Y-51059959D01*
X90294033Y-51110139D01*
X90295000Y-51115000D01*
X90295000Y-52030000D01*
X90294032Y-52034863D01*
X90288212Y-52085040D01*
X90280641Y-52102185D01*
X90275970Y-52125671D01*
X90259169Y-52150815D01*
X90250391Y-52170696D01*
X90236812Y-52184274D01*
X90221777Y-52206777D01*
X90199274Y-52221812D01*
X90185696Y-52235391D01*
X90165815Y-52244169D01*
X90140671Y-52260970D01*
X90117185Y-52265641D01*
X90100040Y-52273212D01*
X90049861Y-52279032D01*
X90045000Y-52280000D01*
X89155000Y-52280000D01*
X89150138Y-52279032D01*
X89099959Y-52273212D01*
X89082812Y-52265641D01*
X89059329Y-52260970D01*
X89034186Y-52244170D01*
X89014303Y-52235391D01*
X89000722Y-52221810D01*
X88978223Y-52206777D01*
X88963189Y-52184277D01*
X88949608Y-52170696D01*
X88940827Y-52150810D01*
X88924030Y-52125671D01*
X88919359Y-52102189D01*
X88911787Y-52085040D01*
X88905964Y-52034849D01*
X88905000Y-52030000D01*
X88905000Y-51115000D01*
X88905964Y-51110150D01*
X88911787Y-51059959D01*
X88919359Y-51042808D01*
X88924030Y-51019329D01*
X88940826Y-50994191D01*
X88949608Y-50974303D01*
X88963191Y-50960719D01*
X88978223Y-50938223D01*
X89000719Y-50923191D01*
X89014303Y-50909608D01*
X89034191Y-50900826D01*
X89059329Y-50884030D01*
X89082808Y-50879359D01*
X89099959Y-50871787D01*
X89150151Y-50865964D01*
X89155000Y-50865000D01*
X90045000Y-50865000D01*
X90049850Y-50865964D01*
G37*
G36*
X98320986Y-51806661D02*
G01*
X98349373Y-51825628D01*
X98368340Y-51854015D01*
X98375001Y-51887500D01*
X98375001Y-52062500D01*
X98368340Y-52095985D01*
X98349373Y-52124372D01*
X98320986Y-52143339D01*
X98287501Y-52150000D01*
X96837501Y-52150000D01*
X96804016Y-52143339D01*
X96775629Y-52124372D01*
X96756662Y-52095985D01*
X96750001Y-52062500D01*
X96750001Y-51887500D01*
X96756662Y-51854015D01*
X96775629Y-51825628D01*
X96804016Y-51806661D01*
X96837501Y-51800000D01*
X98287501Y-51800000D01*
X98320986Y-51806661D01*
G37*
G36*
X102545986Y-51806661D02*
G01*
X102574373Y-51825628D01*
X102593340Y-51854015D01*
X102600001Y-51887500D01*
X102600001Y-52062500D01*
X102593340Y-52095985D01*
X102574373Y-52124372D01*
X102545986Y-52143339D01*
X102512501Y-52150000D01*
X101062501Y-52150000D01*
X101029016Y-52143339D01*
X101000629Y-52124372D01*
X100981662Y-52095985D01*
X100975001Y-52062500D01*
X100975001Y-51887500D01*
X100981662Y-51854015D01*
X101000629Y-51825628D01*
X101029016Y-51806661D01*
X101062501Y-51800000D01*
X102512501Y-51800000D01*
X102545986Y-51806661D01*
G37*
G36*
X76649850Y-50490964D02*
G01*
X76700040Y-50496787D01*
X76717189Y-50504359D01*
X76740671Y-50509030D01*
X76765810Y-50525827D01*
X76785696Y-50534608D01*
X76799277Y-50548189D01*
X76821777Y-50563223D01*
X76836810Y-50585722D01*
X76850391Y-50599303D01*
X76859170Y-50619186D01*
X76875970Y-50644329D01*
X76880641Y-50667812D01*
X76888212Y-50684959D01*
X76894033Y-50735139D01*
X76895000Y-50740000D01*
X76895000Y-51655000D01*
X76894032Y-51659863D01*
X76888212Y-51710040D01*
X76880641Y-51727185D01*
X76875970Y-51750671D01*
X76859169Y-51775815D01*
X76850391Y-51795696D01*
X76836812Y-51809274D01*
X76821777Y-51831777D01*
X76799274Y-51846812D01*
X76785696Y-51860391D01*
X76765815Y-51869169D01*
X76740671Y-51885970D01*
X76717185Y-51890641D01*
X76700040Y-51898212D01*
X76649861Y-51904032D01*
X76645000Y-51905000D01*
X75755000Y-51905000D01*
X75750138Y-51904032D01*
X75699959Y-51898212D01*
X75682812Y-51890641D01*
X75659329Y-51885970D01*
X75634186Y-51869170D01*
X75614303Y-51860391D01*
X75600722Y-51846810D01*
X75578223Y-51831777D01*
X75563189Y-51809277D01*
X75549608Y-51795696D01*
X75540827Y-51775810D01*
X75524030Y-51750671D01*
X75519359Y-51727189D01*
X75511787Y-51710040D01*
X75505964Y-51659849D01*
X75505000Y-51655000D01*
X75505000Y-50740000D01*
X75505964Y-50735150D01*
X75511787Y-50684959D01*
X75519359Y-50667808D01*
X75524030Y-50644329D01*
X75540826Y-50619191D01*
X75549608Y-50599303D01*
X75563191Y-50585719D01*
X75578223Y-50563223D01*
X75600719Y-50548191D01*
X75614303Y-50534608D01*
X75634191Y-50525826D01*
X75659329Y-50509030D01*
X75682808Y-50504359D01*
X75699959Y-50496787D01*
X75750151Y-50490964D01*
X75755000Y-50490000D01*
X76645000Y-50490000D01*
X76649850Y-50490964D01*
G37*
G36*
X82151537Y-50640224D02*
G01*
X82216421Y-50683579D01*
X82259776Y-50748463D01*
X82275000Y-50825000D01*
X82275000Y-51375000D01*
X82259776Y-51451537D01*
X82216421Y-51516421D01*
X82151537Y-51559776D01*
X82075000Y-51575000D01*
X81675000Y-51575000D01*
X81598463Y-51559776D01*
X81533579Y-51516421D01*
X81490224Y-51451537D01*
X81475000Y-51375000D01*
X81475000Y-50825000D01*
X81490224Y-50748463D01*
X81533579Y-50683579D01*
X81598463Y-50640224D01*
X81675000Y-50625000D01*
X82075000Y-50625000D01*
X82151537Y-50640224D01*
G37*
G36*
X83801537Y-50640224D02*
G01*
X83866421Y-50683579D01*
X83909776Y-50748463D01*
X83925000Y-50825000D01*
X83925000Y-51375000D01*
X83909776Y-51451537D01*
X83866421Y-51516421D01*
X83801537Y-51559776D01*
X83725000Y-51575000D01*
X83325000Y-51575000D01*
X83248463Y-51559776D01*
X83183579Y-51516421D01*
X83140224Y-51451537D01*
X83125000Y-51375000D01*
X83125000Y-50825000D01*
X83140224Y-50748463D01*
X83183579Y-50683579D01*
X83248463Y-50640224D01*
X83325000Y-50625000D01*
X83725000Y-50625000D01*
X83801537Y-50640224D01*
G37*
G36*
X93929851Y-50600965D02*
G01*
X93974318Y-50606124D01*
X93989511Y-50612832D01*
X94011105Y-50617128D01*
X94034223Y-50632575D01*
X94051568Y-50640234D01*
X94063413Y-50652079D01*
X94084100Y-50665902D01*
X94097922Y-50686588D01*
X94109767Y-50698433D01*
X94117424Y-50715775D01*
X94132874Y-50738897D01*
X94137169Y-50760492D01*
X94143877Y-50775683D01*
X94149034Y-50820140D01*
X94150001Y-50825001D01*
X94150001Y-51325001D01*
X94149033Y-51329863D01*
X94143877Y-51374318D01*
X94137169Y-51389507D01*
X94132874Y-51411105D01*
X94117423Y-51434228D01*
X94109767Y-51451568D01*
X94097924Y-51463410D01*
X94084100Y-51484100D01*
X94063410Y-51497924D01*
X94051568Y-51509767D01*
X94034228Y-51517423D01*
X94011105Y-51532874D01*
X93989507Y-51537169D01*
X93974318Y-51543877D01*
X93929862Y-51549033D01*
X93925001Y-51550001D01*
X93475001Y-51550001D01*
X93470139Y-51549034D01*
X93425683Y-51543877D01*
X93410492Y-51537169D01*
X93388897Y-51532874D01*
X93365775Y-51517424D01*
X93348433Y-51509767D01*
X93336588Y-51497922D01*
X93315902Y-51484100D01*
X93302079Y-51463413D01*
X93290234Y-51451568D01*
X93282575Y-51434223D01*
X93267128Y-51411105D01*
X93262832Y-51389511D01*
X93256124Y-51374318D01*
X93250965Y-51329850D01*
X93250001Y-51325001D01*
X93250001Y-50825001D01*
X93250965Y-50820151D01*
X93256124Y-50775683D01*
X93262833Y-50760488D01*
X93267128Y-50738897D01*
X93282574Y-50715780D01*
X93290234Y-50698433D01*
X93302081Y-50686585D01*
X93315902Y-50665902D01*
X93336585Y-50652081D01*
X93348433Y-50640234D01*
X93365780Y-50632574D01*
X93388897Y-50617128D01*
X93410488Y-50612833D01*
X93425683Y-50606124D01*
X93470152Y-50600965D01*
X93475001Y-50600001D01*
X93925001Y-50600001D01*
X93929851Y-50600965D01*
G37*
G36*
X95479851Y-50600965D02*
G01*
X95524318Y-50606124D01*
X95539511Y-50612832D01*
X95561105Y-50617128D01*
X95584223Y-50632575D01*
X95601568Y-50640234D01*
X95613413Y-50652079D01*
X95634100Y-50665902D01*
X95647922Y-50686588D01*
X95659767Y-50698433D01*
X95667424Y-50715775D01*
X95682874Y-50738897D01*
X95687169Y-50760492D01*
X95693877Y-50775683D01*
X95699034Y-50820140D01*
X95700001Y-50825001D01*
X95700001Y-51325001D01*
X95699033Y-51329863D01*
X95693877Y-51374318D01*
X95687169Y-51389507D01*
X95682874Y-51411105D01*
X95667423Y-51434228D01*
X95659767Y-51451568D01*
X95647924Y-51463410D01*
X95634100Y-51484100D01*
X95613410Y-51497924D01*
X95601568Y-51509767D01*
X95584228Y-51517423D01*
X95561105Y-51532874D01*
X95539507Y-51537169D01*
X95524318Y-51543877D01*
X95479862Y-51549033D01*
X95475001Y-51550001D01*
X95025001Y-51550001D01*
X95020139Y-51549034D01*
X94975683Y-51543877D01*
X94960492Y-51537169D01*
X94938897Y-51532874D01*
X94915775Y-51517424D01*
X94898433Y-51509767D01*
X94886588Y-51497922D01*
X94865902Y-51484100D01*
X94852079Y-51463413D01*
X94840234Y-51451568D01*
X94832575Y-51434223D01*
X94817128Y-51411105D01*
X94812832Y-51389511D01*
X94806124Y-51374318D01*
X94800965Y-51329850D01*
X94800001Y-51325001D01*
X94800001Y-50825001D01*
X94800965Y-50820151D01*
X94806124Y-50775683D01*
X94812833Y-50760488D01*
X94817128Y-50738897D01*
X94832574Y-50715780D01*
X94840234Y-50698433D01*
X94852081Y-50686585D01*
X94865902Y-50665902D01*
X94886585Y-50652081D01*
X94898433Y-50640234D01*
X94915780Y-50632574D01*
X94938897Y-50617128D01*
X94960488Y-50612833D01*
X94975683Y-50606124D01*
X95020152Y-50600965D01*
X95025001Y-50600001D01*
X95475001Y-50600001D01*
X95479851Y-50600965D01*
G37*
G36*
X126629850Y-49750964D02*
G01*
X126680040Y-49756787D01*
X126697189Y-49764359D01*
X126720671Y-49769030D01*
X126745810Y-49785827D01*
X126765696Y-49794608D01*
X126779277Y-49808189D01*
X126801777Y-49823223D01*
X126816810Y-49845722D01*
X126830391Y-49859303D01*
X126839170Y-49879186D01*
X126855970Y-49904329D01*
X126860641Y-49927812D01*
X126868212Y-49944959D01*
X126874033Y-49995139D01*
X126875000Y-50000000D01*
X126875000Y-50950000D01*
X126874032Y-50954863D01*
X126868212Y-51005040D01*
X126860641Y-51022185D01*
X126855970Y-51045671D01*
X126839169Y-51070815D01*
X126830391Y-51090696D01*
X126816812Y-51104274D01*
X126801777Y-51126777D01*
X126779274Y-51141812D01*
X126765696Y-51155391D01*
X126745815Y-51164169D01*
X126720671Y-51180970D01*
X126697185Y-51185641D01*
X126680040Y-51193212D01*
X126629861Y-51199032D01*
X126625000Y-51200000D01*
X126125000Y-51200000D01*
X126120138Y-51199032D01*
X126069959Y-51193212D01*
X126052812Y-51185641D01*
X126029329Y-51180970D01*
X126004186Y-51164170D01*
X125984303Y-51155391D01*
X125970722Y-51141810D01*
X125948223Y-51126777D01*
X125933189Y-51104277D01*
X125919608Y-51090696D01*
X125910827Y-51070810D01*
X125894030Y-51045671D01*
X125889359Y-51022189D01*
X125881787Y-51005040D01*
X125875964Y-50954849D01*
X125875000Y-50950000D01*
X125875000Y-50000000D01*
X125875964Y-49995150D01*
X125881787Y-49944959D01*
X125889359Y-49927808D01*
X125894030Y-49904329D01*
X125910826Y-49879191D01*
X125919608Y-49859303D01*
X125933191Y-49845719D01*
X125948223Y-49823223D01*
X125970719Y-49808191D01*
X125984303Y-49794608D01*
X126004191Y-49785826D01*
X126029329Y-49769030D01*
X126052808Y-49764359D01*
X126069959Y-49756787D01*
X126120151Y-49750964D01*
X126125000Y-49750000D01*
X126625000Y-49750000D01*
X126629850Y-49750964D01*
G37*
G36*
X128529850Y-49750964D02*
G01*
X128580040Y-49756787D01*
X128597189Y-49764359D01*
X128620671Y-49769030D01*
X128645810Y-49785827D01*
X128665696Y-49794608D01*
X128679277Y-49808189D01*
X128701777Y-49823223D01*
X128716810Y-49845722D01*
X128730391Y-49859303D01*
X128739170Y-49879186D01*
X128755970Y-49904329D01*
X128760641Y-49927812D01*
X128768212Y-49944959D01*
X128774033Y-49995139D01*
X128775000Y-50000000D01*
X128775000Y-50950000D01*
X128774032Y-50954863D01*
X128768212Y-51005040D01*
X128760641Y-51022185D01*
X128755970Y-51045671D01*
X128739169Y-51070815D01*
X128730391Y-51090696D01*
X128716812Y-51104274D01*
X128701777Y-51126777D01*
X128679274Y-51141812D01*
X128665696Y-51155391D01*
X128645815Y-51164169D01*
X128620671Y-51180970D01*
X128597185Y-51185641D01*
X128580040Y-51193212D01*
X128529861Y-51199032D01*
X128525000Y-51200000D01*
X128025000Y-51200000D01*
X128020138Y-51199032D01*
X127969959Y-51193212D01*
X127952812Y-51185641D01*
X127929329Y-51180970D01*
X127904186Y-51164170D01*
X127884303Y-51155391D01*
X127870722Y-51141810D01*
X127848223Y-51126777D01*
X127833189Y-51104277D01*
X127819608Y-51090696D01*
X127810827Y-51070810D01*
X127794030Y-51045671D01*
X127789359Y-51022189D01*
X127781787Y-51005040D01*
X127775964Y-50954849D01*
X127775000Y-50950000D01*
X127775000Y-50000000D01*
X127775964Y-49995150D01*
X127781787Y-49944959D01*
X127789359Y-49927808D01*
X127794030Y-49904329D01*
X127810826Y-49879191D01*
X127819608Y-49859303D01*
X127833191Y-49845719D01*
X127848223Y-49823223D01*
X127870719Y-49808191D01*
X127884303Y-49794608D01*
X127904191Y-49785826D01*
X127929329Y-49769030D01*
X127952808Y-49764359D01*
X127969959Y-49756787D01*
X128020151Y-49750964D01*
X128025000Y-49750000D01*
X128525000Y-49750000D01*
X128529850Y-49750964D01*
G37*
G36*
X104229852Y-49950964D02*
G01*
X104274319Y-49956123D01*
X104289512Y-49962831D01*
X104311106Y-49967127D01*
X104334224Y-49982574D01*
X104351569Y-49990233D01*
X104363414Y-50002078D01*
X104384101Y-50015901D01*
X104397923Y-50036587D01*
X104409768Y-50048432D01*
X104417425Y-50065774D01*
X104432875Y-50088896D01*
X104437170Y-50110491D01*
X104443878Y-50125682D01*
X104449035Y-50170139D01*
X104450002Y-50175000D01*
X104450002Y-50625000D01*
X104449034Y-50629862D01*
X104443878Y-50674317D01*
X104437170Y-50689506D01*
X104432875Y-50711104D01*
X104417424Y-50734227D01*
X104409768Y-50751567D01*
X104397925Y-50763409D01*
X104384101Y-50784099D01*
X104363411Y-50797923D01*
X104351569Y-50809766D01*
X104334229Y-50817422D01*
X104311106Y-50832873D01*
X104289508Y-50837168D01*
X104274319Y-50843876D01*
X104229863Y-50849032D01*
X104225002Y-50850000D01*
X103725002Y-50850000D01*
X103720140Y-50849033D01*
X103675684Y-50843876D01*
X103660493Y-50837168D01*
X103638898Y-50832873D01*
X103615776Y-50817423D01*
X103598434Y-50809766D01*
X103586589Y-50797921D01*
X103565903Y-50784099D01*
X103552080Y-50763412D01*
X103540235Y-50751567D01*
X103532576Y-50734222D01*
X103517129Y-50711104D01*
X103512833Y-50689510D01*
X103506125Y-50674317D01*
X103500966Y-50629849D01*
X103500002Y-50625000D01*
X103500002Y-50175000D01*
X103500966Y-50170150D01*
X103506125Y-50125682D01*
X103512834Y-50110487D01*
X103517129Y-50088896D01*
X103532575Y-50065779D01*
X103540235Y-50048432D01*
X103552082Y-50036584D01*
X103565903Y-50015901D01*
X103586586Y-50002080D01*
X103598434Y-49990233D01*
X103615781Y-49982573D01*
X103638898Y-49967127D01*
X103660489Y-49962832D01*
X103675684Y-49956123D01*
X103720153Y-49950964D01*
X103725002Y-49950000D01*
X104225002Y-49950000D01*
X104229852Y-49950964D01*
G37*
G36*
X100829852Y-49700964D02*
G01*
X100874319Y-49706123D01*
X100889512Y-49712831D01*
X100911106Y-49717127D01*
X100934224Y-49732574D01*
X100951569Y-49740233D01*
X100963414Y-49752078D01*
X100984101Y-49765901D01*
X100997923Y-49786587D01*
X101009768Y-49798432D01*
X101017425Y-49815774D01*
X101032875Y-49838896D01*
X101037170Y-49860491D01*
X101043878Y-49875682D01*
X101049035Y-49920139D01*
X101050002Y-49925000D01*
X101050002Y-50425000D01*
X101049034Y-50429862D01*
X101043878Y-50474317D01*
X101037170Y-50489506D01*
X101032875Y-50511104D01*
X101017424Y-50534227D01*
X101009768Y-50551567D01*
X100997925Y-50563409D01*
X100984101Y-50584099D01*
X100963411Y-50597923D01*
X100951569Y-50609766D01*
X100934229Y-50617422D01*
X100911106Y-50632873D01*
X100889508Y-50637168D01*
X100874319Y-50643876D01*
X100829863Y-50649032D01*
X100825002Y-50650000D01*
X100375002Y-50650000D01*
X100370140Y-50649033D01*
X100325684Y-50643876D01*
X100310493Y-50637168D01*
X100288898Y-50632873D01*
X100265776Y-50617423D01*
X100248434Y-50609766D01*
X100236589Y-50597921D01*
X100215903Y-50584099D01*
X100202080Y-50563412D01*
X100190235Y-50551567D01*
X100182576Y-50534222D01*
X100167129Y-50511104D01*
X100162833Y-50489510D01*
X100156125Y-50474317D01*
X100150966Y-50429849D01*
X100150002Y-50425000D01*
X100150002Y-49925000D01*
X100150966Y-49920150D01*
X100156125Y-49875682D01*
X100162834Y-49860487D01*
X100167129Y-49838896D01*
X100182575Y-49815779D01*
X100190235Y-49798432D01*
X100202082Y-49786584D01*
X100215903Y-49765901D01*
X100236586Y-49752080D01*
X100248434Y-49740233D01*
X100265781Y-49732573D01*
X100288898Y-49717127D01*
X100310489Y-49712832D01*
X100325684Y-49706123D01*
X100370153Y-49700964D01*
X100375002Y-49700000D01*
X100825002Y-49700000D01*
X100829852Y-49700964D01*
G37*
G36*
X102379852Y-49700964D02*
G01*
X102424319Y-49706123D01*
X102439512Y-49712831D01*
X102461106Y-49717127D01*
X102484224Y-49732574D01*
X102501569Y-49740233D01*
X102513414Y-49752078D01*
X102534101Y-49765901D01*
X102547923Y-49786587D01*
X102559768Y-49798432D01*
X102567425Y-49815774D01*
X102582875Y-49838896D01*
X102587170Y-49860491D01*
X102593878Y-49875682D01*
X102599035Y-49920139D01*
X102600002Y-49925000D01*
X102600002Y-50425000D01*
X102599034Y-50429862D01*
X102593878Y-50474317D01*
X102587170Y-50489506D01*
X102582875Y-50511104D01*
X102567424Y-50534227D01*
X102559768Y-50551567D01*
X102547925Y-50563409D01*
X102534101Y-50584099D01*
X102513411Y-50597923D01*
X102501569Y-50609766D01*
X102484229Y-50617422D01*
X102461106Y-50632873D01*
X102439508Y-50637168D01*
X102424319Y-50643876D01*
X102379863Y-50649032D01*
X102375002Y-50650000D01*
X101925002Y-50650000D01*
X101920140Y-50649033D01*
X101875684Y-50643876D01*
X101860493Y-50637168D01*
X101838898Y-50632873D01*
X101815776Y-50617423D01*
X101798434Y-50609766D01*
X101786589Y-50597921D01*
X101765903Y-50584099D01*
X101752080Y-50563412D01*
X101740235Y-50551567D01*
X101732576Y-50534222D01*
X101717129Y-50511104D01*
X101712833Y-50489510D01*
X101706125Y-50474317D01*
X101700966Y-50429849D01*
X101700002Y-50425000D01*
X101700002Y-49925000D01*
X101700966Y-49920150D01*
X101706125Y-49875682D01*
X101712834Y-49860487D01*
X101717129Y-49838896D01*
X101732575Y-49815779D01*
X101740235Y-49798432D01*
X101752082Y-49786584D01*
X101765903Y-49765901D01*
X101786586Y-49752080D01*
X101798434Y-49740233D01*
X101815781Y-49732573D01*
X101838898Y-49717127D01*
X101860489Y-49712832D01*
X101875684Y-49706123D01*
X101920153Y-49700964D01*
X101925002Y-49700000D01*
X102375002Y-49700000D01*
X102379852Y-49700964D01*
G37*
G36*
X106624852Y-48315964D02*
G01*
X106675042Y-48321787D01*
X106692191Y-48329359D01*
X106715673Y-48334030D01*
X106740812Y-48350827D01*
X106760698Y-48359608D01*
X106774279Y-48373189D01*
X106796779Y-48388223D01*
X106811812Y-48410722D01*
X106825393Y-48424303D01*
X106834172Y-48444186D01*
X106850972Y-48469329D01*
X106855643Y-48492812D01*
X106863214Y-48509959D01*
X106869035Y-48560139D01*
X106870002Y-48565000D01*
X106870002Y-49480000D01*
X106869034Y-49484863D01*
X106863214Y-49535040D01*
X106855643Y-49552185D01*
X106850972Y-49575671D01*
X106834171Y-49600815D01*
X106825393Y-49620696D01*
X106811814Y-49634274D01*
X106796779Y-49656777D01*
X106774276Y-49671812D01*
X106760698Y-49685391D01*
X106740817Y-49694169D01*
X106715673Y-49710970D01*
X106692187Y-49715641D01*
X106675042Y-49723212D01*
X106624863Y-49729032D01*
X106620002Y-49730000D01*
X105730002Y-49730000D01*
X105725140Y-49729032D01*
X105674961Y-49723212D01*
X105657814Y-49715641D01*
X105634331Y-49710970D01*
X105609188Y-49694170D01*
X105589305Y-49685391D01*
X105575724Y-49671810D01*
X105553225Y-49656777D01*
X105538191Y-49634277D01*
X105524610Y-49620696D01*
X105515829Y-49600810D01*
X105499032Y-49575671D01*
X105494361Y-49552189D01*
X105486789Y-49535040D01*
X105480966Y-49484849D01*
X105480002Y-49480000D01*
X105480002Y-48565000D01*
X105480966Y-48560150D01*
X105486789Y-48509959D01*
X105494361Y-48492808D01*
X105499032Y-48469329D01*
X105515828Y-48444191D01*
X105524610Y-48424303D01*
X105538193Y-48410719D01*
X105553225Y-48388223D01*
X105575721Y-48373191D01*
X105589305Y-48359608D01*
X105609193Y-48350826D01*
X105634331Y-48334030D01*
X105657810Y-48329359D01*
X105674961Y-48321787D01*
X105725153Y-48315964D01*
X105730002Y-48315000D01*
X106620002Y-48315000D01*
X106624852Y-48315964D01*
G37*
G36*
X81154850Y-44750964D02*
G01*
X81205040Y-44756787D01*
X81222189Y-44764359D01*
X81245671Y-44769030D01*
X81270810Y-44785827D01*
X81290696Y-44794608D01*
X81304277Y-44808189D01*
X81326777Y-44823223D01*
X81341810Y-44845722D01*
X81355391Y-44859303D01*
X81364170Y-44879186D01*
X81380970Y-44904329D01*
X81385641Y-44927812D01*
X81393212Y-44944959D01*
X81399033Y-44995139D01*
X81400000Y-45000000D01*
X81400000Y-48000000D01*
X81399032Y-48004863D01*
X81393212Y-48055040D01*
X81385641Y-48072185D01*
X81380970Y-48095671D01*
X81364169Y-48120815D01*
X81355391Y-48140696D01*
X81341812Y-48154274D01*
X81326777Y-48176777D01*
X81304274Y-48191812D01*
X81290696Y-48205391D01*
X81270815Y-48214169D01*
X81245671Y-48230970D01*
X81222185Y-48235641D01*
X81205040Y-48243212D01*
X81154861Y-48249032D01*
X81150000Y-48250000D01*
X80050000Y-48250000D01*
X80045138Y-48249032D01*
X79994959Y-48243212D01*
X79977812Y-48235641D01*
X79954329Y-48230970D01*
X79929186Y-48214170D01*
X79909303Y-48205391D01*
X79895722Y-48191810D01*
X79873223Y-48176777D01*
X79858189Y-48154277D01*
X79844608Y-48140696D01*
X79835827Y-48120810D01*
X79819030Y-48095671D01*
X79814359Y-48072189D01*
X79806787Y-48055040D01*
X79800964Y-48004849D01*
X79800000Y-48000000D01*
X79800000Y-45000000D01*
X79800964Y-44995150D01*
X79806787Y-44944959D01*
X79814359Y-44927808D01*
X79819030Y-44904329D01*
X79835826Y-44879191D01*
X79844608Y-44859303D01*
X79858191Y-44845719D01*
X79873223Y-44823223D01*
X79895719Y-44808191D01*
X79909303Y-44794608D01*
X79929191Y-44785826D01*
X79954329Y-44769030D01*
X79977808Y-44764359D01*
X79994959Y-44756787D01*
X80045151Y-44750964D01*
X80050000Y-44750000D01*
X81150000Y-44750000D01*
X81154850Y-44750964D01*
G37*
G36*
X69507500Y-47737500D02*
G01*
X66507500Y-47737500D01*
X66507500Y-44737500D01*
X69507500Y-44737500D01*
X69507500Y-47737500D01*
G37*
G36*
X115051537Y-44940224D02*
G01*
X115116421Y-44983579D01*
X115159776Y-45048463D01*
X115175000Y-45125000D01*
X115175000Y-45675000D01*
X115159776Y-45751537D01*
X115116421Y-45816421D01*
X115051537Y-45859776D01*
X114975000Y-45875000D01*
X114575000Y-45875000D01*
X114498463Y-45859776D01*
X114433579Y-45816421D01*
X114390224Y-45751537D01*
X114375000Y-45675000D01*
X114375000Y-45125000D01*
X114390224Y-45048463D01*
X114433579Y-44983579D01*
X114498463Y-44940224D01*
X114575000Y-44925000D01*
X114975000Y-44925000D01*
X115051537Y-44940224D01*
G37*
G36*
X116701537Y-44940224D02*
G01*
X116766421Y-44983579D01*
X116809776Y-45048463D01*
X116825000Y-45125000D01*
X116825000Y-45675000D01*
X116809776Y-45751537D01*
X116766421Y-45816421D01*
X116701537Y-45859776D01*
X116625000Y-45875000D01*
X116225000Y-45875000D01*
X116148463Y-45859776D01*
X116083579Y-45816421D01*
X116040224Y-45751537D01*
X116025000Y-45675000D01*
X116025000Y-45125000D01*
X116040224Y-45048463D01*
X116083579Y-44983579D01*
X116148463Y-44940224D01*
X116225000Y-44925000D01*
X116625000Y-44925000D01*
X116701537Y-44940224D01*
G37*
G36*
X118851537Y-44940224D02*
G01*
X118916421Y-44983579D01*
X118959776Y-45048463D01*
X118975000Y-45125000D01*
X118975000Y-45675000D01*
X118959776Y-45751537D01*
X118916421Y-45816421D01*
X118851537Y-45859776D01*
X118775000Y-45875000D01*
X118375000Y-45875000D01*
X118298463Y-45859776D01*
X118233579Y-45816421D01*
X118190224Y-45751537D01*
X118175000Y-45675000D01*
X118175000Y-45125000D01*
X118190224Y-45048463D01*
X118233579Y-44983579D01*
X118298463Y-44940224D01*
X118375000Y-44925000D01*
X118775000Y-44925000D01*
X118851537Y-44940224D01*
G37*
G36*
X120501537Y-44940224D02*
G01*
X120566421Y-44983579D01*
X120609776Y-45048463D01*
X120625000Y-45125000D01*
X120625000Y-45675000D01*
X120609776Y-45751537D01*
X120566421Y-45816421D01*
X120501537Y-45859776D01*
X120425000Y-45875000D01*
X120025000Y-45875000D01*
X119948463Y-45859776D01*
X119883579Y-45816421D01*
X119840224Y-45751537D01*
X119825000Y-45675000D01*
X119825000Y-45125000D01*
X119840224Y-45048463D01*
X119883579Y-44983579D01*
X119948463Y-44940224D01*
X120025000Y-44925000D01*
X120425000Y-44925000D01*
X120501537Y-44940224D01*
G37*
G36*
X122851537Y-44940224D02*
G01*
X122916421Y-44983579D01*
X122959776Y-45048463D01*
X122975000Y-45125000D01*
X122975000Y-45675000D01*
X122959776Y-45751537D01*
X122916421Y-45816421D01*
X122851537Y-45859776D01*
X122775000Y-45875000D01*
X122375000Y-45875000D01*
X122298463Y-45859776D01*
X122233579Y-45816421D01*
X122190224Y-45751537D01*
X122175000Y-45675000D01*
X122175000Y-45125000D01*
X122190224Y-45048463D01*
X122233579Y-44983579D01*
X122298463Y-44940224D01*
X122375000Y-44925000D01*
X122775000Y-44925000D01*
X122851537Y-44940224D01*
G37*
G36*
X124501537Y-44940224D02*
G01*
X124566421Y-44983579D01*
X124609776Y-45048463D01*
X124625000Y-45125000D01*
X124625000Y-45675000D01*
X124609776Y-45751537D01*
X124566421Y-45816421D01*
X124501537Y-45859776D01*
X124425000Y-45875000D01*
X124025000Y-45875000D01*
X123948463Y-45859776D01*
X123883579Y-45816421D01*
X123840224Y-45751537D01*
X123825000Y-45675000D01*
X123825000Y-45125000D01*
X123840224Y-45048463D01*
X123883579Y-44983579D01*
X123948463Y-44940224D01*
X124025000Y-44925000D01*
X124425000Y-44925000D01*
X124501537Y-44940224D01*
G37*
G36*
X106254850Y-40200964D02*
G01*
X106305040Y-40206787D01*
X106322189Y-40214359D01*
X106345671Y-40219030D01*
X106370810Y-40235827D01*
X106390696Y-40244608D01*
X106404277Y-40258189D01*
X106426777Y-40273223D01*
X106441810Y-40295722D01*
X106455391Y-40309303D01*
X106464170Y-40329186D01*
X106480970Y-40354329D01*
X106485641Y-40377812D01*
X106493212Y-40394959D01*
X106499033Y-40445139D01*
X106500000Y-40450000D01*
X106500000Y-43450000D01*
X106499032Y-43454863D01*
X106493212Y-43505040D01*
X106485641Y-43522185D01*
X106480970Y-43545671D01*
X106464169Y-43570815D01*
X106455391Y-43590696D01*
X106441812Y-43604274D01*
X106426777Y-43626777D01*
X106404274Y-43641812D01*
X106390696Y-43655391D01*
X106370815Y-43664169D01*
X106345671Y-43680970D01*
X106322185Y-43685641D01*
X106305040Y-43693212D01*
X106254861Y-43699032D01*
X106250000Y-43700000D01*
X105150000Y-43700000D01*
X105145138Y-43699032D01*
X105094959Y-43693212D01*
X105077812Y-43685641D01*
X105054329Y-43680970D01*
X105029186Y-43664170D01*
X105009303Y-43655391D01*
X104995722Y-43641810D01*
X104973223Y-43626777D01*
X104958189Y-43604277D01*
X104944608Y-43590696D01*
X104935827Y-43570810D01*
X104919030Y-43545671D01*
X104914359Y-43522189D01*
X104906787Y-43505040D01*
X104900964Y-43454849D01*
X104900000Y-43450000D01*
X104900000Y-40450000D01*
X104900964Y-40445150D01*
X104906787Y-40394959D01*
X104914359Y-40377808D01*
X104919030Y-40354329D01*
X104935826Y-40329191D01*
X104944608Y-40309303D01*
X104958191Y-40295719D01*
X104973223Y-40273223D01*
X104995719Y-40258191D01*
X105009303Y-40244608D01*
X105029191Y-40235826D01*
X105054329Y-40219030D01*
X105077808Y-40214359D01*
X105094959Y-40206787D01*
X105145151Y-40200964D01*
X105150000Y-40200000D01*
X106250000Y-40200000D01*
X106254850Y-40200964D01*
G37*
G36*
X115752500Y-43611000D02*
G01*
X114247500Y-43611000D01*
X114247500Y-42809000D01*
X115752500Y-42809000D01*
X115752500Y-43611000D01*
G37*
G36*
X120747500Y-43611000D02*
G01*
X119242500Y-43611000D01*
X119242500Y-42809000D01*
X120747500Y-42809000D01*
X120747500Y-43611000D01*
G37*
G36*
X118804000Y-43056000D02*
G01*
X116191000Y-43056000D01*
X116191000Y-39554000D01*
X118804000Y-39554000D01*
X118804000Y-43056000D01*
G37*
G36*
X81154850Y-39350964D02*
G01*
X81205040Y-39356787D01*
X81222189Y-39364359D01*
X81245671Y-39369030D01*
X81270810Y-39385827D01*
X81290696Y-39394608D01*
X81304277Y-39408189D01*
X81326777Y-39423223D01*
X81341810Y-39445722D01*
X81355391Y-39459303D01*
X81364170Y-39479186D01*
X81380970Y-39504329D01*
X81385641Y-39527812D01*
X81393212Y-39544959D01*
X81399033Y-39595139D01*
X81400000Y-39600000D01*
X81400000Y-42600000D01*
X81399032Y-42604863D01*
X81393212Y-42655040D01*
X81385641Y-42672185D01*
X81380970Y-42695671D01*
X81364169Y-42720815D01*
X81355391Y-42740696D01*
X81341812Y-42754274D01*
X81326777Y-42776777D01*
X81304274Y-42791812D01*
X81290696Y-42805391D01*
X81270815Y-42814169D01*
X81245671Y-42830970D01*
X81222185Y-42835641D01*
X81205040Y-42843212D01*
X81154861Y-42849032D01*
X81150000Y-42850000D01*
X80050000Y-42850000D01*
X80045138Y-42849032D01*
X79994959Y-42843212D01*
X79977812Y-42835641D01*
X79954329Y-42830970D01*
X79929186Y-42814170D01*
X79909303Y-42805391D01*
X79895722Y-42791810D01*
X79873223Y-42776777D01*
X79858189Y-42754277D01*
X79844608Y-42740696D01*
X79835827Y-42720810D01*
X79819030Y-42695671D01*
X79814359Y-42672189D01*
X79806787Y-42655040D01*
X79800964Y-42604849D01*
X79800000Y-42600000D01*
X79800000Y-39600000D01*
X79800964Y-39595150D01*
X79806787Y-39544959D01*
X79814359Y-39527808D01*
X79819030Y-39504329D01*
X79835826Y-39479191D01*
X79844608Y-39459303D01*
X79858191Y-39445719D01*
X79873223Y-39423223D01*
X79895719Y-39408191D01*
X79909303Y-39394608D01*
X79929191Y-39385826D01*
X79954329Y-39369030D01*
X79977808Y-39364359D01*
X79994959Y-39356787D01*
X80045151Y-39350964D01*
X80050000Y-39350000D01*
X81150000Y-39350000D01*
X81154850Y-39350964D01*
G37*
G36*
X125461100Y-41950965D02*
G01*
X125504136Y-41955958D01*
X125518840Y-41962450D01*
X125539962Y-41966652D01*
X125562576Y-41981762D01*
X125579285Y-41989140D01*
X125590696Y-42000551D01*
X125610930Y-42014071D01*
X125624449Y-42034304D01*
X125635860Y-42045715D01*
X125643237Y-42062422D01*
X125658349Y-42085039D01*
X125662550Y-42106162D01*
X125669042Y-42120864D01*
X125674033Y-42163890D01*
X125675000Y-42168751D01*
X125675000Y-42606251D01*
X125674032Y-42611113D01*
X125669042Y-42654137D01*
X125662551Y-42668837D01*
X125658349Y-42689963D01*
X125643235Y-42712581D01*
X125635860Y-42729286D01*
X125624451Y-42740694D01*
X125610930Y-42760931D01*
X125590693Y-42774452D01*
X125579285Y-42785861D01*
X125562580Y-42793236D01*
X125539962Y-42808350D01*
X125518836Y-42812552D01*
X125504136Y-42819043D01*
X125461111Y-42824033D01*
X125456250Y-42825001D01*
X124943750Y-42825001D01*
X124938888Y-42824033D01*
X124895863Y-42819043D01*
X124881161Y-42812551D01*
X124860038Y-42808350D01*
X124837421Y-42793238D01*
X124820714Y-42785861D01*
X124809303Y-42774450D01*
X124789070Y-42760931D01*
X124775549Y-42740696D01*
X124764139Y-42729286D01*
X124756761Y-42712577D01*
X124741651Y-42689963D01*
X124737449Y-42668841D01*
X124730957Y-42654137D01*
X124725964Y-42611100D01*
X124725000Y-42606251D01*
X124725000Y-42168751D01*
X124725964Y-42163901D01*
X124730957Y-42120864D01*
X124737450Y-42106158D01*
X124741651Y-42085039D01*
X124756759Y-42062426D01*
X124764139Y-42045715D01*
X124775552Y-42034301D01*
X124789070Y-42014071D01*
X124809300Y-42000553D01*
X124820714Y-41989140D01*
X124837425Y-41981760D01*
X124860038Y-41966652D01*
X124881157Y-41962451D01*
X124895863Y-41955958D01*
X124938901Y-41950965D01*
X124943750Y-41950001D01*
X125456250Y-41950001D01*
X125461100Y-41950965D01*
G37*
G36*
X122654850Y-41925964D02*
G01*
X122699317Y-41931123D01*
X122714510Y-41937831D01*
X122736104Y-41942127D01*
X122759222Y-41957574D01*
X122776567Y-41965233D01*
X122788412Y-41977078D01*
X122809099Y-41990901D01*
X122822921Y-42011587D01*
X122834766Y-42023432D01*
X122842423Y-42040774D01*
X122857873Y-42063896D01*
X122862168Y-42085491D01*
X122868876Y-42100682D01*
X122874033Y-42145139D01*
X122875000Y-42150000D01*
X122875000Y-42600000D01*
X122874032Y-42604862D01*
X122868876Y-42649317D01*
X122862168Y-42664506D01*
X122857873Y-42686104D01*
X122842422Y-42709227D01*
X122834766Y-42726567D01*
X122822923Y-42738409D01*
X122809099Y-42759099D01*
X122788409Y-42772923D01*
X122776567Y-42784766D01*
X122759227Y-42792422D01*
X122736104Y-42807873D01*
X122714506Y-42812168D01*
X122699317Y-42818876D01*
X122654861Y-42824032D01*
X122650000Y-42825000D01*
X122150000Y-42825000D01*
X122145138Y-42824033D01*
X122100682Y-42818876D01*
X122085491Y-42812168D01*
X122063896Y-42807873D01*
X122040774Y-42792423D01*
X122023432Y-42784766D01*
X122011587Y-42772921D01*
X121990901Y-42759099D01*
X121977078Y-42738412D01*
X121965233Y-42726567D01*
X121957574Y-42709222D01*
X121942127Y-42686104D01*
X121937831Y-42664510D01*
X121931123Y-42649317D01*
X121925964Y-42604849D01*
X121925000Y-42600000D01*
X121925000Y-42150000D01*
X121925964Y-42145150D01*
X121931123Y-42100682D01*
X121937832Y-42085487D01*
X121942127Y-42063896D01*
X121957573Y-42040779D01*
X121965233Y-42023432D01*
X121977080Y-42011584D01*
X121990901Y-41990901D01*
X122011584Y-41977080D01*
X122023432Y-41965233D01*
X122040779Y-41957573D01*
X122063896Y-41942127D01*
X122085487Y-41937832D01*
X122100682Y-41931123D01*
X122145151Y-41925964D01*
X122150000Y-41925000D01*
X122650000Y-41925000D01*
X122654850Y-41925964D01*
G37*
G36*
X68357668Y-39778945D02*
G01*
X68581525Y-39851681D01*
X68791248Y-39958540D01*
X68981672Y-40096891D01*
X69148109Y-40263328D01*
X69286460Y-40453752D01*
X69393319Y-40663475D01*
X69466055Y-40887332D01*
X69502876Y-41119811D01*
X69502876Y-41355189D01*
X69466055Y-41587668D01*
X69393319Y-41811525D01*
X69286460Y-42021248D01*
X69148109Y-42211672D01*
X68981672Y-42378109D01*
X68791248Y-42516460D01*
X68581525Y-42623319D01*
X68357668Y-42696055D01*
X68125189Y-42732876D01*
X67889811Y-42732876D01*
X67657332Y-42696055D01*
X67433475Y-42623319D01*
X67223752Y-42516460D01*
X67033328Y-42378109D01*
X66866891Y-42211672D01*
X66728540Y-42021248D01*
X66621681Y-41811525D01*
X66548945Y-41587668D01*
X66512124Y-41355189D01*
X66512124Y-41119811D01*
X66548945Y-40887332D01*
X66621681Y-40663475D01*
X66728540Y-40453752D01*
X66866891Y-40263328D01*
X67033328Y-40096891D01*
X67223752Y-39958540D01*
X67433475Y-39851681D01*
X67657332Y-39778945D01*
X67889811Y-39742124D01*
X68125189Y-39742124D01*
X68357668Y-39778945D01*
G37*
G36*
X115752500Y-42341000D02*
G01*
X114247500Y-42341000D01*
X114247500Y-41539000D01*
X115752500Y-41539000D01*
X115752500Y-42341000D01*
G37*
G36*
X120747500Y-42341000D02*
G01*
X119242500Y-42341000D01*
X119242500Y-41539000D01*
X120747500Y-41539000D01*
X120747500Y-42341000D01*
G37*
G36*
X122654850Y-40375964D02*
G01*
X122699317Y-40381123D01*
X122714510Y-40387831D01*
X122736104Y-40392127D01*
X122759222Y-40407574D01*
X122776567Y-40415233D01*
X122788412Y-40427078D01*
X122809099Y-40440901D01*
X122822921Y-40461587D01*
X122834766Y-40473432D01*
X122842423Y-40490774D01*
X122857873Y-40513896D01*
X122862168Y-40535491D01*
X122868876Y-40550682D01*
X122874033Y-40595139D01*
X122875000Y-40600000D01*
X122875000Y-41050000D01*
X122874032Y-41054862D01*
X122868876Y-41099317D01*
X122862168Y-41114506D01*
X122857873Y-41136104D01*
X122842422Y-41159227D01*
X122834766Y-41176567D01*
X122822923Y-41188409D01*
X122809099Y-41209099D01*
X122788409Y-41222923D01*
X122776567Y-41234766D01*
X122759227Y-41242422D01*
X122736104Y-41257873D01*
X122714506Y-41262168D01*
X122699317Y-41268876D01*
X122654861Y-41274032D01*
X122650000Y-41275000D01*
X122150000Y-41275000D01*
X122145138Y-41274033D01*
X122100682Y-41268876D01*
X122085491Y-41262168D01*
X122063896Y-41257873D01*
X122040774Y-41242423D01*
X122023432Y-41234766D01*
X122011587Y-41222921D01*
X121990901Y-41209099D01*
X121977078Y-41188412D01*
X121965233Y-41176567D01*
X121957574Y-41159222D01*
X121942127Y-41136104D01*
X121937831Y-41114510D01*
X121931123Y-41099317D01*
X121925964Y-41054849D01*
X121925000Y-41050000D01*
X121925000Y-40600000D01*
X121925964Y-40595150D01*
X121931123Y-40550682D01*
X121937832Y-40535487D01*
X121942127Y-40513896D01*
X121957573Y-40490779D01*
X121965233Y-40473432D01*
X121977080Y-40461584D01*
X121990901Y-40440901D01*
X122011584Y-40427080D01*
X122023432Y-40415233D01*
X122040779Y-40407573D01*
X122063896Y-40392127D01*
X122085487Y-40387832D01*
X122100682Y-40381123D01*
X122145151Y-40375964D01*
X122150000Y-40375000D01*
X122650000Y-40375000D01*
X122654850Y-40375964D01*
G37*
G36*
X125461100Y-40375963D02*
G01*
X125504136Y-40380956D01*
X125518840Y-40387448D01*
X125539962Y-40391650D01*
X125562576Y-40406760D01*
X125579285Y-40414138D01*
X125590696Y-40425549D01*
X125610930Y-40439069D01*
X125624449Y-40459302D01*
X125635860Y-40470713D01*
X125643237Y-40487420D01*
X125658349Y-40510037D01*
X125662550Y-40531160D01*
X125669042Y-40545862D01*
X125674033Y-40588888D01*
X125675000Y-40593749D01*
X125675000Y-41031249D01*
X125674032Y-41036111D01*
X125669042Y-41079135D01*
X125662551Y-41093835D01*
X125658349Y-41114961D01*
X125643235Y-41137579D01*
X125635860Y-41154284D01*
X125624451Y-41165692D01*
X125610930Y-41185929D01*
X125590693Y-41199450D01*
X125579285Y-41210859D01*
X125562580Y-41218234D01*
X125539962Y-41233348D01*
X125518836Y-41237550D01*
X125504136Y-41244041D01*
X125461111Y-41249031D01*
X125456250Y-41249999D01*
X124943750Y-41249999D01*
X124938888Y-41249031D01*
X124895863Y-41244041D01*
X124881161Y-41237549D01*
X124860038Y-41233348D01*
X124837421Y-41218236D01*
X124820714Y-41210859D01*
X124809303Y-41199448D01*
X124789070Y-41185929D01*
X124775550Y-41165695D01*
X124764139Y-41154284D01*
X124756761Y-41137575D01*
X124741651Y-41114961D01*
X124737449Y-41093839D01*
X124730957Y-41079135D01*
X124725964Y-41036098D01*
X124725000Y-41031249D01*
X124725000Y-40593749D01*
X124725964Y-40588899D01*
X124730957Y-40545862D01*
X124737450Y-40531156D01*
X124741651Y-40510037D01*
X124756759Y-40487424D01*
X124764139Y-40470713D01*
X124775552Y-40459299D01*
X124789070Y-40439069D01*
X124809300Y-40425551D01*
X124820714Y-40414138D01*
X124837425Y-40406758D01*
X124860038Y-40391650D01*
X124881157Y-40387449D01*
X124895863Y-40380956D01*
X124938901Y-40375963D01*
X124943750Y-40374999D01*
X125456250Y-40374999D01*
X125461100Y-40375963D01*
G37*
G36*
X112279850Y-40150964D02*
G01*
X112330040Y-40156787D01*
X112347189Y-40164359D01*
X112370671Y-40169030D01*
X112395810Y-40185827D01*
X112415696Y-40194608D01*
X112429277Y-40208189D01*
X112451777Y-40223223D01*
X112466810Y-40245722D01*
X112480391Y-40259303D01*
X112489170Y-40279186D01*
X112505970Y-40304329D01*
X112510641Y-40327812D01*
X112518212Y-40344959D01*
X112524033Y-40395139D01*
X112525000Y-40400000D01*
X112525000Y-40900000D01*
X112524032Y-40904863D01*
X112518212Y-40955040D01*
X112510641Y-40972185D01*
X112505970Y-40995671D01*
X112489169Y-41020815D01*
X112480391Y-41040696D01*
X112466812Y-41054274D01*
X112451777Y-41076777D01*
X112429274Y-41091812D01*
X112415696Y-41105391D01*
X112395815Y-41114169D01*
X112370671Y-41130970D01*
X112347185Y-41135641D01*
X112330040Y-41143212D01*
X112279861Y-41149032D01*
X112275000Y-41150000D01*
X111325000Y-41150000D01*
X111320138Y-41149032D01*
X111269959Y-41143212D01*
X111252812Y-41135641D01*
X111229329Y-41130970D01*
X111204186Y-41114170D01*
X111184303Y-41105391D01*
X111170722Y-41091810D01*
X111148223Y-41076777D01*
X111133189Y-41054277D01*
X111119608Y-41040696D01*
X111110827Y-41020810D01*
X111094030Y-40995671D01*
X111089359Y-40972189D01*
X111081787Y-40955040D01*
X111075964Y-40904849D01*
X111075000Y-40900000D01*
X111075000Y-40400000D01*
X111075964Y-40395150D01*
X111081787Y-40344959D01*
X111089359Y-40327808D01*
X111094030Y-40304329D01*
X111110826Y-40279191D01*
X111119608Y-40259303D01*
X111133191Y-40245719D01*
X111148223Y-40223223D01*
X111170719Y-40208191D01*
X111184303Y-40194608D01*
X111204191Y-40185826D01*
X111229329Y-40169030D01*
X111252808Y-40164359D01*
X111269959Y-40156787D01*
X111320151Y-40150964D01*
X111325000Y-40150000D01*
X112275000Y-40150000D01*
X112279850Y-40150964D01*
G37*
G36*
X115752500Y-41071000D02*
G01*
X114247500Y-41071000D01*
X114247500Y-40269000D01*
X115752500Y-40269000D01*
X115752500Y-41071000D01*
G37*
G36*
X120747500Y-41071000D02*
G01*
X119242500Y-41071000D01*
X119242500Y-40269000D01*
X120747500Y-40269000D01*
X120747500Y-41071000D01*
G37*
G36*
X115752500Y-39801000D02*
G01*
X114247500Y-39801000D01*
X114247500Y-38999000D01*
X115752500Y-38999000D01*
X115752500Y-39801000D01*
G37*
G36*
X120747500Y-39801000D02*
G01*
X119242500Y-39801000D01*
X119242500Y-38999000D01*
X120747500Y-38999000D01*
X120747500Y-39801000D01*
G37*
G36*
X112279850Y-38250964D02*
G01*
X112330040Y-38256787D01*
X112347189Y-38264359D01*
X112370671Y-38269030D01*
X112395810Y-38285827D01*
X112415696Y-38294608D01*
X112429277Y-38308189D01*
X112451777Y-38323223D01*
X112466810Y-38345722D01*
X112480391Y-38359303D01*
X112489170Y-38379186D01*
X112505970Y-38404329D01*
X112510641Y-38427812D01*
X112518212Y-38444959D01*
X112524033Y-38495139D01*
X112525000Y-38500000D01*
X112525000Y-39000000D01*
X112524032Y-39004863D01*
X112518212Y-39055040D01*
X112510641Y-39072185D01*
X112505970Y-39095671D01*
X112489169Y-39120815D01*
X112480391Y-39140696D01*
X112466812Y-39154274D01*
X112451777Y-39176777D01*
X112429274Y-39191812D01*
X112415696Y-39205391D01*
X112395815Y-39214169D01*
X112370671Y-39230970D01*
X112347185Y-39235641D01*
X112330040Y-39243212D01*
X112279861Y-39249032D01*
X112275000Y-39250000D01*
X111325000Y-39250000D01*
X111320138Y-39249032D01*
X111269959Y-39243212D01*
X111252812Y-39235641D01*
X111229329Y-39230970D01*
X111204186Y-39214170D01*
X111184303Y-39205391D01*
X111170722Y-39191810D01*
X111148223Y-39176777D01*
X111133189Y-39154277D01*
X111119608Y-39140696D01*
X111110827Y-39120810D01*
X111094030Y-39095671D01*
X111089359Y-39072189D01*
X111081787Y-39055040D01*
X111075964Y-39004849D01*
X111075000Y-39000000D01*
X111075000Y-38500000D01*
X111075964Y-38495150D01*
X111081787Y-38444959D01*
X111089359Y-38427808D01*
X111094030Y-38404329D01*
X111110826Y-38379191D01*
X111119608Y-38359303D01*
X111133191Y-38345719D01*
X111148223Y-38323223D01*
X111170719Y-38308191D01*
X111184303Y-38294608D01*
X111204191Y-38285826D01*
X111229329Y-38269030D01*
X111252808Y-38264359D01*
X111269959Y-38256787D01*
X111320151Y-38250964D01*
X111325000Y-38250000D01*
X112275000Y-38250000D01*
X112279850Y-38250964D01*
G37*
G36*
X125551537Y-38415224D02*
G01*
X125616421Y-38458579D01*
X125659776Y-38523463D01*
X125675000Y-38600000D01*
X125675000Y-39000000D01*
X125659776Y-39076537D01*
X125616421Y-39141421D01*
X125551537Y-39184776D01*
X125475000Y-39200000D01*
X124925000Y-39200000D01*
X124848463Y-39184776D01*
X124783579Y-39141421D01*
X124740224Y-39076537D01*
X124725000Y-39000000D01*
X124725000Y-38600000D01*
X124740224Y-38523463D01*
X124783579Y-38458579D01*
X124848463Y-38415224D01*
X124925000Y-38400000D01*
X125475000Y-38400000D01*
X125551537Y-38415224D01*
G37*
G36*
X106254850Y-34800964D02*
G01*
X106305040Y-34806787D01*
X106322189Y-34814359D01*
X106345671Y-34819030D01*
X106370810Y-34835827D01*
X106390696Y-34844608D01*
X106404277Y-34858189D01*
X106426777Y-34873223D01*
X106441810Y-34895722D01*
X106455391Y-34909303D01*
X106464170Y-34929186D01*
X106480970Y-34954329D01*
X106485641Y-34977812D01*
X106493212Y-34994959D01*
X106499033Y-35045139D01*
X106500000Y-35050000D01*
X106500000Y-38050000D01*
X106499032Y-38054863D01*
X106493212Y-38105040D01*
X106485641Y-38122185D01*
X106480970Y-38145671D01*
X106464169Y-38170815D01*
X106455391Y-38190696D01*
X106441812Y-38204274D01*
X106426777Y-38226777D01*
X106404274Y-38241812D01*
X106390696Y-38255391D01*
X106370815Y-38264169D01*
X106345671Y-38280970D01*
X106322185Y-38285641D01*
X106305040Y-38293212D01*
X106254861Y-38299032D01*
X106250000Y-38300000D01*
X105150000Y-38300000D01*
X105145138Y-38299032D01*
X105094959Y-38293212D01*
X105077812Y-38285641D01*
X105054329Y-38280970D01*
X105029186Y-38264170D01*
X105009303Y-38255391D01*
X104995722Y-38241810D01*
X104973223Y-38226777D01*
X104958189Y-38204277D01*
X104944608Y-38190696D01*
X104935827Y-38170810D01*
X104919030Y-38145671D01*
X104914359Y-38122189D01*
X104906787Y-38105040D01*
X104900964Y-38054849D01*
X104900000Y-38050000D01*
X104900000Y-35050000D01*
X104900964Y-35045150D01*
X104906787Y-34994959D01*
X104914359Y-34977808D01*
X104919030Y-34954329D01*
X104935826Y-34929191D01*
X104944608Y-34909303D01*
X104958191Y-34895719D01*
X104973223Y-34873223D01*
X104995719Y-34858191D01*
X105009303Y-34844608D01*
X105029191Y-34835826D01*
X105054329Y-34819030D01*
X105077808Y-34814359D01*
X105094959Y-34806787D01*
X105145151Y-34800964D01*
X105150000Y-34800000D01*
X106250000Y-34800000D01*
X106254850Y-34800964D01*
G37*
G36*
X122839034Y-36405765D02*
G01*
X122872125Y-36427876D01*
X122894236Y-36460967D01*
X122902000Y-36500001D01*
X122902000Y-38000001D01*
X122894236Y-38039035D01*
X122872125Y-38072126D01*
X122839034Y-38094237D01*
X122800000Y-38102001D01*
X120400000Y-38102001D01*
X120360966Y-38094237D01*
X120327875Y-38072126D01*
X120305764Y-38039035D01*
X120298000Y-38000001D01*
X120298000Y-36500001D01*
X120305764Y-36460967D01*
X120327875Y-36427876D01*
X120360966Y-36405765D01*
X120400000Y-36398001D01*
X122800000Y-36398001D01*
X122839034Y-36405765D01*
G37*
G36*
X114029850Y-36925964D02*
G01*
X114074317Y-36931123D01*
X114089510Y-36937831D01*
X114111104Y-36942127D01*
X114134222Y-36957574D01*
X114151567Y-36965233D01*
X114163412Y-36977078D01*
X114184099Y-36990901D01*
X114197921Y-37011587D01*
X114209766Y-37023432D01*
X114217423Y-37040774D01*
X114232873Y-37063896D01*
X114237168Y-37085491D01*
X114243876Y-37100682D01*
X114249033Y-37145139D01*
X114250000Y-37150000D01*
X114250000Y-37650000D01*
X114249032Y-37654862D01*
X114243876Y-37699317D01*
X114237168Y-37714506D01*
X114232873Y-37736104D01*
X114217422Y-37759227D01*
X114209766Y-37776567D01*
X114197923Y-37788409D01*
X114184099Y-37809099D01*
X114163409Y-37822923D01*
X114151567Y-37834766D01*
X114134227Y-37842422D01*
X114111104Y-37857873D01*
X114089506Y-37862168D01*
X114074317Y-37868876D01*
X114029861Y-37874032D01*
X114025000Y-37875000D01*
X113575000Y-37875000D01*
X113570138Y-37874033D01*
X113525682Y-37868876D01*
X113510491Y-37862168D01*
X113488896Y-37857873D01*
X113465774Y-37842423D01*
X113448432Y-37834766D01*
X113436587Y-37822921D01*
X113415901Y-37809099D01*
X113402078Y-37788412D01*
X113390233Y-37776567D01*
X113382574Y-37759222D01*
X113367127Y-37736104D01*
X113362831Y-37714510D01*
X113356123Y-37699317D01*
X113350964Y-37654849D01*
X113350000Y-37650000D01*
X113350000Y-37150000D01*
X113350964Y-37145150D01*
X113356123Y-37100682D01*
X113362832Y-37085487D01*
X113367127Y-37063896D01*
X113382573Y-37040779D01*
X113390233Y-37023432D01*
X113402080Y-37011584D01*
X113415901Y-36990901D01*
X113436584Y-36977080D01*
X113448432Y-36965233D01*
X113465779Y-36957573D01*
X113488896Y-36942127D01*
X113510487Y-36937832D01*
X113525682Y-36931123D01*
X113570151Y-36925964D01*
X113575000Y-36925000D01*
X114025000Y-36925000D01*
X114029850Y-36925964D01*
G37*
G36*
X115579850Y-36925964D02*
G01*
X115624317Y-36931123D01*
X115639510Y-36937831D01*
X115661104Y-36942127D01*
X115684222Y-36957574D01*
X115701567Y-36965233D01*
X115713412Y-36977078D01*
X115734099Y-36990901D01*
X115747921Y-37011587D01*
X115759766Y-37023432D01*
X115767423Y-37040774D01*
X115782873Y-37063896D01*
X115787168Y-37085491D01*
X115793876Y-37100682D01*
X115799033Y-37145139D01*
X115800000Y-37150000D01*
X115800000Y-37650000D01*
X115799032Y-37654862D01*
X115793876Y-37699317D01*
X115787168Y-37714506D01*
X115782873Y-37736104D01*
X115767422Y-37759227D01*
X115759766Y-37776567D01*
X115747923Y-37788409D01*
X115734099Y-37809099D01*
X115713409Y-37822923D01*
X115701567Y-37834766D01*
X115684227Y-37842422D01*
X115661104Y-37857873D01*
X115639506Y-37862168D01*
X115624317Y-37868876D01*
X115579861Y-37874032D01*
X115575000Y-37875000D01*
X115125000Y-37875000D01*
X115120138Y-37874033D01*
X115075682Y-37868876D01*
X115060491Y-37862168D01*
X115038896Y-37857873D01*
X115015774Y-37842423D01*
X114998432Y-37834766D01*
X114986587Y-37822921D01*
X114965901Y-37809099D01*
X114952078Y-37788412D01*
X114940233Y-37776567D01*
X114932574Y-37759222D01*
X114917127Y-37736104D01*
X114912831Y-37714510D01*
X114906123Y-37699317D01*
X114900964Y-37654849D01*
X114900000Y-37650000D01*
X114900000Y-37150000D01*
X114900964Y-37145150D01*
X114906123Y-37100682D01*
X114912832Y-37085487D01*
X114917127Y-37063896D01*
X114932573Y-37040779D01*
X114940233Y-37023432D01*
X114952080Y-37011584D01*
X114965901Y-36990901D01*
X114986584Y-36977080D01*
X114998432Y-36965233D01*
X115015779Y-36957573D01*
X115038896Y-36942127D01*
X115060487Y-36937832D01*
X115075682Y-36931123D01*
X115120151Y-36925964D01*
X115125000Y-36925000D01*
X115575000Y-36925000D01*
X115579850Y-36925964D01*
G37*
G36*
X125551537Y-36765224D02*
G01*
X125616421Y-36808579D01*
X125659776Y-36873463D01*
X125675000Y-36950000D01*
X125675000Y-37350000D01*
X125659776Y-37426537D01*
X125616421Y-37491421D01*
X125551537Y-37534776D01*
X125475000Y-37550000D01*
X124925000Y-37550000D01*
X124848463Y-37534776D01*
X124783579Y-37491421D01*
X124740224Y-37426537D01*
X124725000Y-37350000D01*
X124725000Y-36950000D01*
X124740224Y-36873463D01*
X124783579Y-36808579D01*
X124848463Y-36765224D01*
X124925000Y-36750000D01*
X125475000Y-36750000D01*
X125551537Y-36765224D01*
G37*
G36*
X113879850Y-33688464D02*
G01*
X113930040Y-33694287D01*
X113947189Y-33701859D01*
X113970671Y-33706530D01*
X113995810Y-33723327D01*
X114015696Y-33732108D01*
X114029277Y-33745689D01*
X114051777Y-33760723D01*
X114066810Y-33783222D01*
X114080391Y-33796803D01*
X114089170Y-33816686D01*
X114105970Y-33841829D01*
X114110641Y-33865312D01*
X114118212Y-33882459D01*
X114124033Y-33932639D01*
X114125000Y-33937500D01*
X114125000Y-34437500D01*
X114124032Y-34442363D01*
X114118212Y-34492540D01*
X114110641Y-34509685D01*
X114105970Y-34533171D01*
X114089169Y-34558315D01*
X114080391Y-34578196D01*
X114066812Y-34591774D01*
X114051777Y-34614277D01*
X114029274Y-34629312D01*
X114015696Y-34642891D01*
X113995815Y-34651669D01*
X113970671Y-34668470D01*
X113947185Y-34673141D01*
X113930040Y-34680712D01*
X113879861Y-34686532D01*
X113875000Y-34687500D01*
X112925000Y-34687500D01*
X112920138Y-34686532D01*
X112869959Y-34680712D01*
X112852812Y-34673141D01*
X112829329Y-34668470D01*
X112804186Y-34651670D01*
X112784303Y-34642891D01*
X112770722Y-34629310D01*
X112748223Y-34614277D01*
X112733189Y-34591777D01*
X112719608Y-34578196D01*
X112710827Y-34558310D01*
X112694030Y-34533171D01*
X112689359Y-34509689D01*
X112681787Y-34492540D01*
X112675964Y-34442349D01*
X112675000Y-34437500D01*
X112675000Y-33937500D01*
X112675964Y-33932650D01*
X112681787Y-33882459D01*
X112689359Y-33865308D01*
X112694030Y-33841829D01*
X112710826Y-33816691D01*
X112719608Y-33796803D01*
X112733191Y-33783219D01*
X112748223Y-33760723D01*
X112770719Y-33745691D01*
X112784303Y-33732108D01*
X112804191Y-33723326D01*
X112829329Y-33706530D01*
X112852808Y-33701859D01*
X112869959Y-33694287D01*
X112920151Y-33688464D01*
X112925000Y-33687500D01*
X113875000Y-33687500D01*
X113879850Y-33688464D01*
G37*
G36*
X117679850Y-33688464D02*
G01*
X117730040Y-33694287D01*
X117747189Y-33701859D01*
X117770671Y-33706530D01*
X117795810Y-33723327D01*
X117815696Y-33732108D01*
X117829277Y-33745689D01*
X117851777Y-33760723D01*
X117866810Y-33783222D01*
X117880391Y-33796803D01*
X117889170Y-33816686D01*
X117905970Y-33841829D01*
X117910641Y-33865312D01*
X117918212Y-33882459D01*
X117924033Y-33932639D01*
X117925000Y-33937500D01*
X117925000Y-34437500D01*
X117924032Y-34442363D01*
X117918212Y-34492540D01*
X117910641Y-34509685D01*
X117905970Y-34533171D01*
X117889169Y-34558315D01*
X117880391Y-34578196D01*
X117866812Y-34591774D01*
X117851777Y-34614277D01*
X117829274Y-34629312D01*
X117815696Y-34642891D01*
X117795815Y-34651669D01*
X117770671Y-34668470D01*
X117747185Y-34673141D01*
X117730040Y-34680712D01*
X117679861Y-34686532D01*
X117675000Y-34687500D01*
X116725000Y-34687500D01*
X116720138Y-34686532D01*
X116669959Y-34680712D01*
X116652812Y-34673141D01*
X116629329Y-34668470D01*
X116604186Y-34651670D01*
X116584303Y-34642891D01*
X116570722Y-34629310D01*
X116548223Y-34614277D01*
X116533189Y-34591777D01*
X116519608Y-34578196D01*
X116510827Y-34558310D01*
X116494030Y-34533171D01*
X116489359Y-34509689D01*
X116481787Y-34492540D01*
X116475964Y-34442349D01*
X116475000Y-34437500D01*
X116475000Y-33937500D01*
X116475964Y-33932650D01*
X116481787Y-33882459D01*
X116489359Y-33865308D01*
X116494030Y-33841829D01*
X116510826Y-33816691D01*
X116519608Y-33796803D01*
X116533191Y-33783219D01*
X116548223Y-33760723D01*
X116570719Y-33745691D01*
X116584303Y-33732108D01*
X116604191Y-33723326D01*
X116629329Y-33706530D01*
X116652808Y-33701859D01*
X116669959Y-33694287D01*
X116720151Y-33688464D01*
X116725000Y-33687500D01*
X117675000Y-33687500D01*
X117679850Y-33688464D01*
G37*
G36*
X122839034Y-32705763D02*
G01*
X122872125Y-32727874D01*
X122894236Y-32760965D01*
X122902000Y-32799999D01*
X122902000Y-34299999D01*
X122894236Y-34339033D01*
X122872125Y-34372124D01*
X122839034Y-34394235D01*
X122800000Y-34401999D01*
X120400000Y-34401999D01*
X120360966Y-34394235D01*
X120327875Y-34372124D01*
X120305764Y-34339033D01*
X120298000Y-34299999D01*
X120298000Y-32799999D01*
X120305764Y-32760965D01*
X120327875Y-32727874D01*
X120360966Y-32705763D01*
X120400000Y-32697999D01*
X122800000Y-32697999D01*
X122839034Y-32705763D01*
G37*
G36*
X62791807Y-31284538D02*
G01*
X62978354Y-31345151D01*
X63153123Y-31434200D01*
X63311810Y-31549493D01*
X63450507Y-31688190D01*
X63565800Y-31846877D01*
X63654849Y-32021646D01*
X63715462Y-32208193D01*
X63746147Y-32401926D01*
X63746147Y-32598074D01*
X63715462Y-32791807D01*
X63654849Y-32978354D01*
X63565800Y-33153123D01*
X63450507Y-33311810D01*
X63311810Y-33450507D01*
X63153123Y-33565800D01*
X62978354Y-33654849D01*
X62791807Y-33715462D01*
X62598074Y-33746147D01*
X62401926Y-33746147D01*
X62208193Y-33715462D01*
X62021646Y-33654849D01*
X61846877Y-33565800D01*
X61688190Y-33450507D01*
X61549493Y-33311810D01*
X61434200Y-33153123D01*
X61345151Y-32978354D01*
X61284538Y-32791807D01*
X61253853Y-32598074D01*
X61253853Y-32401926D01*
X61284538Y-32208193D01*
X61345151Y-32021646D01*
X61434200Y-31846877D01*
X61549493Y-31688190D01*
X61688190Y-31549493D01*
X61846877Y-31434200D01*
X62021646Y-31345151D01*
X62208193Y-31284538D01*
X62401926Y-31253853D01*
X62598074Y-31253853D01*
X62791807Y-31284538D01*
G37*
G36*
X127891807Y-31284538D02*
G01*
X128078354Y-31345151D01*
X128253123Y-31434200D01*
X128411810Y-31549493D01*
X128550507Y-31688190D01*
X128665800Y-31846877D01*
X128754849Y-32021646D01*
X128815462Y-32208193D01*
X128846147Y-32401926D01*
X128846147Y-32598074D01*
X128815462Y-32791807D01*
X128754849Y-32978354D01*
X128665800Y-33153123D01*
X128550507Y-33311810D01*
X128411810Y-33450507D01*
X128253123Y-33565800D01*
X128078354Y-33654849D01*
X127891807Y-33715462D01*
X127698074Y-33746147D01*
X127501926Y-33746147D01*
X127308193Y-33715462D01*
X127121646Y-33654849D01*
X126946877Y-33565800D01*
X126788190Y-33450507D01*
X126649493Y-33311810D01*
X126534200Y-33153123D01*
X126445151Y-32978354D01*
X126384538Y-32791807D01*
X126353853Y-32598074D01*
X126353853Y-32401926D01*
X126384538Y-32208193D01*
X126445151Y-32021646D01*
X126534200Y-31846877D01*
X126649493Y-31688190D01*
X126788190Y-31549493D01*
X126946877Y-31434200D01*
X127121646Y-31345151D01*
X127308193Y-31284538D01*
X127501926Y-31253853D01*
X127698074Y-31253853D01*
X127891807Y-31284538D01*
G37*
G36*
X113879850Y-31788464D02*
G01*
X113930040Y-31794287D01*
X113947189Y-31801859D01*
X113970671Y-31806530D01*
X113995810Y-31823327D01*
X114015696Y-31832108D01*
X114029277Y-31845689D01*
X114051777Y-31860723D01*
X114066810Y-31883222D01*
X114080391Y-31896803D01*
X114089170Y-31916686D01*
X114105970Y-31941829D01*
X114110641Y-31965312D01*
X114118212Y-31982459D01*
X114124033Y-32032639D01*
X114125000Y-32037500D01*
X114125000Y-32537500D01*
X114124032Y-32542363D01*
X114118212Y-32592540D01*
X114110641Y-32609685D01*
X114105970Y-32633171D01*
X114089169Y-32658315D01*
X114080391Y-32678196D01*
X114066812Y-32691774D01*
X114051777Y-32714277D01*
X114029274Y-32729312D01*
X114015696Y-32742891D01*
X113995815Y-32751669D01*
X113970671Y-32768470D01*
X113947185Y-32773141D01*
X113930040Y-32780712D01*
X113879861Y-32786532D01*
X113875000Y-32787500D01*
X112925000Y-32787500D01*
X112920138Y-32786532D01*
X112869959Y-32780712D01*
X112852812Y-32773141D01*
X112829329Y-32768470D01*
X112804186Y-32751670D01*
X112784303Y-32742891D01*
X112770722Y-32729310D01*
X112748223Y-32714277D01*
X112733189Y-32691777D01*
X112719608Y-32678196D01*
X112710827Y-32658310D01*
X112694030Y-32633171D01*
X112689359Y-32609689D01*
X112681787Y-32592540D01*
X112675964Y-32542349D01*
X112675000Y-32537500D01*
X112675000Y-32037500D01*
X112675964Y-32032650D01*
X112681787Y-31982459D01*
X112689359Y-31965308D01*
X112694030Y-31941829D01*
X112710826Y-31916691D01*
X112719608Y-31896803D01*
X112733191Y-31883219D01*
X112748223Y-31860723D01*
X112770719Y-31845691D01*
X112784303Y-31832108D01*
X112804191Y-31823326D01*
X112829329Y-31806530D01*
X112852808Y-31801859D01*
X112869959Y-31794287D01*
X112920151Y-31788464D01*
X112925000Y-31787500D01*
X113875000Y-31787500D01*
X113879850Y-31788464D01*
G37*
G36*
X117679850Y-31788464D02*
G01*
X117730040Y-31794287D01*
X117747189Y-31801859D01*
X117770671Y-31806530D01*
X117795810Y-31823327D01*
X117815696Y-31832108D01*
X117829277Y-31845689D01*
X117851777Y-31860723D01*
X117866810Y-31883222D01*
X117880391Y-31896803D01*
X117889170Y-31916686D01*
X117905970Y-31941829D01*
X117910641Y-31965312D01*
X117918212Y-31982459D01*
X117924033Y-32032639D01*
X117925000Y-32037500D01*
X117925000Y-32537500D01*
X117924032Y-32542363D01*
X117918212Y-32592540D01*
X117910641Y-32609685D01*
X117905970Y-32633171D01*
X117889169Y-32658315D01*
X117880391Y-32678196D01*
X117866812Y-32691774D01*
X117851777Y-32714277D01*
X117829274Y-32729312D01*
X117815696Y-32742891D01*
X117795815Y-32751669D01*
X117770671Y-32768470D01*
X117747185Y-32773141D01*
X117730040Y-32780712D01*
X117679861Y-32786532D01*
X117675000Y-32787500D01*
X116725000Y-32787500D01*
X116720138Y-32786532D01*
X116669959Y-32780712D01*
X116652812Y-32773141D01*
X116629329Y-32768470D01*
X116604186Y-32751670D01*
X116584303Y-32742891D01*
X116570722Y-32729310D01*
X116548223Y-32714277D01*
X116533189Y-32691777D01*
X116519608Y-32678196D01*
X116510827Y-32658310D01*
X116494030Y-32633171D01*
X116489359Y-32609689D01*
X116481787Y-32592540D01*
X116475964Y-32542349D01*
X116475000Y-32537500D01*
X116475000Y-32037500D01*
X116475964Y-32032650D01*
X116481787Y-31982459D01*
X116489359Y-31965308D01*
X116494030Y-31941829D01*
X116510826Y-31916691D01*
X116519608Y-31896803D01*
X116533191Y-31883219D01*
X116548223Y-31860723D01*
X116570719Y-31845691D01*
X116584303Y-31832108D01*
X116604191Y-31823326D01*
X116629329Y-31806530D01*
X116652808Y-31801859D01*
X116669959Y-31794287D01*
X116720151Y-31788464D01*
X116725000Y-31787500D01*
X117675000Y-31787500D01*
X117679850Y-31788464D01*
G37*
M02*
