%TF.GenerationSoftware,KiCad,Pcbnew,9.0.3*%
%TF.CreationDate,2025-07-27T16:10:42+12:00*%
%TF.ProjectId,ES-Speed-Box-Controller,45532d53-7065-4656-942d-426f782d436f,rev?*%
%TF.SameCoordinates,Original*%
%TF.FileFunction,Copper,L2,Bot*%
%TF.FilePolarity,Positive*%
%FSLAX46Y46*%
G04 Gerber Fmt 4.6, Leading zero omitted, Abs format (unit mm)*
G04 Created by KiCad (PCBNEW 9.0.3) date 2025-07-27 16:10:42*
%MOMM*%
%LPD*%
G01*
G04 APERTURE LIST*
%TA.AperFunction,ComponentPad*%
%ADD10R,1.508000X1.508000*%
%TD*%
%TA.AperFunction,ComponentPad*%
%ADD11C,1.508000*%
%TD*%
%TA.AperFunction,ComponentPad*%
%ADD12R,1.710000X1.800000*%
%TD*%
%TA.AperFunction,ComponentPad*%
%ADD13O,1.710000X1.800000*%
%TD*%
%TA.AperFunction,HeatsinkPad*%
%ADD14C,0.600000*%
%TD*%
%TA.AperFunction,ComponentPad*%
%ADD15R,3.000000X3.000000*%
%TD*%
%TA.AperFunction,ComponentPad*%
%ADD16C,3.000000*%
%TD*%
%TA.AperFunction,ComponentPad*%
%ADD17R,1.700000X1.700000*%
%TD*%
%TA.AperFunction,ComponentPad*%
%ADD18C,1.700000*%
%TD*%
%TA.AperFunction,ViaPad*%
%ADD19C,0.600000*%
%TD*%
%TA.AperFunction,Conductor*%
%ADD20C,0.800000*%
%TD*%
%TA.AperFunction,Conductor*%
%ADD21C,0.200000*%
%TD*%
%TA.AperFunction,Conductor*%
%ADD22C,0.600000*%
%TD*%
%TA.AperFunction,Conductor*%
%ADD23C,0.127000*%
%TD*%
G04 APERTURE END LIST*
D10*
%TO.P,RV500,1,1*%
%TO.N,/IO - Power Connectors/POWER_AMP_OUT*%
X79100000Y-66594293D03*
D11*
%TO.P,RV500,2,2*%
X81600000Y-66594293D03*
%TO.P,RV500,3,3*%
%TO.N,Net-(U501-IN+)*%
X84100000Y-66594293D03*
%TD*%
D12*
%TO.P,Q500,1,E*%
%TO.N,/IO - Power Connectors/POWER_AMP_OUT*%
X102575000Y-86275002D03*
D13*
%TO.P,Q500,2,C*%
%TO.N,+24VDC*%
X100295001Y-86275002D03*
%TO.P,Q500,3,B*%
%TO.N,Net-(Q500-B)*%
X98015000Y-86275002D03*
%TD*%
D14*
%TO.P,U300,41,GND*%
%TO.N,GND*%
X121615000Y-60500000D03*
X120215000Y-60500000D03*
X122315000Y-61200000D03*
X120915000Y-61200000D03*
X119515000Y-61200000D03*
X121615000Y-61900000D03*
X120215000Y-61900000D03*
X122315000Y-62600000D03*
X120915000Y-62600000D03*
X119515000Y-62600000D03*
X121615000Y-63300000D03*
X120215000Y-63300000D03*
%TD*%
D15*
%TO.P,J601,1,Pin_1*%
%TO.N,-24VDC*%
X68007500Y-66537500D03*
D16*
%TO.P,J601,2,Pin_2*%
%TO.N,GND*%
X68007500Y-61537500D03*
%TO.P,J601,3,Pin_3*%
%TO.N,+24VDC*%
X68007500Y-56537500D03*
%TD*%
D17*
%TO.P,J302,1,Pin_1*%
%TO.N,/MCU - ESP32S3/SPEED*%
X113500000Y-91000000D03*
D18*
%TO.P,J302,2,Pin_2*%
%TO.N,GND*%
X110960000Y-91000000D03*
%TD*%
D17*
%TO.P,J300,1,Pin_1*%
%TO.N,GND*%
X114515000Y-82800000D03*
D18*
%TO.P,J300,2,Pin_2*%
%TO.N,/MCU - ESP32S3/ESP_TXD*%
X117055000Y-82800000D03*
%TO.P,J300,3,Pin_3*%
%TO.N,/MCU - ESP32S3/ESP_RXD*%
X119595000Y-82800000D03*
%TO.P,J300,4,Pin_4*%
%TO.N,+3.3VDC*%
X122135000Y-82800000D03*
%TO.P,J300,5,Pin_5*%
%TO.N,/MCU - ESP32S3/ENABLE*%
X124675000Y-82800000D03*
%TO.P,J300,6,Pin_6*%
%TO.N,/MCU - ESP32S3/BOOT*%
X127215000Y-82800000D03*
%TD*%
D15*
%TO.P,J602,1,Pin_1*%
%TO.N,/IO - Power Connectors/POWER_AMP_OUT*%
X68007500Y-82437501D03*
D16*
%TO.P,J602,2,Pin_2*%
%TO.N,GND*%
X68007500Y-77437501D03*
%TD*%
D17*
%TO.P,J301,1,Pin_1*%
%TO.N,GND*%
X119380000Y-91000000D03*
D18*
%TO.P,J301,2,Pin_2*%
%TO.N,+3.3VDC*%
X121920000Y-91000000D03*
%TO.P,J301,3,Pin_3*%
%TO.N,/MCU - ESP32S3/I2C_SCL*%
X124459999Y-91000000D03*
%TO.P,J301,4,Pin_4*%
%TO.N,/MCU - ESP32S3/I2C_SDA*%
X127000000Y-91000000D03*
%TD*%
D12*
%TO.P,Q501,1,E*%
%TO.N,/IO - Power Connectors/POWER_AMP_OUT*%
X83652499Y-86275002D03*
D13*
%TO.P,Q501,2,C*%
%TO.N,-24VDC*%
X81372500Y-86275002D03*
%TO.P,Q501,3,B*%
%TO.N,Net-(Q500-B)*%
X79092499Y-86275002D03*
%TD*%
D15*
%TO.P,J600,1,Pin_1*%
%TO.N,+12VDC*%
X68007500Y-46237500D03*
D16*
%TO.P,J600,2,Pin_2*%
%TO.N,GND*%
X68007500Y-41237500D03*
%TD*%
D19*
%TO.N,GND*%
X100300000Y-65600000D03*
X77100000Y-38800000D03*
X84100000Y-39800000D03*
X117497500Y-40200000D03*
X128275000Y-48775000D03*
X82100000Y-38800000D03*
X118300000Y-42450000D03*
X111100000Y-35250000D03*
X109850000Y-36250000D03*
X101300000Y-64600000D03*
X78100000Y-38800000D03*
X83100000Y-39800000D03*
X88125000Y-73900000D03*
X111100000Y-34250000D03*
X108850000Y-34250000D03*
X89700000Y-50300000D03*
X128575000Y-70800000D03*
X83100000Y-38800000D03*
X109850000Y-35250000D03*
X99775002Y-55850000D03*
X78100000Y-39800000D03*
X117497500Y-41305000D03*
X77100000Y-39800000D03*
X116650000Y-42450000D03*
X79100000Y-39800000D03*
X109850000Y-37000000D03*
X116650000Y-40200000D03*
X78025000Y-73700000D03*
X111100000Y-37000000D03*
X107850000Y-34250000D03*
X76300000Y-59500000D03*
X112350000Y-36250000D03*
X118300000Y-40200000D03*
X79100000Y-38800000D03*
X100300000Y-70300000D03*
X101300000Y-69300000D03*
X101300000Y-70300000D03*
X76825000Y-79375000D03*
X112350000Y-37000000D03*
X118300000Y-41305000D03*
X109850000Y-34250000D03*
X83450000Y-81000000D03*
X100300000Y-64600000D03*
X100300000Y-69300000D03*
X101300000Y-65600000D03*
X108850000Y-35250000D03*
X111100000Y-36250000D03*
X117500000Y-42450000D03*
X107850000Y-35250000D03*
X82100000Y-39800000D03*
X92300000Y-53900000D03*
X84100000Y-38800000D03*
X116650000Y-41300000D03*
%TO.N,Net-(U200-SW)*%
X116375000Y-37925000D03*
X121400000Y-39400000D03*
%TO.N,+3.3VDC*%
X102900000Y-48150000D03*
X98850000Y-50400000D03*
%TO.N,/MCU - ESP32S3/ENABLE*%
X126075000Y-56100000D03*
X118675000Y-75100000D03*
%TO.N,/MCU - ESP32S3/ESP_RXD*%
X123575000Y-73600000D03*
X120900000Y-78275000D03*
%TO.N,Net-(Q500-B)*%
X82994631Y-83757756D03*
%TO.N,/IO - AD9833 DDS/SPI_CLK*%
X105900000Y-61525000D03*
X103450000Y-54000000D03*
%TO.N,/IO - AD9833 DDS/SPI_MOSI*%
X105925000Y-64500000D03*
X103450000Y-55075000D03*
%TO.N,/IO - AD9833 DDS/SPI_CS*%
X106925000Y-55925000D03*
X103428107Y-53075001D03*
%TO.N,Net-(U500-IN+)*%
X80775000Y-55800000D03*
X84450000Y-59400000D03*
%TO.N,Net-(U501-IN-)*%
X85700000Y-71950000D03*
X88500000Y-69100000D03*
X90900000Y-58800000D03*
X80850000Y-76850000D03*
%TO.N,/IO - AD9833 DDS/DDS_OUT*%
X93000000Y-48750000D03*
X90500000Y-48750000D03*
%TO.N,/MCU - ESP32S3/SPEED*%
X112200000Y-85925000D03*
X112225000Y-67225000D03*
%TD*%
D20*
%TO.N,+24VDC*%
X71200000Y-59600000D02*
X71200000Y-66850000D01*
X68137500Y-56537500D02*
X71200000Y-59600000D01*
X68000000Y-56537500D02*
X68137500Y-56537500D01*
X100295001Y-81095001D02*
X100295001Y-86275002D01*
X89700000Y-70500000D02*
X100295001Y-81095001D01*
X71200000Y-66850000D02*
X74850000Y-70500000D01*
X74850000Y-70500000D02*
X89700000Y-70500000D01*
D21*
%TO.N,Net-(U200-SW)*%
X119925000Y-37925000D02*
X121400000Y-39400000D01*
X119925000Y-37925000D02*
X116375000Y-37925000D01*
D22*
%TO.N,+3.3VDC*%
X121920000Y-83015000D02*
X122135000Y-82800000D01*
D21*
X101100000Y-48150000D02*
X102900000Y-48150000D01*
D22*
X122135000Y-82800000D02*
X122135000Y-83225000D01*
D21*
X98850000Y-50400000D02*
X101100000Y-48150000D01*
D22*
X121920000Y-91000000D02*
X121920000Y-83015000D01*
D21*
%TO.N,/MCU - ESP32S3/ENABLE*%
X118675000Y-73600000D02*
X126075000Y-66200000D01*
X118675000Y-75100000D02*
X118675000Y-73600000D01*
X118675000Y-77225000D02*
X124675000Y-83225000D01*
X126075000Y-66200000D02*
X126075000Y-56100000D01*
X118675000Y-75100000D02*
X118675000Y-77225000D01*
%TO.N,/MCU - ESP32S3/ESP_RXD*%
X120900000Y-78275000D02*
X120900000Y-76275000D01*
X120900000Y-76275000D02*
X123575000Y-73600000D01*
D20*
%TO.N,-24VDC*%
X64600000Y-83232001D02*
X64600000Y-69937500D01*
X78897502Y-88750000D02*
X70117999Y-88750000D01*
X70117999Y-88750000D02*
X64600000Y-83232001D01*
X64600000Y-69937500D02*
X68000000Y-66537500D01*
X81372500Y-86275002D02*
X78897502Y-88750000D01*
D21*
%TO.N,Net-(Q500-B)*%
X81609745Y-83757756D02*
X79092499Y-86275002D01*
X82994631Y-83757756D02*
X81609745Y-83757756D01*
%TO.N,/IO - AD9833 DDS/SPI_CLK*%
X103450000Y-54000000D02*
X103450000Y-53951910D01*
X103450000Y-53951910D02*
X103475735Y-53926175D01*
X105900000Y-56450000D02*
X103450000Y-54000000D01*
X105900000Y-61525000D02*
X105900000Y-56450000D01*
%TO.N,/IO - AD9833 DDS/SPI_MOSI*%
X103450000Y-55075000D02*
X103450000Y-62025000D01*
X103450000Y-62025000D02*
X105925000Y-64500000D01*
%TO.N,/IO - AD9833 DDS/SPI_CS*%
X104100000Y-53100000D02*
X103453106Y-53100000D01*
X103453106Y-53100000D02*
X103428107Y-53075001D01*
X106925000Y-55925000D02*
X104100000Y-53100000D01*
%TO.N,Net-(U500-IN+)*%
X80850000Y-55800000D02*
X80775000Y-55800000D01*
X84450000Y-59400000D02*
X80850000Y-55800000D01*
%TO.N,Net-(U501-IN-)*%
X80850000Y-76850000D02*
X85700000Y-72000000D01*
D23*
X85700000Y-72000000D02*
X85700000Y-71950000D01*
X90900000Y-66700000D02*
X90900000Y-58800000D01*
X88500000Y-69100000D02*
X90900000Y-66700000D01*
D21*
%TO.N,/IO - AD9833 DDS/DDS_OUT*%
X93000000Y-48750000D02*
X90500000Y-48750000D01*
%TO.N,/MCU - ESP32S3/SPEED*%
X112200000Y-67250000D02*
X112225000Y-67225000D01*
X112200000Y-85925000D02*
X112200000Y-67250000D01*
%TD*%
%TA.AperFunction,Conductor*%
%TO.N,+3.3VDC*%
G36*
X122139017Y-82801689D02*
G01*
X122833032Y-83266398D01*
X122837999Y-83273849D01*
X122836894Y-83281534D01*
X122223281Y-84457013D01*
X122216415Y-84462761D01*
X122212909Y-84463299D01*
X121629472Y-84463299D01*
X121621199Y-84459872D01*
X121618028Y-84454034D01*
X121366537Y-83272235D01*
X121303798Y-82977410D01*
X121305428Y-82968606D01*
X121312807Y-82963532D01*
X121312946Y-82963503D01*
X122130235Y-82799953D01*
X122139017Y-82801689D01*
G37*
%TD.AperFunction*%
%TD*%
%TA.AperFunction,Conductor*%
%TO.N,/IO - AD9833 DDS/DDS_OUT*%
G36*
X90571282Y-48460389D02*
G01*
X91086525Y-48647204D01*
X91093134Y-48653244D01*
X91094236Y-48658202D01*
X91094236Y-48841797D01*
X91090809Y-48850070D01*
X91086524Y-48852796D01*
X90571290Y-49039608D01*
X90562344Y-49039207D01*
X90556303Y-49032597D01*
X90555837Y-49030939D01*
X90499469Y-48752318D01*
X90499469Y-48747680D01*
X90555835Y-48469067D01*
X90560834Y-48461641D01*
X90569622Y-48459922D01*
X90571282Y-48460389D01*
G37*
%TD.AperFunction*%
%TD*%
%TA.AperFunction,Conductor*%
%TO.N,/MCU - ESP32S3/SPEED*%
G36*
X112300070Y-85334191D02*
G01*
X112302796Y-85338476D01*
X112489608Y-85853709D01*
X112489207Y-85862655D01*
X112482597Y-85868696D01*
X112480929Y-85869165D01*
X112202320Y-85925530D01*
X112197680Y-85925530D01*
X111919070Y-85869165D01*
X111911641Y-85864165D01*
X111909922Y-85855377D01*
X111910387Y-85853720D01*
X112097204Y-85338476D01*
X112103245Y-85331866D01*
X112108203Y-85330764D01*
X112291797Y-85330764D01*
X112300070Y-85334191D01*
G37*
%TD.AperFunction*%
%TD*%
%TA.AperFunction,Conductor*%
%TO.N,Net-(U500-IN+)*%
G36*
X81030324Y-55643465D02*
G01*
X81030684Y-55644042D01*
X81298858Y-56104188D01*
X81300063Y-56113061D01*
X81297022Y-56118352D01*
X81167213Y-56248161D01*
X81158940Y-56251588D01*
X81155004Y-56250906D01*
X80725955Y-56097623D01*
X80719317Y-56091612D01*
X80718410Y-56084354D01*
X80773353Y-55804085D01*
X80778304Y-55796631D01*
X81014109Y-55640183D01*
X81022895Y-55638465D01*
X81030324Y-55643465D01*
G37*
%TD.AperFunction*%
%TD*%
%TA.AperFunction,Conductor*%
%TO.N,+3.3VDC*%
G36*
X122219984Y-89319760D02*
G01*
X122222749Y-89324152D01*
X122749198Y-90821462D01*
X122748709Y-90830404D01*
X122742041Y-90836381D01*
X122740456Y-90836816D01*
X121922296Y-91000540D01*
X121917704Y-91000540D01*
X121099543Y-90836816D01*
X121092103Y-90831832D01*
X121090366Y-90823047D01*
X121090796Y-90821476D01*
X121617251Y-89324152D01*
X121623228Y-89317484D01*
X121628289Y-89316333D01*
X122211711Y-89316333D01*
X122219984Y-89319760D01*
G37*
%TD.AperFunction*%
%TD*%
%TA.AperFunction,Conductor*%
%TO.N,-24VDC*%
G36*
X80655966Y-85798675D02*
G01*
X80656819Y-85799189D01*
X81370873Y-86272747D01*
X81374587Y-86276733D01*
X81804435Y-87035847D01*
X81805530Y-87044735D01*
X81800019Y-87051793D01*
X81799749Y-87051941D01*
X80442951Y-87773813D01*
X80434038Y-87774674D01*
X80429183Y-87771757D01*
X79875818Y-87218392D01*
X79872391Y-87210119D01*
X79873826Y-87204505D01*
X80640087Y-85803325D01*
X80647063Y-85797712D01*
X80655966Y-85798675D01*
G37*
%TD.AperFunction*%
%TD*%
%TA.AperFunction,Conductor*%
%TO.N,/MCU - ESP32S3/SPEED*%
G36*
X112505370Y-67280721D02*
G01*
X112512798Y-67285721D01*
X112514517Y-67294509D01*
X112513877Y-67296620D01*
X112302975Y-67811967D01*
X112296670Y-67818326D01*
X112292147Y-67819236D01*
X112108574Y-67819236D01*
X112100301Y-67815809D01*
X112097417Y-67811060D01*
X111934684Y-67295937D01*
X111935460Y-67287016D01*
X111942317Y-67281256D01*
X111943500Y-67280950D01*
X112222682Y-67224469D01*
X112227318Y-67224469D01*
X112505370Y-67280721D01*
G37*
%TD.AperFunction*%
%TD*%
%TA.AperFunction,Conductor*%
%TO.N,/MCU - ESP32S3/ESP_RXD*%
G36*
X121000070Y-77684191D02*
G01*
X121002796Y-77688476D01*
X121189608Y-78203709D01*
X121189207Y-78212655D01*
X121182597Y-78218696D01*
X121180929Y-78219165D01*
X120902320Y-78275530D01*
X120897680Y-78275530D01*
X120619070Y-78219165D01*
X120611641Y-78214165D01*
X120609922Y-78205377D01*
X120610387Y-78203720D01*
X120797204Y-77688476D01*
X120803245Y-77681866D01*
X120808203Y-77680764D01*
X120991797Y-77680764D01*
X121000070Y-77684191D01*
G37*
%TD.AperFunction*%
%TD*%
%TA.AperFunction,Conductor*%
%TO.N,/MCU - ESP32S3/ENABLE*%
G36*
X123387776Y-81791387D02*
G01*
X124828300Y-81964824D01*
X124836103Y-81969215D01*
X124838516Y-81977839D01*
X124838377Y-81978711D01*
X124676650Y-82795937D01*
X124671683Y-82803388D01*
X124671662Y-82803402D01*
X123978909Y-83265130D01*
X123970124Y-83266867D01*
X123962684Y-83261883D01*
X123962138Y-83260976D01*
X123713721Y-82803402D01*
X123244876Y-81939806D01*
X123243940Y-81930901D01*
X123246883Y-81925953D01*
X123378106Y-81794730D01*
X123386378Y-81791304D01*
X123387776Y-81791387D01*
G37*
%TD.AperFunction*%
%TD*%
%TA.AperFunction,Conductor*%
%TO.N,Net-(U501-IN-)*%
G36*
X88877102Y-68637878D02*
G01*
X88880709Y-68640334D01*
X88959665Y-68719290D01*
X88963092Y-68727563D01*
X88962278Y-68731850D01*
X88797807Y-69149457D01*
X88791587Y-69155899D01*
X88784670Y-69156651D01*
X88507010Y-69102219D01*
X88499551Y-69097265D01*
X88497780Y-69092989D01*
X88443348Y-68815329D01*
X88445119Y-68806551D01*
X88450541Y-68802192D01*
X88868151Y-68637721D01*
X88877102Y-68637878D01*
G37*
%TD.AperFunction*%
%TD*%
%TA.AperFunction,Conductor*%
%TO.N,Net-(U501-IN-)*%
G36*
X81205277Y-76364902D02*
G01*
X81335097Y-76494722D01*
X81338524Y-76502995D01*
X81337422Y-76507953D01*
X81105193Y-77004373D01*
X81098583Y-77010414D01*
X81089637Y-77010013D01*
X81088127Y-77009164D01*
X80851265Y-76852015D01*
X80847984Y-76848734D01*
X80690835Y-76611872D01*
X80689116Y-76603084D01*
X80694116Y-76595655D01*
X80695621Y-76594808D01*
X81192048Y-76362576D01*
X81200992Y-76362176D01*
X81205277Y-76364902D01*
G37*
%TD.AperFunction*%
%TD*%
%TA.AperFunction,Conductor*%
%TO.N,Net-(U500-IN+)*%
G36*
X84107949Y-58912576D02*
G01*
X84418713Y-59057953D01*
X84604373Y-59144806D01*
X84610414Y-59151416D01*
X84610013Y-59160362D01*
X84609164Y-59161872D01*
X84452015Y-59398734D01*
X84448734Y-59402015D01*
X84211872Y-59559164D01*
X84203084Y-59560883D01*
X84195655Y-59555883D01*
X84194806Y-59554373D01*
X84121997Y-59398734D01*
X83962576Y-59057951D01*
X83962176Y-59049007D01*
X83964900Y-59044724D01*
X84094723Y-58914901D01*
X84102995Y-58911475D01*
X84107949Y-58912576D01*
G37*
%TD.AperFunction*%
%TD*%
%TA.AperFunction,Conductor*%
%TO.N,/IO - AD9833 DDS/SPI_CS*%
G36*
X106582949Y-55437576D02*
G01*
X106893713Y-55582953D01*
X107079373Y-55669806D01*
X107085414Y-55676416D01*
X107085013Y-55685362D01*
X107084164Y-55686872D01*
X106927015Y-55923734D01*
X106923734Y-55927015D01*
X106686872Y-56084164D01*
X106678084Y-56085883D01*
X106670655Y-56080883D01*
X106669806Y-56079373D01*
X106596997Y-55923734D01*
X106437576Y-55582951D01*
X106437176Y-55574007D01*
X106439900Y-55569724D01*
X106569723Y-55439901D01*
X106577995Y-55436475D01*
X106582949Y-55437576D01*
G37*
%TD.AperFunction*%
%TD*%
%TA.AperFunction,Conductor*%
%TO.N,Net-(U501-IN-)*%
G36*
X90906525Y-58803386D02*
G01*
X91141351Y-58961233D01*
X91146305Y-58968692D01*
X91145553Y-58975609D01*
X90966559Y-59387202D01*
X90960117Y-59393422D01*
X90955830Y-59394236D01*
X90844170Y-59394236D01*
X90835897Y-59390809D01*
X90833441Y-59387202D01*
X90654446Y-58975609D01*
X90654289Y-58966656D01*
X90658646Y-58961234D01*
X90893473Y-58803386D01*
X90902251Y-58801616D01*
X90906525Y-58803386D01*
G37*
%TD.AperFunction*%
%TD*%
%TA.AperFunction,Conductor*%
%TO.N,+24VDC*%
G36*
X69487157Y-56553800D02*
G01*
X69495390Y-56557321D01*
X69497715Y-56560750D01*
X70110774Y-57941008D01*
X70111000Y-57949960D01*
X70108354Y-57954030D01*
X69553534Y-58508850D01*
X69545261Y-58512277D01*
X69541423Y-58511629D01*
X68146497Y-58027147D01*
X68139807Y-58021197D01*
X68138684Y-58017138D01*
X68007941Y-56549678D01*
X68010620Y-56541134D01*
X68018557Y-56536986D01*
X68019716Y-56536941D01*
X69487157Y-56553800D01*
G37*
%TD.AperFunction*%
%TD*%
%TA.AperFunction,Conductor*%
%TO.N,+24VDC*%
G36*
X100694462Y-84539858D02*
G01*
X100697434Y-84544901D01*
X101130239Y-86051598D01*
X101129230Y-86060495D01*
X101122224Y-86066073D01*
X101121872Y-86066169D01*
X100297879Y-86275271D01*
X100292123Y-86275271D01*
X99641323Y-86110120D01*
X99468128Y-86066168D01*
X99460953Y-86060812D01*
X99459666Y-86051950D01*
X99459748Y-86051647D01*
X99892568Y-84544901D01*
X99898146Y-84537895D01*
X99903813Y-84536431D01*
X100686189Y-84536431D01*
X100694462Y-84539858D01*
G37*
%TD.AperFunction*%
%TD*%
%TA.AperFunction,Conductor*%
%TO.N,GND*%
G36*
X128004418Y-30500816D02*
G01*
X128204561Y-30515130D01*
X128222063Y-30517647D01*
X128413797Y-30559355D01*
X128430755Y-30564334D01*
X128614609Y-30632909D01*
X128630701Y-30640259D01*
X128802904Y-30734288D01*
X128817784Y-30743849D01*
X128974867Y-30861441D01*
X128988237Y-30873027D01*
X129126972Y-31011762D01*
X129138558Y-31025132D01*
X129256146Y-31182210D01*
X129265711Y-31197095D01*
X129359740Y-31369298D01*
X129367090Y-31385390D01*
X129435662Y-31569236D01*
X129440646Y-31586212D01*
X129482351Y-31777931D01*
X129484869Y-31795442D01*
X129499184Y-31995580D01*
X129499500Y-32004427D01*
X129499500Y-95995572D01*
X129499184Y-96004419D01*
X129484869Y-96204557D01*
X129482351Y-96222068D01*
X129440646Y-96413787D01*
X129435662Y-96430763D01*
X129367090Y-96614609D01*
X129359740Y-96630701D01*
X129265711Y-96802904D01*
X129256146Y-96817789D01*
X129138558Y-96974867D01*
X129126972Y-96988237D01*
X128988237Y-97126972D01*
X128974867Y-97138558D01*
X128817789Y-97256146D01*
X128802904Y-97265711D01*
X128630701Y-97359740D01*
X128614609Y-97367090D01*
X128430763Y-97435662D01*
X128413787Y-97440646D01*
X128222068Y-97482351D01*
X128204557Y-97484869D01*
X128023779Y-97497799D01*
X128004417Y-97499184D01*
X127995572Y-97499500D01*
X62004428Y-97499500D01*
X61995582Y-97499184D01*
X61973622Y-97497613D01*
X61795442Y-97484869D01*
X61777931Y-97482351D01*
X61586212Y-97440646D01*
X61569236Y-97435662D01*
X61385390Y-97367090D01*
X61369298Y-97359740D01*
X61197095Y-97265711D01*
X61182210Y-97256146D01*
X61025132Y-97138558D01*
X61011762Y-97126972D01*
X60873027Y-96988237D01*
X60861441Y-96974867D01*
X60743849Y-96817784D01*
X60734288Y-96802904D01*
X60640259Y-96630701D01*
X60632909Y-96614609D01*
X60581774Y-96477512D01*
X60564334Y-96430755D01*
X60559355Y-96413797D01*
X60517647Y-96222063D01*
X60515130Y-96204556D01*
X60500816Y-96004418D01*
X60500500Y-95995572D01*
X60500500Y-95381902D01*
X60999500Y-95381902D01*
X60999500Y-95618097D01*
X61036446Y-95851368D01*
X61109433Y-96075996D01*
X61174939Y-96204557D01*
X61216657Y-96286433D01*
X61355483Y-96477510D01*
X61522490Y-96644517D01*
X61713567Y-96783343D01*
X61781171Y-96817789D01*
X61924003Y-96890566D01*
X61924005Y-96890566D01*
X61924008Y-96890568D01*
X62044412Y-96929689D01*
X62148631Y-96963553D01*
X62381903Y-97000500D01*
X62381908Y-97000500D01*
X62618097Y-97000500D01*
X62851368Y-96963553D01*
X63075992Y-96890568D01*
X63286433Y-96783343D01*
X63477510Y-96644517D01*
X63644517Y-96477510D01*
X63783343Y-96286433D01*
X63890568Y-96075992D01*
X63963553Y-95851368D01*
X64000500Y-95618097D01*
X64000500Y-95381902D01*
X125999500Y-95381902D01*
X125999500Y-95618097D01*
X126036446Y-95851368D01*
X126109433Y-96075996D01*
X126174939Y-96204557D01*
X126216657Y-96286433D01*
X126355483Y-96477510D01*
X126522490Y-96644517D01*
X126713567Y-96783343D01*
X126781171Y-96817789D01*
X126924003Y-96890566D01*
X126924005Y-96890566D01*
X126924008Y-96890568D01*
X127044412Y-96929689D01*
X127148631Y-96963553D01*
X127381903Y-97000500D01*
X127381908Y-97000500D01*
X127618097Y-97000500D01*
X127851368Y-96963553D01*
X128075992Y-96890568D01*
X128286433Y-96783343D01*
X128477510Y-96644517D01*
X128644517Y-96477510D01*
X128783343Y-96286433D01*
X128890568Y-96075992D01*
X128963553Y-95851368D01*
X129000500Y-95618097D01*
X129000500Y-95381902D01*
X128963553Y-95148631D01*
X128890566Y-94924003D01*
X128783342Y-94713566D01*
X128644517Y-94522490D01*
X128477510Y-94355483D01*
X128286433Y-94216657D01*
X128075996Y-94109433D01*
X127851368Y-94036446D01*
X127618097Y-93999500D01*
X127618092Y-93999500D01*
X127381908Y-93999500D01*
X127381903Y-93999500D01*
X127148631Y-94036446D01*
X126924003Y-94109433D01*
X126713566Y-94216657D01*
X126604550Y-94295862D01*
X126522490Y-94355483D01*
X126522488Y-94355485D01*
X126522487Y-94355485D01*
X126355485Y-94522487D01*
X126355485Y-94522488D01*
X126355483Y-94522490D01*
X126295862Y-94604550D01*
X126216657Y-94713566D01*
X126109433Y-94924003D01*
X126036446Y-95148631D01*
X125999500Y-95381902D01*
X64000500Y-95381902D01*
X63963553Y-95148631D01*
X63890566Y-94924003D01*
X63783342Y-94713566D01*
X63644517Y-94522490D01*
X63477510Y-94355483D01*
X63286433Y-94216657D01*
X63075996Y-94109433D01*
X62851368Y-94036446D01*
X62618097Y-93999500D01*
X62618092Y-93999500D01*
X62381908Y-93999500D01*
X62381903Y-93999500D01*
X62148631Y-94036446D01*
X61924003Y-94109433D01*
X61713566Y-94216657D01*
X61604550Y-94295862D01*
X61522490Y-94355483D01*
X61522488Y-94355485D01*
X61522487Y-94355485D01*
X61355485Y-94522487D01*
X61355485Y-94522488D01*
X61355483Y-94522490D01*
X61295862Y-94604550D01*
X61216657Y-94713566D01*
X61109433Y-94924003D01*
X61036446Y-95148631D01*
X60999500Y-95381902D01*
X60500500Y-95381902D01*
X60500500Y-90248543D01*
X80376998Y-90248543D01*
X80415446Y-90441829D01*
X80415449Y-90441839D01*
X80490863Y-90623907D01*
X80490870Y-90623920D01*
X80600359Y-90787781D01*
X80600362Y-90787785D01*
X80739713Y-90927136D01*
X80739717Y-90927139D01*
X80903578Y-91036628D01*
X80903591Y-91036635D01*
X81064935Y-91103465D01*
X81085664Y-91112051D01*
X81085668Y-91112051D01*
X81085669Y-91112052D01*
X81278955Y-91150500D01*
X81278958Y-91150500D01*
X81476042Y-91150500D01*
X81606081Y-91124632D01*
X81669334Y-91112051D01*
X81851413Y-91036632D01*
X82015281Y-90927139D01*
X82154638Y-90787782D01*
X82264131Y-90623914D01*
X82339550Y-90441835D01*
X82377999Y-90248543D01*
X99299499Y-90248543D01*
X99337947Y-90441829D01*
X99337950Y-90441839D01*
X99413364Y-90623907D01*
X99413371Y-90623920D01*
X99522860Y-90787781D01*
X99522863Y-90787785D01*
X99662214Y-90927136D01*
X99662218Y-90927139D01*
X99826079Y-91036628D01*
X99826092Y-91036635D01*
X99987436Y-91103465D01*
X100008165Y-91112051D01*
X100008169Y-91112051D01*
X100008170Y-91112052D01*
X100201456Y-91150500D01*
X100201459Y-91150500D01*
X100398543Y-91150500D01*
X100528582Y-91124632D01*
X100591835Y-91112051D01*
X100773914Y-91036632D01*
X100937782Y-90927139D01*
X100971168Y-90893753D01*
X109610000Y-90893753D01*
X109610000Y-91106246D01*
X109643242Y-91316127D01*
X109643242Y-91316130D01*
X109708904Y-91518217D01*
X109805375Y-91707550D01*
X109844728Y-91761716D01*
X110477037Y-91129408D01*
X110494075Y-91192993D01*
X110559901Y-91307007D01*
X110652993Y-91400099D01*
X110767007Y-91465925D01*
X110830590Y-91482962D01*
X110198282Y-92115269D01*
X110198282Y-92115270D01*
X110252449Y-92154624D01*
X110441782Y-92251095D01*
X110643870Y-92316757D01*
X110853754Y-92350000D01*
X111066246Y-92350000D01*
X111276127Y-92316757D01*
X111276130Y-92316757D01*
X111478217Y-92251095D01*
X111667554Y-92154622D01*
X111721716Y-92115270D01*
X111721717Y-92115270D01*
X111089408Y-91482962D01*
X111152993Y-91465925D01*
X111267007Y-91400099D01*
X111360099Y-91307007D01*
X111425925Y-91192993D01*
X111442962Y-91129408D01*
X112075270Y-91761717D01*
X112075270Y-91761716D01*
X112114622Y-91707554D01*
X112213306Y-91513879D01*
X112214321Y-91514396D01*
X112254779Y-91464192D01*
X112321073Y-91442127D01*
X112388772Y-91459406D01*
X112436383Y-91510542D01*
X112449500Y-91566048D01*
X112449500Y-91869752D01*
X112461131Y-91928229D01*
X112461132Y-91928230D01*
X112505447Y-91994552D01*
X112571769Y-92038867D01*
X112571770Y-92038868D01*
X112630247Y-92050499D01*
X112630250Y-92050500D01*
X112630252Y-92050500D01*
X114369750Y-92050500D01*
X114369751Y-92050499D01*
X114384568Y-92047552D01*
X114428229Y-92038868D01*
X114428229Y-92038867D01*
X114428231Y-92038867D01*
X114494552Y-91994552D01*
X114538867Y-91928231D01*
X114538867Y-91928229D01*
X114538868Y-91928229D01*
X114550499Y-91869752D01*
X114550500Y-91869750D01*
X114550500Y-90130249D01*
X114550499Y-90130247D01*
X114549066Y-90123038D01*
X114549066Y-90123037D01*
X114544912Y-90102155D01*
X118030000Y-90102155D01*
X118030000Y-90750000D01*
X118946988Y-90750000D01*
X118914075Y-90807007D01*
X118880000Y-90934174D01*
X118880000Y-91065826D01*
X118914075Y-91192993D01*
X118946988Y-91250000D01*
X118030000Y-91250000D01*
X118030000Y-91897844D01*
X118036401Y-91957372D01*
X118036403Y-91957379D01*
X118086645Y-92092086D01*
X118086649Y-92092093D01*
X118172809Y-92207187D01*
X118172812Y-92207190D01*
X118287906Y-92293350D01*
X118287913Y-92293354D01*
X118422620Y-92343596D01*
X118422627Y-92343598D01*
X118482155Y-92349999D01*
X118482172Y-92350000D01*
X119130000Y-92350000D01*
X119130000Y-91433012D01*
X119187007Y-91465925D01*
X119314174Y-91500000D01*
X119445826Y-91500000D01*
X119572993Y-91465925D01*
X119630000Y-91433012D01*
X119630000Y-92350000D01*
X120277828Y-92350000D01*
X120277844Y-92349999D01*
X120337372Y-92343598D01*
X120337379Y-92343596D01*
X120472086Y-92293354D01*
X120472093Y-92293350D01*
X120587187Y-92207190D01*
X120587190Y-92207187D01*
X120673350Y-92092093D01*
X120673354Y-92092086D01*
X120723596Y-91957379D01*
X120723598Y-91957372D01*
X120729999Y-91897844D01*
X120730000Y-91897827D01*
X120730000Y-91495564D01*
X120749685Y-91428525D01*
X120802489Y-91382770D01*
X120871647Y-91372826D01*
X120935203Y-91401851D01*
X120968561Y-91448112D01*
X120975939Y-91465925D01*
X120989059Y-91497598D01*
X121034796Y-91566048D01*
X121104024Y-91669657D01*
X121250342Y-91815975D01*
X121250345Y-91815977D01*
X121422402Y-91930941D01*
X121613580Y-92010130D01*
X121758052Y-92038867D01*
X121816530Y-92050499D01*
X121816534Y-92050500D01*
X121816535Y-92050500D01*
X122023466Y-92050500D01*
X122023467Y-92050499D01*
X122226420Y-92010130D01*
X122417598Y-91930941D01*
X122589655Y-91815977D01*
X122735977Y-91669655D01*
X122850941Y-91497598D01*
X122930130Y-91306420D01*
X122970500Y-91103465D01*
X122970500Y-90896535D01*
X122970499Y-90896530D01*
X123409499Y-90896530D01*
X123409499Y-91103469D01*
X123449867Y-91306412D01*
X123449869Y-91306420D01*
X123529057Y-91497596D01*
X123644023Y-91669657D01*
X123790341Y-91815975D01*
X123790344Y-91815977D01*
X123962401Y-91930941D01*
X124153579Y-92010130D01*
X124298051Y-92038867D01*
X124356529Y-92050499D01*
X124356533Y-92050500D01*
X124356534Y-92050500D01*
X124563465Y-92050500D01*
X124563466Y-92050499D01*
X124766419Y-92010130D01*
X124957597Y-91930941D01*
X125129654Y-91815977D01*
X125275976Y-91669655D01*
X125390940Y-91497598D01*
X125470129Y-91306420D01*
X125510499Y-91103465D01*
X125510499Y-90896535D01*
X125510498Y-90896530D01*
X125949500Y-90896530D01*
X125949500Y-91103469D01*
X125989868Y-91306412D01*
X125989870Y-91306420D01*
X126069058Y-91497596D01*
X126184024Y-91669657D01*
X126330342Y-91815975D01*
X126330345Y-91815977D01*
X126502402Y-91930941D01*
X126693580Y-92010130D01*
X126838052Y-92038867D01*
X126896530Y-92050499D01*
X126896534Y-92050500D01*
X126896535Y-92050500D01*
X127103466Y-92050500D01*
X127103467Y-92050499D01*
X127306420Y-92010130D01*
X127497598Y-91930941D01*
X127669655Y-91815977D01*
X127815977Y-91669655D01*
X127930941Y-91497598D01*
X128010130Y-91306420D01*
X128050500Y-91103465D01*
X128050500Y-90896535D01*
X128010130Y-90693580D01*
X127930941Y-90502402D01*
X127815977Y-90330345D01*
X127815975Y-90330342D01*
X127669657Y-90184024D01*
X127501655Y-90071770D01*
X127497598Y-90069059D01*
X127306420Y-89989870D01*
X127306412Y-89989868D01*
X127103469Y-89949500D01*
X127103465Y-89949500D01*
X126896535Y-89949500D01*
X126896530Y-89949500D01*
X126693587Y-89989868D01*
X126693579Y-89989870D01*
X126502403Y-90069058D01*
X126330342Y-90184024D01*
X126184024Y-90330342D01*
X126069058Y-90502403D01*
X125989870Y-90693579D01*
X125989868Y-90693587D01*
X125949500Y-90896530D01*
X125510498Y-90896530D01*
X125470129Y-90693580D01*
X125390940Y-90502402D01*
X125275976Y-90330345D01*
X125275974Y-90330342D01*
X125129656Y-90184024D01*
X124961654Y-90071770D01*
X124957597Y-90069059D01*
X124766419Y-89989870D01*
X124766411Y-89989868D01*
X124563468Y-89949500D01*
X124563464Y-89949500D01*
X124356534Y-89949500D01*
X124356529Y-89949500D01*
X124153586Y-89989868D01*
X124153578Y-89989870D01*
X123962402Y-90069058D01*
X123790341Y-90184024D01*
X123644023Y-90330342D01*
X123529057Y-90502403D01*
X123449869Y-90693579D01*
X123449867Y-90693587D01*
X123409499Y-90896530D01*
X122970499Y-90896530D01*
X122946290Y-90774830D01*
X122946202Y-90774363D01*
X122946211Y-90774270D01*
X122945265Y-90768731D01*
X122943064Y-90753299D01*
X122943062Y-90753294D01*
X122943062Y-90753291D01*
X122942159Y-90749600D01*
X122938919Y-90737766D01*
X122930130Y-90693580D01*
X122878087Y-90567939D01*
X122875668Y-90561616D01*
X122870439Y-90546745D01*
X122427520Y-89287003D01*
X122420500Y-89245874D01*
X122420500Y-84553702D01*
X122434576Y-84496320D01*
X122615359Y-84150000D01*
X123019067Y-83376630D01*
X123019291Y-83375934D01*
X123019786Y-83374910D01*
X123021092Y-83371792D01*
X123021260Y-83371862D01*
X123034207Y-83345089D01*
X123065941Y-83297598D01*
X123145130Y-83106420D01*
X123185500Y-82903465D01*
X123185500Y-82749442D01*
X123205185Y-82682403D01*
X123257989Y-82636648D01*
X123327147Y-82626704D01*
X123390703Y-82655729D01*
X123418475Y-82690278D01*
X123730765Y-83265504D01*
X123744059Y-83297598D01*
X123766083Y-83330560D01*
X123768794Y-83335553D01*
X123768795Y-83335555D01*
X123781532Y-83359016D01*
X123786083Y-83366971D01*
X123786619Y-83367863D01*
X123786626Y-83367871D01*
X123793934Y-83375542D01*
X123807257Y-83392183D01*
X123859022Y-83469654D01*
X123859025Y-83469658D01*
X124005342Y-83615975D01*
X124005345Y-83615977D01*
X124177402Y-83730941D01*
X124368580Y-83810130D01*
X124571530Y-83850499D01*
X124571534Y-83850500D01*
X124571535Y-83850500D01*
X124778466Y-83850500D01*
X124778467Y-83850499D01*
X124981420Y-83810130D01*
X125172598Y-83730941D01*
X125344655Y-83615977D01*
X125490977Y-83469655D01*
X125605941Y-83297598D01*
X125685130Y-83106420D01*
X125725500Y-82903465D01*
X125725500Y-82696535D01*
X125725499Y-82696530D01*
X126164500Y-82696530D01*
X126164500Y-82903469D01*
X126204868Y-83106412D01*
X126204870Y-83106420D01*
X126270939Y-83265925D01*
X126284059Y-83297598D01*
X126333680Y-83371862D01*
X126399024Y-83469657D01*
X126545342Y-83615975D01*
X126545345Y-83615977D01*
X126717402Y-83730941D01*
X126908580Y-83810130D01*
X127111530Y-83850499D01*
X127111534Y-83850500D01*
X127111535Y-83850500D01*
X127318466Y-83850500D01*
X127318467Y-83850499D01*
X127521420Y-83810130D01*
X127712598Y-83730941D01*
X127884655Y-83615977D01*
X128030977Y-83469655D01*
X128145941Y-83297598D01*
X128225130Y-83106420D01*
X128265500Y-82903465D01*
X128265500Y-82696535D01*
X128225130Y-82493580D01*
X128145941Y-82302402D01*
X128030977Y-82130345D01*
X128030975Y-82130342D01*
X127884657Y-81984024D01*
X127762130Y-81902155D01*
X127712598Y-81869059D01*
X127521420Y-81789870D01*
X127521412Y-81789868D01*
X127318469Y-81749500D01*
X127318465Y-81749500D01*
X127111535Y-81749500D01*
X127111530Y-81749500D01*
X126908587Y-81789868D01*
X126908579Y-81789870D01*
X126717403Y-81869058D01*
X126545342Y-81984024D01*
X126399024Y-82130342D01*
X126284058Y-82302403D01*
X126204870Y-82493579D01*
X126204868Y-82493587D01*
X126164500Y-82696530D01*
X125725499Y-82696530D01*
X125685130Y-82493580D01*
X125605941Y-82302402D01*
X125490977Y-82130345D01*
X125490975Y-82130342D01*
X125344657Y-81984024D01*
X125222130Y-81902155D01*
X125172598Y-81869059D01*
X124981420Y-81789870D01*
X124981414Y-81789868D01*
X124887464Y-81771180D01*
X124887464Y-81771179D01*
X124880153Y-81769724D01*
X124852865Y-81760797D01*
X124808276Y-81755427D01*
X124803616Y-81754501D01*
X124803606Y-81754500D01*
X124778465Y-81749500D01*
X124766473Y-81749500D01*
X124751651Y-81748611D01*
X123511725Y-81599325D01*
X123447519Y-81571768D01*
X123438866Y-81563895D01*
X120862152Y-78987181D01*
X120828667Y-78925858D01*
X120833651Y-78856166D01*
X120875523Y-78800233D01*
X120940987Y-78775816D01*
X120949833Y-78775500D01*
X120965890Y-78775500D01*
X120965892Y-78775500D01*
X121093186Y-78741392D01*
X121207314Y-78675500D01*
X121300500Y-78582314D01*
X121366392Y-78468186D01*
X121400500Y-78340892D01*
X121400500Y-78209108D01*
X121386135Y-78155497D01*
X121382801Y-78133661D01*
X121373158Y-78107065D01*
X121366392Y-78081814D01*
X121365435Y-78080156D01*
X121356243Y-78060415D01*
X121207926Y-77651350D01*
X121200500Y-77609083D01*
X121200500Y-76450832D01*
X121220185Y-76383793D01*
X121236814Y-76363156D01*
X123316614Y-74283355D01*
X123351745Y-74258723D01*
X123755768Y-74069719D01*
X123768186Y-74066392D01*
X123790841Y-74053312D01*
X123816450Y-74041332D01*
X123830088Y-74034321D01*
X123831598Y-74033472D01*
X123834699Y-74031693D01*
X123834702Y-74031689D01*
X123840517Y-74027385D01*
X123840532Y-74027405D01*
X123857359Y-74014907D01*
X123882314Y-74000500D01*
X123975500Y-73907314D01*
X124041392Y-73793186D01*
X124075500Y-73665892D01*
X124075500Y-73534108D01*
X124041392Y-73406814D01*
X123975500Y-73292686D01*
X123882314Y-73199500D01*
X123825250Y-73166554D01*
X123768187Y-73133608D01*
X123704539Y-73116554D01*
X123640892Y-73099500D01*
X123509108Y-73099500D01*
X123381812Y-73133608D01*
X123267686Y-73199500D01*
X123174500Y-73292685D01*
X123150162Y-73334838D01*
X123146739Y-73340767D01*
X123133667Y-73358548D01*
X123121681Y-73384166D01*
X123119008Y-73388797D01*
X123108609Y-73406809D01*
X123108608Y-73406812D01*
X123108111Y-73408669D01*
X123100655Y-73429114D01*
X122916274Y-73823252D01*
X122891637Y-73858390D01*
X120715489Y-76034540D01*
X120659541Y-76090487D01*
X120659535Y-76090495D01*
X120619982Y-76159004D01*
X120619979Y-76159009D01*
X120599500Y-76235439D01*
X120599500Y-77609083D01*
X120592074Y-77651351D01*
X120443752Y-78060423D01*
X120443751Y-78060424D01*
X120440025Y-78070697D01*
X120433608Y-78081814D01*
X120426847Y-78107041D01*
X120425025Y-78112068D01*
X120417197Y-78133660D01*
X120412531Y-78148191D01*
X120412068Y-78149841D01*
X120411099Y-78153418D01*
X120411050Y-78153747D01*
X120409731Y-78168060D01*
X120408699Y-78174773D01*
X120399500Y-78209108D01*
X120399500Y-78234636D01*
X120398061Y-78244001D01*
X120387096Y-78267408D01*
X120379815Y-78292206D01*
X120372519Y-78298527D01*
X120368423Y-78307273D01*
X120346539Y-78321039D01*
X120327011Y-78337961D01*
X120317456Y-78339334D01*
X120309282Y-78344477D01*
X120283435Y-78344226D01*
X120257853Y-78347905D01*
X120249069Y-78343893D01*
X120239415Y-78343800D01*
X120217808Y-78329617D01*
X120194297Y-78318880D01*
X120187819Y-78312848D01*
X119011819Y-77136848D01*
X118978334Y-77075525D01*
X118975500Y-77049167D01*
X118975500Y-75765914D01*
X118982926Y-75723647D01*
X119049666Y-75539576D01*
X119134966Y-75304315D01*
X119141392Y-75293186D01*
X119148160Y-75267927D01*
X119157801Y-75241337D01*
X119162437Y-75226914D01*
X119162906Y-75225246D01*
X119163899Y-75221584D01*
X119163899Y-75221580D01*
X119164968Y-75214414D01*
X119164993Y-75214417D01*
X119168052Y-75193684D01*
X119175500Y-75165892D01*
X119175500Y-75034108D01*
X119161135Y-74980497D01*
X119157801Y-74958661D01*
X119148158Y-74932065D01*
X119141392Y-74906814D01*
X119140435Y-74905156D01*
X119131243Y-74885415D01*
X118982926Y-74476350D01*
X118975500Y-74434083D01*
X118975500Y-73775833D01*
X118995185Y-73708794D01*
X119011819Y-73688152D01*
X126315457Y-66384514D01*
X126315460Y-66384511D01*
X126320732Y-66375380D01*
X126355021Y-66315989D01*
X126375500Y-66239562D01*
X126375500Y-56765914D01*
X126382926Y-56723647D01*
X126534966Y-56304315D01*
X126541392Y-56293186D01*
X126548160Y-56267927D01*
X126557801Y-56241337D01*
X126562437Y-56226914D01*
X126562906Y-56225246D01*
X126563899Y-56221584D01*
X126563899Y-56221580D01*
X126564968Y-56214414D01*
X126564993Y-56214417D01*
X126568052Y-56193684D01*
X126575500Y-56165892D01*
X126575500Y-56034108D01*
X126541392Y-55906814D01*
X126475500Y-55792686D01*
X126382314Y-55699500D01*
X126325250Y-55666554D01*
X126268187Y-55633608D01*
X126168188Y-55606814D01*
X126140892Y-55599500D01*
X126009108Y-55599500D01*
X125881812Y-55633608D01*
X125767686Y-55699500D01*
X125767683Y-55699502D01*
X125674502Y-55792683D01*
X125674500Y-55792686D01*
X125608608Y-55906812D01*
X125574500Y-56034108D01*
X125574500Y-56165894D01*
X125587091Y-56212884D01*
X125587091Y-56212885D01*
X125587501Y-56214417D01*
X125588863Y-56219498D01*
X125592198Y-56241336D01*
X125601836Y-56267920D01*
X125603217Y-56273073D01*
X125603222Y-56273087D01*
X125608609Y-56293189D01*
X125608609Y-56293190D01*
X125609574Y-56294861D01*
X125618754Y-56314581D01*
X125659168Y-56426043D01*
X125767074Y-56723650D01*
X125774500Y-56765915D01*
X125774500Y-66024167D01*
X125754815Y-66091206D01*
X125738181Y-66111848D01*
X118434541Y-73415487D01*
X118434535Y-73415495D01*
X118394982Y-73484004D01*
X118394979Y-73484009D01*
X118374500Y-73560439D01*
X118374500Y-74434083D01*
X118367074Y-74476351D01*
X118218752Y-74885423D01*
X118218751Y-74885424D01*
X118215025Y-74895697D01*
X118208608Y-74906814D01*
X118201847Y-74932041D01*
X118200025Y-74937068D01*
X118192197Y-74958660D01*
X118187531Y-74973191D01*
X118187068Y-74974841D01*
X118186099Y-74978418D01*
X118185033Y-74985575D01*
X118185007Y-74985571D01*
X118183684Y-74994533D01*
X118183133Y-75001501D01*
X118182583Y-75003938D01*
X118174500Y-75034108D01*
X118174500Y-75039787D01*
X118174500Y-75165894D01*
X118187091Y-75212884D01*
X118187091Y-75212885D01*
X118187501Y-75214417D01*
X118188863Y-75219498D01*
X118192198Y-75241336D01*
X118201836Y-75267920D01*
X118203217Y-75273073D01*
X118203222Y-75273087D01*
X118208609Y-75293189D01*
X118208609Y-75293190D01*
X118209574Y-75294861D01*
X118218754Y-75314581D01*
X118263323Y-75437501D01*
X118367074Y-75723650D01*
X118374500Y-75765914D01*
X118374500Y-77264562D01*
X118385712Y-77306406D01*
X118394979Y-77340990D01*
X118394982Y-77340995D01*
X118434535Y-77409504D01*
X118434541Y-77409512D01*
X122638186Y-81613157D01*
X122671671Y-81674480D01*
X122666687Y-81744172D01*
X122624815Y-81800105D01*
X122559351Y-81824522D01*
X122503052Y-81815399D01*
X122441420Y-81789870D01*
X122441412Y-81789868D01*
X122238469Y-81749500D01*
X122238465Y-81749500D01*
X122031535Y-81749500D01*
X122031530Y-81749500D01*
X121828587Y-81789868D01*
X121828579Y-81789870D01*
X121637403Y-81869058D01*
X121465342Y-81984024D01*
X121319024Y-82130342D01*
X121204058Y-82302403D01*
X121124870Y-82493579D01*
X121124868Y-82493587D01*
X121084500Y-82696530D01*
X121084500Y-82903469D01*
X121100225Y-82982524D01*
X121102597Y-83005061D01*
X121102798Y-83020176D01*
X121102799Y-83020186D01*
X121416784Y-84495658D01*
X121419500Y-84521468D01*
X121419500Y-89245873D01*
X121412480Y-89287003D01*
X120970980Y-90542699D01*
X120930173Y-90599414D01*
X120865182Y-90625064D01*
X120796641Y-90611505D01*
X120746310Y-90563042D01*
X120730000Y-90501569D01*
X120730000Y-90102172D01*
X120729999Y-90102155D01*
X120723598Y-90042627D01*
X120723596Y-90042620D01*
X120673354Y-89907913D01*
X120673350Y-89907906D01*
X120587190Y-89792812D01*
X120587187Y-89792809D01*
X120472093Y-89706649D01*
X120472086Y-89706645D01*
X120337379Y-89656403D01*
X120337372Y-89656401D01*
X120277844Y-89650000D01*
X119630000Y-89650000D01*
X119630000Y-90566988D01*
X119572993Y-90534075D01*
X119445826Y-90500000D01*
X119314174Y-90500000D01*
X119187007Y-90534075D01*
X119130000Y-90566988D01*
X119130000Y-89650000D01*
X118482155Y-89650000D01*
X118422627Y-89656401D01*
X118422620Y-89656403D01*
X118287913Y-89706645D01*
X118287906Y-89706649D01*
X118172812Y-89792809D01*
X118172809Y-89792812D01*
X118086649Y-89907906D01*
X118086645Y-89907913D01*
X118036403Y-90042620D01*
X118036401Y-90042627D01*
X118030000Y-90102155D01*
X114544912Y-90102155D01*
X114538867Y-90071770D01*
X114538867Y-90071769D01*
X114494552Y-90005447D01*
X114428230Y-89961132D01*
X114428229Y-89961131D01*
X114369752Y-89949500D01*
X114369748Y-89949500D01*
X112630252Y-89949500D01*
X112630247Y-89949500D01*
X112571770Y-89961131D01*
X112571769Y-89961132D01*
X112505447Y-90005447D01*
X112461132Y-90071769D01*
X112461131Y-90071770D01*
X112449500Y-90130247D01*
X112449500Y-90433951D01*
X112429815Y-90500990D01*
X112377011Y-90546745D01*
X112307853Y-90556689D01*
X112244297Y-90527664D01*
X112214061Y-90485736D01*
X112213306Y-90486121D01*
X112114624Y-90292449D01*
X112075270Y-90238282D01*
X112075269Y-90238282D01*
X111442962Y-90870590D01*
X111425925Y-90807007D01*
X111360099Y-90692993D01*
X111267007Y-90599901D01*
X111152993Y-90534075D01*
X111089409Y-90517037D01*
X111721716Y-89884728D01*
X111667550Y-89845375D01*
X111478217Y-89748904D01*
X111276129Y-89683242D01*
X111066246Y-89650000D01*
X110853754Y-89650000D01*
X110643872Y-89683242D01*
X110643869Y-89683242D01*
X110441782Y-89748904D01*
X110252439Y-89845380D01*
X110198282Y-89884727D01*
X110198282Y-89884728D01*
X110830591Y-90517037D01*
X110767007Y-90534075D01*
X110652993Y-90599901D01*
X110559901Y-90692993D01*
X110494075Y-90807007D01*
X110477037Y-90870591D01*
X109844728Y-90238282D01*
X109844727Y-90238282D01*
X109805380Y-90292439D01*
X109708904Y-90481782D01*
X109643242Y-90683869D01*
X109643242Y-90683872D01*
X109610000Y-90893753D01*
X100971168Y-90893753D01*
X101063722Y-90801200D01*
X101077136Y-90787785D01*
X101077139Y-90787782D01*
X101186632Y-90623914D01*
X101262051Y-90441835D01*
X101300500Y-90248541D01*
X101300500Y-90051459D01*
X101300500Y-90051456D01*
X101300499Y-90051454D01*
X101281548Y-89956178D01*
X101262052Y-89858170D01*
X101262051Y-89858169D01*
X101262051Y-89858165D01*
X101199290Y-89706645D01*
X101186635Y-89676092D01*
X101186628Y-89676079D01*
X101077139Y-89512218D01*
X101077136Y-89512214D01*
X100937785Y-89372863D01*
X100937781Y-89372860D01*
X100773920Y-89263371D01*
X100773907Y-89263364D01*
X100591839Y-89187950D01*
X100591829Y-89187947D01*
X100398543Y-89149500D01*
X100398541Y-89149500D01*
X100201459Y-89149500D01*
X100201457Y-89149500D01*
X100008170Y-89187947D01*
X100008160Y-89187950D01*
X99826092Y-89263364D01*
X99826079Y-89263371D01*
X99662218Y-89372860D01*
X99662214Y-89372863D01*
X99522863Y-89512214D01*
X99522860Y-89512218D01*
X99413371Y-89676079D01*
X99413364Y-89676092D01*
X99337950Y-89858160D01*
X99337947Y-89858170D01*
X99299500Y-90051456D01*
X99299500Y-90051459D01*
X99299500Y-90248541D01*
X99299500Y-90248543D01*
X99299499Y-90248543D01*
X82377999Y-90248543D01*
X82377999Y-90248541D01*
X82377999Y-90051459D01*
X82377999Y-90051456D01*
X82339551Y-89858170D01*
X82339550Y-89858169D01*
X82339550Y-89858165D01*
X82276789Y-89706645D01*
X82264134Y-89676092D01*
X82264127Y-89676079D01*
X82154638Y-89512218D01*
X82154635Y-89512214D01*
X82015284Y-89372863D01*
X82015280Y-89372860D01*
X81851419Y-89263371D01*
X81851406Y-89263364D01*
X81669338Y-89187950D01*
X81669328Y-89187947D01*
X81476042Y-89149500D01*
X81476040Y-89149500D01*
X81278958Y-89149500D01*
X81278956Y-89149500D01*
X81085669Y-89187947D01*
X81085659Y-89187950D01*
X80903591Y-89263364D01*
X80903578Y-89263371D01*
X80739717Y-89372860D01*
X80739713Y-89372863D01*
X80600362Y-89512214D01*
X80600359Y-89512218D01*
X80490870Y-89676079D01*
X80490863Y-89676092D01*
X80415449Y-89858160D01*
X80415446Y-89858170D01*
X80376999Y-90051456D01*
X80376999Y-90051459D01*
X80376999Y-90248541D01*
X80376999Y-90248543D01*
X80376998Y-90248543D01*
X60500500Y-90248543D01*
X60500500Y-83311055D01*
X63999498Y-83311055D01*
X64040424Y-83463790D01*
X64043121Y-83468461D01*
X64043125Y-83468466D01*
X64119477Y-83600713D01*
X64119481Y-83600718D01*
X64238349Y-83719586D01*
X64238355Y-83719591D01*
X69633138Y-89114374D01*
X69633148Y-89114385D01*
X69637478Y-89118715D01*
X69637479Y-89118716D01*
X69749283Y-89230520D01*
X69775878Y-89245874D01*
X69836094Y-89280639D01*
X69836096Y-89280641D01*
X69874150Y-89302611D01*
X69886214Y-89309577D01*
X70038942Y-89350501D01*
X70038945Y-89350501D01*
X70204652Y-89350501D01*
X70204668Y-89350500D01*
X78810833Y-89350500D01*
X78810849Y-89350501D01*
X78818445Y-89350501D01*
X78976556Y-89350501D01*
X78976559Y-89350501D01*
X79129287Y-89309577D01*
X79179406Y-89280639D01*
X79266218Y-89230520D01*
X79378022Y-89118716D01*
X79378022Y-89118714D01*
X79388230Y-89108507D01*
X79388232Y-89108504D01*
X80530720Y-87966015D01*
X80560151Y-87944231D01*
X81787874Y-87291033D01*
X81798642Y-87285953D01*
X81872467Y-87255374D01*
X82045342Y-87139862D01*
X82192360Y-86992844D01*
X82307872Y-86819969D01*
X82358438Y-86697891D01*
X82402279Y-86643488D01*
X82468573Y-86621423D01*
X82536272Y-86638702D01*
X82583883Y-86689839D01*
X82596999Y-86745344D01*
X82596999Y-87194754D01*
X82608630Y-87253231D01*
X82608631Y-87253232D01*
X82652946Y-87319554D01*
X82719268Y-87363869D01*
X82719269Y-87363870D01*
X82777746Y-87375501D01*
X82777749Y-87375502D01*
X82777751Y-87375502D01*
X84527249Y-87375502D01*
X84527250Y-87375501D01*
X84542067Y-87372554D01*
X84585728Y-87363870D01*
X84585728Y-87363869D01*
X84585730Y-87363869D01*
X84652051Y-87319554D01*
X84696366Y-87253233D01*
X84696366Y-87253231D01*
X84696367Y-87253231D01*
X84707998Y-87194754D01*
X84707999Y-87194752D01*
X84707999Y-85355251D01*
X84707998Y-85355249D01*
X84696367Y-85296772D01*
X84696366Y-85296771D01*
X84652051Y-85230449D01*
X84585729Y-85186134D01*
X84585728Y-85186133D01*
X84527251Y-85174502D01*
X84527247Y-85174502D01*
X82777751Y-85174502D01*
X82777746Y-85174502D01*
X82719269Y-85186133D01*
X82719268Y-85186134D01*
X82652946Y-85230449D01*
X82608631Y-85296771D01*
X82608630Y-85296772D01*
X82596999Y-85355249D01*
X82596999Y-85804659D01*
X82577314Y-85871698D01*
X82524510Y-85917453D01*
X82455352Y-85927397D01*
X82391796Y-85898372D01*
X82358438Y-85852112D01*
X82307873Y-85730037D01*
X82301626Y-85720688D01*
X82192360Y-85557160D01*
X82192357Y-85557156D01*
X82045345Y-85410144D01*
X82045341Y-85410141D01*
X81872464Y-85294628D01*
X81680378Y-85215064D01*
X81680370Y-85215062D01*
X81476462Y-85174502D01*
X81476458Y-85174502D01*
X81268542Y-85174502D01*
X81268537Y-85174502D01*
X81064629Y-85215062D01*
X81064621Y-85215064D01*
X80872536Y-85294628D01*
X80790146Y-85349679D01*
X80723468Y-85370556D01*
X80656088Y-85352071D01*
X80609399Y-85300092D01*
X80598223Y-85231122D01*
X80626109Y-85167058D01*
X80633563Y-85158907D01*
X81697897Y-84094575D01*
X81759220Y-84061090D01*
X81785578Y-84058256D01*
X82535955Y-84058256D01*
X82602994Y-84077941D01*
X82623636Y-84094575D01*
X82687317Y-84158256D01*
X82801445Y-84224148D01*
X82928739Y-84258256D01*
X82928741Y-84258256D01*
X83060521Y-84258256D01*
X83060523Y-84258256D01*
X83187817Y-84224148D01*
X83301945Y-84158256D01*
X83395131Y-84065070D01*
X83461023Y-83950942D01*
X83495131Y-83823648D01*
X83495131Y-83691864D01*
X83461023Y-83564570D01*
X83395131Y-83450442D01*
X83301945Y-83357256D01*
X83221923Y-83311055D01*
X83187818Y-83291364D01*
X83070002Y-83259796D01*
X83060523Y-83257256D01*
X82928739Y-83257256D01*
X82801443Y-83291364D01*
X82687317Y-83357256D01*
X82687314Y-83357258D01*
X82623636Y-83420937D01*
X82562313Y-83454422D01*
X82535955Y-83457256D01*
X81570183Y-83457256D01*
X81531969Y-83467495D01*
X81493754Y-83477735D01*
X81493753Y-83477736D01*
X81446495Y-83505021D01*
X81440177Y-83508668D01*
X81425234Y-83517295D01*
X81425232Y-83517297D01*
X80164432Y-84778096D01*
X80113400Y-84808875D01*
X78874933Y-85192024D01*
X78874923Y-85192028D01*
X78873466Y-85192765D01*
X78870979Y-85193622D01*
X78870109Y-85193974D01*
X78870090Y-85193928D01*
X78841754Y-85203699D01*
X78784626Y-85215062D01*
X78784620Y-85215064D01*
X78592534Y-85294628D01*
X78419657Y-85410141D01*
X78419653Y-85410144D01*
X78272641Y-85557156D01*
X78272638Y-85557160D01*
X78157125Y-85730037D01*
X78077561Y-85922123D01*
X78077559Y-85922131D01*
X78037000Y-86126037D01*
X78036999Y-86126043D01*
X78036999Y-86423964D01*
X78077559Y-86627872D01*
X78077561Y-86627880D01*
X78157125Y-86819966D01*
X78272638Y-86992843D01*
X78272641Y-86992847D01*
X78419653Y-87139859D01*
X78419657Y-87139862D01*
X78592532Y-87255374D01*
X78784621Y-87334940D01*
X78930058Y-87363869D01*
X78988536Y-87375501D01*
X78988540Y-87375502D01*
X79123402Y-87375502D01*
X79190441Y-87395187D01*
X79236196Y-87447991D01*
X79246140Y-87517149D01*
X79217115Y-87580705D01*
X79211083Y-87587183D01*
X78685086Y-88113181D01*
X78623763Y-88146666D01*
X78597405Y-88149500D01*
X70418096Y-88149500D01*
X70351057Y-88129815D01*
X70330415Y-88113181D01*
X66566916Y-84349682D01*
X66533431Y-84288359D01*
X66538415Y-84218667D01*
X66580287Y-84162734D01*
X66645751Y-84138317D01*
X66654597Y-84138001D01*
X69527250Y-84138001D01*
X69527251Y-84138000D01*
X69542068Y-84135053D01*
X69585729Y-84126369D01*
X69585729Y-84126368D01*
X69585731Y-84126368D01*
X69652052Y-84082053D01*
X69696367Y-84015732D01*
X69696367Y-84015730D01*
X69696368Y-84015730D01*
X69707999Y-83957253D01*
X69708000Y-83957251D01*
X69708000Y-80917750D01*
X69707999Y-80917748D01*
X69696368Y-80859271D01*
X69696367Y-80859270D01*
X69652052Y-80792948D01*
X69585730Y-80748633D01*
X69585729Y-80748632D01*
X69527252Y-80737001D01*
X69527248Y-80737001D01*
X66487752Y-80737001D01*
X66487747Y-80737001D01*
X66429270Y-80748632D01*
X66429269Y-80748633D01*
X66362947Y-80792948D01*
X66318632Y-80859270D01*
X66318631Y-80859271D01*
X66307000Y-80917748D01*
X66307000Y-83790404D01*
X66287315Y-83857443D01*
X66234511Y-83903198D01*
X66165353Y-83913142D01*
X66101797Y-83884117D01*
X66095319Y-83878085D01*
X65236819Y-83019585D01*
X65203334Y-82958262D01*
X65200500Y-82931904D01*
X65200500Y-77306406D01*
X66007500Y-77306406D01*
X66007500Y-77568595D01*
X66041720Y-77828510D01*
X66041722Y-77828521D01*
X66109575Y-78081756D01*
X66209904Y-78323972D01*
X66209909Y-78323983D01*
X66340988Y-78551017D01*
X66340994Y-78551025D01*
X66427580Y-78663866D01*
X67406458Y-77684988D01*
X67431478Y-77745391D01*
X67502612Y-77851852D01*
X67593149Y-77942389D01*
X67699610Y-78013523D01*
X67760011Y-78038542D01*
X66781133Y-79017418D01*
X66781133Y-79017419D01*
X66893975Y-79104006D01*
X66893983Y-79104012D01*
X67121017Y-79235091D01*
X67121028Y-79235096D01*
X67363244Y-79335425D01*
X67616479Y-79403278D01*
X67616490Y-79403280D01*
X67876405Y-79437500D01*
X67876420Y-79437501D01*
X68138580Y-79437501D01*
X68138594Y-79437500D01*
X68398509Y-79403280D01*
X68398520Y-79403278D01*
X68651755Y-79335425D01*
X68893971Y-79235096D01*
X68893982Y-79235091D01*
X69121016Y-79104012D01*
X69121034Y-79104000D01*
X69233865Y-79017420D01*
X69233865Y-79017418D01*
X68254988Y-78038542D01*
X68315390Y-78013523D01*
X68421851Y-77942389D01*
X68512388Y-77851852D01*
X68583522Y-77745391D01*
X68608541Y-77684989D01*
X69587417Y-78663866D01*
X69587419Y-78663866D01*
X69673999Y-78551035D01*
X69674011Y-78551017D01*
X69805090Y-78323983D01*
X69805095Y-78323972D01*
X69905424Y-78081756D01*
X69973277Y-77828521D01*
X69973279Y-77828510D01*
X70007499Y-77568595D01*
X70007500Y-77568581D01*
X70007500Y-77306420D01*
X70007499Y-77306406D01*
X69973279Y-77046491D01*
X69973277Y-77046480D01*
X69909398Y-76808074D01*
X69909398Y-76808073D01*
X69905425Y-76793247D01*
X69901640Y-76784108D01*
X80349500Y-76784108D01*
X80349500Y-76915892D01*
X80366554Y-76979539D01*
X80383608Y-77043187D01*
X80394016Y-77061213D01*
X80449500Y-77157314D01*
X80542686Y-77250500D01*
X80656814Y-77316392D01*
X80784108Y-77350500D01*
X80784110Y-77350500D01*
X80915890Y-77350500D01*
X80915892Y-77350500D01*
X81043186Y-77316392D01*
X81157314Y-77250500D01*
X81250500Y-77157314D01*
X81278264Y-77109225D01*
X81291332Y-77091450D01*
X81303312Y-77065841D01*
X81316392Y-77043186D01*
X81316889Y-77041327D01*
X81324344Y-77020879D01*
X81508723Y-76626745D01*
X81533355Y-76591614D01*
X85471558Y-72653411D01*
X85500100Y-72632105D01*
X85953427Y-72386168D01*
X85961394Y-72381613D01*
X85962283Y-72381078D01*
X85963875Y-72379565D01*
X85987312Y-72362048D01*
X86007314Y-72350500D01*
X86100500Y-72257314D01*
X86166392Y-72143186D01*
X86200500Y-72015892D01*
X86200500Y-71884108D01*
X86166392Y-71756814D01*
X86100500Y-71642686D01*
X86007314Y-71549500D01*
X85950250Y-71516554D01*
X85893187Y-71483608D01*
X85829539Y-71466554D01*
X85765892Y-71449500D01*
X85634108Y-71449500D01*
X85506812Y-71483608D01*
X85392686Y-71549500D01*
X85392683Y-71549502D01*
X85299502Y-71642683D01*
X85299500Y-71642686D01*
X85233607Y-71756814D01*
X85223451Y-71794716D01*
X85213921Y-71819385D01*
X85211147Y-71824771D01*
X85063538Y-72197099D01*
X85035947Y-72239080D01*
X81108390Y-76166637D01*
X81073252Y-76191274D01*
X80679114Y-76375655D01*
X80679113Y-76375655D01*
X80669215Y-76380284D01*
X80656814Y-76383608D01*
X80634195Y-76396666D01*
X80629356Y-76398930D01*
X80629353Y-76398933D01*
X80608539Y-76408671D01*
X80594843Y-76415715D01*
X80593255Y-76416609D01*
X80590300Y-76418305D01*
X80584493Y-76422607D01*
X80584478Y-76422587D01*
X80567640Y-76435092D01*
X80542685Y-76449500D01*
X80449500Y-76542686D01*
X80383608Y-76656812D01*
X80349500Y-76784108D01*
X69901640Y-76784108D01*
X69805095Y-76551029D01*
X69805090Y-76551018D01*
X69674011Y-76323984D01*
X69674005Y-76323976D01*
X69587418Y-76211134D01*
X69587417Y-76211134D01*
X68608541Y-77190011D01*
X68583522Y-77129611D01*
X68512388Y-77023150D01*
X68421851Y-76932613D01*
X68315390Y-76861479D01*
X68254987Y-76836458D01*
X69233865Y-75857581D01*
X69121024Y-75770995D01*
X69121016Y-75770989D01*
X68893982Y-75639910D01*
X68893971Y-75639905D01*
X68651755Y-75539576D01*
X68398520Y-75471723D01*
X68398509Y-75471721D01*
X68138594Y-75437501D01*
X67876405Y-75437501D01*
X67616490Y-75471721D01*
X67616479Y-75471723D01*
X67363244Y-75539576D01*
X67121028Y-75639905D01*
X67121017Y-75639910D01*
X66893971Y-75770997D01*
X66781133Y-75857580D01*
X66781133Y-75857581D01*
X67760011Y-76836459D01*
X67699610Y-76861479D01*
X67593149Y-76932613D01*
X67502612Y-77023150D01*
X67431478Y-77129611D01*
X67406458Y-77190012D01*
X66427580Y-76211134D01*
X66427579Y-76211134D01*
X66340996Y-76323972D01*
X66209909Y-76551018D01*
X66209904Y-76551029D01*
X66109575Y-76793245D01*
X66041722Y-77046480D01*
X66041720Y-77046491D01*
X66007500Y-77306406D01*
X65200500Y-77306406D01*
X65200500Y-70237596D01*
X65220185Y-70170557D01*
X65236815Y-70149919D01*
X66178838Y-69207895D01*
X66208003Y-69186253D01*
X67952467Y-68252671D01*
X68010976Y-68238000D01*
X69527250Y-68238000D01*
X69527251Y-68237999D01*
X69542068Y-68235052D01*
X69585729Y-68226368D01*
X69585729Y-68226367D01*
X69585731Y-68226367D01*
X69652052Y-68182052D01*
X69696367Y-68115731D01*
X69696367Y-68115729D01*
X69696368Y-68115729D01*
X69707999Y-68057252D01*
X69708000Y-68057250D01*
X69708000Y-65017749D01*
X69707999Y-65017747D01*
X69696368Y-64959270D01*
X69696367Y-64959269D01*
X69652052Y-64892947D01*
X69585730Y-64848632D01*
X69585729Y-64848631D01*
X69527252Y-64837000D01*
X69527248Y-64837000D01*
X66487752Y-64837000D01*
X66487747Y-64837000D01*
X66429270Y-64848631D01*
X66429269Y-64848632D01*
X66362947Y-64892947D01*
X66318632Y-64959269D01*
X66318631Y-64959270D01*
X66307000Y-65017747D01*
X66307000Y-66528060D01*
X66292114Y-66586968D01*
X65351310Y-68329613D01*
X65329877Y-68358386D01*
X64231286Y-69456978D01*
X64119481Y-69568782D01*
X64119479Y-69568785D01*
X64069361Y-69655594D01*
X64069359Y-69655596D01*
X64040425Y-69705709D01*
X64040424Y-69705710D01*
X64040423Y-69705715D01*
X63999499Y-69858443D01*
X63999499Y-70016557D01*
X63999499Y-70016559D01*
X63999500Y-70026553D01*
X63999500Y-83145331D01*
X63999499Y-83145349D01*
X63999499Y-83311055D01*
X63999498Y-83311055D01*
X60500500Y-83311055D01*
X60500500Y-61406405D01*
X66007500Y-61406405D01*
X66007500Y-61668594D01*
X66041720Y-61928509D01*
X66041722Y-61928520D01*
X66109575Y-62181755D01*
X66209904Y-62423971D01*
X66209909Y-62423982D01*
X66340988Y-62651016D01*
X66340994Y-62651024D01*
X66427580Y-62763865D01*
X67406458Y-61784987D01*
X67431478Y-61845390D01*
X67502612Y-61951851D01*
X67593149Y-62042388D01*
X67699610Y-62113522D01*
X67760011Y-62138541D01*
X66781133Y-63117417D01*
X66781133Y-63117418D01*
X66893975Y-63204005D01*
X66893983Y-63204011D01*
X67121017Y-63335090D01*
X67121028Y-63335095D01*
X67363244Y-63435424D01*
X67616479Y-63503277D01*
X67616490Y-63503279D01*
X67876405Y-63537499D01*
X67876420Y-63537500D01*
X68138580Y-63537500D01*
X68138594Y-63537499D01*
X68398509Y-63503279D01*
X68398520Y-63503277D01*
X68651755Y-63435424D01*
X68893971Y-63335095D01*
X68893982Y-63335090D01*
X69121016Y-63204011D01*
X69121034Y-63203999D01*
X69233865Y-63117419D01*
X69233865Y-63117417D01*
X68254988Y-62138541D01*
X68315390Y-62113522D01*
X68421851Y-62042388D01*
X68512388Y-61951851D01*
X68583522Y-61845390D01*
X68608541Y-61784988D01*
X69587417Y-62763865D01*
X69587419Y-62763865D01*
X69673999Y-62651034D01*
X69674011Y-62651016D01*
X69805090Y-62423982D01*
X69805095Y-62423971D01*
X69905424Y-62181755D01*
X69973277Y-61928520D01*
X69973279Y-61928509D01*
X70007499Y-61668594D01*
X70007500Y-61668580D01*
X70007500Y-61406419D01*
X70007499Y-61406405D01*
X69973279Y-61146490D01*
X69973277Y-61146479D01*
X69905424Y-60893244D01*
X69805095Y-60651028D01*
X69805090Y-60651017D01*
X69674011Y-60423983D01*
X69674005Y-60423975D01*
X69587418Y-60311133D01*
X69587417Y-60311133D01*
X68608541Y-61290010D01*
X68583522Y-61229610D01*
X68512388Y-61123149D01*
X68421851Y-61032612D01*
X68315390Y-60961478D01*
X68254987Y-60936457D01*
X69233865Y-59957580D01*
X69121024Y-59870994D01*
X69121016Y-59870988D01*
X68893982Y-59739909D01*
X68893971Y-59739904D01*
X68651755Y-59639575D01*
X68398520Y-59571722D01*
X68398509Y-59571720D01*
X68138594Y-59537500D01*
X67876405Y-59537500D01*
X67616490Y-59571720D01*
X67616479Y-59571722D01*
X67363244Y-59639575D01*
X67121028Y-59739904D01*
X67121017Y-59739909D01*
X66893971Y-59870996D01*
X66781133Y-59957579D01*
X66781133Y-59957580D01*
X67760011Y-60936458D01*
X67699610Y-60961478D01*
X67593149Y-61032612D01*
X67502612Y-61123149D01*
X67431478Y-61229610D01*
X67406458Y-61290011D01*
X66427580Y-60311133D01*
X66427579Y-60311133D01*
X66340996Y-60423971D01*
X66209909Y-60651017D01*
X66209904Y-60651028D01*
X66109575Y-60893244D01*
X66041722Y-61146479D01*
X66041720Y-61146490D01*
X66007500Y-61406405D01*
X60500500Y-61406405D01*
X60500500Y-56426049D01*
X66307000Y-56426049D01*
X66307000Y-56648950D01*
X66307001Y-56648966D01*
X66336094Y-56869952D01*
X66336095Y-56869957D01*
X66336096Y-56869963D01*
X66336097Y-56869965D01*
X66393790Y-57085280D01*
X66393793Y-57085290D01*
X66479093Y-57291222D01*
X66479095Y-57291226D01*
X66590552Y-57484274D01*
X66590557Y-57484280D01*
X66590558Y-57484282D01*
X66726251Y-57661122D01*
X66726257Y-57661129D01*
X66883870Y-57818742D01*
X66883876Y-57818747D01*
X67060726Y-57954448D01*
X67253774Y-58065905D01*
X67459719Y-58151210D01*
X67675037Y-58208904D01*
X67896043Y-58238000D01*
X67896050Y-58238000D01*
X68106318Y-58238000D01*
X68147001Y-58244864D01*
X69420338Y-58687116D01*
X69467335Y-58716570D01*
X70563181Y-59812416D01*
X70596666Y-59873739D01*
X70599500Y-59900097D01*
X70599500Y-66763330D01*
X70599499Y-66763348D01*
X70599499Y-66929054D01*
X70599498Y-66929054D01*
X70599499Y-66929057D01*
X70640423Y-67081785D01*
X70664741Y-67123905D01*
X70719477Y-67218712D01*
X70719481Y-67218717D01*
X70838349Y-67337585D01*
X70838354Y-67337589D01*
X74481284Y-70980520D01*
X74481286Y-70980521D01*
X74481290Y-70980524D01*
X74618209Y-71059573D01*
X74618216Y-71059577D01*
X74770943Y-71100501D01*
X74770945Y-71100501D01*
X74936654Y-71100501D01*
X74936670Y-71100500D01*
X89399903Y-71100500D01*
X89466942Y-71120185D01*
X89487584Y-71136819D01*
X99658182Y-81307417D01*
X99691667Y-81368740D01*
X99694501Y-81395098D01*
X99694501Y-84472637D01*
X99689681Y-84506872D01*
X99292049Y-85891121D01*
X99291437Y-85893187D01*
X99289702Y-85898851D01*
X99280063Y-85922124D01*
X99275398Y-85945573D01*
X99273568Y-85951552D01*
X99257641Y-85975718D01*
X99244230Y-86001355D01*
X99238652Y-86004530D01*
X99235120Y-86009891D01*
X99208659Y-86021609D01*
X99183514Y-86035928D01*
X99177104Y-86035584D01*
X99171235Y-86038184D01*
X99142638Y-86033736D01*
X99113744Y-86032187D01*
X99108537Y-86028432D01*
X99102195Y-86027446D01*
X99080544Y-86008245D01*
X99057073Y-85991319D01*
X99054087Y-85984782D01*
X99049921Y-85981087D01*
X99045948Y-85966958D01*
X99033382Y-85939443D01*
X99029938Y-85922124D01*
X98950372Y-85730035D01*
X98834860Y-85557160D01*
X98834857Y-85557156D01*
X98687845Y-85410144D01*
X98687841Y-85410141D01*
X98514964Y-85294628D01*
X98322878Y-85215064D01*
X98322870Y-85215062D01*
X98118962Y-85174502D01*
X98118958Y-85174502D01*
X97911042Y-85174502D01*
X97911037Y-85174502D01*
X97707129Y-85215062D01*
X97707121Y-85215064D01*
X97515035Y-85294628D01*
X97342158Y-85410141D01*
X97342154Y-85410144D01*
X97195142Y-85557156D01*
X97195139Y-85557160D01*
X97079626Y-85730037D01*
X97000062Y-85922123D01*
X97000060Y-85922131D01*
X96959501Y-86126037D01*
X96959500Y-86126043D01*
X96959500Y-86423964D01*
X97000060Y-86627872D01*
X97000062Y-86627880D01*
X97079626Y-86819966D01*
X97195139Y-86992843D01*
X97195142Y-86992847D01*
X97342154Y-87139859D01*
X97342158Y-87139862D01*
X97515033Y-87255374D01*
X97707122Y-87334940D01*
X97852559Y-87363869D01*
X97911037Y-87375501D01*
X97911041Y-87375502D01*
X97911042Y-87375502D01*
X98118959Y-87375502D01*
X98118960Y-87375501D01*
X98322878Y-87334940D01*
X98514967Y-87255374D01*
X98687842Y-87139862D01*
X98834860Y-86992844D01*
X98950372Y-86819969D01*
X99029938Y-86627880D01*
X99033382Y-86610561D01*
X99065765Y-86548651D01*
X99126480Y-86514075D01*
X99196250Y-86517813D01*
X99252923Y-86558678D01*
X99276617Y-86610558D01*
X99280061Y-86627875D01*
X99280063Y-86627880D01*
X99359627Y-86819966D01*
X99475140Y-86992843D01*
X99475143Y-86992847D01*
X99622155Y-87139859D01*
X99622159Y-87139862D01*
X99795034Y-87255374D01*
X99987123Y-87334940D01*
X100132560Y-87363869D01*
X100191038Y-87375501D01*
X100191042Y-87375502D01*
X100191043Y-87375502D01*
X100398960Y-87375502D01*
X100398961Y-87375501D01*
X100602879Y-87334940D01*
X100794968Y-87255374D01*
X100967843Y-87139862D01*
X101114861Y-86992844D01*
X101230373Y-86819969D01*
X101280939Y-86697891D01*
X101324780Y-86643488D01*
X101391074Y-86621423D01*
X101458773Y-86638702D01*
X101506384Y-86689839D01*
X101519500Y-86745344D01*
X101519500Y-87194754D01*
X101531131Y-87253231D01*
X101531132Y-87253232D01*
X101575447Y-87319554D01*
X101641769Y-87363869D01*
X101641770Y-87363870D01*
X101700247Y-87375501D01*
X101700250Y-87375502D01*
X101700252Y-87375502D01*
X103449750Y-87375502D01*
X103449751Y-87375501D01*
X103464568Y-87372554D01*
X103508229Y-87363870D01*
X103508229Y-87363869D01*
X103508231Y-87363869D01*
X103574552Y-87319554D01*
X103618867Y-87253233D01*
X103618867Y-87253231D01*
X103618868Y-87253231D01*
X103630499Y-87194754D01*
X103630500Y-87194752D01*
X103630500Y-85859108D01*
X111699500Y-85859108D01*
X111699500Y-85990892D01*
X111708456Y-86024315D01*
X111733608Y-86118187D01*
X111766554Y-86175250D01*
X111799500Y-86232314D01*
X111892686Y-86325500D01*
X112006814Y-86391392D01*
X112134108Y-86425500D01*
X112134110Y-86425500D01*
X112265890Y-86425500D01*
X112265892Y-86425500D01*
X112393186Y-86391392D01*
X112507314Y-86325500D01*
X112600500Y-86232314D01*
X112666392Y-86118186D01*
X112700500Y-85990892D01*
X112700500Y-85859108D01*
X112686135Y-85805497D01*
X112682801Y-85783661D01*
X112673158Y-85757065D01*
X112666392Y-85731814D01*
X112665435Y-85730156D01*
X112656243Y-85710415D01*
X112600676Y-85557160D01*
X112507926Y-85301350D01*
X112500500Y-85259083D01*
X112500500Y-81902155D01*
X113165000Y-81902155D01*
X113165000Y-82550000D01*
X114081988Y-82550000D01*
X114049075Y-82607007D01*
X114015000Y-82734174D01*
X114015000Y-82865826D01*
X114049075Y-82992993D01*
X114081988Y-83050000D01*
X113165000Y-83050000D01*
X113165000Y-83697844D01*
X113171401Y-83757372D01*
X113171403Y-83757379D01*
X113221645Y-83892086D01*
X113221649Y-83892093D01*
X113307809Y-84007187D01*
X113307812Y-84007190D01*
X113422906Y-84093350D01*
X113422913Y-84093354D01*
X113557620Y-84143596D01*
X113557627Y-84143598D01*
X113617155Y-84149999D01*
X113617172Y-84150000D01*
X114265000Y-84150000D01*
X114265000Y-83233012D01*
X114322007Y-83265925D01*
X114449174Y-83300000D01*
X114580826Y-83300000D01*
X114707993Y-83265925D01*
X114765000Y-83233012D01*
X114765000Y-84150000D01*
X115412828Y-84150000D01*
X115412844Y-84149999D01*
X115472372Y-84143598D01*
X115472379Y-84143596D01*
X115607086Y-84093354D01*
X115607093Y-84093350D01*
X115722187Y-84007190D01*
X115722190Y-84007187D01*
X115808350Y-83892093D01*
X115808354Y-83892086D01*
X115858596Y-83757379D01*
X115858598Y-83757372D01*
X115864999Y-83697844D01*
X115865000Y-83697827D01*
X115865000Y-83295564D01*
X115884685Y-83228525D01*
X115937489Y-83182770D01*
X116006647Y-83172826D01*
X116070203Y-83201851D01*
X116103561Y-83248112D01*
X116121476Y-83291364D01*
X116124059Y-83297598D01*
X116181315Y-83383288D01*
X116239024Y-83469657D01*
X116385342Y-83615975D01*
X116385345Y-83615977D01*
X116557402Y-83730941D01*
X116748580Y-83810130D01*
X116951530Y-83850499D01*
X116951534Y-83850500D01*
X116951535Y-83850500D01*
X117158466Y-83850500D01*
X117158467Y-83850499D01*
X117361420Y-83810130D01*
X117552598Y-83730941D01*
X117724655Y-83615977D01*
X117870977Y-83469655D01*
X117985941Y-83297598D01*
X118065130Y-83106420D01*
X118105500Y-82903465D01*
X118105500Y-82696535D01*
X118105499Y-82696530D01*
X118544500Y-82696530D01*
X118544500Y-82903469D01*
X118584868Y-83106412D01*
X118584870Y-83106420D01*
X118650939Y-83265925D01*
X118664059Y-83297598D01*
X118713680Y-83371862D01*
X118779024Y-83469657D01*
X118925342Y-83615975D01*
X118925345Y-83615977D01*
X119097402Y-83730941D01*
X119288580Y-83810130D01*
X119491530Y-83850499D01*
X119491534Y-83850500D01*
X119491535Y-83850500D01*
X119698466Y-83850500D01*
X119698467Y-83850499D01*
X119901420Y-83810130D01*
X120092598Y-83730941D01*
X120264655Y-83615977D01*
X120410977Y-83469655D01*
X120525941Y-83297598D01*
X120605130Y-83106420D01*
X120645500Y-82903465D01*
X120645500Y-82696535D01*
X120605130Y-82493580D01*
X120525941Y-82302402D01*
X120410977Y-82130345D01*
X120410975Y-82130342D01*
X120264657Y-81984024D01*
X120142130Y-81902155D01*
X120092598Y-81869059D01*
X119901420Y-81789870D01*
X119901412Y-81789868D01*
X119698469Y-81749500D01*
X119698465Y-81749500D01*
X119491535Y-81749500D01*
X119491530Y-81749500D01*
X119288587Y-81789868D01*
X119288579Y-81789870D01*
X119097403Y-81869058D01*
X118925342Y-81984024D01*
X118779024Y-82130342D01*
X118664058Y-82302403D01*
X118584870Y-82493579D01*
X118584868Y-82493587D01*
X118544500Y-82696530D01*
X118105499Y-82696530D01*
X118065130Y-82493580D01*
X117985941Y-82302402D01*
X117870977Y-82130345D01*
X117870975Y-82130342D01*
X117724657Y-81984024D01*
X117602130Y-81902155D01*
X117552598Y-81869059D01*
X117361420Y-81789870D01*
X117361412Y-81789868D01*
X117158469Y-81749500D01*
X117158465Y-81749500D01*
X116951535Y-81749500D01*
X116951530Y-81749500D01*
X116748587Y-81789868D01*
X116748579Y-81789870D01*
X116557403Y-81869058D01*
X116385342Y-81984024D01*
X116239024Y-82130342D01*
X116124058Y-82302403D01*
X116103561Y-82351888D01*
X116059720Y-82406291D01*
X115993426Y-82428356D01*
X115925726Y-82411077D01*
X115878116Y-82359939D01*
X115865000Y-82304435D01*
X115865000Y-81902172D01*
X115864999Y-81902155D01*
X115858598Y-81842627D01*
X115858596Y-81842620D01*
X115808354Y-81707913D01*
X115808350Y-81707906D01*
X115722190Y-81592812D01*
X115722187Y-81592809D01*
X115607093Y-81506649D01*
X115607086Y-81506645D01*
X115472379Y-81456403D01*
X115472372Y-81456401D01*
X115412844Y-81450000D01*
X114765000Y-81450000D01*
X114765000Y-82366988D01*
X114707993Y-82334075D01*
X114580826Y-82300000D01*
X114449174Y-82300000D01*
X114322007Y-82334075D01*
X114265000Y-82366988D01*
X114265000Y-81450000D01*
X113617155Y-81450000D01*
X113557627Y-81456401D01*
X113557620Y-81456403D01*
X113422913Y-81506645D01*
X113422906Y-81506649D01*
X113307812Y-81592809D01*
X113307809Y-81592812D01*
X113221649Y-81707906D01*
X113221645Y-81707913D01*
X113171403Y-81842620D01*
X113171401Y-81842627D01*
X113165000Y-81902155D01*
X112500500Y-81902155D01*
X112500500Y-67896268D01*
X112509738Y-67849303D01*
X112632719Y-67548793D01*
X112673457Y-67449249D01*
X112691392Y-67418186D01*
X112701294Y-67381228D01*
X112704067Y-67374454D01*
X112710538Y-67356242D01*
X112711178Y-67354131D01*
X112713339Y-67346471D01*
X112713339Y-67346468D01*
X112713340Y-67346465D01*
X112714494Y-67338989D01*
X112714764Y-67339030D01*
X112717417Y-67321055D01*
X112725500Y-67290892D01*
X112725500Y-67159108D01*
X112691392Y-67031814D01*
X112625500Y-66917686D01*
X112532314Y-66824500D01*
X112439544Y-66770939D01*
X112418187Y-66758608D01*
X112354539Y-66741554D01*
X112290892Y-66724500D01*
X112159108Y-66724500D01*
X112031812Y-66758608D01*
X111917686Y-66824500D01*
X111917683Y-66824502D01*
X111824502Y-66917683D01*
X111824500Y-66917686D01*
X111758608Y-67031812D01*
X111724500Y-67159108D01*
X111724500Y-67290891D01*
X111724501Y-67290899D01*
X111733697Y-67325222D01*
X111737177Y-67343741D01*
X111738729Y-67357839D01*
X111893740Y-67848517D01*
X111899500Y-67885870D01*
X111899500Y-85259083D01*
X111892074Y-85301349D01*
X111814822Y-85514409D01*
X111743752Y-85710423D01*
X111743751Y-85710424D01*
X111740025Y-85720697D01*
X111733608Y-85731814D01*
X111726847Y-85757041D01*
X111725025Y-85762068D01*
X111717197Y-85783660D01*
X111712531Y-85798191D01*
X111712068Y-85799841D01*
X111711099Y-85803418D01*
X111710033Y-85810575D01*
X111710007Y-85810571D01*
X111708684Y-85819533D01*
X111708133Y-85826501D01*
X111707583Y-85828938D01*
X111699500Y-85859108D01*
X103630500Y-85859108D01*
X103630500Y-85355251D01*
X103630499Y-85355249D01*
X103618868Y-85296772D01*
X103618867Y-85296771D01*
X103574552Y-85230449D01*
X103508230Y-85186134D01*
X103508229Y-85186133D01*
X103449752Y-85174502D01*
X103449748Y-85174502D01*
X101700252Y-85174502D01*
X101700247Y-85174502D01*
X101641770Y-85186133D01*
X101641769Y-85186134D01*
X101575447Y-85230449D01*
X101531132Y-85296771D01*
X101531131Y-85296772D01*
X101519500Y-85355249D01*
X101519500Y-85781580D01*
X101499815Y-85848619D01*
X101447011Y-85894374D01*
X101377853Y-85904318D01*
X101314297Y-85875293D01*
X101276523Y-85816515D01*
X101276320Y-85815815D01*
X100900321Y-84506872D01*
X100895501Y-84472637D01*
X100895501Y-81015946D01*
X100895501Y-81015944D01*
X100854578Y-80863217D01*
X100854578Y-80863216D01*
X100814009Y-80792949D01*
X100775521Y-80726285D01*
X100663717Y-80614481D01*
X100663716Y-80614480D01*
X100659386Y-80610150D01*
X100659375Y-80610140D01*
X90187590Y-70138355D01*
X90187588Y-70138352D01*
X90068717Y-70019481D01*
X90068716Y-70019480D01*
X89981904Y-69969360D01*
X89981904Y-69969359D01*
X89981900Y-69969358D01*
X89931785Y-69940423D01*
X89779057Y-69899499D01*
X89620943Y-69899499D01*
X89613347Y-69899499D01*
X89613331Y-69899500D01*
X75150098Y-69899500D01*
X75083059Y-69879815D01*
X75062417Y-69863181D01*
X74233344Y-69034108D01*
X87999500Y-69034108D01*
X87999500Y-69165891D01*
X88033608Y-69293187D01*
X88066554Y-69350250D01*
X88099500Y-69407314D01*
X88192686Y-69500500D01*
X88306814Y-69566392D01*
X88434108Y-69600500D01*
X88434110Y-69600500D01*
X88565890Y-69600500D01*
X88565892Y-69600500D01*
X88693186Y-69566392D01*
X88807314Y-69500500D01*
X88900500Y-69407314D01*
X88966392Y-69293186D01*
X88976653Y-69254887D01*
X88987360Y-69230762D01*
X88986234Y-69230186D01*
X88989008Y-69224770D01*
X88989009Y-69224765D01*
X88989012Y-69224762D01*
X89135771Y-68852126D01*
X89163461Y-68809890D01*
X91123809Y-66849544D01*
X91164000Y-66752512D01*
X91164000Y-66647487D01*
X91164000Y-59474278D01*
X91174287Y-59424829D01*
X91269098Y-59206812D01*
X91334004Y-59057563D01*
X91334007Y-59057550D01*
X91335541Y-59053142D01*
X91335874Y-59053257D01*
X91346310Y-59027967D01*
X91362748Y-58999498D01*
X91366392Y-58993186D01*
X91400500Y-58865892D01*
X91400500Y-58734108D01*
X91366392Y-58606814D01*
X91300500Y-58492686D01*
X91207314Y-58399500D01*
X91150250Y-58366554D01*
X91093187Y-58333608D01*
X91029539Y-58316554D01*
X90965892Y-58299500D01*
X90834108Y-58299500D01*
X90706812Y-58333608D01*
X90592686Y-58399500D01*
X90592683Y-58399502D01*
X90499502Y-58492683D01*
X90499500Y-58492686D01*
X90433608Y-58606812D01*
X90399500Y-58734108D01*
X90399500Y-58865892D01*
X90427862Y-58971739D01*
X90433608Y-58993185D01*
X90433608Y-58993186D01*
X90453433Y-59027524D01*
X90462968Y-59052136D01*
X90464124Y-59051764D01*
X90465995Y-59057564D01*
X90625712Y-59424826D01*
X90636000Y-59474278D01*
X90636000Y-66539285D01*
X90616315Y-66606324D01*
X90599681Y-66626966D01*
X88790111Y-68436535D01*
X88747869Y-68464228D01*
X88375242Y-68610984D01*
X88371019Y-68613028D01*
X88370867Y-68612714D01*
X88345609Y-68623212D01*
X88306817Y-68633606D01*
X88306814Y-68633607D01*
X88192686Y-68699500D01*
X88192683Y-68699502D01*
X88099502Y-68792683D01*
X88099500Y-68792686D01*
X88033608Y-68906812D01*
X87999500Y-69034108D01*
X74233344Y-69034108D01*
X71836819Y-66637583D01*
X71803334Y-66576260D01*
X71800500Y-66549902D01*
X71800500Y-65820540D01*
X78145500Y-65820540D01*
X78145500Y-67368045D01*
X78157131Y-67426522D01*
X78157132Y-67426523D01*
X78201447Y-67492845D01*
X78267769Y-67537160D01*
X78267770Y-67537161D01*
X78326247Y-67548792D01*
X78326250Y-67548793D01*
X78326252Y-67548793D01*
X79873750Y-67548793D01*
X79873751Y-67548792D01*
X79888568Y-67545845D01*
X79932229Y-67537161D01*
X79932229Y-67537160D01*
X79932231Y-67537160D01*
X79998552Y-67492845D01*
X80042867Y-67426524D01*
X80042867Y-67426522D01*
X80042868Y-67426522D01*
X80054499Y-67368045D01*
X80054500Y-67368043D01*
X80054500Y-66500278D01*
X80645500Y-66500278D01*
X80645500Y-66688307D01*
X80682179Y-66872702D01*
X80682182Y-66872714D01*
X80754129Y-67046411D01*
X80754136Y-67046424D01*
X80858591Y-67202750D01*
X80858594Y-67202754D01*
X80991538Y-67335698D01*
X80991542Y-67335701D01*
X81147868Y-67440156D01*
X81147881Y-67440163D01*
X81275068Y-67492845D01*
X81321583Y-67512112D01*
X81505985Y-67548792D01*
X81505988Y-67548793D01*
X81505990Y-67548793D01*
X81694012Y-67548793D01*
X81694013Y-67548792D01*
X81878417Y-67512112D01*
X82052125Y-67440160D01*
X82208458Y-67335701D01*
X82341408Y-67202751D01*
X82445867Y-67046418D01*
X82517819Y-66872710D01*
X82554500Y-66688303D01*
X82554500Y-66500283D01*
X82554500Y-66500280D01*
X82554499Y-66500278D01*
X83145500Y-66500278D01*
X83145500Y-66688307D01*
X83182179Y-66872702D01*
X83182182Y-66872714D01*
X83254129Y-67046411D01*
X83254136Y-67046424D01*
X83358591Y-67202750D01*
X83358594Y-67202754D01*
X83491538Y-67335698D01*
X83491542Y-67335701D01*
X83647868Y-67440156D01*
X83647881Y-67440163D01*
X83775068Y-67492845D01*
X83821583Y-67512112D01*
X84005985Y-67548792D01*
X84005988Y-67548793D01*
X84005990Y-67548793D01*
X84194012Y-67548793D01*
X84194013Y-67548792D01*
X84378417Y-67512112D01*
X84552125Y-67440160D01*
X84708458Y-67335701D01*
X84841408Y-67202751D01*
X84945867Y-67046418D01*
X85017819Y-66872710D01*
X85054500Y-66688303D01*
X85054500Y-66500283D01*
X85054500Y-66500280D01*
X85054499Y-66500278D01*
X85031470Y-66384505D01*
X85017819Y-66315876D01*
X84986208Y-66239560D01*
X84945870Y-66142174D01*
X84945863Y-66142161D01*
X84841408Y-65985835D01*
X84841405Y-65985831D01*
X84708461Y-65852887D01*
X84708457Y-65852884D01*
X84552131Y-65748429D01*
X84552118Y-65748422D01*
X84378421Y-65676475D01*
X84378409Y-65676472D01*
X84194013Y-65639793D01*
X84194010Y-65639793D01*
X84005990Y-65639793D01*
X84005987Y-65639793D01*
X83821590Y-65676472D01*
X83821578Y-65676475D01*
X83647881Y-65748422D01*
X83647868Y-65748429D01*
X83491542Y-65852884D01*
X83491538Y-65852887D01*
X83358594Y-65985831D01*
X83358591Y-65985835D01*
X83254136Y-66142161D01*
X83254129Y-66142174D01*
X83182182Y-66315871D01*
X83182179Y-66315883D01*
X83145500Y-66500278D01*
X82554499Y-66500278D01*
X82531470Y-66384505D01*
X82517819Y-66315876D01*
X82486208Y-66239560D01*
X82445870Y-66142174D01*
X82445863Y-66142161D01*
X82341408Y-65985835D01*
X82341405Y-65985831D01*
X82208461Y-65852887D01*
X82208457Y-65852884D01*
X82052131Y-65748429D01*
X82052118Y-65748422D01*
X81878421Y-65676475D01*
X81878409Y-65676472D01*
X81694013Y-65639793D01*
X81694010Y-65639793D01*
X81505990Y-65639793D01*
X81505987Y-65639793D01*
X81321590Y-65676472D01*
X81321578Y-65676475D01*
X81147881Y-65748422D01*
X81147868Y-65748429D01*
X80991542Y-65852884D01*
X80991538Y-65852887D01*
X80858594Y-65985831D01*
X80858591Y-65985835D01*
X80754136Y-66142161D01*
X80754129Y-66142174D01*
X80682182Y-66315871D01*
X80682179Y-66315883D01*
X80645500Y-66500278D01*
X80054500Y-66500278D01*
X80054500Y-65820542D01*
X80054499Y-65820540D01*
X80042868Y-65762063D01*
X80042867Y-65762062D01*
X79998552Y-65695740D01*
X79932230Y-65651425D01*
X79932229Y-65651424D01*
X79873752Y-65639793D01*
X79873748Y-65639793D01*
X78326252Y-65639793D01*
X78326247Y-65639793D01*
X78267770Y-65651424D01*
X78267769Y-65651425D01*
X78201447Y-65695740D01*
X78157132Y-65762062D01*
X78157131Y-65762063D01*
X78145500Y-65820540D01*
X71800500Y-65820540D01*
X71800500Y-59689059D01*
X71800501Y-59689046D01*
X71800501Y-59520945D01*
X71800501Y-59520943D01*
X71759577Y-59368215D01*
X71730639Y-59318095D01*
X71680520Y-59231284D01*
X71568716Y-59119480D01*
X71568715Y-59119479D01*
X71564385Y-59115149D01*
X71564374Y-59115139D01*
X70308284Y-57859049D01*
X70282643Y-57821707D01*
X69718674Y-56551970D01*
X69708000Y-56501640D01*
X69708000Y-56426049D01*
X69708000Y-56426043D01*
X69678904Y-56205037D01*
X69621210Y-55989719D01*
X69586869Y-55906812D01*
X69535906Y-55783775D01*
X69507230Y-55734108D01*
X80274500Y-55734108D01*
X80274500Y-55865891D01*
X80308608Y-55993187D01*
X80341554Y-56050250D01*
X80374500Y-56107314D01*
X80467686Y-56200500D01*
X80581814Y-56266392D01*
X80626006Y-56278233D01*
X80651148Y-56288882D01*
X80651309Y-56288542D01*
X80656812Y-56291141D01*
X80656817Y-56291144D01*
X81034084Y-56425927D01*
X81080046Y-56455017D01*
X83766638Y-59141609D01*
X83791275Y-59176747D01*
X83975653Y-59570879D01*
X83980282Y-59580775D01*
X83983608Y-59593186D01*
X83996679Y-59615826D01*
X83998941Y-59620661D01*
X84008669Y-59641455D01*
X84015676Y-59655085D01*
X84016541Y-59656623D01*
X84018304Y-59659697D01*
X84022618Y-59665522D01*
X84022597Y-59665537D01*
X84035097Y-59682367D01*
X84049497Y-59707310D01*
X84049499Y-59707313D01*
X84049500Y-59707314D01*
X84142686Y-59800500D01*
X84256814Y-59866392D01*
X84384108Y-59900500D01*
X84384110Y-59900500D01*
X84515890Y-59900500D01*
X84515892Y-59900500D01*
X84643186Y-59866392D01*
X84757314Y-59800500D01*
X84850500Y-59707314D01*
X84916392Y-59593186D01*
X84950500Y-59465892D01*
X84950500Y-59334108D01*
X84916392Y-59206814D01*
X84850500Y-59092686D01*
X84757314Y-58999500D01*
X84746376Y-58993185D01*
X84715162Y-58975162D01*
X84715162Y-58975163D01*
X84709228Y-58971737D01*
X84691450Y-58958667D01*
X84665834Y-58946683D01*
X84661215Y-58944016D01*
X84661212Y-58944013D01*
X84643192Y-58933610D01*
X84643176Y-58933604D01*
X84641321Y-58933107D01*
X84620877Y-58925652D01*
X84226748Y-58741276D01*
X84191610Y-58716639D01*
X81488776Y-56013805D01*
X81469324Y-55988561D01*
X81208261Y-55540614D01*
X81206519Y-55537728D01*
X81205032Y-55535263D01*
X81204672Y-55534686D01*
X81203017Y-55532972D01*
X81184819Y-55508827D01*
X81175500Y-55492686D01*
X81082314Y-55399500D01*
X81025250Y-55366554D01*
X80968187Y-55333608D01*
X80904539Y-55316554D01*
X80840892Y-55299500D01*
X80709108Y-55299500D01*
X80581812Y-55333608D01*
X80467686Y-55399500D01*
X80467683Y-55399502D01*
X80374502Y-55492683D01*
X80374500Y-55492686D01*
X80308608Y-55606812D01*
X80274500Y-55734108D01*
X69507230Y-55734108D01*
X69487249Y-55699500D01*
X69424448Y-55590726D01*
X69339051Y-55479434D01*
X69288748Y-55413877D01*
X69288742Y-55413870D01*
X69131129Y-55256257D01*
X69131122Y-55256251D01*
X68954282Y-55120558D01*
X68954280Y-55120557D01*
X68954274Y-55120552D01*
X68761226Y-55009095D01*
X68761222Y-55009093D01*
X68555290Y-54923793D01*
X68555283Y-54923791D01*
X68555281Y-54923790D01*
X68339963Y-54866096D01*
X68339957Y-54866095D01*
X68339952Y-54866094D01*
X68118966Y-54837001D01*
X68118963Y-54837000D01*
X68118957Y-54837000D01*
X67896043Y-54837000D01*
X67896037Y-54837000D01*
X67896033Y-54837001D01*
X67675047Y-54866094D01*
X67675040Y-54866095D01*
X67675037Y-54866096D01*
X67459719Y-54923790D01*
X67459709Y-54923793D01*
X67253777Y-55009093D01*
X67253773Y-55009095D01*
X67060726Y-55120552D01*
X67060717Y-55120558D01*
X66883877Y-55256251D01*
X66883870Y-55256257D01*
X66726257Y-55413870D01*
X66726251Y-55413877D01*
X66590558Y-55590717D01*
X66590552Y-55590726D01*
X66479095Y-55783773D01*
X66479093Y-55783777D01*
X66393793Y-55989709D01*
X66393790Y-55989719D01*
X66337312Y-56200501D01*
X66336097Y-56205034D01*
X66336094Y-56205047D01*
X66307001Y-56426033D01*
X66307000Y-56426049D01*
X60500500Y-56426049D01*
X60500500Y-53009109D01*
X102927607Y-53009109D01*
X102927607Y-53140892D01*
X102961715Y-53268188D01*
X102994661Y-53325251D01*
X103027607Y-53382315D01*
X103027609Y-53382317D01*
X103106057Y-53460765D01*
X103139542Y-53522088D01*
X103134558Y-53591780D01*
X103106059Y-53636126D01*
X103049500Y-53692686D01*
X102983608Y-53806812D01*
X102949500Y-53934108D01*
X102949500Y-54065892D01*
X102961814Y-54111848D01*
X102983608Y-54193187D01*
X103016554Y-54250250D01*
X103049500Y-54307314D01*
X103142686Y-54400500D01*
X103191459Y-54428659D01*
X103193977Y-54430113D01*
X103242192Y-54480681D01*
X103255414Y-54549288D01*
X103229446Y-54614153D01*
X103193977Y-54644887D01*
X103142686Y-54674500D01*
X103142683Y-54674502D01*
X103049502Y-54767683D01*
X103049500Y-54767686D01*
X102983608Y-54881812D01*
X102949500Y-55009108D01*
X102949500Y-55140891D01*
X102983608Y-55268187D01*
X103001687Y-55299500D01*
X103049500Y-55382314D01*
X103049502Y-55382316D01*
X103113181Y-55445995D01*
X103146666Y-55507318D01*
X103149500Y-55533676D01*
X103149500Y-62064562D01*
X103162619Y-62113522D01*
X103169979Y-62140990D01*
X103169982Y-62140995D01*
X103209535Y-62209504D01*
X103209541Y-62209512D01*
X105241638Y-64241609D01*
X105266275Y-64276747D01*
X105450653Y-64670879D01*
X105455282Y-64680775D01*
X105458608Y-64693186D01*
X105471679Y-64715826D01*
X105473941Y-64720661D01*
X105483669Y-64741455D01*
X105490676Y-64755085D01*
X105491541Y-64756623D01*
X105493304Y-64759697D01*
X105497618Y-64765522D01*
X105497597Y-64765537D01*
X105510097Y-64782367D01*
X105524497Y-64807310D01*
X105524499Y-64807313D01*
X105524500Y-64807314D01*
X105617686Y-64900500D01*
X105731814Y-64966392D01*
X105859108Y-65000500D01*
X105859110Y-65000500D01*
X105990890Y-65000500D01*
X105990892Y-65000500D01*
X106118186Y-64966392D01*
X106232314Y-64900500D01*
X106325500Y-64807314D01*
X106391392Y-64693186D01*
X106425500Y-64565892D01*
X106425500Y-64434108D01*
X106391392Y-64306814D01*
X106325500Y-64192686D01*
X106232314Y-64099500D01*
X106224193Y-64094811D01*
X106190162Y-64075162D01*
X106190162Y-64075163D01*
X106184228Y-64071737D01*
X106166450Y-64058667D01*
X106140834Y-64046683D01*
X106136215Y-64044016D01*
X106136212Y-64044013D01*
X106118192Y-64033610D01*
X106118176Y-64033604D01*
X106116321Y-64033107D01*
X106095877Y-64025652D01*
X105701748Y-63841276D01*
X105666610Y-63816639D01*
X103786819Y-61936848D01*
X103753334Y-61875525D01*
X103750500Y-61849167D01*
X103750500Y-55533676D01*
X103770185Y-55466637D01*
X103786819Y-55445995D01*
X103850500Y-55382314D01*
X103916392Y-55268186D01*
X103940437Y-55178447D01*
X103976799Y-55118790D01*
X104039645Y-55088260D01*
X104109021Y-55096554D01*
X104147891Y-55122862D01*
X105563181Y-56538152D01*
X105596666Y-56599475D01*
X105599500Y-56625833D01*
X105599500Y-60859083D01*
X105592074Y-60901351D01*
X105443752Y-61310423D01*
X105443751Y-61310424D01*
X105440025Y-61320697D01*
X105433608Y-61331814D01*
X105426847Y-61357041D01*
X105425025Y-61362068D01*
X105417197Y-61383660D01*
X105412531Y-61398191D01*
X105412068Y-61399841D01*
X105411099Y-61403418D01*
X105410033Y-61410575D01*
X105410007Y-61410571D01*
X105406945Y-61431317D01*
X105399501Y-61459100D01*
X105399500Y-61459108D01*
X105399500Y-61590892D01*
X105416554Y-61654539D01*
X105433608Y-61718187D01*
X105438753Y-61727098D01*
X105499500Y-61832314D01*
X105592686Y-61925500D01*
X105706814Y-61991392D01*
X105834108Y-62025500D01*
X105834110Y-62025500D01*
X105965890Y-62025500D01*
X105965892Y-62025500D01*
X106093186Y-61991392D01*
X106207314Y-61925500D01*
X106300500Y-61832314D01*
X106366392Y-61718186D01*
X106400500Y-61590892D01*
X106400500Y-61459108D01*
X106386135Y-61405497D01*
X106382801Y-61383661D01*
X106373158Y-61357065D01*
X106366392Y-61331814D01*
X106365435Y-61330156D01*
X106356243Y-61310415D01*
X106310388Y-61183946D01*
X106207926Y-60901350D01*
X106200500Y-60859083D01*
X106200500Y-56410439D01*
X106200500Y-56410438D01*
X106180021Y-56334011D01*
X106175107Y-56325499D01*
X106140464Y-56265495D01*
X106140458Y-56265487D01*
X103986819Y-54111848D01*
X103953334Y-54050525D01*
X103950500Y-54024167D01*
X103950500Y-53934110D01*
X103950500Y-53934108D01*
X103916392Y-53806814D01*
X103850500Y-53692686D01*
X103772049Y-53614235D01*
X103767710Y-53606289D01*
X103760463Y-53600864D01*
X103751228Y-53576104D01*
X103738564Y-53552912D01*
X103739209Y-53543882D01*
X103736046Y-53535400D01*
X103741662Y-53509579D01*
X103743548Y-53483220D01*
X103749366Y-53474166D01*
X103750898Y-53467127D01*
X103772049Y-53438873D01*
X103774103Y-53436819D01*
X103835426Y-53403334D01*
X103861784Y-53400500D01*
X103924167Y-53400500D01*
X103991206Y-53420185D01*
X104011848Y-53436819D01*
X106241638Y-55666609D01*
X106266275Y-55701747D01*
X106450653Y-56095879D01*
X106455282Y-56105775D01*
X106458608Y-56118186D01*
X106471679Y-56140826D01*
X106473941Y-56145661D01*
X106483669Y-56166455D01*
X106490676Y-56180085D01*
X106491541Y-56181623D01*
X106493304Y-56184697D01*
X106497618Y-56190522D01*
X106497597Y-56190537D01*
X106510097Y-56207367D01*
X106524497Y-56232310D01*
X106524499Y-56232313D01*
X106524500Y-56232314D01*
X106617686Y-56325500D01*
X106731814Y-56391392D01*
X106859108Y-56425500D01*
X106859110Y-56425500D01*
X106990890Y-56425500D01*
X106990892Y-56425500D01*
X107118186Y-56391392D01*
X107232314Y-56325500D01*
X107325500Y-56232314D01*
X107391392Y-56118186D01*
X107425500Y-55990892D01*
X107425500Y-55859108D01*
X107391392Y-55731814D01*
X107325500Y-55617686D01*
X107232314Y-55524500D01*
X107224193Y-55519811D01*
X107190162Y-55500162D01*
X107190162Y-55500163D01*
X107184228Y-55496737D01*
X107166450Y-55483667D01*
X107140834Y-55471683D01*
X107136215Y-55469016D01*
X107136212Y-55469013D01*
X107118192Y-55458610D01*
X107118176Y-55458604D01*
X107116321Y-55458107D01*
X107095877Y-55450652D01*
X106701748Y-55266276D01*
X106666610Y-55241639D01*
X104284510Y-52859539D01*
X104258138Y-52844314D01*
X104231766Y-52829088D01*
X104231765Y-52829087D01*
X104225097Y-52825237D01*
X104215989Y-52819979D01*
X104139562Y-52799500D01*
X104139560Y-52799500D01*
X103911782Y-52799500D01*
X103844743Y-52779815D01*
X103824101Y-52763181D01*
X103735423Y-52674503D01*
X103735421Y-52674501D01*
X103678357Y-52641555D01*
X103621294Y-52608609D01*
X103557646Y-52591555D01*
X103493999Y-52574501D01*
X103362215Y-52574501D01*
X103234919Y-52608609D01*
X103120793Y-52674501D01*
X103120790Y-52674503D01*
X103027609Y-52767684D01*
X103027607Y-52767687D01*
X102961715Y-52881813D01*
X102927607Y-53009109D01*
X60500500Y-53009109D01*
X60500500Y-50334108D01*
X98349500Y-50334108D01*
X98349500Y-50465891D01*
X98383608Y-50593187D01*
X98394016Y-50611213D01*
X98449500Y-50707314D01*
X98542686Y-50800500D01*
X98656814Y-50866392D01*
X98784108Y-50900500D01*
X98784110Y-50900500D01*
X98915890Y-50900500D01*
X98915892Y-50900500D01*
X99043186Y-50866392D01*
X99157314Y-50800500D01*
X99250500Y-50707314D01*
X99278264Y-50659225D01*
X99291332Y-50641450D01*
X99303312Y-50615841D01*
X99316392Y-50593186D01*
X99316889Y-50591327D01*
X99324344Y-50570879D01*
X99508723Y-50176745D01*
X99533355Y-50141614D01*
X101188152Y-48486819D01*
X101249475Y-48453334D01*
X101275833Y-48450500D01*
X102234083Y-48450500D01*
X102276350Y-48457926D01*
X102695688Y-48609968D01*
X102706814Y-48616392D01*
X102732065Y-48623158D01*
X102758661Y-48632801D01*
X102770206Y-48636511D01*
X102773097Y-48637441D01*
X102774698Y-48637891D01*
X102774743Y-48637903D01*
X102774753Y-48637906D01*
X102778415Y-48638899D01*
X102778417Y-48638899D01*
X102785585Y-48639968D01*
X102785581Y-48639993D01*
X102806314Y-48643052D01*
X102834108Y-48650500D01*
X102834110Y-48650500D01*
X102965890Y-48650500D01*
X102965892Y-48650500D01*
X103093186Y-48616392D01*
X103207314Y-48550500D01*
X103300500Y-48457314D01*
X103366392Y-48343186D01*
X103400500Y-48215892D01*
X103400500Y-48084108D01*
X103366392Y-47956814D01*
X103300500Y-47842686D01*
X103207314Y-47749500D01*
X103150250Y-47716554D01*
X103093187Y-47683608D01*
X103019496Y-47663863D01*
X102965892Y-47649500D01*
X102834108Y-47649500D01*
X102834104Y-47649500D01*
X102787115Y-47662091D01*
X102787114Y-47662091D01*
X102780497Y-47663863D01*
X102758664Y-47667198D01*
X102732075Y-47676837D01*
X102726933Y-47678215D01*
X102726919Y-47678220D01*
X102706813Y-47683608D01*
X102706803Y-47683612D01*
X102705133Y-47684577D01*
X102685417Y-47693754D01*
X102276349Y-47842074D01*
X102234082Y-47849500D01*
X101060438Y-47849500D01*
X100984010Y-47869978D01*
X100915489Y-47909540D01*
X100915486Y-47909542D01*
X99108390Y-49716637D01*
X99073252Y-49741274D01*
X98679114Y-49925655D01*
X98679113Y-49925655D01*
X98669215Y-49930284D01*
X98656814Y-49933608D01*
X98634195Y-49946666D01*
X98629356Y-49948930D01*
X98629353Y-49948933D01*
X98608539Y-49958671D01*
X98594843Y-49965715D01*
X98593255Y-49966609D01*
X98590300Y-49968305D01*
X98584493Y-49972607D01*
X98584478Y-49972587D01*
X98567640Y-49985092D01*
X98542685Y-49999500D01*
X98449500Y-50092686D01*
X98383608Y-50206812D01*
X98349500Y-50334108D01*
X60500500Y-50334108D01*
X60500500Y-48684108D01*
X89999500Y-48684108D01*
X89999500Y-48815891D01*
X90033608Y-48943187D01*
X90066554Y-49000250D01*
X90099500Y-49057314D01*
X90192686Y-49150500D01*
X90306814Y-49216392D01*
X90434108Y-49250500D01*
X90434110Y-49250500D01*
X90565890Y-49250500D01*
X90565892Y-49250500D01*
X90619504Y-49236134D01*
X90641337Y-49232801D01*
X90667927Y-49223160D01*
X90693186Y-49216392D01*
X90694849Y-49215431D01*
X90714580Y-49206243D01*
X91123649Y-49057926D01*
X91165916Y-49050500D01*
X92334083Y-49050500D01*
X92376350Y-49057926D01*
X92795688Y-49209968D01*
X92806814Y-49216392D01*
X92832065Y-49223158D01*
X92858661Y-49232801D01*
X92869031Y-49236134D01*
X92873097Y-49237441D01*
X92874698Y-49237891D01*
X92874743Y-49237903D01*
X92874753Y-49237906D01*
X92878415Y-49238899D01*
X92878417Y-49238899D01*
X92885585Y-49239968D01*
X92885581Y-49239993D01*
X92906314Y-49243052D01*
X92934108Y-49250500D01*
X92934110Y-49250500D01*
X93065890Y-49250500D01*
X93065892Y-49250500D01*
X93193186Y-49216392D01*
X93307314Y-49150500D01*
X93400500Y-49057314D01*
X93466392Y-48943186D01*
X93500500Y-48815892D01*
X93500500Y-48684108D01*
X93466392Y-48556814D01*
X93400500Y-48442686D01*
X93307314Y-48349500D01*
X93210765Y-48293757D01*
X93193187Y-48283608D01*
X93112920Y-48262101D01*
X93065892Y-48249500D01*
X92934108Y-48249500D01*
X92934104Y-48249500D01*
X92887115Y-48262091D01*
X92887114Y-48262091D01*
X92880497Y-48263863D01*
X92858664Y-48267198D01*
X92832075Y-48276837D01*
X92826933Y-48278215D01*
X92826919Y-48278220D01*
X92806813Y-48283608D01*
X92806803Y-48283612D01*
X92805133Y-48284577D01*
X92785417Y-48293754D01*
X92376349Y-48442074D01*
X92334082Y-48449500D01*
X91165916Y-48449500D01*
X91123649Y-48442074D01*
X90714585Y-48293757D01*
X90704314Y-48290033D01*
X90693186Y-48283608D01*
X90667928Y-48276840D01*
X90662803Y-48274982D01*
X90641322Y-48267193D01*
X90626950Y-48262572D01*
X90626006Y-48262307D01*
X90625274Y-48262101D01*
X90624905Y-48262000D01*
X90621578Y-48261098D01*
X90614410Y-48260029D01*
X90614413Y-48260005D01*
X90593678Y-48256945D01*
X90565893Y-48249500D01*
X90565892Y-48249500D01*
X90434108Y-48249500D01*
X90306812Y-48283608D01*
X90192686Y-48349500D01*
X90192683Y-48349502D01*
X90099502Y-48442683D01*
X90099500Y-48442686D01*
X90033608Y-48556812D01*
X89999500Y-48684108D01*
X60500500Y-48684108D01*
X60500500Y-44717747D01*
X66307000Y-44717747D01*
X66307000Y-47757252D01*
X66318631Y-47815729D01*
X66318632Y-47815730D01*
X66362947Y-47882052D01*
X66429269Y-47926367D01*
X66429270Y-47926368D01*
X66487747Y-47937999D01*
X66487750Y-47938000D01*
X66487752Y-47938000D01*
X69527250Y-47938000D01*
X69527251Y-47937999D01*
X69542068Y-47935052D01*
X69585729Y-47926368D01*
X69585729Y-47926367D01*
X69585731Y-47926367D01*
X69652052Y-47882052D01*
X69696367Y-47815731D01*
X69696367Y-47815729D01*
X69696368Y-47815729D01*
X69707999Y-47757252D01*
X69708000Y-47757250D01*
X69708000Y-44717749D01*
X69707999Y-44717747D01*
X69696368Y-44659270D01*
X69696367Y-44659269D01*
X69652052Y-44592947D01*
X69585730Y-44548632D01*
X69585729Y-44548631D01*
X69527252Y-44537000D01*
X69527248Y-44537000D01*
X66487752Y-44537000D01*
X66487747Y-44537000D01*
X66429270Y-44548631D01*
X66429269Y-44548632D01*
X66362947Y-44592947D01*
X66318632Y-44659269D01*
X66318631Y-44659270D01*
X66307000Y-44717747D01*
X60500500Y-44717747D01*
X60500500Y-41106405D01*
X66007500Y-41106405D01*
X66007500Y-41368594D01*
X66041720Y-41628509D01*
X66041722Y-41628520D01*
X66109575Y-41881755D01*
X66209904Y-42123971D01*
X66209909Y-42123982D01*
X66340988Y-42351016D01*
X66340994Y-42351024D01*
X66427580Y-42463865D01*
X67406458Y-41484987D01*
X67431478Y-41545390D01*
X67502612Y-41651851D01*
X67593149Y-41742388D01*
X67699610Y-41813522D01*
X67760011Y-41838541D01*
X66781133Y-42817417D01*
X66781133Y-42817418D01*
X66893975Y-42904005D01*
X66893983Y-42904011D01*
X67121017Y-43035090D01*
X67121028Y-43035095D01*
X67363244Y-43135424D01*
X67616479Y-43203277D01*
X67616490Y-43203279D01*
X67876405Y-43237499D01*
X67876420Y-43237500D01*
X68138580Y-43237500D01*
X68138594Y-43237499D01*
X68398509Y-43203279D01*
X68398520Y-43203277D01*
X68651755Y-43135424D01*
X68893971Y-43035095D01*
X68893982Y-43035090D01*
X69121016Y-42904011D01*
X69121034Y-42903999D01*
X69233865Y-42817419D01*
X69233865Y-42817417D01*
X68254988Y-41838541D01*
X68315390Y-41813522D01*
X68421851Y-41742388D01*
X68512388Y-41651851D01*
X68583522Y-41545390D01*
X68608541Y-41484988D01*
X69587417Y-42463865D01*
X69587419Y-42463865D01*
X69673999Y-42351034D01*
X69674011Y-42351016D01*
X69805090Y-42123982D01*
X69805095Y-42123971D01*
X69905424Y-41881755D01*
X69973277Y-41628520D01*
X69973279Y-41628509D01*
X70007499Y-41368594D01*
X70007500Y-41368580D01*
X70007500Y-41106419D01*
X70007499Y-41106405D01*
X69973279Y-40846490D01*
X69973277Y-40846479D01*
X69905424Y-40593244D01*
X69805095Y-40351028D01*
X69805090Y-40351017D01*
X69674011Y-40123983D01*
X69674005Y-40123975D01*
X69587418Y-40011133D01*
X69587417Y-40011133D01*
X68608541Y-40990010D01*
X68583522Y-40929610D01*
X68512388Y-40823149D01*
X68421851Y-40732612D01*
X68315390Y-40661478D01*
X68254987Y-40636457D01*
X69233865Y-39657580D01*
X69121024Y-39570994D01*
X69121016Y-39570988D01*
X68893982Y-39439909D01*
X68893971Y-39439904D01*
X68651755Y-39339575D01*
X68398520Y-39271722D01*
X68398509Y-39271720D01*
X68138594Y-39237500D01*
X67876405Y-39237500D01*
X67616490Y-39271720D01*
X67616479Y-39271722D01*
X67363244Y-39339575D01*
X67121028Y-39439904D01*
X67121017Y-39439909D01*
X66893971Y-39570996D01*
X66781133Y-39657579D01*
X66781133Y-39657580D01*
X67760011Y-40636458D01*
X67699610Y-40661478D01*
X67593149Y-40732612D01*
X67502612Y-40823149D01*
X67431478Y-40929610D01*
X67406458Y-40990011D01*
X66427580Y-40011133D01*
X66427579Y-40011133D01*
X66340996Y-40123971D01*
X66209909Y-40351017D01*
X66209904Y-40351028D01*
X66109575Y-40593244D01*
X66041722Y-40846479D01*
X66041720Y-40846490D01*
X66007500Y-41106405D01*
X60500500Y-41106405D01*
X60500500Y-37859108D01*
X115874500Y-37859108D01*
X115874500Y-37990891D01*
X115908608Y-38118187D01*
X115941554Y-38175250D01*
X115974500Y-38232314D01*
X116067686Y-38325500D01*
X116181814Y-38391392D01*
X116309108Y-38425500D01*
X116309110Y-38425500D01*
X116440890Y-38425500D01*
X116440892Y-38425500D01*
X116568186Y-38391392D01*
X116682314Y-38325500D01*
X116745995Y-38261819D01*
X116807318Y-38228334D01*
X116833676Y-38225500D01*
X119749167Y-38225500D01*
X119816206Y-38245185D01*
X119836848Y-38261819D01*
X120863181Y-39288152D01*
X120896666Y-39349475D01*
X120899500Y-39375833D01*
X120899500Y-39465891D01*
X120933608Y-39593187D01*
X120966554Y-39650250D01*
X120999500Y-39707314D01*
X121092686Y-39800500D01*
X121206814Y-39866392D01*
X121334108Y-39900500D01*
X121334110Y-39900500D01*
X121465890Y-39900500D01*
X121465892Y-39900500D01*
X121593186Y-39866392D01*
X121707314Y-39800500D01*
X121800500Y-39707314D01*
X121866392Y-39593186D01*
X121900500Y-39465892D01*
X121900500Y-39334108D01*
X121866392Y-39206814D01*
X121800500Y-39092686D01*
X121707314Y-38999500D01*
X121650250Y-38966554D01*
X121593187Y-38933608D01*
X121529539Y-38916554D01*
X121465892Y-38899500D01*
X121375833Y-38899500D01*
X121308794Y-38879815D01*
X121288152Y-38863181D01*
X120109512Y-37684541D01*
X120109507Y-37684537D01*
X120100065Y-37679086D01*
X120100064Y-37679086D01*
X120040991Y-37644980D01*
X120040990Y-37644979D01*
X120015513Y-37638152D01*
X119964562Y-37624500D01*
X119964560Y-37624500D01*
X116833676Y-37624500D01*
X116766637Y-37604815D01*
X116745995Y-37588181D01*
X116682316Y-37524502D01*
X116682314Y-37524500D01*
X116625250Y-37491554D01*
X116568187Y-37458608D01*
X116504539Y-37441554D01*
X116440892Y-37424500D01*
X116309108Y-37424500D01*
X116181812Y-37458608D01*
X116067686Y-37524500D01*
X116067683Y-37524502D01*
X115974502Y-37617683D01*
X115974500Y-37617686D01*
X115908608Y-37731812D01*
X115874500Y-37859108D01*
X60500500Y-37859108D01*
X60500500Y-32381902D01*
X60999500Y-32381902D01*
X60999500Y-32618097D01*
X61036446Y-32851368D01*
X61109433Y-33075996D01*
X61216657Y-33286433D01*
X61355483Y-33477510D01*
X61522490Y-33644517D01*
X61713567Y-33783343D01*
X61812991Y-33834002D01*
X61924003Y-33890566D01*
X61924005Y-33890566D01*
X61924008Y-33890568D01*
X62044412Y-33929689D01*
X62148631Y-33963553D01*
X62381903Y-34000500D01*
X62381908Y-34000500D01*
X62618097Y-34000500D01*
X62851368Y-33963553D01*
X63075992Y-33890568D01*
X63286433Y-33783343D01*
X63477510Y-33644517D01*
X63644517Y-33477510D01*
X63783343Y-33286433D01*
X63890568Y-33075992D01*
X63963553Y-32851368D01*
X64000500Y-32618097D01*
X64000500Y-32381902D01*
X126099500Y-32381902D01*
X126099500Y-32618097D01*
X126136446Y-32851368D01*
X126209433Y-33075996D01*
X126316657Y-33286433D01*
X126455483Y-33477510D01*
X126622490Y-33644517D01*
X126813567Y-33783343D01*
X126912991Y-33834002D01*
X127024003Y-33890566D01*
X127024005Y-33890566D01*
X127024008Y-33890568D01*
X127144412Y-33929689D01*
X127248631Y-33963553D01*
X127481903Y-34000500D01*
X127481908Y-34000500D01*
X127718097Y-34000500D01*
X127951368Y-33963553D01*
X128175992Y-33890568D01*
X128386433Y-33783343D01*
X128577510Y-33644517D01*
X128744517Y-33477510D01*
X128883343Y-33286433D01*
X128990568Y-33075992D01*
X129063553Y-32851368D01*
X129100500Y-32618097D01*
X129100500Y-32381902D01*
X129063553Y-32148631D01*
X129015259Y-32000000D01*
X128990568Y-31924008D01*
X128990566Y-31924005D01*
X128990566Y-31924003D01*
X128883342Y-31713566D01*
X128744517Y-31522490D01*
X128577510Y-31355483D01*
X128386433Y-31216657D01*
X128175996Y-31109433D01*
X127951368Y-31036446D01*
X127718097Y-30999500D01*
X127718092Y-30999500D01*
X127481908Y-30999500D01*
X127481903Y-30999500D01*
X127248631Y-31036446D01*
X127024003Y-31109433D01*
X126813566Y-31216657D01*
X126704550Y-31295862D01*
X126622490Y-31355483D01*
X126622488Y-31355485D01*
X126622487Y-31355485D01*
X126455485Y-31522487D01*
X126455485Y-31522488D01*
X126455483Y-31522490D01*
X126436623Y-31548449D01*
X126316657Y-31713566D01*
X126209433Y-31924003D01*
X126136446Y-32148631D01*
X126099500Y-32381902D01*
X64000500Y-32381902D01*
X63963553Y-32148631D01*
X63915259Y-32000000D01*
X63890568Y-31924008D01*
X63890566Y-31924005D01*
X63890566Y-31924003D01*
X63783342Y-31713566D01*
X63644517Y-31522490D01*
X63477510Y-31355483D01*
X63286433Y-31216657D01*
X63075996Y-31109433D01*
X62851368Y-31036446D01*
X62618097Y-30999500D01*
X62618092Y-30999500D01*
X62381908Y-30999500D01*
X62381903Y-30999500D01*
X62148631Y-31036446D01*
X61924003Y-31109433D01*
X61713566Y-31216657D01*
X61604550Y-31295862D01*
X61522490Y-31355483D01*
X61522488Y-31355485D01*
X61522487Y-31355485D01*
X61355485Y-31522487D01*
X61355485Y-31522488D01*
X61355483Y-31522490D01*
X61336623Y-31548449D01*
X61216657Y-31713566D01*
X61109433Y-31924003D01*
X61036446Y-32148631D01*
X60999500Y-32381902D01*
X60500500Y-32381902D01*
X60500500Y-32004427D01*
X60500816Y-31995581D01*
X60505935Y-31924008D01*
X60515131Y-31795434D01*
X60517646Y-31777938D01*
X60559356Y-31586199D01*
X60564333Y-31569248D01*
X60632911Y-31385385D01*
X60640259Y-31369298D01*
X60647801Y-31355485D01*
X60734291Y-31197089D01*
X60743845Y-31182221D01*
X60861448Y-31025123D01*
X60873020Y-31011769D01*
X61011769Y-30873020D01*
X61025123Y-30861448D01*
X61182221Y-30743845D01*
X61197089Y-30734291D01*
X61369298Y-30640258D01*
X61385385Y-30632911D01*
X61569248Y-30564333D01*
X61586199Y-30559356D01*
X61777938Y-30517646D01*
X61795436Y-30515130D01*
X61995582Y-30500816D01*
X62004428Y-30500500D01*
X62065892Y-30500500D01*
X127934108Y-30500500D01*
X127995572Y-30500500D01*
X128004418Y-30500816D01*
G37*
%TD.AperFunction*%
%TD*%
%TA.AperFunction,Conductor*%
%TO.N,/MCU - ESP32S3/ESP_RXD*%
G36*
X123335362Y-73439986D02*
G01*
X123336872Y-73440835D01*
X123573734Y-73597984D01*
X123577015Y-73601265D01*
X123734164Y-73838127D01*
X123735883Y-73846915D01*
X123730883Y-73854344D01*
X123729373Y-73855193D01*
X123232953Y-74087422D01*
X123224007Y-74087823D01*
X123219722Y-74085097D01*
X123089902Y-73955277D01*
X123086475Y-73947004D01*
X123087575Y-73942051D01*
X123319806Y-73445625D01*
X123326416Y-73439585D01*
X123335362Y-73439986D01*
G37*
%TD.AperFunction*%
%TD*%
%TA.AperFunction,Conductor*%
%TO.N,/MCU - ESP32S3/ENABLE*%
G36*
X118955930Y-75155835D02*
G01*
X118963358Y-75160834D01*
X118965077Y-75169622D01*
X118964608Y-75171290D01*
X118777796Y-75686524D01*
X118771755Y-75693134D01*
X118766797Y-75694236D01*
X118583203Y-75694236D01*
X118574930Y-75690809D01*
X118572204Y-75686524D01*
X118524544Y-75555078D01*
X118385391Y-75171288D01*
X118385792Y-75162344D01*
X118392402Y-75156303D01*
X118394056Y-75155837D01*
X118672682Y-75099469D01*
X118677318Y-75099469D01*
X118955930Y-75155835D01*
G37*
%TD.AperFunction*%
%TD*%
%TA.AperFunction,Conductor*%
%TO.N,/IO - AD9833 DDS/SPI_MOSI*%
G36*
X105582949Y-64012576D02*
G01*
X105893713Y-64157953D01*
X106079373Y-64244806D01*
X106085414Y-64251416D01*
X106085013Y-64260362D01*
X106084164Y-64261872D01*
X105927015Y-64498734D01*
X105923734Y-64502015D01*
X105686872Y-64659164D01*
X105678084Y-64660883D01*
X105670655Y-64655883D01*
X105669806Y-64654373D01*
X105596997Y-64498734D01*
X105437576Y-64157951D01*
X105437176Y-64149007D01*
X105439900Y-64144724D01*
X105569723Y-64014901D01*
X105577995Y-64011475D01*
X105582949Y-64012576D01*
G37*
%TD.AperFunction*%
%TD*%
%TA.AperFunction,Conductor*%
%TO.N,/MCU - ESP32S3/ENABLE*%
G36*
X118775070Y-74509191D02*
G01*
X118777796Y-74513476D01*
X118964608Y-75028709D01*
X118964207Y-75037655D01*
X118957597Y-75043696D01*
X118955929Y-75044165D01*
X118677320Y-75100530D01*
X118672680Y-75100530D01*
X118394070Y-75044165D01*
X118386641Y-75039165D01*
X118384922Y-75030377D01*
X118385387Y-75028720D01*
X118572204Y-74513476D01*
X118578245Y-74506866D01*
X118583203Y-74505764D01*
X118766797Y-74505764D01*
X118775070Y-74509191D01*
G37*
%TD.AperFunction*%
%TD*%
%TA.AperFunction,Conductor*%
%TO.N,/IO - AD9833 DDS/SPI_CLK*%
G36*
X106000070Y-60934191D02*
G01*
X106002796Y-60938476D01*
X106189608Y-61453709D01*
X106189207Y-61462655D01*
X106182597Y-61468696D01*
X106180929Y-61469165D01*
X105902320Y-61525530D01*
X105897680Y-61525530D01*
X105619070Y-61469165D01*
X105611641Y-61464165D01*
X105609922Y-61455377D01*
X105610387Y-61453720D01*
X105797204Y-60938476D01*
X105803245Y-60931866D01*
X105808203Y-60930764D01*
X105991797Y-60930764D01*
X106000070Y-60934191D01*
G37*
%TD.AperFunction*%
%TD*%
%TA.AperFunction,Conductor*%
%TO.N,+3.3VDC*%
G36*
X102837655Y-47860792D02*
G01*
X102843696Y-47867402D01*
X102844165Y-47869070D01*
X102900530Y-48147680D01*
X102900530Y-48152320D01*
X102844165Y-48430929D01*
X102839165Y-48438358D01*
X102830377Y-48440077D01*
X102828709Y-48439608D01*
X102313476Y-48252796D01*
X102306866Y-48246755D01*
X102305764Y-48241797D01*
X102305764Y-48058202D01*
X102309191Y-48049929D01*
X102313473Y-48047204D01*
X102828711Y-47860391D01*
X102837655Y-47860792D01*
G37*
%TD.AperFunction*%
%TD*%
%TA.AperFunction,Conductor*%
%TO.N,Net-(U501-IN-)*%
G36*
X85695912Y-71948353D02*
G01*
X85703369Y-71953305D01*
X85703409Y-71953365D01*
X85859602Y-72188786D01*
X85861321Y-72197574D01*
X85856321Y-72205003D01*
X85855432Y-72205538D01*
X85383199Y-72461733D01*
X85374293Y-72462666D01*
X85369347Y-72459722D01*
X85239538Y-72329913D01*
X85236111Y-72321640D01*
X85236933Y-72317333D01*
X85402180Y-71900511D01*
X85408414Y-71894084D01*
X85415304Y-71893343D01*
X85695912Y-71948353D01*
G37*
%TD.AperFunction*%
%TD*%
%TA.AperFunction,Conductor*%
%TO.N,Net-(Q500-B)*%
G36*
X80243998Y-84987169D02*
G01*
X80246813Y-84989245D01*
X80378137Y-85120569D01*
X80381564Y-85128842D01*
X80380967Y-85132531D01*
X79934494Y-86476496D01*
X79928634Y-86483266D01*
X79920537Y-86484154D01*
X79099054Y-86277535D01*
X79091867Y-86272193D01*
X79090409Y-86268348D01*
X78927622Y-85401681D01*
X78929463Y-85392920D01*
X78935661Y-85388348D01*
X80235083Y-84986341D01*
X80243998Y-84987169D01*
G37*
%TD.AperFunction*%
%TD*%
%TA.AperFunction,Conductor*%
%TO.N,-24VDC*%
G36*
X68003547Y-66540485D02*
G01*
X68007430Y-66548555D01*
X68007427Y-66549901D01*
X67919399Y-68030965D01*
X67915488Y-68039020D01*
X67913241Y-68040587D01*
X66090890Y-69015852D01*
X66081978Y-69016734D01*
X66077096Y-69013809D01*
X65523713Y-68460426D01*
X65520286Y-68452153D01*
X65521691Y-68446595D01*
X65746078Y-68030965D01*
X66504391Y-66626345D01*
X66511335Y-66620695D01*
X66514031Y-66620223D01*
X67995096Y-66537525D01*
X68003547Y-66540485D01*
G37*
%TD.AperFunction*%
%TD*%
%TA.AperFunction,Conductor*%
%TO.N,+3.3VDC*%
G36*
X99205277Y-49914902D02*
G01*
X99335097Y-50044722D01*
X99338524Y-50052995D01*
X99337422Y-50057953D01*
X99105193Y-50554373D01*
X99098583Y-50560414D01*
X99089637Y-50560013D01*
X99088127Y-50559164D01*
X98851265Y-50402015D01*
X98847984Y-50398734D01*
X98690835Y-50161872D01*
X98689116Y-50153084D01*
X98694116Y-50145655D01*
X98695621Y-50144808D01*
X99192048Y-49912576D01*
X99200992Y-49912176D01*
X99205277Y-49914902D01*
G37*
%TD.AperFunction*%
%TD*%
%TA.AperFunction,Conductor*%
%TO.N,/MCU - ESP32S3/ENABLE*%
G36*
X126355930Y-56155835D02*
G01*
X126363358Y-56160834D01*
X126365077Y-56169622D01*
X126364608Y-56171290D01*
X126177796Y-56686524D01*
X126171755Y-56693134D01*
X126166797Y-56694236D01*
X125983203Y-56694236D01*
X125974930Y-56690809D01*
X125972204Y-56686524D01*
X125924544Y-56555078D01*
X125785391Y-56171288D01*
X125785792Y-56162344D01*
X125792402Y-56156303D01*
X125794056Y-56155837D01*
X126072682Y-56099469D01*
X126077318Y-56099469D01*
X126355930Y-56155835D01*
G37*
%TD.AperFunction*%
%TD*%
%TA.AperFunction,Conductor*%
%TO.N,/IO - AD9833 DDS/DDS_OUT*%
G36*
X92937655Y-48460792D02*
G01*
X92943696Y-48467402D01*
X92944165Y-48469070D01*
X93000530Y-48747680D01*
X93000530Y-48752320D01*
X92944165Y-49030929D01*
X92939165Y-49038358D01*
X92930377Y-49040077D01*
X92928709Y-49039608D01*
X92413476Y-48852796D01*
X92406866Y-48846755D01*
X92405764Y-48841797D01*
X92405764Y-48658202D01*
X92409191Y-48649929D01*
X92413473Y-48647204D01*
X92928711Y-48460391D01*
X92937655Y-48460792D01*
G37*
%TD.AperFunction*%
%TD*%
M02*
